<svg width="49" height="48" viewBox="0 0 49 48" fill="none" xmlns="http://www.w3.org/2000/svg">
<path d="M31.3959 13.0068H17.7982C15.3539 13.0068 13.3652 14.9954 13.3652 17.4398V30.5615C13.3652 33.0059 15.3539 34.9945 17.7982 34.9945H31.3959C33.8402 34.9945 35.8289 33.0059 35.8289 30.5615V17.4398C35.8289 14.9954 33.8402 13.0068 31.3959 13.0068ZM34.1489 30.5615C34.1489 32.0795 32.9139 33.3145 31.3959 33.3145H17.7982C16.2802 33.3145 15.0452 32.0795 15.0452 30.5615V17.4398C15.0452 15.9218 16.2802 14.6868 17.7982 14.6868H31.3959C32.9139 14.6868 34.1489 15.9218 34.1489 17.4398V30.5615Z" fill="#F8DA64"/>
<path d="M18.627 6.80154V9.9861C18.627 10.45 19.003 10.8261 19.467 10.8261C19.931 10.8261 20.307 10.45 20.307 9.9861V6.80154C21.8021 6.42552 22.9124 5.07023 22.9124 3.46013C22.9124 1.56028 21.3669 0.0146484 19.467 0.0146484C17.5672 0.0146484 16.0215 1.56028 16.0215 3.46013C16.0215 5.07023 17.1319 6.42552 18.627 6.80154ZM19.467 1.69465C20.4405 1.69465 21.2324 2.48663 21.2324 3.46013C21.2324 4.43356 20.4405 5.22555 19.467 5.22555C18.4935 5.22555 17.7015 4.43356 17.7015 3.46013C17.7015 2.48663 18.4935 1.69465 19.467 1.69465Z" fill="#F8DA64"/>
<path d="M28.4971 6.80154V9.9861C28.4971 10.45 28.8732 10.8261 29.3371 10.8261C29.8011 10.8261 30.1771 10.45 30.1771 9.9861V6.80154C31.6722 6.42552 32.7826 5.07023 32.7826 3.46013C32.7826 1.56028 31.237 0.0146484 29.3371 0.0146484C27.4373 0.0146484 25.8916 1.56028 25.8916 3.46013C25.8916 5.07023 27.002 6.42552 28.4971 6.80154ZM29.3371 1.69465C30.3106 1.69465 31.1026 2.48663 31.1026 3.46013C31.1026 4.43356 30.3106 5.22555 29.3371 5.22555C28.3636 5.22555 27.5716 4.43356 27.5716 3.46013C27.5716 2.48663 28.3636 1.69465 29.3371 1.69465Z" fill="#F8DA64"/>
<path d="M30.3723 41.1994V38.0148C30.3723 37.5509 29.9963 37.1748 29.5323 37.1748C29.0684 37.1748 28.6923 37.5509 28.6923 38.0148V41.1994C27.1972 41.5754 26.0869 42.9307 26.0869 44.5408C26.0869 46.4406 27.6325 47.9863 29.5323 47.9863C31.4322 47.9863 32.9779 46.4406 32.9779 44.5408C32.9779 42.9307 31.8675 41.5754 30.3723 41.1994ZM29.5323 46.3063C28.5589 46.3063 27.7669 45.5143 27.7669 44.5408C27.7669 43.5673 28.5589 42.7754 29.5323 42.7754C30.5059 42.7754 31.2979 43.5673 31.2979 44.5408C31.2979 45.5143 30.5059 46.3063 29.5323 46.3063Z" fill="#F8DA64"/>
<path d="M20.5012 41.1994V38.0148C20.5012 37.5509 20.1252 37.1748 19.6612 37.1748C19.1973 37.1748 18.8212 37.5509 18.8212 38.0148V41.1994C17.3261 41.5754 16.2158 42.9307 16.2158 44.5408C16.2158 46.4406 17.7614 47.9863 19.6612 47.9863C21.5611 47.9863 23.1068 46.4406 23.1068 44.5408C23.1068 42.9307 21.9964 41.5754 20.5012 41.1994ZM19.6612 46.3063C18.6878 46.3063 17.8958 45.5143 17.8958 44.5408C17.8958 43.5673 18.6878 42.7754 19.6612 42.7754C20.6348 42.7754 21.4268 43.5673 21.4268 44.5408C21.4268 45.5143 20.6348 46.3063 19.6612 46.3063Z" fill="#F8DA64"/>
<path d="M38.5138 19.8079H41.6984C42.0744 21.303 43.4297 22.4134 45.0399 22.4134C46.9398 22.4134 48.4853 20.8677 48.4853 18.9679C48.4853 17.0681 46.9398 15.5225 45.0399 15.5225C43.4298 15.5225 42.0744 16.6328 41.6984 18.1279H38.5138C38.0499 18.1279 37.6738 18.504 37.6738 18.9679C37.6738 19.4318 38.0499 19.8079 38.5138 19.8079ZM45.0399 17.2025C46.0134 17.2025 46.8053 17.9944 46.8053 18.9679C46.8053 19.9414 46.0134 20.7334 45.0399 20.7334C44.0664 20.7334 43.2744 19.9414 43.2744 18.9679C43.2744 17.9944 44.0664 17.2025 45.0399 17.2025Z" fill="#F8DA64"/>
<path d="M45.0399 25.3926C43.4297 25.3926 42.0744 26.5029 41.6984 27.9981H38.5138C38.0499 27.9981 37.6738 28.3741 37.6738 28.8381C37.6738 29.302 38.0499 29.6781 38.5138 29.6781H41.6984C42.0744 31.1732 43.4297 32.2835 45.0399 32.2835C46.9398 32.2835 48.4853 30.7379 48.4853 28.8381C48.4853 26.9382 46.9398 25.3926 45.0399 25.3926ZM45.0399 30.6035C44.0664 30.6035 43.2744 29.8116 43.2744 28.8381C43.2744 27.8646 44.0664 27.0726 45.0399 27.0726C46.0134 27.0726 46.8053 27.8646 46.8053 28.8381C46.8053 29.8116 46.0134 30.6035 45.0399 30.6035Z" fill="#F8DA64"/>
<path d="M10.4852 28.1934H7.30061C6.92458 26.6983 5.56926 25.5879 3.95909 25.5879C2.05925 25.5879 0.513672 27.1335 0.513672 29.0334C0.513672 30.9332 2.05925 32.4788 3.95909 32.4788C5.56921 32.4788 6.92457 31.3684 7.30061 29.8734H10.4852C10.9491 29.8734 11.3252 29.4973 11.3252 29.0334C11.3252 28.5695 10.9491 28.1934 10.4852 28.1934ZM3.95909 30.7988C2.98566 30.7988 2.19367 30.0068 2.19367 29.0334C2.19367 28.0599 2.98566 27.2679 3.95909 27.2679C4.93264 27.2679 5.72463 28.0599 5.72463 29.0334C5.72463 30.0068 4.93264 30.7988 3.95909 30.7988Z" fill="#F8DA64"/>
<path d="M10.4852 18.3223H7.30061C6.92458 16.8272 5.56926 15.7168 3.95909 15.7168C2.05925 15.7168 0.513672 17.2624 0.513672 19.1623C0.513672 21.0621 2.05925 22.6078 3.95909 22.6078C5.56926 22.6078 6.92457 21.4974 7.30061 20.0023H10.4852C10.9491 20.0023 11.3252 19.6262 11.3252 19.1623C11.3252 18.6984 10.9491 18.3223 10.4852 18.3223ZM3.95909 20.9278C2.98566 20.9278 2.19367 20.1358 2.19367 19.1623C2.19367 18.1888 2.98566 17.3968 3.95909 17.3968C4.93264 17.3968 5.72463 18.1888 5.72463 19.1623C5.72463 20.1358 4.93264 20.9278 3.95909 20.9278Z" fill="#F8DA64"/>
<path d="M23.6667 19.4915C23.4376 18.9742 22.925 18.6406 22.3593 18.6406C21.7935 18.6406 21.281 18.9742 21.0519 19.4915L17.4275 27.6764C17.1713 28.255 17.5949 28.906 18.2277 28.906C18.5761 28.906 18.8914 28.6993 19.0303 28.3798L19.7195 26.7953C19.7576 26.7077 19.8441 26.651 19.9396 26.651H24.7719C24.8674 26.651 24.9539 26.7077 24.992 26.7953L25.6802 28.3778C25.8197 28.6985 26.1361 28.906 26.4858 28.906C27.121 28.906 27.5462 28.2526 27.289 27.6718L23.6667 19.4915ZM23.919 25.1406H20.8139C20.6411 25.1406 20.5249 24.9634 20.5937 24.8049L22.1464 21.2306C22.23 21.0381 22.503 21.0381 22.5866 21.2306L24.1392 24.8049C24.208 24.9634 24.0919 25.1406 23.919 25.1406Z" fill="#F8DA64"/>
<path d="M29.9687 18.6406C29.4666 18.6406 29.0596 19.0477 29.0596 19.5497V27.9968C29.0596 28.4989 29.4666 28.9059 29.9687 28.9059C30.4708 28.9059 30.8778 28.4989 30.8778 27.9968V19.5497C30.8778 19.0477 30.4708 18.6406 29.9687 18.6406Z" fill="#F8DA64"/>
</svg>
