<svg width="296" height="179" viewBox="0 0 296 179" fill="none" xmlns="http://www.w3.org/2000/svg">
<path d="M0 14C0 6.26801 6.26801 0 14 0H282C289.732 0 296 6.26801 296 14V179H0V14Z" fill="#3442D9"/>
<path d="M214.637 103.383H167.056V33.541H214.637V103.383ZM168.336 102.103H213.357V34.821H168.336V102.103Z" fill="#EBEBEB"/>
<path d="M191.468 35.1562H190.188V102.744H191.468V35.1562Z" fill="#EBEBEB"/>
<path d="M215.798 36.1289H165.896V37.9113H215.798V36.1289Z" fill="#EBEBEB"/>
<path d="M215.798 38.1348H165.896V39.9172H215.798V38.1348Z" fill="#EBEBEB"/>
<path d="M215.798 40.1387H165.896V41.9211H215.798V40.1387Z" fill="#EBEBEB"/>
<path d="M215.798 42.1445H165.896V43.9269H215.798V42.1445Z" fill="#EBEBEB"/>
<path d="M215.798 44.1504H165.896V45.9328H215.798V44.1504Z" fill="#EBEBEB"/>
<path d="M215.798 46.1543H165.896V47.9367H215.798V46.1543Z" fill="#EBEBEB"/>
<path d="M215.798 48.1602H165.896V49.9426H215.798V48.1602Z" fill="#EBEBEB"/>
<path d="M215.798 50.166H165.896V51.9484H215.798V50.166Z" fill="#EBEBEB"/>
<path d="M215.798 52.1699H165.896V53.9523H215.798V52.1699Z" fill="#EBEBEB"/>
<path d="M211.997 35.7676H211.677V76.8514H211.997V35.7676Z" fill="#263238"/>
<path d="M212.406 78.3429H211.27L211.554 76.7109H212.121L212.406 78.3429Z" fill="#263238"/>
<path d="M213.15 35.7676H212.83V92.0018H213.15V35.7676Z" fill="#263238"/>
<path d="M213.558 93.2023H212.422L212.707 91.5703H213.273L213.558 93.2023Z" fill="#263238"/>
<path d="M217.785 33.291H163.909V37.02H217.785V33.291Z" fill="#DBDBDB"/>
<path d="M89.1171 69.8953C89.1171 69.6278 89.1526 68.9145 89.1526 68.6112C89.1526 67.3091 88.689 66.7203 87.4762 66.6848C86.9053 66.6493 86.5664 66.3104 86.5664 65.8288C86.5664 65.3469 86.9053 65.0083 87.4762 64.9725C88.689 64.919 89.1526 64.3481 89.1526 63.0281C89.1526 62.7251 89.1171 62.0115 89.1171 61.744C89.1171 60.0137 89.8483 58.9078 92.6131 58.3014C93.1661 58.1763 93.5939 58.5155 93.5939 59.0326C93.5939 59.4608 93.3085 59.6928 93.0944 59.7638C91.3645 60.2989 91.1142 60.8518 91.1142 62.0646C91.1142 62.4214 91.1501 63.0099 91.1501 63.3846C91.1501 64.776 90.4723 65.4537 89.2947 65.8285C90.4899 66.2208 91.1501 66.8806 91.1501 68.272C91.1501 68.6467 91.1142 69.2352 91.1142 69.592C91.1142 70.8048 91.3642 71.3581 93.0944 71.8931C93.3085 71.9645 93.5939 72.1961 93.5939 72.6243C93.5939 73.1417 93.1658 73.4806 92.6131 73.3558C89.8483 72.7494 89.1171 71.6435 89.1171 69.8953Z" fill="#EBEBEB"/>
<path d="M99.5696 61.744C99.5696 62.0115 99.5341 62.7248 99.5341 63.0281C99.5341 64.3481 100.016 64.919 101.229 64.9725C101.782 65.008 102.121 65.3469 102.121 65.8288C102.121 66.3104 101.781 66.6493 101.229 66.6848C100.016 66.7203 99.5341 67.3091 99.5341 68.6112C99.5341 68.9142 99.5696 69.6278 99.5696 69.8953C99.5696 71.6435 98.8384 72.7494 96.0736 73.3558C95.5206 73.4806 95.0928 73.1417 95.0928 72.6243C95.0928 72.1961 95.3782 71.9641 95.6099 71.8931C97.3225 71.3581 97.5721 70.8051 97.5721 69.592C97.5721 69.2352 97.5366 68.6467 97.5366 68.272C97.5366 66.8806 98.2144 66.2029 99.3917 65.8285C98.1965 65.4358 97.5366 64.776 97.5366 63.3846C97.5366 63.0099 97.5721 62.4214 97.5721 62.0646C97.5721 60.8518 97.3225 60.2985 95.6099 59.7638C95.3779 59.6925 95.0928 59.4608 95.0928 59.0326C95.0928 58.5155 95.5209 58.1763 96.0736 58.3014C98.8384 58.9078 99.5696 60.0137 99.5696 61.744Z" fill="#EBEBEB"/>
<path d="M136.348 44.9987C136.763 45.4304 136.763 46.0778 136.348 46.4931C136.132 46.6922 135.883 46.792 135.618 46.792C135.335 46.792 135.07 46.6925 134.854 46.4931L130.189 41.7613C130.139 41.7447 130.122 41.7114 130.105 41.6618C130.089 41.6451 130.055 41.6285 130.055 41.6285C130.022 41.5786 130.022 41.5456 130.006 41.4957C129.973 41.4791 129.956 41.4458 129.956 41.4291C129.939 41.3959 129.939 41.3459 129.923 41.3296C129.923 41.2797 129.889 41.2631 129.889 41.2464C129.889 41.1965 129.889 41.1635 129.889 41.1303C129.889 41.097 129.873 41.0803 129.873 41.0304C129.873 41.0141 129.889 40.9642 129.889 40.9475C129.889 40.9143 129.889 40.8647 129.889 40.8314C129.889 40.7981 129.923 40.7815 129.923 40.7648C129.939 40.7149 129.939 40.6819 129.956 40.632C129.956 40.6154 129.973 40.6154 129.973 40.5987C130.006 40.5488 130.022 40.4826 130.055 40.4493C130.055 40.4493 130.055 40.416 130.088 40.416C130.105 40.3827 130.138 40.3331 130.188 40.2998L134.853 35.5683C135.268 35.1699 135.949 35.1699 136.347 35.5683C136.762 35.9834 136.762 36.6477 136.347 37.0624L132.412 41.0304L136.348 44.9987Z" fill="#EBEBEB"/>
<path d="M140.582 45.5299L144.649 35.8506C144.849 35.3859 145.38 35.1699 145.862 35.369C146.31 35.5517 146.525 36.0995 146.326 36.5479L142.259 46.2439C142.109 46.5923 141.761 46.7917 141.412 46.7917C141.312 46.7917 141.18 46.7754 141.08 46.7255C140.598 46.5424 140.382 45.9949 140.582 45.5299Z" fill="#EBEBEB"/>
<path d="M154.361 41.6285C154.361 41.6285 154.361 41.6451 154.344 41.6451C154.311 41.6781 154.278 41.728 154.228 41.7613L149.563 46.4931C149.364 46.6922 149.081 46.792 148.816 46.792C148.534 46.792 148.285 46.6925 148.069 46.4931C147.654 46.0778 147.654 45.4307 148.069 44.9987L152.004 41.0304L148.069 37.0624C147.654 36.6474 147.654 35.9831 148.069 35.5683C148.467 35.1699 149.148 35.1699 149.563 35.5683L154.228 40.2998C154.278 40.3331 154.311 40.3831 154.344 40.416C154.361 40.416 154.361 40.4493 154.361 40.4493C154.394 40.5159 154.427 40.5491 154.444 40.5987C154.444 40.6151 154.461 40.6151 154.461 40.632C154.477 40.6819 154.477 40.7149 154.511 40.7815C154.511 40.7981 154.527 40.7981 154.527 40.8314C154.527 40.8647 154.527 40.9146 154.527 40.9475C154.527 40.9642 154.543 41.0141 154.543 41.0304C154.543 41.0471 154.527 41.097 154.527 41.1136C154.527 41.1635 154.527 41.1965 154.527 41.2464C154.527 41.263 154.511 41.2631 154.511 41.2797C154.477 41.3459 154.477 41.3958 154.461 41.4291C154.461 41.4458 154.444 41.4458 154.444 41.4791C154.428 41.5123 154.394 41.5622 154.361 41.6285Z" fill="#EBEBEB"/>
<path d="M148 156.674C183.618 156.674 212.492 154.372 212.492 151.533C212.492 148.694 183.618 146.393 148 146.393C112.381 146.393 83.5068 148.694 83.5068 151.533C83.5068 154.372 112.381 156.674 148 156.674Z" fill="#EBEBEB"/>
<path d="M208.813 145.313H170.055L177.783 100.359H206.765L208.813 145.313Z" fill="#DBDBDB"/>
<path d="M208.813 145.313H205.415L203.508 100.359H206.765L208.813 145.313Z" fill="#A6A6A6"/>
<path d="M81.0371 145.314L97.7779 145.236L114.518 145.208L148 145.154L181.482 145.207L198.222 145.236L214.963 145.314L198.222 145.392L181.482 145.42L148 145.473L114.518 145.42L97.7779 145.392L81.0371 145.314Z" fill="#263238"/>
<path d="M117.42 33.291H85.6182V53.5774H117.42V33.291Z" fill="white"/>
<path d="M117.621 53.7785H85.417V33.0898H117.621V53.7785ZM85.8189 53.3766H117.219V33.4921H85.8189V53.3766Z" fill="#EBEBEB"/>
<path d="M117.42 33.291H85.6182V37.1275H117.42V33.291Z" fill="#FFC727"/>
<path d="M117.621 37.3286H85.417V33.0898H117.621V37.3286ZM85.8189 36.9263H117.219V33.4921H85.8189V36.9263Z" fill="#EBEBEB"/>
<path d="M89.219 35.2369C89.219 35.77 88.7866 36.2024 88.2535 36.2024C87.7201 36.2024 87.2881 35.77 87.2881 35.2369C87.2881 34.7038 87.7204 34.2715 88.2535 34.2715C88.787 34.2715 89.219 34.7038 89.219 35.2369Z" fill="#A6A6A6"/>
<path d="M93.1623 35.2369C93.1623 35.77 92.73 36.2024 92.1969 36.2024C91.6638 36.2024 91.2314 35.77 91.2314 35.2369C91.2314 34.7038 91.6638 34.2715 92.1969 34.2715C92.73 34.2715 93.1623 34.7038 93.1623 35.2369Z" fill="#EBEBEB"/>
<path d="M97.1047 35.2369C97.1047 35.77 96.6724 36.2024 96.1393 36.2024C95.6061 36.2024 95.1738 35.77 95.1738 35.2369C95.1738 34.7038 95.6061 34.2715 96.1393 34.2715C96.6724 34.2715 97.1047 34.7038 97.1047 35.2369Z" fill="white"/>
<path d="M91.1064 44.7136C91.117 42.5981 92.8911 40.8777 95.0277 40.8672C95.9682 40.8672 96.8229 41.1769 97.4962 41.7005C97.7525 41.9142 97.7954 42.288 97.6031 42.5552C97.3896 42.8224 96.9941 42.8653 96.7484 42.6726C96.278 42.288 95.6904 42.0851 95.0277 42.0851C94.2904 42.0851 93.6066 42.3843 93.1045 42.8544C92.6236 43.3459 92.3244 43.9872 92.3244 44.7136C92.3244 45.4403 92.6236 46.1027 93.1045 46.5731C93.6066 47.0432 94.2904 47.3424 95.0277 47.3424C95.6904 47.3424 96.2674 47.1395 96.7484 46.7549C96.9941 46.5734 97.3893 46.616 97.6031 46.8723C97.7954 47.1395 97.7525 47.5241 97.4962 47.727C96.8229 48.2505 95.9682 48.5603 95.0277 48.5603C92.8911 48.5603 91.1173 46.8403 91.1064 44.7136Z" fill="#EBEBEB"/>
<path d="M99.4409 46.7011C99.6333 46.4659 99.9859 46.4339 100.221 46.6262C100.691 47.0109 101.503 47.4595 102.262 47.4489C102.796 47.4489 103.277 47.2889 103.598 47.0537C103.918 46.8189 104.057 46.5517 104.057 46.2845C104.057 46.1456 104.025 46.0493 103.961 45.9427C103.897 45.8358 103.801 45.7289 103.641 45.6221C103.331 45.4189 102.807 45.2374 102.177 45.1197H102.155C101.653 45.0233 101.183 44.8953 100.777 44.703C100.371 44.5107 100.018 44.2435 99.7833 43.8697C99.6227 43.6131 99.5376 43.3142 99.5376 42.9936C99.5376 42.3526 99.9008 41.7968 100.392 41.4336C100.894 41.0704 101.547 40.8672 102.241 40.8672C103.267 40.8672 104.026 41.3696 104.571 41.7219C104.816 41.8928 104.891 42.2349 104.72 42.4806C104.559 42.7373 104.218 42.8118 103.961 42.6409C103.416 42.2777 102.893 41.9571 102.241 41.9571C101.76 41.9571 101.332 42.1065 101.044 42.3203C100.756 42.5341 100.638 42.7693 100.638 42.9936C100.638 43.1219 100.66 43.2073 100.713 43.2928C100.767 43.3785 100.863 43.4745 101.002 43.5709C101.279 43.7632 101.76 43.9341 102.337 44.0409H102.358C102.904 44.1478 103.406 44.2867 103.833 44.4896C104.271 44.7033 104.656 44.9811 104.901 45.3766C105.062 45.6329 105.158 45.9536 105.158 46.2848C105.158 46.9686 104.773 47.5565 104.239 47.9411C103.715 48.3257 103.021 48.5501 102.262 48.5501C101.108 48.5392 100.136 47.9625 99.5267 47.4816C99.2912 47.2889 99.2592 46.9363 99.4409 46.7011Z" fill="#EBEBEB"/>
<path d="M106.461 46.7011C106.653 46.4659 107.006 46.4339 107.241 46.6262C107.711 47.0109 108.523 47.4595 109.281 47.4489C109.816 47.4489 110.296 47.2889 110.617 47.0537C110.938 46.8189 111.077 46.5517 111.077 46.2845C111.077 46.1456 111.045 46.0493 110.981 45.9427C110.917 45.8358 110.82 45.7289 110.66 45.6221C110.35 45.4189 109.827 45.2374 109.196 45.1197H109.175C108.672 45.0233 108.202 44.8953 107.796 44.703C107.39 44.5107 107.038 44.2435 106.803 43.8697C106.642 43.6131 106.557 43.3142 106.557 42.9936C106.557 42.3526 106.92 41.7968 107.412 41.4336C107.914 41.0704 108.566 40.8672 109.26 40.8672C110.286 40.8672 111.045 41.3696 111.59 41.7219C111.836 41.8928 111.91 42.2349 111.739 42.4806C111.579 42.7373 111.237 42.8118 110.981 42.6409C110.436 42.2777 109.912 41.9571 109.26 41.9571C108.779 41.9571 108.352 42.1065 108.064 42.3203C107.776 42.5341 107.658 42.7693 107.658 42.9936C107.658 43.1219 107.68 43.2073 107.733 43.2928C107.786 43.3785 107.882 43.4745 108.021 43.5709C108.299 43.7632 108.78 43.9341 109.357 44.0409H109.378C109.923 44.1478 110.425 44.2867 110.853 44.4896C111.291 44.7033 111.675 44.9811 111.921 45.3766C112.081 45.6329 112.177 45.9536 112.177 46.2848C112.177 46.9686 111.793 47.5565 111.258 47.9411C110.735 48.3257 110.04 48.5501 109.281 48.5501C108.128 48.5392 107.155 47.9625 106.546 47.4816C106.311 47.2889 106.279 46.9363 106.461 46.7011Z" fill="#EBEBEB"/>
<path d="M169.947 91.334H138.146V111.62H169.947V91.334Z" fill="white"/>
<path d="M170.148 111.821H137.944V91.1328H170.148V111.821ZM138.346 111.419H169.746V91.5347H138.346V111.419Z" fill="#EBEBEB"/>
<path d="M169.947 91.334H138.146V95.1705H169.947V91.334Z" fill="#FFC727"/>
<path d="M170.148 95.3712H137.944V91.1328H170.148V95.3712ZM138.346 94.9693H169.746V91.5351H138.346V94.9693Z" fill="#EBEBEB"/>
<path d="M141.747 93.2799C141.747 93.813 141.314 94.2453 140.781 94.2453C140.247 94.2453 139.815 93.813 139.815 93.2799C139.815 92.7465 140.248 92.3145 140.781 92.3145C141.314 92.3145 141.747 92.7468 141.747 93.2799Z" fill="#A6A6A6"/>
<path d="M145.69 93.2799C145.69 93.813 145.257 94.2453 144.724 94.2453C144.191 94.2453 143.759 93.813 143.759 93.2799C143.759 92.7465 144.191 92.3145 144.724 92.3145C145.257 92.3145 145.69 92.7468 145.69 93.2799Z" fill="#EBEBEB"/>
<path d="M149.632 93.2799C149.632 93.813 149.199 94.2453 148.666 94.2453C148.133 94.2453 147.7 93.813 147.7 93.2799C147.7 92.7465 148.133 92.3145 148.666 92.3145C149.199 92.3145 149.632 92.7468 149.632 93.2799Z" fill="white"/>
<path d="M144.083 102.757C144.094 100.641 145.867 98.9207 148.004 98.9102C148.944 98.9102 149.799 99.2202 150.473 99.7434C150.729 99.9572 150.772 100.331 150.58 100.598C150.366 100.865 149.97 100.908 149.725 100.716C149.255 100.331 148.667 100.128 148.004 100.128C147.267 100.128 146.583 100.427 146.081 100.897C145.6 101.389 145.301 102.03 145.301 102.756C145.301 103.483 145.6 104.145 146.081 104.616C146.583 105.086 147.267 105.385 148.004 105.385C148.667 105.385 149.244 105.182 149.725 104.797C149.97 104.616 150.366 104.658 150.58 104.915C150.772 105.182 150.729 105.566 150.473 105.769C149.799 106.293 148.944 106.603 148.004 106.603C145.867 106.603 144.094 104.883 144.083 102.757Z" fill="#EBEBEB"/>
<path d="M154.329 103.429H152.812C152.492 103.429 152.225 103.173 152.225 102.842C152.225 102.521 152.492 102.254 152.812 102.254H154.329V100.769C154.329 100.427 154.596 100.16 154.939 100.16C155.27 100.16 155.547 100.427 155.547 100.769V102.254H157.065C157.385 102.254 157.652 102.521 157.652 102.842C157.652 103.173 157.385 103.429 157.065 103.429H155.547V104.915C155.547 105.256 155.27 105.524 154.939 105.524C154.596 105.524 154.329 105.256 154.329 104.915V103.429Z" fill="#EBEBEB"/>
<path d="M160.953 103.429H159.436C159.116 103.429 158.849 103.173 158.849 102.842C158.849 102.521 159.116 102.254 159.436 102.254H160.953V100.769C160.953 100.427 161.22 100.16 161.562 100.16C161.893 100.16 162.172 100.427 162.172 100.769V102.254H163.689C164.009 102.254 164.276 102.521 164.276 102.842C164.276 103.173 164.009 103.429 163.689 103.429H162.172V104.915C162.172 105.256 161.893 105.524 161.562 105.524C161.22 105.524 160.953 105.256 160.953 104.915V103.429Z" fill="#EBEBEB"/>
<path d="M155.114 52.3555H102.077V95.9116H155.114V52.3555Z" fill="white"/>
<path d="M155.314 96.1127H101.876V52.1543H155.314V96.1127ZM102.278 95.7105H154.912V52.5565H102.278V95.7105Z" fill="#EBEBEB"/>
<path d="M155.114 52.3555H102.077V56.192H155.114V52.3555Z" fill="#FFC727"/>
<path d="M155.314 56.3927H101.876V52.1543H155.314V56.3927ZM102.278 55.9908H154.912V52.5565H102.278V55.9908Z" fill="#EBEBEB"/>
<path d="M105.678 54.3014C105.678 54.8348 105.246 55.2668 104.713 55.2668C104.179 55.2668 103.747 54.8345 103.747 54.3014C103.747 53.7683 104.179 53.3359 104.713 53.3359C105.246 53.3356 105.678 53.7679 105.678 54.3014Z" fill="#A6A6A6"/>
<path d="M109.621 54.3014C109.621 54.8348 109.189 55.2668 108.656 55.2668C108.123 55.2668 107.69 54.8345 107.69 54.3014C107.69 53.7683 108.123 53.3359 108.656 53.3359C109.189 53.3356 109.621 53.7679 109.621 54.3014Z" fill="#EBEBEB"/>
<path d="M113.564 54.3014C113.564 54.8348 113.132 55.2668 112.598 55.2668C112.065 55.2668 111.633 54.8345 111.633 54.3014C111.633 53.7683 112.065 53.3359 112.598 53.3359C113.132 53.3356 113.564 53.7679 113.564 54.3014Z" fill="white"/>
<path d="M108.244 63.8223H106.192V64.5714H108.244V63.8223Z" fill="#EBEBEB"/>
<path d="M133.266 63.8223H109.738V64.5714H133.266V63.8223Z" fill="#EBEBEB"/>
<path d="M138.422 63.8223H134.526V64.5714H138.422V63.8223Z" fill="#FFC727"/>
<path d="M147.334 73.8477H143.438V74.5968H147.334V73.8477Z" fill="#EBEBEB"/>
<path d="M146.005 63.8223H139.27V64.5714H146.005V63.8223Z" fill="#A6A6A6"/>
<path d="M110.294 65.8281H108.243V66.5772H110.294V65.8281Z" fill="#EBEBEB"/>
<path d="M127.179 65.8281H111.738V66.5772H127.179V65.8281Z" fill="#A6A6A6"/>
<path d="M142.512 73.8477H133.472V74.5968H142.512V73.8477Z" fill="#A6A6A6"/>
<path d="M124.486 71.8438H109.738V72.5929H124.486V71.8438Z" fill="#A6A6A6"/>
<path d="M122.085 67.834H111.738V68.5831H122.085V67.834Z" fill="#FFC727"/>
<path d="M141.078 69.8379H137.132V70.587H141.078V69.8379Z" fill="#A6A6A6"/>
<path d="M139.755 67.834H123.232V68.5831H139.755V67.834Z" fill="#A6A6A6"/>
<path d="M129.461 73.8477H109.738V74.5968H129.461V73.8477Z" fill="#FFC727"/>
<path d="M149.523 65.8281H138.835V66.5772H149.523V65.8281Z" fill="#FFC727"/>
<path d="M137.988 65.8281H128.147V66.5772H137.988V65.8281Z" fill="#EBEBEB"/>
<path d="M147.172 67.834H140.531V68.5831H147.172V67.834Z" fill="#EBEBEB"/>
<path d="M110.294 67.834H108.243V68.5831H110.294V67.834Z" fill="#EBEBEB"/>
<path d="M108.244 69.8379H106.192V70.587H108.244V69.8379Z" fill="#A6A6A6"/>
<path d="M121.861 69.8379H109.738V70.587H121.861V69.8379Z" fill="#EBEBEB"/>
<path d="M123.861 75.8535H111.738V76.6026H123.861V75.8535Z" fill="#EBEBEB"/>
<path d="M143.557 77.8594H134.342V78.6085H143.557V77.8594Z" fill="#FFC727"/>
<path d="M137 75.8535H124.844V76.6026H137V75.8535Z" fill="#FFC727"/>
<path d="M133.282 77.8594H122.7V78.6085H133.282V77.8594Z" fill="#EBEBEB"/>
<path d="M115.248 77.8594H111.738V78.6085H115.248V77.8594Z" fill="#A6A6A6"/>
<path d="M138.423 71.8438H125.321V72.5929H138.423V71.8438Z" fill="#EBEBEB"/>
<path d="M147.606 71.8438H139.27V72.5929H147.606V71.8438Z" fill="#FFC727"/>
<path d="M136.179 69.8379H123.093V70.587H136.179V69.8379Z" fill="#FFC727"/>
<path d="M108.244 71.8438H106.192V72.5929H108.244V71.8438Z" fill="#EBEBEB"/>
<path d="M108.244 73.8477H106.192V74.5968H108.244V73.8477Z" fill="#EBEBEB"/>
<path d="M110.294 75.8535H108.243V76.6026H110.294V75.8535Z" fill="#A6A6A6"/>
<path d="M110.294 77.8594H108.243V78.6085H110.294V77.8594Z" fill="#EBEBEB"/>
<path d="M108.244 79.5391H106.192V80.2882H108.244V79.5391Z" fill="#EBEBEB"/>
<path d="M133.266 79.5391H109.738V80.2882H133.266V79.5391Z" fill="#EBEBEB"/>
<path d="M110.294 81.543H108.243V82.2921H110.294V81.543Z" fill="#EBEBEB"/>
<path d="M127.179 81.543H111.738V82.2921H127.179V81.543Z" fill="#A6A6A6"/>
<path d="M124.486 87.5586H109.738V88.3077H124.486V87.5586Z" fill="#A6A6A6"/>
<path d="M122.085 83.5488H111.738V84.2979H122.085V83.5488Z" fill="#FFC727"/>
<path d="M139.755 83.5488H123.232V84.2979H139.755V83.5488Z" fill="#A6A6A6"/>
<path d="M129.461 89.5645H109.738V90.3136H129.461V89.5645Z" fill="#FFC727"/>
<path d="M149.523 81.543H138.835V82.2921H149.523V81.543Z" fill="#FFC727"/>
<path d="M137.988 81.543H128.147V82.2921H137.988V81.543Z" fill="#EBEBEB"/>
<path d="M147.172 83.5488H140.531V84.2979H147.172V83.5488Z" fill="#EBEBEB"/>
<path d="M110.294 83.5488H108.243V84.2979H110.294V83.5488Z" fill="#EBEBEB"/>
<path d="M108.244 85.5547H106.192V86.3038H108.244V85.5547Z" fill="#A6A6A6"/>
<path d="M121.861 85.5547H109.738V86.3038H121.861V85.5547Z" fill="#EBEBEB"/>
<path d="M138.423 87.5586H125.321V88.3077H138.423V87.5586Z" fill="#EBEBEB"/>
<path d="M136.179 85.5547H123.093V86.3038H136.179V85.5547Z" fill="#FFC727"/>
<path d="M108.244 87.5586H106.192V88.3077H108.244V87.5586Z" fill="#EBEBEB"/>
<path d="M107.459 61.8488C107.53 61.9221 107.53 62.0319 107.459 62.1023C107.423 62.1359 107.381 62.1528 107.336 62.1528C107.288 62.1528 107.243 62.1359 107.206 62.1023L106.415 61.3C106.406 61.2971 106.404 61.2917 106.401 61.2831C106.398 61.2802 106.392 61.2773 106.392 61.2773C106.387 61.269 106.387 61.2632 106.384 61.2549C106.378 61.252 106.375 61.2466 106.375 61.2437C106.373 61.2379 106.373 61.2296 106.37 61.2267C106.37 61.2184 106.364 61.2155 106.364 61.2127C106.364 61.2043 106.364 61.1986 106.364 61.1931C106.364 61.1874 106.361 61.1848 106.361 61.1762C106.361 61.1733 106.364 61.1647 106.364 61.1621C106.364 61.1563 106.364 61.148 106.364 61.1426C106.364 61.1368 106.37 61.1343 106.37 61.1311C106.373 61.1227 106.373 61.117 106.375 61.1083C106.375 61.1055 106.378 61.1055 106.378 61.1029C106.384 61.0946 106.387 61.0831 106.392 61.0776C106.392 61.0776 106.392 61.0719 106.398 61.0719C106.401 61.0661 106.406 61.0578 106.415 61.0523L107.206 60.2501C107.277 60.1823 107.392 60.1823 107.459 60.2501C107.53 60.3205 107.53 60.4331 107.459 60.5035L106.792 61.1765L107.459 61.8488Z" fill="#FFC727"/>
<path d="M108.177 61.939L108.867 60.2974C108.9 60.2186 108.99 60.1818 109.072 60.2158C109.148 60.2465 109.185 60.3396 109.151 60.4154L108.461 62.0596C108.436 62.1188 108.377 62.1524 108.318 62.1524C108.301 62.1524 108.278 62.1495 108.262 62.1412C108.179 62.1108 108.143 62.018 108.177 61.939Z" fill="#FFC727"/>
<path d="M110.513 61.2779C110.513 61.2779 110.513 61.2808 110.51 61.2808C110.504 61.2866 110.498 61.2949 110.49 61.3007L109.699 62.1029C109.665 62.1365 109.617 62.1535 109.572 62.1535C109.524 62.1535 109.482 62.1365 109.446 62.1029C109.375 62.0325 109.375 61.9227 109.446 61.8495L110.112 61.1765L109.446 60.5035C109.375 60.4331 109.375 60.3205 109.446 60.2501C109.513 60.1823 109.629 60.1823 109.699 60.2501L110.49 61.0523C110.498 61.0578 110.504 61.0664 110.51 61.0719C110.513 61.0719 110.513 61.0776 110.513 61.0776C110.518 61.0888 110.524 61.0946 110.527 61.1029C110.527 61.1058 110.529 61.1058 110.529 61.1083C110.532 61.117 110.532 61.1224 110.538 61.1339C110.538 61.1365 110.54 61.1365 110.54 61.1423C110.54 61.1477 110.54 61.156 110.54 61.1618C110.54 61.1643 110.544 61.173 110.544 61.1759C110.544 61.1787 110.54 61.1871 110.54 61.1899C110.54 61.1983 110.54 61.204 110.54 61.2127C110.54 61.2155 110.538 61.2155 110.538 61.2184C110.532 61.2296 110.532 61.2379 110.529 61.2437C110.529 61.2466 110.527 61.2466 110.527 61.252C110.524 61.2584 110.518 61.2671 110.513 61.2779Z" fill="#FFC727"/>
<path d="M161.162 46.2461H139.497V54.2669H161.162V46.2461Z" fill="#455A64"/>
<path d="M142.623 51.9202V48.3628C142.623 48.1759 142.768 48.0312 142.955 48.0312C143.142 48.0312 143.292 48.1759 143.292 48.3628V49.8098H144.854V48.3628C144.854 48.1759 144.999 48.0312 145.186 48.0312C145.373 48.0312 145.524 48.1759 145.524 48.3628V51.9202C145.524 52.1074 145.373 52.2521 145.186 52.2521C144.999 52.2521 144.854 52.1074 144.854 51.9202V50.4732H143.292V51.9202C143.292 52.1074 143.142 52.2521 142.955 52.2521C142.768 52.2521 142.623 52.1074 142.623 51.9202Z" fill="white"/>
<path d="M149.479 48.7007H148.52V51.9202C148.52 52.1074 148.375 52.2521 148.188 52.2521C148.007 52.2521 147.857 52.1074 147.857 51.9202V48.7007H146.904C146.717 48.7007 146.572 48.5439 146.572 48.3628C146.572 48.1759 146.717 48.0312 146.904 48.0312H149.479C149.66 48.0312 149.81 48.1759 149.81 48.3628C149.81 48.5439 149.659 48.7007 149.479 48.7007Z" fill="white"/>
<path d="M154.435 48.3628V51.9202C154.435 52.1013 154.278 52.2521 154.097 52.2521C153.91 52.2521 153.766 52.1013 153.766 51.9202V49.382L152.897 50.5881C152.831 50.6783 152.734 50.7266 152.626 50.7266H152.62H152.614C152.505 50.7266 152.403 50.6783 152.337 50.5881L151.474 49.382V51.9202C151.474 52.1013 151.323 52.2521 151.137 52.2521C150.955 52.2521 150.805 52.1013 150.805 51.9202V48.3628C150.805 48.182 150.955 48.0312 151.137 48.0312C151.143 48.0312 151.143 48.0312 151.154 48.0312C151.251 48.0312 151.359 48.0796 151.42 48.1698L152.62 49.8341L153.819 48.1698C153.886 48.0796 153.982 48.0312 154.091 48.0312C154.091 48.0312 154.091 48.0312 154.097 48.0312C154.278 48.0373 154.435 48.182 154.435 48.3628Z" fill="white"/>
<path d="M155.895 51.9202V48.3628C155.895 48.182 156.039 48.0312 156.226 48.0312C156.413 48.0312 156.564 48.182 156.564 48.3628V51.5826H158.198C158.373 51.5826 158.529 51.7333 158.529 51.9202C158.529 52.1013 158.373 52.2521 158.198 52.2521H156.244C156.232 52.2521 156.232 52.2521 156.232 52.2521C156.226 52.2521 156.226 52.2521 156.226 52.2521C156.039 52.2521 155.895 52.1013 155.895 51.9202Z" fill="white"/>
<path d="M103.271 76.8926H85.417V84.9134H103.271V76.8926Z" fill="#455A64"/>
<path d="M90.6472 81.5165C90.7476 81.824 91.0385 82.0476 91.3794 82.0476C91.8041 82.0476 92.1506 81.7011 92.1506 81.2819V79.0633C92.1506 78.8901 92.2903 78.7559 92.4635 78.7559C92.6312 78.7559 92.7709 78.8901 92.7709 79.0633V81.2819C92.7709 82.0476 92.145 82.6676 91.3797 82.6676C90.7649 82.6676 90.2397 82.2653 90.061 81.7063C90.0054 81.5386 90.1 81.3654 90.2566 81.3206C90.4236 81.265 90.5968 81.3544 90.6472 81.5165Z" fill="white"/>
<path d="M93.5492 81.6951C93.6496 81.5723 93.8342 81.5554 93.957 81.6561C94.203 81.8573 94.6278 82.0919 95.0246 82.0864C95.3041 82.0864 95.5553 82.0025 95.7229 81.8797C95.8906 81.7565 95.9631 81.6168 95.9631 81.4774C95.9631 81.4049 95.9462 81.3545 95.9127 81.2986C95.8793 81.2431 95.8289 81.1868 95.7451 81.1309C95.5832 81.025 95.3093 80.9298 94.9794 80.8684H94.9683C94.7058 80.818 94.4598 80.751 94.2476 80.6503C94.0353 80.5499 93.8508 80.4101 93.7279 80.2145C93.6441 80.0806 93.5995 79.924 93.5995 79.7563C93.5995 79.4209 93.7897 79.1304 94.0467 78.9406C94.3096 78.7508 94.6502 78.6445 95.0135 78.6445C95.5501 78.6445 95.9465 78.9071 96.2315 79.0917C96.3602 79.1811 96.3992 79.3598 96.3099 79.4885C96.226 79.6224 96.0473 79.6617 95.9131 79.5723C95.6281 79.3822 95.3544 79.2145 95.0135 79.2145C94.762 79.2145 94.5384 79.2929 94.3876 79.4047C94.2368 79.5164 94.1754 79.6393 94.1754 79.7569C94.1754 79.8242 94.1865 79.8687 94.2144 79.9136C94.2424 79.9581 94.2927 80.0085 94.3652 80.0588C94.5105 80.1592 94.762 80.2486 95.0639 80.3048H95.0749C95.3596 80.3607 95.6225 80.4332 95.8458 80.5395C96.0749 80.6513 96.2764 80.7965 96.4048 81.0032C96.4886 81.1374 96.5386 81.3051 96.5386 81.4783C96.5386 81.8358 96.3375 82.1432 96.058 82.3444C95.784 82.5459 95.421 82.6629 95.0242 82.6629C94.4208 82.6574 93.9122 82.3558 93.5937 82.1042C93.4712 82.0022 93.4543 81.8183 93.5492 81.6951Z" fill="white"/>
<path d="M155.894 76.3705L157.249 79.6415L155.896 80.2015L154.534 76.9081L152.298 78.6428V69.4277L158.748 75.9445L155.894 76.3705Z" fill="#263238"/>
<path d="M152.298 68.4228C152.233 68.2683 152.219 68.114 152.216 67.9595C152.218 67.8049 152.233 67.6507 152.298 67.4961C152.363 67.6507 152.377 67.8049 152.38 67.9595C152.377 68.114 152.362 68.2686 152.298 68.4228Z" fill="#263238"/>
<path d="M151.499 68.753C151.344 68.6893 151.225 68.5905 151.114 68.4833C151.006 68.3722 150.907 68.2529 150.844 68.0977C150.999 68.161 151.118 68.2599 151.229 68.3674C151.337 68.4788 151.435 68.5981 151.499 68.753Z" fill="#263238"/>
<path d="M151.169 69.5507C151.015 69.6153 150.86 69.6297 150.706 69.6326C150.551 69.6303 150.397 69.6156 150.242 69.5507C150.396 69.4857 150.551 69.4713 150.706 69.4688C150.86 69.4716 151.014 69.486 151.169 69.5507Z" fill="#263238"/>
<path d="M151.499 70.3496C151.435 70.5045 151.337 70.6238 151.229 70.7352C151.118 70.8427 150.999 70.9416 150.844 71.005C150.907 70.8498 151.006 70.7304 151.114 70.6194C151.225 70.5119 151.344 70.413 151.499 70.3496Z" fill="#263238"/>
<path d="M153.426 69.5507C153.58 69.486 153.735 69.4716 153.889 69.4688C154.044 69.4713 154.198 69.4857 154.352 69.5507C154.198 69.6156 154.044 69.6303 153.889 69.6326C153.735 69.6297 153.58 69.6153 153.426 69.5507Z" fill="#263238"/>
<path d="M153.096 68.753C153.159 68.5981 153.258 68.4788 153.365 68.3674C153.477 68.2599 153.596 68.161 153.751 68.0977C153.688 68.2529 153.589 68.3722 153.481 68.4833C153.37 68.5908 153.251 68.6897 153.096 68.753Z" fill="#263238"/>
<path d="M176.597 107.934C174.13 118.679 169.136 132.282 165.277 135.026C162.165 137.24 145.837 141.14 144.927 141.238C142.673 141.465 138.221 125.543 140.558 124.896C143.502 124.08 157.494 123.645 158.291 122.828C159.116 121.973 164.209 115.077 169.974 107.089C173.953 101.569 178.128 101.268 176.597 107.934Z" fill="#DD6A57"/>
<path d="M146.737 140.364C146.468 140.5 142.656 142.417 140.298 143.101C138.54 143.61 133.437 144.942 132.684 143.061C132.168 141.78 135.077 140.643 137.115 139.794C138.189 139.346 139.512 138.222 139.196 137.532C138.643 136.325 135.878 137.537 134.06 138.593C130.544 140.636 125.861 144.313 123.713 142.53C122.903 141.855 123.845 140.628 125.224 139.424C122.986 140.827 120.6 141.978 119.669 141.264C119.135 140.858 119.11 140.301 119.408 139.664C118.717 139.888 118.106 139.845 117.68 139.394C116.953 138.633 117.308 137.509 118.103 136.358C117.848 136.331 117.619 136.201 117.443 135.924C115.903 133.576 123.611 126.833 126.278 126.202C134.121 124.338 142.466 125.017 142.466 125.017C145.547 127.479 146.743 140.358 146.737 140.364Z" fill="#DD6A57"/>
<path d="M135.203 133.143C133.355 133.432 131.537 134.123 129.971 135.157C127.982 136.469 126.663 138.006 124.995 139.553C124.951 139.593 125.012 139.663 125.057 139.622C125.852 138.887 129.146 136.122 129.997 135.494C131.557 134.342 133.299 133.534 135.21 133.175C135.23 133.171 135.223 133.14 135.203 133.143Z" fill="#263238"/>
<path d="M133.741 129.815C131.679 130.379 129.567 130.949 127.653 131.924C125.559 132.991 123.921 134.731 122.309 136.405C121.342 137.41 120.395 138.436 119.475 139.485C119.436 139.528 119.495 139.598 119.536 139.554C121.171 137.825 122.858 136.142 124.595 134.516C126.23 132.986 128.053 131.815 130.147 131.017C131.327 130.567 132.539 130.209 133.748 129.852C133.772 129.845 133.764 129.809 133.741 129.815Z" fill="#263238"/>
<path d="M131.538 126.904C129.535 127.316 127.788 127.668 126.014 128.741C123.666 130.162 121.399 132.556 120.604 133.405C119.725 134.343 118.879 135.309 118.047 136.288C118.013 136.328 118.082 136.388 118.117 136.348C120.018 134.208 122.066 132.174 124.227 130.297C125.26 129.4 126.383 128.619 127.644 128.075C128.89 127.538 130.226 127.234 131.541 126.919C131.55 126.916 131.547 126.903 131.538 126.904Z" fill="#263238"/>
<path d="M158.412 121.262L173.462 120.624C173.462 120.624 176.195 113.167 177.2 106.547C178.205 99.9268 172.565 102.303 166.978 109.433C161.392 116.562 158.412 121.262 158.412 121.262Z" fill="#FFC727"/>
<path d="M163.337 116.763C163.439 116.734 163.541 116.722 163.644 116.701C163.739 116.683 163.875 116.678 163.984 116.724C164.215 116.804 164.386 117.044 164.388 117.298C164.384 117.465 164.467 117.615 164.608 117.71C164.681 117.757 164.757 117.783 164.86 117.795C164.963 117.816 165.065 117.828 165.167 117.857C165.065 117.886 164.963 117.898 164.86 117.919C164.76 117.938 164.628 117.936 164.518 117.886C164.29 117.8 164.131 117.547 164.135 117.302C164.137 117.144 164.046 116.99 163.902 116.903C163.827 116.858 163.752 116.837 163.644 116.825C163.542 116.804 163.439 116.791 163.337 116.763ZM173.925 107.621C174.033 107.633 174.108 107.654 174.183 107.699C174.327 107.786 174.418 107.94 174.416 108.099C174.412 108.343 174.571 108.596 174.8 108.683C174.909 108.732 175.042 108.734 175.142 108.715C175.244 108.694 175.346 108.682 175.449 108.653C175.346 108.625 175.244 108.612 175.142 108.591C175.038 108.579 174.962 108.553 174.889 108.506C174.748 108.411 174.666 108.261 174.669 108.094C174.667 107.84 174.497 107.6 174.266 107.52C174.156 107.474 174.02 107.479 173.925 107.497C173.823 107.518 173.721 107.531 173.618 107.559C173.721 107.588 173.823 107.6 173.925 107.621ZM174.307 113.484C174.222 113.552 174.154 113.589 174.069 113.611C173.906 113.651 173.732 113.606 173.622 113.493C173.452 113.318 173.161 113.251 172.938 113.352C172.826 113.394 172.73 113.486 172.673 113.57C172.615 113.657 172.552 113.739 172.499 113.831C172.592 113.779 172.673 113.715 172.76 113.658C172.842 113.593 172.915 113.558 172.999 113.539C173.166 113.507 173.331 113.555 173.446 113.675C173.627 113.853 173.917 113.902 174.137 113.796C174.247 113.75 174.34 113.651 174.394 113.571C174.452 113.484 174.515 113.403 174.568 113.31C174.475 113.363 174.394 113.426 174.307 113.484ZM170.218 106.644C170.132 106.711 170.065 106.749 169.978 106.772C169.815 106.81 169.642 106.765 169.53 106.653C169.505 106.628 169.479 106.605 169.45 106.583C169.389 106.644 169.332 106.704 169.274 106.768C169.303 106.784 169.332 106.81 169.357 106.835C169.537 107.015 169.828 107.063 170.049 106.957C170.157 106.912 170.25 106.813 170.305 106.73C170.362 106.644 170.426 106.564 170.477 106.471C170.385 106.522 170.305 106.586 170.218 106.644ZM168.516 112.279C168.504 112.388 168.483 112.462 168.438 112.538C168.35 112.681 168.196 112.772 168.038 112.771C167.794 112.766 167.541 112.925 167.454 113.154C167.405 113.263 167.403 113.396 167.421 113.496C167.443 113.598 167.455 113.7 167.483 113.803C167.512 113.7 167.524 113.598 167.546 113.496C167.557 113.392 167.584 113.316 167.631 113.243C167.726 113.102 167.876 113.02 168.043 113.024C168.297 113.021 168.537 112.851 168.617 112.62C168.663 112.51 168.658 112.374 168.64 112.279C168.619 112.177 168.606 112.075 168.578 111.972C168.549 112.075 168.537 112.177 168.516 112.279ZM172.825 118.011C172.812 118.119 172.791 118.193 172.747 118.269C172.659 118.412 172.505 118.503 172.347 118.502C172.103 118.498 171.85 118.656 171.763 118.885C171.714 118.995 171.711 119.127 171.73 119.227C171.751 119.329 171.763 119.432 171.792 119.534C171.821 119.432 171.833 119.33 171.854 119.227C171.866 119.123 171.892 119.047 171.939 118.974C172.034 118.833 172.184 118.751 172.351 118.755C172.605 118.753 172.845 118.582 172.925 118.351C172.971 118.241 172.967 118.105 172.948 118.01C172.927 117.908 172.915 117.806 172.886 117.703C172.858 117.806 172.845 117.908 172.825 118.011Z" fill="white"/>
<path d="M173.975 117.358C170.72 117.275 167.455 117.419 164.201 117.628C163.281 117.686 162.361 117.767 161.445 117.869C161.419 117.872 161.416 117.91 161.443 117.911C163.069 117.918 164.695 117.859 166.322 117.809C167.953 117.759 169.585 117.695 171.214 117.6C172.135 117.546 173.054 117.492 173.973 117.42C174.013 117.416 174.016 117.359 173.975 117.358Z" fill="#263238"/>
<path d="M162.634 145.314H201.045C201.468 144.538 195.173 110.891 182.219 101.418C179.345 99.3157 174.246 100.667 172.828 102.711C165.7 112.984 162.634 145.314 162.634 145.314Z" fill="#FFC727"/>
<path d="M178.925 116.764C179.028 116.735 179.13 116.723 179.232 116.702C179.327 116.684 179.463 116.679 179.572 116.725C179.804 116.805 179.974 117.045 179.976 117.299C179.972 117.466 180.055 117.616 180.196 117.711C180.269 117.758 180.345 117.784 180.449 117.796C180.551 117.817 180.653 117.83 180.756 117.858C180.653 117.887 180.551 117.899 180.449 117.92C180.348 117.939 180.216 117.937 180.107 117.887C179.878 117.801 179.719 117.548 179.723 117.303C179.725 117.145 179.634 116.991 179.49 116.904C179.415 116.859 179.34 116.838 179.232 116.826C179.13 116.805 179.027 116.792 178.925 116.764ZM184.892 137.074C185.001 137.086 185.075 137.107 185.151 137.152C185.294 137.239 185.385 137.394 185.384 137.552C185.38 137.796 185.538 138.049 185.767 138.136C185.876 138.185 186.009 138.188 186.109 138.169C186.212 138.148 186.314 138.135 186.416 138.107C186.314 138.078 186.212 138.066 186.109 138.045C186.005 138.033 185.929 138.007 185.856 137.959C185.715 137.865 185.633 137.714 185.637 137.547C185.635 137.294 185.464 137.054 185.233 136.973C185.123 136.927 184.987 136.932 184.892 136.951C184.79 136.971 184.688 136.984 184.586 137.012C184.688 137.041 184.79 137.053 184.892 137.074ZM191.939 117.92C192.047 117.932 192.121 117.953 192.197 117.998C192.34 118.086 192.431 118.24 192.43 118.398C192.426 118.642 192.584 118.895 192.813 118.982C192.923 119.031 193.055 119.034 193.155 119.015C193.258 118.994 193.36 118.982 193.462 118.953C193.36 118.924 193.258 118.912 193.155 118.891C193.052 118.879 192.975 118.853 192.902 118.806C192.761 118.711 192.679 118.56 192.683 118.393C192.681 118.14 192.51 117.9 192.279 117.819C192.169 117.774 192.034 117.778 191.939 117.797C191.836 117.817 191.734 117.83 191.632 117.858C191.734 117.887 191.836 117.899 191.939 117.92ZM173.925 107.622C174.033 107.634 174.108 107.655 174.183 107.7C174.327 107.787 174.418 107.942 174.416 108.1C174.412 108.344 174.571 108.597 174.8 108.684C174.909 108.733 175.042 108.735 175.142 108.717C175.244 108.695 175.346 108.683 175.449 108.655C175.346 108.626 175.244 108.614 175.142 108.592C175.038 108.581 174.962 108.554 174.889 108.507C174.748 108.412 174.666 108.262 174.669 108.095C174.667 107.841 174.497 107.601 174.266 107.521C174.156 107.475 174.02 107.48 173.925 107.498C173.823 107.519 173.721 107.532 173.618 107.56C173.721 107.589 173.823 107.601 173.925 107.622ZM185.013 107.39C185.121 107.402 185.196 107.423 185.271 107.468C185.415 107.555 185.506 107.71 185.504 107.868C185.5 108.112 185.659 108.365 185.887 108.452C185.997 108.501 186.129 108.503 186.229 108.485C186.332 108.463 186.434 108.451 186.536 108.423C186.434 108.394 186.332 108.382 186.229 108.36C186.126 108.349 186.05 108.322 185.977 108.275C185.836 108.18 185.754 108.03 185.757 107.863C185.755 107.609 185.584 107.369 185.353 107.289C185.244 107.243 185.108 107.248 185.013 107.266C184.91 107.287 184.808 107.3 184.706 107.328C184.808 107.357 184.91 107.369 185.013 107.39ZM171.204 125.298C171.312 125.31 171.386 125.331 171.462 125.376C171.605 125.463 171.696 125.617 171.695 125.775C171.691 126.02 171.85 126.273 172.078 126.359C172.188 126.409 172.32 126.411 172.42 126.392C172.522 126.371 172.625 126.359 172.727 126.33C172.625 126.302 172.523 126.289 172.42 126.268C172.316 126.256 172.24 126.23 172.167 126.183C172.026 126.088 171.944 125.938 171.948 125.771C171.946 125.517 171.775 125.277 171.544 125.197C171.434 125.151 171.298 125.156 171.203 125.174C171.101 125.195 170.999 125.207 170.896 125.236C170.999 125.264 171.101 125.277 171.204 125.298ZM183.295 143.85C183.403 143.863 183.477 143.884 183.553 143.928C183.697 144.016 183.788 144.17 183.786 144.328C183.782 144.572 183.94 144.825 184.169 144.912C184.279 144.961 184.411 144.964 184.511 144.945C184.614 144.924 184.716 144.912 184.818 144.883C184.716 144.854 184.614 144.842 184.511 144.821C184.408 144.809 184.332 144.783 184.259 144.736C184.117 144.641 184.036 144.491 184.039 144.324C184.037 144.07 183.866 143.83 183.635 143.75C183.525 143.704 183.39 143.708 183.295 143.727C183.192 143.748 183.09 143.76 182.988 143.789C183.09 143.817 183.193 143.83 183.295 143.85ZM177.341 133.881C177.45 133.894 177.524 133.915 177.6 133.959C177.743 134.047 177.834 134.201 177.833 134.359C177.828 134.603 177.987 134.856 178.216 134.943C178.325 134.992 178.458 134.995 178.558 134.976C178.66 134.955 178.763 134.943 178.865 134.914C178.763 134.885 178.66 134.873 178.558 134.852C178.454 134.84 178.378 134.814 178.305 134.767C178.164 134.672 178.082 134.522 178.086 134.355C178.084 134.101 177.913 133.861 177.682 133.781C177.572 133.735 177.436 133.74 177.341 133.758C177.239 133.779 177.137 133.791 177.035 133.82C177.137 133.848 177.239 133.861 177.341 133.881ZM163.709 144.101C163.607 144.088 163.53 144.062 163.457 144.014C163.316 143.921 163.233 143.771 163.239 143.601C163.236 143.365 163.085 143.137 162.874 143.048C162.865 143.131 162.855 143.208 162.849 143.285C162.935 143.371 162.986 143.486 162.983 143.608C162.98 143.851 163.14 144.104 163.367 144.19C163.476 144.241 163.61 144.245 163.709 144.225C163.812 144.203 163.914 144.19 164.017 144.161C163.914 144.133 163.812 144.12 163.709 144.101ZM166.328 135.693C166.436 135.705 166.511 135.726 166.586 135.771C166.73 135.858 166.821 136.013 166.819 136.171C166.815 136.415 166.974 136.668 167.203 136.755C167.312 136.804 167.444 136.807 167.545 136.788C167.647 136.767 167.749 136.754 167.852 136.726C167.749 136.697 167.647 136.685 167.545 136.663C167.441 136.652 167.365 136.625 167.292 136.578C167.151 136.483 167.069 136.333 167.072 136.166C167.07 135.912 166.9 135.672 166.668 135.592C166.559 135.546 166.423 135.551 166.328 135.569C166.225 135.59 166.123 135.603 166.021 135.631C166.124 135.66 166.226 135.672 166.328 135.693ZM182.411 125.542C182.52 125.554 182.594 125.575 182.669 125.62C182.813 125.707 182.904 125.862 182.902 126.02C182.898 126.264 183.057 126.517 183.286 126.604C183.395 126.653 183.527 126.655 183.628 126.637C183.73 126.615 183.832 126.603 183.935 126.575C183.832 126.546 183.73 126.534 183.628 126.512C183.524 126.501 183.448 126.474 183.375 126.427C183.234 126.332 183.152 126.182 183.156 126.015C183.153 125.761 182.983 125.521 182.752 125.441C182.642 125.395 182.506 125.4 182.411 125.418C182.309 125.439 182.207 125.452 182.104 125.48C182.206 125.509 182.309 125.521 182.411 125.542ZM196.495 139.191C196.604 139.203 196.678 139.224 196.754 139.269C196.897 139.357 196.988 139.511 196.987 139.669C196.982 139.913 197.141 140.166 197.37 140.253C197.479 140.302 197.612 140.305 197.712 140.286C197.814 140.265 197.916 140.253 198.019 140.224C197.916 140.195 197.814 140.183 197.712 140.162C197.608 140.15 197.532 140.124 197.459 140.077C197.318 139.982 197.236 139.831 197.24 139.664C197.237 139.411 197.067 139.171 196.836 139.09C196.726 139.045 196.59 139.049 196.495 139.068C196.393 139.088 196.291 139.101 196.188 139.129C196.291 139.158 196.393 139.17 196.495 139.191ZM190.904 130.859C191.013 130.871 191.087 130.892 191.163 130.937C191.306 131.024 191.397 131.179 191.396 131.337C191.391 131.581 191.55 131.834 191.779 131.921C191.888 131.97 192.02 131.973 192.121 131.954C192.223 131.933 192.325 131.92 192.428 131.892C192.325 131.863 192.223 131.851 192.121 131.83C192.017 131.818 191.941 131.791 191.868 131.744C191.727 131.649 191.645 131.499 191.649 131.332C191.646 131.079 191.476 130.839 191.245 130.758C191.135 130.712 190.999 130.717 190.904 130.735C190.802 130.756 190.7 130.769 190.597 130.797C190.7 130.826 190.802 130.838 190.904 130.859ZM174.307 113.485C174.222 113.553 174.154 113.591 174.069 113.612C173.906 113.652 173.732 113.607 173.622 113.495C173.452 113.319 173.161 113.252 172.938 113.353C172.826 113.395 172.73 113.487 172.673 113.571C172.615 113.658 172.552 113.74 172.5 113.832C172.592 113.78 172.673 113.717 172.76 113.659C172.842 113.594 172.915 113.559 172.999 113.54C173.166 113.508 173.331 113.556 173.446 113.677C173.627 113.855 173.917 113.903 174.137 113.797C174.247 113.751 174.34 113.652 174.394 113.572C174.452 113.485 174.516 113.404 174.568 113.311C174.475 113.364 174.394 113.427 174.307 113.485ZM190.857 125.393C190.772 125.461 190.704 125.499 190.619 125.52C190.455 125.56 190.282 125.515 190.172 125.403C190.002 125.227 189.71 125.16 189.487 125.261C189.375 125.303 189.28 125.395 189.222 125.479C189.165 125.567 189.101 125.648 189.049 125.74C189.141 125.688 189.223 125.625 189.31 125.567C189.391 125.502 189.464 125.467 189.549 125.448C189.716 125.416 189.88 125.464 189.996 125.585C190.177 125.763 190.467 125.812 190.687 125.705C190.797 125.66 190.89 125.56 190.944 125.48C191.001 125.393 191.065 125.312 191.117 125.22C191.025 125.272 190.944 125.335 190.857 125.393ZM180.529 103.222C180.444 103.29 180.376 103.328 180.291 103.349C180.127 103.389 179.954 103.344 179.844 103.231C179.674 103.056 179.382 102.989 179.159 103.09C179.047 103.132 178.952 103.224 178.894 103.308C178.837 103.395 178.773 103.477 178.721 103.569C178.814 103.517 178.895 103.454 178.982 103.396C179.064 103.331 179.136 103.296 179.221 103.277C179.388 103.245 179.552 103.293 179.668 103.414C179.849 103.591 180.139 103.64 180.359 103.534C180.469 103.488 180.562 103.389 180.616 103.309C180.674 103.222 180.738 103.141 180.79 103.048C180.697 103.101 180.616 103.164 180.529 103.222ZM180.325 109.789C180.313 109.897 180.292 109.972 180.247 110.047C180.16 110.191 180.006 110.282 179.848 110.28C179.603 110.276 179.35 110.435 179.264 110.663C179.214 110.773 179.212 110.905 179.231 111.006C179.252 111.108 179.264 111.21 179.293 111.312C179.322 111.21 179.334 111.108 179.355 111.006C179.367 110.902 179.393 110.826 179.44 110.753C179.535 110.612 179.685 110.529 179.852 110.533C180.106 110.531 180.346 110.36 180.426 110.129C180.472 110.02 180.468 109.884 180.449 109.789C180.428 109.687 180.416 109.584 180.387 109.482C180.359 109.584 180.347 109.687 180.325 109.789ZM177.888 127.782C177.876 127.891 177.855 127.965 177.81 128.04C177.722 128.184 177.568 128.275 177.41 128.273C177.166 128.269 176.913 128.428 176.826 128.657C176.777 128.766 176.774 128.898 176.793 128.999C176.814 129.101 176.827 129.203 176.855 129.306C176.884 129.203 176.896 129.101 176.917 128.999C176.929 128.895 176.956 128.819 177.003 128.746C177.098 128.605 177.248 128.523 177.415 128.527C177.668 128.524 177.908 128.354 177.989 128.123C178.035 128.013 178.03 127.877 178.012 127.782C177.991 127.68 177.978 127.578 177.95 127.475C177.921 127.578 177.909 127.68 177.888 127.782ZM190.657 112.107C190.641 112.11 190.625 112.11 190.605 112.11C190.359 112.107 190.106 112.264 190.02 112.494C189.972 112.603 189.969 112.734 189.988 112.837C190.007 112.939 190.02 113.041 190.049 113.144C190.077 113.041 190.09 112.939 190.113 112.837C190.122 112.731 190.151 112.657 190.196 112.584C190.292 112.443 190.442 112.36 190.609 112.363C190.666 112.363 190.721 112.353 190.775 112.334C190.737 112.257 190.695 112.184 190.657 112.107ZM190.569 141.17C190.556 141.279 190.535 141.353 190.491 141.429C190.403 141.572 190.249 141.663 190.091 141.662C189.847 141.657 189.594 141.816 189.507 142.045C189.458 142.154 189.455 142.287 189.474 142.387C189.495 142.489 189.507 142.591 189.536 142.694C189.565 142.592 189.577 142.489 189.598 142.387C189.61 142.283 189.636 142.207 189.683 142.134C189.778 141.993 189.928 141.911 190.095 141.915C190.349 141.912 190.589 141.742 190.669 141.511C190.715 141.401 190.711 141.265 190.692 141.17C190.671 141.068 190.659 140.966 190.63 140.863C190.602 140.966 190.589 141.068 190.569 141.17ZM196.061 124.859C196.058 124.869 196.055 124.875 196.049 124.885C195.962 125.029 195.809 125.121 195.649 125.118C195.405 125.115 195.153 125.275 195.066 125.502C195.015 125.611 195.012 125.745 195.031 125.845C195.053 125.947 195.066 126.049 195.095 126.152C195.124 126.049 195.137 125.947 195.156 125.845C195.169 125.742 195.194 125.665 195.242 125.592C195.335 125.451 195.485 125.368 195.655 125.371C195.847 125.371 196.036 125.269 196.148 125.118C196.148 125.118 196.148 125.118 196.148 125.115C196.119 125.032 196.09 124.945 196.061 124.859ZM167.969 128.426C167.957 128.535 167.936 128.609 167.891 128.684C167.803 128.828 167.649 128.919 167.491 128.917C167.247 128.913 166.994 129.072 166.907 129.301C166.858 129.41 166.855 129.542 166.874 129.643C166.895 129.745 166.908 129.847 166.936 129.95C166.965 129.847 166.977 129.745 166.998 129.643C167.01 129.539 167.036 129.463 167.084 129.39C167.179 129.249 167.329 129.167 167.496 129.17C167.749 129.168 167.989 128.998 168.07 128.767C168.116 128.657 168.111 128.521 168.092 128.426C168.072 128.324 168.059 128.222 168.031 128.119C168.002 128.221 167.99 128.324 167.969 128.426ZM168.644 112.302C168.589 112.481 168.535 112.657 168.481 112.837C168.541 112.776 168.589 112.702 168.618 112.622C168.66 112.52 168.657 112.395 168.644 112.302ZM174.406 101.785C174.394 101.894 174.372 101.968 174.328 102.044C174.24 102.187 174.086 102.278 173.928 102.277C173.684 102.272 173.431 102.431 173.344 102.66C173.295 102.769 173.292 102.902 173.311 103.002C173.332 103.104 173.344 103.207 173.373 103.309C173.402 103.207 173.414 103.104 173.435 103.002C173.447 102.898 173.473 102.822 173.52 102.749C173.615 102.608 173.765 102.526 173.932 102.53C174.186 102.527 174.426 102.357 174.507 102.126C174.552 102.016 174.548 101.88 174.529 101.785C174.508 101.683 174.496 101.581 174.468 101.479C174.439 101.581 174.427 101.683 174.406 101.785ZM172.825 118.012C172.812 118.12 172.791 118.194 172.747 118.27C172.659 118.414 172.505 118.504 172.347 118.503C172.103 118.499 171.85 118.657 171.763 118.886C171.714 118.996 171.711 119.128 171.73 119.228C171.751 119.33 171.763 119.433 171.792 119.535C171.821 119.433 171.833 119.331 171.854 119.228C171.866 119.125 171.892 119.048 171.939 118.975C172.034 118.834 172.184 118.752 172.351 118.756C172.605 118.754 172.845 118.583 172.925 118.352C172.971 118.242 172.967 118.106 172.948 118.011C172.927 117.909 172.915 117.807 172.886 117.704C172.858 117.807 172.845 117.909 172.825 118.012ZM187.022 120.193C187.01 120.301 186.988 120.375 186.944 120.451C186.856 120.595 186.702 120.686 186.544 120.684C186.3 120.68 186.047 120.839 185.96 121.067C185.911 121.177 185.908 121.309 185.927 121.409C185.948 121.512 185.96 121.614 185.989 121.716C186.018 121.614 186.03 121.512 186.051 121.409C186.063 121.306 186.089 121.23 186.136 121.157C186.231 121.015 186.381 120.934 186.548 120.937C186.802 120.935 187.042 120.764 187.123 120.533C187.168 120.423 187.164 120.288 187.145 120.193C187.124 120.09 187.112 119.988 187.084 119.886C187.055 119.988 187.043 120.09 187.022 120.193ZM173.9 138.413C173.888 138.522 173.867 138.596 173.822 138.671C173.734 138.815 173.58 138.906 173.422 138.904C173.178 138.9 172.925 139.059 172.838 139.288C172.789 139.397 172.787 139.53 172.805 139.63C172.827 139.732 172.839 139.834 172.868 139.937C172.896 139.834 172.908 139.732 172.93 139.63C172.941 139.526 172.968 139.45 173.015 139.377C173.11 139.236 173.26 139.154 173.427 139.158C173.681 139.155 173.921 138.985 174.001 138.754C174.047 138.644 174.042 138.508 174.024 138.413C174.003 138.311 173.99 138.209 173.962 138.106C173.933 138.209 173.921 138.311 173.9 138.413ZM184.911 114.562C184.996 114.494 185.064 114.456 185.149 114.435C185.312 114.395 185.485 114.44 185.596 114.552C185.766 114.728 186.057 114.795 186.28 114.694C186.392 114.652 186.488 114.56 186.546 114.476C186.603 114.389 186.667 114.307 186.719 114.215C186.626 114.267 186.545 114.33 186.458 114.388C186.376 114.453 186.304 114.488 186.219 114.507C186.052 114.539 185.888 114.491 185.772 114.37C185.591 114.192 185.301 114.143 185.081 114.25C184.971 114.295 184.878 114.395 184.824 114.475C184.766 114.562 184.703 114.643 184.651 114.735C184.743 114.683 184.824 114.62 184.911 114.562ZM176.629 122.063C176.714 121.995 176.782 121.958 176.867 121.936C177.03 121.896 177.204 121.941 177.314 122.054C177.484 122.23 177.775 122.296 177.998 122.196C178.11 122.153 178.206 122.061 178.263 121.977C178.321 121.89 178.384 121.809 178.436 121.716C178.344 121.768 178.263 121.832 178.176 121.889C178.094 121.954 178.021 121.99 177.937 122.008C177.77 122.041 177.605 121.992 177.49 121.872C177.309 121.694 177.019 121.645 176.799 121.751C176.689 121.797 176.596 121.896 176.542 121.976C176.484 122.063 176.42 122.144 176.368 122.237C176.461 122.184 176.542 122.121 176.629 122.063ZM171.019 133.114C171.104 133.046 171.171 133.009 171.256 132.987C171.42 132.947 171.593 132.992 171.704 133.105C171.874 133.28 172.165 133.347 172.388 133.247C172.5 133.204 172.596 133.112 172.653 133.028C172.71 132.941 172.774 132.86 172.826 132.767C172.733 132.819 172.652 132.883 172.565 132.94C172.484 133.005 172.411 133.04 172.326 133.059C172.159 133.092 171.995 133.043 171.88 132.923C171.699 132.745 171.408 132.696 171.188 132.802C171.078 132.848 170.985 132.947 170.931 133.027C170.874 133.114 170.81 133.195 170.758 133.288C170.851 133.236 170.932 133.172 171.019 133.114ZM173.444 144.598C173.529 144.529 173.596 144.492 173.682 144.47C173.845 144.431 174.018 144.475 174.129 144.588C174.299 144.764 174.59 144.83 174.813 144.73C174.925 144.687 175.021 144.595 175.078 144.511C175.136 144.424 175.199 144.343 175.252 144.25C175.159 144.303 175.078 144.366 174.991 144.423C174.909 144.488 174.836 144.524 174.752 144.542C174.585 144.575 174.42 144.527 174.305 144.406C174.124 144.228 173.834 144.179 173.614 144.286C173.504 144.331 173.411 144.43 173.357 144.511C173.299 144.598 173.236 144.679 173.183 144.771C173.276 144.719 173.357 144.655 173.444 144.598ZM184.3 131.978C184.386 131.91 184.453 131.872 184.538 131.851C184.702 131.811 184.875 131.856 184.986 131.969C185.156 132.144 185.447 132.211 185.67 132.111C185.782 132.068 185.877 131.976 185.935 131.892C185.992 131.805 186.056 131.724 186.108 131.631C186.015 131.683 185.934 131.747 185.847 131.804C185.765 131.869 185.693 131.904 185.608 131.923C185.441 131.956 185.277 131.907 185.161 131.787C184.98 131.609 184.69 131.56 184.47 131.666C184.36 131.712 184.267 131.811 184.213 131.891C184.155 131.978 184.092 132.059 184.039 132.152C184.132 132.1 184.213 132.036 184.3 131.978ZM191.773 136.552C191.859 136.484 191.926 136.446 192.011 136.425C192.175 136.385 192.348 136.43 192.459 136.543C192.628 136.718 192.92 136.785 193.143 136.684C193.255 136.642 193.35 136.55 193.408 136.466C193.465 136.379 193.529 136.297 193.581 136.205C193.489 136.257 193.407 136.32 193.32 136.378C193.239 136.443 193.166 136.478 193.081 136.497C192.915 136.529 192.75 136.481 192.635 136.36C192.453 136.183 192.163 136.134 191.943 136.24C191.833 136.286 191.74 136.385 191.686 136.465C191.629 136.552 191.565 136.633 191.513 136.726C191.605 136.673 191.686 136.61 191.773 136.552ZM179.204 140.024C179.289 139.956 179.356 139.918 179.441 139.896C179.605 139.857 179.778 139.901 179.889 140.014C180.059 140.19 180.35 140.256 180.573 140.156C180.685 140.113 180.78 140.022 180.838 139.937C180.895 139.85 180.959 139.769 181.011 139.677C180.918 139.729 180.837 139.792 180.75 139.85C180.668 139.915 180.596 139.95 180.511 139.968C180.344 140.001 180.18 139.953 180.064 139.832C179.883 139.654 179.593 139.605 179.373 139.712C179.263 139.757 179.17 139.856 179.116 139.937C179.058 140.024 178.995 140.105 178.942 140.197C179.035 140.145 179.116 140.081 179.204 140.024ZM195.415 144.598C195.5 144.529 195.568 144.492 195.653 144.47C195.817 144.431 195.99 144.475 196.1 144.588C196.27 144.764 196.562 144.83 196.785 144.73C196.897 144.687 196.992 144.595 197.05 144.511C197.107 144.424 197.171 144.343 197.223 144.25C197.131 144.303 197.049 144.366 196.962 144.423C196.881 144.488 196.808 144.524 196.723 144.542C196.556 144.575 196.392 144.527 196.276 144.406C196.095 144.228 195.805 144.179 195.585 144.286C195.475 144.331 195.382 144.43 195.328 144.511C195.27 144.598 195.207 144.679 195.155 144.771C195.247 144.719 195.328 144.655 195.415 144.598ZM198.308 132.168C198.231 132.145 198.164 132.104 198.106 132.046C197.927 131.87 197.636 131.819 197.415 131.928C197.306 131.973 197.213 132.072 197.159 132.152C197.101 132.238 197.037 132.318 196.986 132.411C197.079 132.36 197.159 132.296 197.245 132.238C197.332 132.171 197.399 132.133 197.482 132.11C197.645 132.072 197.821 132.117 197.93 132.229C198.042 132.347 198.209 132.414 198.375 132.417C198.353 132.334 198.33 132.251 198.308 132.168ZM167.636 141.606C167.721 141.537 167.789 141.5 167.874 141.478C168.037 141.439 168.211 141.483 168.321 141.596C168.491 141.772 168.782 141.838 169.005 141.738C169.117 141.695 169.213 141.603 169.27 141.519C169.328 141.432 169.391 141.351 169.444 141.258C169.351 141.311 169.27 141.374 169.183 141.431C169.101 141.496 169.028 141.532 168.944 141.55C168.777 141.583 168.612 141.535 168.497 141.414C168.316 141.236 168.026 141.187 167.805 141.294C167.695 141.339 167.603 141.438 167.548 141.519C167.491 141.606 167.427 141.687 167.375 141.779C167.468 141.727 167.549 141.663 167.636 141.606ZM166.71 122.324C166.795 122.255 166.863 122.218 166.948 122.196C167.111 122.157 167.284 122.201 167.395 122.314C167.565 122.49 167.856 122.556 168.079 122.456C168.191 122.413 168.287 122.321 168.345 122.237C168.402 122.15 168.466 122.069 168.518 121.976C168.425 122.028 168.344 122.092 168.257 122.15C168.175 122.215 168.103 122.25 168.018 122.268C167.851 122.301 167.687 122.253 167.571 122.132C167.39 121.954 167.1 121.905 166.88 122.012C166.77 122.057 166.677 122.156 166.623 122.237C166.565 122.324 166.501 122.405 166.449 122.497C166.542 122.445 166.623 122.381 166.71 122.324Z" fill="white"/>
<path d="M168.737 111.661C168.384 112.939 168.042 114.217 167.713 115.499C167.755 114.939 167.816 114.381 167.888 113.826C167.892 113.793 167.842 113.779 167.835 113.813C167.694 114.505 167.625 115.205 167.606 115.909C167.212 117.454 166.838 119.004 166.495 120.564C165.837 123.552 165.252 126.562 164.767 129.581C164.494 131.284 164.282 132.998 163.991 134.698C163.985 134.729 164.035 134.742 164.041 134.71C164.308 133.203 164.663 131.703 164.992 130.207C165.318 128.72 165.634 127.232 165.943 125.742C166.564 122.746 167.22 119.757 167.838 116.76C168.186 115.072 168.51 113.379 168.858 111.691C168.874 111.615 168.758 111.586 168.737 111.661Z" fill="#263238"/>
<path d="M167.235 91.7281C167.661 94.0583 166.349 96.2503 164.305 96.6237C162.26 96.9972 160.258 95.4113 159.832 93.081C159.406 90.7508 160.718 88.5588 162.763 88.1853C164.807 87.8119 166.809 89.3978 167.235 91.7281Z" fill="#455A64"/>
<path d="M168.462 91.6561C168.936 94.2484 167.476 96.6868 165.202 97.1025C162.927 97.5182 160.7 95.7537 160.226 93.1614C159.752 90.569 161.212 88.1306 163.486 87.715C165.76 87.2993 167.988 89.0638 168.462 91.6561Z" fill="#C7C7C7"/>
<path d="M174.947 109.945C177.263 109.931 180.212 105.671 181.039 102.598C181.094 102.387 178.517 95.1331 178.156 93.6428C178.083 93.3366 169.359 98.1811 169.359 98.1811C169.359 98.1811 171.036 101.082 171.65 103.684C171.699 103.903 172.708 109.956 174.947 109.945Z" fill="#DD6A57"/>
<path d="M172.719 104.234C172.39 104.321 172.086 104.382 171.795 104.404C171.756 104.222 171.724 104.068 171.702 103.95C171.702 103.946 171.702 103.94 171.699 103.934C171.699 103.921 171.695 103.905 171.692 103.892C171.683 103.847 171.676 103.799 171.663 103.751C171.663 103.742 171.66 103.732 171.657 103.722C171.654 103.71 171.651 103.697 171.647 103.684C171.513 103.114 171.327 102.532 171.123 101.969C170.649 100.676 170.057 99.4855 169.695 98.7975C169.651 98.7111 169.609 98.6343 169.571 98.5671C169.455 98.3527 169.382 98.2215 169.366 98.1895C169.359 98.1863 169.359 98.1831 169.359 98.1831C169.359 98.1831 169.359 98.1831 169.363 98.1831C169.382 98.1703 169.462 98.1255 169.593 98.0519C169.676 98.0071 169.779 97.9495 169.9 97.8823C169.907 97.8823 169.91 97.8791 169.913 97.8759C169.977 97.8407 170.047 97.8023 170.118 97.7639C170.198 97.7191 170.281 97.6743 170.371 97.6231C170.444 97.5847 170.524 97.5399 170.604 97.4951C170.617 97.4887 170.633 97.4791 170.649 97.4695C170.745 97.4183 170.847 97.3639 170.953 97.3031C170.975 97.2903 171.001 97.2775 171.023 97.2647C171.123 97.2103 171.225 97.1559 171.327 97.0983C171.379 97.0695 171.433 97.0407 171.487 97.0119C171.647 96.9255 171.811 96.8359 171.98 96.7431C172.105 96.6759 172.23 96.6087 172.358 96.5383C172.463 96.4807 172.572 96.4231 172.678 96.3655C173.036 96.1703 173.404 95.9719 173.772 95.7767C173.891 95.7127 174.009 95.6487 174.124 95.5847C174.556 95.3543 174.982 95.1303 175.388 94.9191C175.481 94.8711 175.571 94.8231 175.66 94.7783C175.721 94.7463 175.782 94.7143 175.839 94.6855C175.913 94.6471 175.983 94.6119 176.054 94.5735C176.214 94.4903 176.367 94.4135 176.515 94.3399C176.611 94.2919 176.707 94.2439 176.796 94.1991C176.934 94.1287 177.062 94.0679 177.183 94.0103C177.244 93.9783 177.305 93.9527 177.359 93.9271C177.526 93.8471 177.67 93.7831 177.788 93.7351C177.817 93.7223 177.843 93.7127 177.865 93.7031V93.7063C177.974 96.2311 177.772 102.884 172.719 104.234Z" fill="#263238"/>
<path d="M175.539 82.4162C177.605 85.3227 179.012 95.2389 177.405 98.0898C175.076 102.223 169.71 104.332 165.807 101.177C162.023 98.1195 160.418 85.164 162.358 82.4136C165.214 78.3624 172.488 78.1231 175.539 82.4162Z" fill="#DD6A57"/>
<path d="M168.143 91.1675C168.144 91.1413 168.2 91.1915 168.203 91.219C168.279 91.8894 168.48 92.6446 169.117 92.7774C169.137 92.7816 169.14 92.8155 169.117 92.8155C168.364 92.8203 168.108 91.8152 168.143 91.1675Z" fill="#263238"/>
<path d="M168.636 90.3838C169.698 90.1448 170.098 92.2853 169.114 92.507C168.146 92.7249 167.746 90.5841 168.636 90.3838Z" fill="#263238"/>
<path d="M164.5 91.9526C164.49 91.9283 164.454 91.9936 164.46 92.0204C164.605 92.6796 164.66 93.4588 164.101 93.7913C164.084 93.8016 164.092 93.8345 164.114 93.8275C164.827 93.5875 164.743 92.5536 164.5 91.9526Z" fill="#263238"/>
<path d="M163.778 91.3705C162.696 91.4889 163.013 93.6435 164.015 93.5337C165.001 93.4262 164.685 91.2713 163.778 91.3705Z" fill="#263238"/>
<path d="M169.299 89.2473C168.993 89.2284 168.715 89.1599 168.415 89.1103C168.076 89.054 167.801 89.0441 167.54 88.7986C167.401 88.6671 167.396 88.3849 167.511 88.237C167.779 87.8927 168.211 87.8585 168.621 87.9097C169.066 87.965 169.395 88.1218 169.704 88.4453C170.004 88.7589 169.701 89.2719 169.299 89.2473Z" fill="#263238"/>
<path d="M162.749 90.448C163.036 90.344 163.284 90.2004 163.558 90.0682C163.867 89.9191 164.129 89.832 164.31 89.5236C164.407 89.3578 164.333 89.0861 164.181 88.9764C163.827 88.7213 163.403 88.81 163.024 88.9741C162.612 89.1524 162.341 89.3952 162.134 89.7927C161.934 90.1776 162.369 90.585 162.749 90.448Z" fill="#263238"/>
<path d="M170.082 97.1674C169.952 97.3523 169.833 97.5958 169.597 97.6608C169.369 97.7232 169.08 97.6698 168.853 97.6272C168.83 97.623 168.813 97.6493 168.83 97.6666C169.05 97.889 169.442 97.9805 169.739 97.8691C170.03 97.7606 170.13 97.4733 170.151 97.185C170.154 97.145 170.101 97.1405 170.082 97.1674Z" fill="#263238"/>
<path d="M169.014 95.3124C168.75 95.9575 168.264 96.3741 167.695 96.5988C167.441 96.7009 167.166 96.762 166.889 96.7879C166.836 96.7969 166.781 96.8007 166.731 96.7991C166.681 96.8023 166.637 96.8049 166.582 96.8039C166.502 96.8071 166.448 96.7511 166.421 96.6804L166.42 96.6756C166.416 96.6513 166.413 96.6317 166.414 96.6065C166.414 96.6065 166.414 96.6065 166.413 96.6017L166.403 96.5434C166.294 96.0356 166.198 95.2497 166.198 95.2497C166.029 95.378 165.158 95.9837 165.123 95.714C164.842 93.4813 164.529 90.9981 164.721 88.7172C164.724 88.6417 164.838 88.6375 164.845 88.7114C165.2 90.8468 165.177 93.0298 165.5 95.1802C165.782 95.0081 166.237 94.7021 166.505 94.6577C166.581 94.665 166.663 96.1796 166.73 96.4036C166.73 96.4036 166.731 96.4135 166.739 96.4273C167.617 96.3767 168.215 95.9965 168.94 95.2647C168.983 95.2173 169.044 95.2522 169.014 95.3124Z" fill="#263238"/>
<path d="M167.142 96.4716C167.142 96.4716 167.708 96.9976 168.369 97.1023C168.613 97.1416 168.865 97.1279 169.11 97.0111C169.614 96.773 169.536 96.2844 169.361 95.8869C169.218 95.5596 169.004 95.2949 169.004 95.2949C169.004 95.2949 168.367 96.1631 167.142 96.4716Z" fill="#263238"/>
<path d="M168.369 97.1021C168.613 97.1414 168.865 97.1277 169.11 97.0109C169.614 96.7728 169.536 96.2842 169.361 95.8867C168.804 96.0509 168.314 96.5414 168.369 97.1021Z" fill="#FF99BA"/>
<path opacity="0.2" d="M175.167 86.5774C175.827 87.4136 177.269 89.4142 177.758 89.4398C177.253 86.212 176.428 83.3922 175.142 81.8933C174.585 81.2446 173.974 80.7653 173.253 80.3672C173.437 81.2174 174.469 85.7025 175.167 86.5774Z" fill="#263238"/>
<path d="M165.548 84.6138C166.362 85.3645 167.509 85.6673 168.582 85.3671C169.628 85.0746 170.603 84.2193 170.868 83.1437C170.876 83.1117 170.926 83.1239 170.918 83.1562C170.634 84.3063 169.842 85.3162 168.656 85.6173C167.543 85.8999 166.27 85.5169 165.494 84.6717C165.459 84.6343 165.51 84.5789 165.548 84.6138Z" fill="#263238"/>
<path d="M167.961 76.3711C169.814 76.2034 171.626 77.0351 172.443 78.2182C172.94 78.9369 173.089 79.7065 173.054 80.5103C173.053 80.5429 172.986 80.5436 172.985 80.5109C172.95 79.2479 172.171 77.8921 170.732 77.1698C169.35 76.4761 167.611 76.4085 166.194 77.1362C165.454 77.5161 164.883 78.077 164.63 78.7109C164.601 78.782 164.458 78.7538 164.48 78.6821C164.851 77.4719 166.285 76.5228 167.961 76.3711Z" fill="#263238"/>
<path d="M157.68 81.5855C157.869 80.6428 158.417 79.7909 159.17 79.1989C160.225 78.3695 161.518 78.3285 162.805 78.3145C162.84 78.3141 162.841 78.3682 162.806 78.3685C161.711 78.3842 160.601 78.4642 159.662 79.0857C158.897 79.5922 158.296 80.3618 158.029 81.2441C157.475 83.0748 158.428 85.1605 160.193 85.9113C161.192 86.3365 162.368 86.3244 163.357 85.8773C163.396 85.8597 163.432 85.9157 163.393 85.9349C161.592 86.8069 159.287 86.2009 158.23 84.4764C157.708 83.6255 157.483 82.5698 157.68 81.5855Z" fill="#263238"/>
<path d="M176.572 84.5335C176.572 84.5335 177.94 81.025 176.25 79.2836C175.292 78.297 172.552 78.7626 172.552 78.7626C172.552 78.7626 171.478 77.2817 169.133 77.027C166.763 76.7697 164.178 78.4388 164.178 78.4388C164.178 78.4388 161.839 77.4414 159.924 78.8554C157.254 80.827 158.124 85.1444 161.169 86.2078C163.307 86.9543 165.844 84.8417 165.844 84.8417C166.112 84.8465 169.008 86.1594 170.769 83.5063C170.769 83.5063 172.605 84.7882 173.975 83.578C173.975 83.578 174.906 84.9879 176.572 84.5335Z" fill="#263238"/>
<path d="M169.549 94.0759C167.96 94.1729 166.588 92.9588 166.491 91.3703C166.394 89.7809 167.607 88.4091 169.197 88.3121C170.785 88.2148 172.157 89.4286 172.255 91.018C172.337 92.362 171.481 93.5505 170.255 93.9438C170.031 94.0158 169.794 94.0609 169.549 94.0759ZM166.876 91.3467C166.961 92.7233 168.149 93.7748 169.526 93.6907C170.902 93.6081 171.953 92.418 171.87 91.0414C171.785 89.6647 170.596 88.6129 169.22 88.6974C169.008 88.7102 168.802 88.7495 168.609 88.8119C167.546 89.1527 166.805 90.1825 166.876 91.3467Z" fill="#FFC727"/>
<path d="M163.562 95.231C162.399 95.4585 161.204 94.3727 160.897 92.8105C160.751 92.0649 160.826 91.3196 161.108 90.7126C161.399 90.0844 161.874 89.6758 162.452 89.5641C163.027 89.4515 163.623 89.6489 164.129 90.1209C164.62 90.5763 164.97 91.2384 165.116 91.9846C165.406 93.463 164.797 94.8467 163.745 95.1843C163.685 95.2028 163.624 95.2185 163.562 95.231ZM161.458 90.8748C161.21 91.4089 161.145 92.07 161.276 92.7366C161.542 94.0895 162.533 95.039 163.487 94.8521C164.445 94.6656 165.002 93.4121 164.738 92.0582C164.607 91.3916 164.297 90.8038 163.867 90.4032C163.452 90.0182 162.976 89.8547 162.526 89.943C162.477 89.9523 162.43 89.9647 162.384 89.9795C161.996 90.1039 161.671 90.4166 161.458 90.8748Z" fill="#FFC727"/>
<path d="M166.65 91.6804L166.836 91.3422C166.336 91.0657 165.247 90.7752 164.7 91.651L165.028 91.8552C165.516 91.0702 166.604 91.6558 166.65 91.6804Z" fill="#FFC727"/>
<path d="M179.418 89.9347L179.72 89.695C179.608 89.5542 178.602 88.318 177.729 88.3462C176.914 88.375 171.929 89.8454 171.718 89.9084L171.828 90.2783C173.256 89.8553 177.112 88.7526 177.742 88.7321C178.318 88.7132 179.147 89.5939 179.418 89.9347Z" fill="#FFC727"/>
<path d="M176.08 90.6985C176.08 90.6985 177.261 86.9945 178.877 87.3234C180.494 87.6524 180.266 92.5599 178.833 93.6674C177.4 94.7749 176.349 93.4687 176.349 93.4687L176.08 90.6985Z" fill="#DD6A57"/>
<path d="M178.777 88.7284C178.803 88.7182 178.819 88.7531 178.799 88.7694C177.806 89.5831 177.536 90.8231 177.457 92.0459C177.664 91.5201 178.053 91.1467 178.741 91.3735C178.777 91.3854 178.763 91.4407 178.729 91.4439C178.233 91.4891 177.922 91.674 177.724 92.1447C177.583 92.4779 177.535 92.859 177.47 93.2135C177.449 93.3316 177.248 93.3345 177.251 93.2052C177.251 93.1959 177.252 93.1857 177.252 93.1761C176.772 91.7361 177.267 89.3582 178.777 88.7284Z" fill="#263238"/>
<path d="M177.867 87.8955C177.867 87.8955 177.637 82.7175 175.815 80.0503C173.787 77.0814 168.187 75.0926 164.179 78.4401C164.179 78.4401 169.999 76.9284 173.808 80.5038C175.56 82.1483 176.166 88.2241 176.166 88.2241L177.867 87.8955Z" fill="#C7C7C7"/>
<path d="M173.343 91.0304C173.609 93.6522 175.689 95.5885 177.989 95.3552C180.289 95.122 181.938 92.8074 181.672 90.1856C181.406 87.5639 179.326 85.6276 177.026 85.8608C174.726 86.0941 173.077 88.4087 173.343 91.0304Z" fill="#C7C7C7"/>
<path d="M174.541 90.758C174.78 93.1148 176.65 94.8552 178.718 94.6453C180.785 94.4357 182.267 92.3551 182.028 89.9983C181.789 87.6415 179.919 85.901 177.852 86.1109C175.784 86.3208 174.302 88.4012 174.541 90.758Z" fill="#455A64"/>
<path d="M187.134 104.74C193.336 111.383 208.089 136.31 203.306 140.907C198.489 145.536 171.978 139.316 164.521 135.764C162.303 134.707 170.732 120.878 173.339 120.555C175.509 120.286 186.606 125.362 186.927 124.724C187.289 124.003 184.769 119.372 182.099 109.732C179.021 98.6164 184.395 101.806 187.134 104.74Z" fill="#DD6A57"/>
<path d="M162.318 116.091C156.928 115.341 155.428 115.975 151.215 112.926C148.45 110.924 145.986 111.831 147.564 115.011C150.143 120.212 156.895 122.641 159.478 122.81L162.318 116.091Z" fill="#DD6A57"/>
<path d="M176.638 121.28C176.638 121.28 170.58 117.917 164.915 116.548C160.997 115.602 152.243 114.493 143.868 123.13C141.881 125.179 140.503 129.506 144.963 127.339C148.131 125.799 149.675 123.866 151.68 123.306C151.68 123.306 150.581 129.019 152.711 130.929C153.663 131.783 156.316 134.051 158.633 135.523C158.633 135.523 159.089 135.105 159.592 134.492C159.592 134.492 161.75 136.089 165.813 135.702L176.638 121.28Z" fill="#DD6A57"/>
<path d="M161.031 116.242C159.158 117.219 155.222 119.356 152.611 122.223C149.711 125.409 144.982 132.326 147.355 134.443C149.095 135.995 151.133 133.513 151.133 133.513C151.133 133.513 149.781 136.784 151.659 137.842C153.371 138.807 154.833 136.792 154.833 136.792C154.833 136.792 154.354 138.917 156.182 139.528C158.381 140.264 159.024 135.689 161.894 134.509C162.539 134.245 161.031 116.242 161.031 116.242Z" fill="#DD6A57"/>
<path d="M156.487 124.727C154.876 125.934 151.921 129.615 151.103 133.428C151.085 133.515 151.14 133.575 151.174 133.5C152.965 129.493 155.399 126.123 156.517 124.754C156.532 124.736 156.506 124.713 156.487 124.727Z" fill="#263238"/>
<path d="M159.618 127.747C158.335 128.932 155.458 132.862 154.762 136.754C154.747 136.841 154.807 136.898 154.837 136.822C156.536 132.558 158.615 129.206 159.649 127.773C159.663 127.754 159.634 127.732 159.618 127.747Z" fill="#263238"/>
<path d="M151.68 123.271C149.923 123.788 148.78 124.65 147.298 125.68C146.564 126.189 145.821 126.688 145.034 127.113C144.319 127.5 143.263 128.085 142.501 127.479C142.077 127.142 142.083 126.528 142.177 126.044C142.283 125.5 142.491 124.977 142.814 124.526C142.83 124.504 142.791 124.474 142.774 124.497C142.476 124.898 142.22 125.325 142.047 125.795C141.89 126.221 141.768 126.716 141.888 127.167C142.146 128.136 143.289 128.263 144.098 127.996C144.582 127.837 145.04 127.579 145.481 127.327C145.906 127.083 146.321 126.818 146.727 126.543C147.562 125.979 148.364 125.367 149.193 124.793C150.103 124.163 150.731 123.855 151.706 123.33C151.739 123.312 151.714 123.261 151.68 123.271Z" fill="#263238"/>
<path d="M148.001 129.453C148.455 128.451 150.917 124.279 151.715 123.313C151.736 123.289 151.703 123.257 151.679 123.279C150.31 124.577 148.109 128.024 147.596 129.129C147.09 130.221 146.506 131.616 146.506 132.833C146.506 134.668 147.723 135.016 148.173 135.106C148.711 135.213 149.253 135.1 149.736 134.85C150.273 134.572 150.792 133.995 151.152 133.52C151.17 133.495 151.137 133.461 151.115 133.485C150.48 134.208 149.423 134.922 148.425 134.791C147.993 134.734 147.554 134.537 147.29 134.178C146.979 133.757 146.955 133.202 146.996 132.7C147.091 131.563 147.534 130.482 148.001 129.453Z" fill="#263238"/>
<path d="M154.764 136.756C154.508 136.975 153.981 137.736 153.145 137.899C152.533 138.018 151.893 137.96 151.424 137.514C150.964 137.078 150.791 136.461 150.763 135.845C150.747 135.496 151.025 133.989 151.147 133.535C151.157 133.499 151.112 133.483 151.101 133.516C150.836 134.326 150.55 135.208 150.55 136.002C150.549 136.662 150.758 137.371 151.253 137.831C151.765 138.309 152.515 138.477 153.174 138.23C153.501 138.108 154.534 137.446 154.834 136.793C154.84 136.779 154.775 136.747 154.764 136.756Z" fill="#263238"/>
<path d="M161.721 134.181C161.433 134.351 161.183 134.606 160.943 134.838C160.685 135.086 160.437 135.343 160.194 135.606C159.709 136.131 159.289 136.732 158.924 137.346C158.553 137.968 158.212 138.662 157.607 139.095C157.015 139.519 156.201 139.587 155.598 139.145C155.283 138.915 155.071 138.589 154.97 138.214C154.865 137.829 154.795 137.36 154.853 136.962C154.858 136.927 154.806 136.92 154.803 136.957C154.773 137.343 154.668 137.702 154.713 138.094C154.753 138.439 154.865 138.781 155.073 139.061C155.499 139.636 156.253 139.889 156.947 139.761C157.714 139.621 158.276 139.044 158.693 138.421C159.156 137.726 159.538 136.986 160.033 136.311C160.294 135.956 160.55 135.598 160.835 135.262C161.132 134.913 161.489 134.6 161.763 134.234C161.785 134.204 161.757 134.16 161.721 134.181Z" fill="#263238"/>
<path d="M163.869 135.747C163.292 135.697 161.962 135.475 160.912 135.134C160.882 135.124 160.838 135.21 160.867 135.225C161.258 135.441 162.077 135.656 162.324 135.707C162.818 135.807 163.358 135.852 163.861 135.8C163.89 135.798 163.902 135.75 163.869 135.747Z" fill="#263238"/>
<path d="M196.964 129.572C195.417 128.515 193.767 127.606 192.084 126.783C190.418 125.969 188.671 125.337 186.905 124.777C185.896 124.457 184.876 124.187 183.854 123.909C183.823 123.901 183.812 123.949 183.842 123.958C185.624 124.493 187.366 125.186 189.073 125.922C190.773 126.655 192.457 127.417 194.129 128.213C195.074 128.662 195.998 129.157 196.928 129.638C196.972 129.661 197.004 129.599 196.964 129.572Z" fill="#263238"/>
<path d="M199.837 120.407L184.782 119.909C184.782 119.909 181.98 112.478 180.913 105.867C179.846 99.2568 185.261 101.275 190.914 108.352C196.567 115.429 199.837 120.407 199.837 120.407Z" fill="#FFC727"/>
<path d="M186.458 114.388C186.375 114.452 186.305 114.487 186.218 114.507C186.052 114.539 185.889 114.491 185.774 114.369C185.591 114.193 185.3 114.142 185.082 114.251C184.97 114.295 184.878 114.395 184.823 114.475C184.766 114.561 184.702 114.641 184.65 114.734C184.743 114.683 184.823 114.619 184.913 114.561C184.996 114.494 185.063 114.455 185.15 114.433C185.313 114.395 185.486 114.439 185.598 114.551C185.767 114.727 186.058 114.795 186.279 114.695C186.391 114.651 186.487 114.561 186.545 114.475C186.602 114.388 186.666 114.308 186.718 114.215C186.625 114.267 186.545 114.331 186.458 114.388ZM191.207 111.62C191.185 111.518 191.172 111.415 191.143 111.313C191.114 111.415 191.102 111.518 191.082 111.62C191.07 111.726 191.05 111.803 191.006 111.876C190.916 112.02 190.762 112.113 190.606 112.11C190.359 112.107 190.106 112.263 190.02 112.494C189.972 112.603 189.969 112.734 189.988 112.836C190.007 112.939 190.02 113.041 190.049 113.143C190.078 113.041 190.09 112.939 190.113 112.836C190.122 112.731 190.151 112.657 190.196 112.583C190.292 112.443 190.442 112.359 190.609 112.363C190.862 112.359 191.102 112.19 191.182 111.959C191.23 111.851 191.223 111.713 191.207 111.62ZM185.918 103.342C185.918 103.38 185.921 103.415 185.927 103.451C185.95 103.55 185.959 103.652 185.988 103.755C186.017 103.652 186.03 103.55 186.052 103.451C186.052 103.447 186.052 103.447 186.052 103.444C186.007 103.406 185.962 103.374 185.918 103.342ZM196.65 115.863C196.535 115.86 196.43 115.812 196.353 115.732C196.183 115.556 195.892 115.492 195.668 115.591C195.556 115.633 195.46 115.726 195.402 115.809C195.345 115.899 195.281 115.979 195.23 116.071C195.322 116.02 195.402 115.956 195.492 115.899C195.572 115.831 195.646 115.796 195.729 115.78C195.895 115.745 196.062 115.796 196.177 115.915C196.337 116.075 196.586 116.129 196.794 116.065C196.75 116.001 196.702 115.934 196.65 115.863ZM186.231 108.359C186.126 108.347 186.049 108.321 185.975 108.276C185.834 108.18 185.754 108.03 185.758 107.863C185.754 107.607 185.585 107.367 185.354 107.287C185.242 107.243 185.108 107.246 185.012 107.265C184.91 107.287 184.807 107.3 184.705 107.329C184.807 107.355 184.91 107.367 185.012 107.39C185.121 107.403 185.194 107.422 185.271 107.467C185.415 107.556 185.505 107.71 185.505 107.867C185.502 108.11 185.658 108.366 185.889 108.452C185.998 108.5 186.129 108.503 186.231 108.484C186.33 108.462 186.433 108.452 186.535 108.423C186.433 108.395 186.33 108.382 186.231 108.359ZM193.156 118.891C193.05 118.878 192.977 118.852 192.903 118.804C192.762 118.711 192.679 118.561 192.682 118.391C192.679 118.139 192.51 117.899 192.279 117.819C192.17 117.774 192.033 117.777 191.94 117.796C191.838 117.819 191.735 117.828 191.633 117.857C191.735 117.886 191.838 117.899 191.94 117.921C192.046 117.931 192.122 117.953 192.196 117.998C192.34 118.084 192.433 118.238 192.43 118.398C192.426 118.641 192.583 118.894 192.814 118.98C192.922 119.031 193.054 119.035 193.156 119.015C193.258 118.993 193.361 118.98 193.463 118.951C193.361 118.923 193.258 118.91 193.156 118.891Z" fill="white"/>
<path d="M185.401 119.858C185.32 119.857 184.79 119.765 184.788 119.765C184.75 119.567 183.891 116.462 183.666 115.785C183.206 114.408 182.665 113.055 182.143 111.7C182.127 111.657 182.061 111.676 182.074 111.721C182.414 112.886 182.733 114.06 183.081 115.223C182.976 115.058 182.872 114.892 182.773 114.723C182.569 114.378 182.391 114.02 182.2 113.668C182.183 113.636 182.134 113.66 182.144 113.693C182.293 114.183 182.538 114.646 182.807 115.078C182.924 115.264 183.059 115.44 183.199 115.61C183.229 115.707 183.257 115.804 183.287 115.9C183.501 116.58 184.603 119.943 184.659 119.946C184.673 119.947 185.217 119.959 185.385 119.96C185.427 119.96 185.442 119.858 185.401 119.858Z" fill="#263238"/>
<path d="M197.4 117.493C194.153 117.251 190.884 117.235 187.624 117.284C186.702 117.298 185.779 117.333 184.859 117.39C184.833 117.392 184.828 117.43 184.855 117.431C186.479 117.518 188.106 117.538 189.733 117.568C191.364 117.598 192.998 117.615 194.63 117.6C195.552 117.591 196.473 117.583 197.394 117.555C197.434 117.554 197.44 117.496 197.4 117.493Z" fill="#263238"/>
<path d="M145.274 146.41H147.572V144.909H145.274V146.41Z" fill="#455A64"/>
<path d="M142.293 146.311H144.592V144.81H142.293V146.311Z" fill="#455A64"/>
<path d="M139.313 146.213H141.611V144.712H139.313V146.213Z" fill="#455A64"/>
<path d="M136.331 146.113H138.63V144.612H136.331V146.113Z" fill="#455A64"/>
<path d="M133.351 146.014H135.649V144.513H133.351V146.014Z" fill="#455A64"/>
<path d="M130.37 145.914H132.669V144.413H130.37V145.914Z" fill="#455A64"/>
<path d="M127.39 145.816H129.688V144.316H127.39V145.816Z" fill="#455A64"/>
<path d="M124.408 145.717H126.707V144.216H124.408V145.717Z" fill="#455A64"/>
<path d="M121.428 145.617H123.727V144.116H121.428V145.617Z" fill="#455A64"/>
<path d="M120.865 147.274H148.135V145.448L120.865 144.688V147.274Z" fill="#37474F"/>
<path d="M94.2482 140.074H139.267L132.108 106.559H87.0889L94.2482 140.074Z" fill="#455A64"/>
<path d="M92.5832 140.074H137.602L130.443 106.559H85.4238L92.5832 140.074Z" fill="#37474F"/>
<path d="M107.623 121.375C107.867 122.912 109.31 124.159 110.847 124.159C112.385 124.159 113.434 122.912 113.19 121.375C112.947 119.838 111.503 118.592 109.966 118.592C108.428 118.592 107.379 119.838 107.623 121.375Z" fill="#263238"/>
<path d="M105.315 148.828H127.457V147.109L105.315 146.393V148.828Z" fill="#455A64"/>
<path d="M99.2959 148.825H111.184L118.343 130.045H106.455L99.2959 148.825Z" fill="#455A64"/>
<path d="M97.3389 148.825H109.227L116.386 130.045H104.499L97.3389 148.825Z" fill="#263238"/>
<path d="M148.977 149.285C148.977 149.285 169.855 149.285 171.804 149.285C173.753 149.285 170.934 143.738 163.824 141.61C156.714 139.481 146.734 147.204 148.977 149.285Z" fill="#37474F"/>
<path d="M157.934 149.285C157.796 148.673 157.602 148.083 157.382 147.507C157.156 146.933 156.891 146.377 156.574 145.854C156.268 145.322 155.884 144.842 155.466 144.397L155.141 144.069L154.788 143.772C154.564 143.554 154.285 143.414 154.038 143.215C154.608 143.467 155.179 143.773 155.639 144.217C156.11 144.643 156.525 145.139 156.848 145.689C157.172 146.236 157.435 146.82 157.618 147.426C157.802 148.03 157.918 148.657 157.934 149.285Z" fill="#263238"/>
<path d="M155.23 144.008C154.917 144.176 154.604 144.336 154.298 144.513C153.988 144.68 153.682 144.852 153.38 145.032C152.778 145.394 152.179 145.759 151.613 146.168C151.043 146.569 150.503 147.012 150.022 147.51C149.783 147.761 149.565 148.031 149.385 148.327C149.195 148.617 149.057 148.94 148.977 149.286C148.985 148.929 149.098 148.579 149.247 148.252C149.406 147.927 149.612 147.628 149.837 147.348C150.295 146.789 150.849 146.324 151.428 145.908C152.011 145.495 152.626 145.132 153.263 144.817C153.9 144.503 154.552 144.219 155.23 144.008Z" fill="#263238"/>
<path d="M191.836 136.002L190.482 153.037H181.11L179.755 136.002H191.836Z" fill="#FFC727"/>
<path opacity="0.1" d="M191.836 136.002L190.482 153.037H181.11L179.755 136.002H191.836Z" fill="black"/>
<path d="M192.643 134.465H178.868V136.948H192.643V134.465Z" fill="#455A64"/>
<path d="M191.7 134.464H179.812L180.507 131.674H191.005L191.7 134.464Z" fill="#37474F"/>
<path d="M189.05 144.669C189.05 146.88 187.593 148.673 185.796 148.673C183.999 148.673 182.542 146.88 182.542 144.669C182.542 142.457 183.999 140.664 185.796 140.664C187.593 140.664 189.05 142.457 189.05 144.669Z" fill="white"/>
</svg>
