<svg width="296" height="179" viewBox="0 0 296 179" fill="none" xmlns="http://www.w3.org/2000/svg">
<path d="M0 14C0 6.26801 6.26801 0 14 0H282C289.732 0 296 6.26801 296 14V179H0V14Z" fill="#3442D9"/>
<path d="M85.2987 137.664C85.2928 137.483 84.6841 119.518 81.7618 116.676C78.9198 113.913 75.6576 116.573 75.5205 116.688L75.2275 116.337C75.2643 116.306 78.9459 113.3 82.0809 116.349C85.1344 119.318 85.7316 136.902 85.7556 137.65L85.2987 137.664Z" fill="#DADBD8"/>
<path d="M85.55 141.195C85.5289 140.981 83.5529 119.628 91.3508 110.679L91.6956 110.979C84.027 119.78 85.9845 140.938 86.0051 141.151L85.55 141.195Z" fill="#DADBD8"/>
<path d="M85.2615 138.936L84.8051 138.905C84.8212 138.663 86.3313 114.63 80.6113 109.369L80.9208 109.032C86.801 114.441 85.3271 137.938 85.2615 138.936Z" fill="#DADBD8"/>
<path d="M86.0062 138.922L85.5488 138.918C85.5545 138.256 85.7375 122.685 90.1608 120.15C91.1441 119.586 92.1068 119.493 93.0225 119.871C95.6971 120.977 97.0224 125.737 97.0775 125.939L96.6363 126.06C96.6234 126.013 95.3148 121.314 92.847 120.294C92.0692 119.973 91.2422 120.057 90.3882 120.547C86.191 122.952 86.0076 138.762 86.0062 138.922Z" fill="#DADBD8"/>
<path d="M84.2836 138.934L83.8271 138.907C83.8339 138.785 84.4944 126.602 81.2067 122.31C80.4101 121.271 79.5454 120.775 78.6318 120.839C76.4775 120.989 74.6711 124.142 74.6532 124.173L74.2549 123.948C74.3332 123.81 76.1995 120.551 78.5991 120.383C79.6727 120.306 80.6734 120.862 81.5698 122.032C84.9607 126.459 84.3127 138.426 84.2836 138.934Z" fill="#DADBD8"/>
<path d="M85.0043 140.59C84.9147 139.408 82.855 111.592 86.4791 106.691L86.8466 106.962C83.3229 111.728 85.4387 140.267 85.4602 140.555L85.0043 140.59Z" fill="#DADBD8"/>
<path d="M94.0082 122.691C94.0082 122.691 91.834 123.492 92.4804 125.384C93.1269 127.276 100.001 130.391 100.001 130.391C100.001 130.391 102.881 127.752 100.237 123.459C97.5927 119.168 94.0669 121.336 94.0082 122.691Z" fill="#E7E8E5"/>
<path d="M84.5561 119.09C84.5561 119.09 86.8713 118.993 87.0029 120.989C87.1343 122.984 81.9874 128.504 81.9874 128.504C81.9874 128.504 78.3143 127.176 79.1032 122.197C79.8922 117.218 83.9809 117.863 84.5561 119.09Z" fill="#E7E8E5"/>
<path d="M82.5965 109.539C82.5965 109.539 84.1401 109.373 84.0158 108.433C83.8915 107.493 78.0156 105.073 74.5488 108.986C74.5488 108.986 76.7687 112.799 79.9776 112.849C83.1865 112.899 82.5965 109.539 82.5965 109.539Z" fill="#E7E8E5"/>
<path d="M85.473 107.255C85.473 107.255 84.0754 107.931 83.6837 107.067C83.2918 106.203 86.999 101.042 92.0107 102.53C92.0107 102.53 92.1432 106.939 89.4463 108.679C86.7495 110.418 85.473 107.255 85.473 107.255Z" fill="#E7E8E5"/>
<path d="M78.1651 121.932C78.1651 121.932 79.2303 121.071 78.0807 120.652C76.9311 120.232 71.2902 120.351 71.2314 125.939C71.2314 125.939 77.8013 127.031 78.6144 124.902C79.4277 122.774 78.1651 121.932 78.1651 121.932Z" fill="#E7E8E5"/>
<path d="M91.562 109.398C91.562 109.398 90.497 108.538 91.6465 108.119C92.7963 107.698 98.437 107.818 98.4956 113.405C98.4956 113.405 91.9259 114.497 91.113 112.369C90.2996 110.24 91.562 109.398 91.562 109.398Z" fill="#E7E8E5"/>
<path d="M88.0889 113.898C88.0889 113.898 87.9953 112.853 88.8393 113.262C89.6836 113.672 92.6243 116.845 89.5757 119.855C89.5757 119.855 85.4726 116.816 86.2123 115.234C86.952 113.651 88.0889 113.898 88.0889 113.898Z" fill="#E7E8E5"/>
<path d="M77.2123 115.39C77.2123 115.39 77.8491 114.556 76.9166 114.452C75.9839 114.349 71.8045 115.464 72.7778 119.637C72.7778 119.637 77.8696 119.254 78.0878 117.521C78.3059 115.788 77.2123 115.39 77.2123 115.39Z" fill="#E7E8E5"/>
<path d="M90.2862 146.982H80.0158L77.2842 134.382H92.7586L90.2862 146.982Z" fill="#EDEDEB"/>
<path d="M93.6499 137.824H76.3525V134.201H93.6499V137.824Z" fill="#E2E2E0"/>
<path d="M152.86 15.0971C151.651 15.0971 150.667 16.0813 150.667 17.2905V120.189C150.667 121.399 151.651 122.383 152.86 122.383H223.504C224.714 122.383 225.698 121.399 225.698 120.189V17.2905C225.698 16.0813 224.714 15.0971 223.504 15.0971H152.86ZM223.504 122.48H152.86C151.597 122.48 150.569 121.453 150.569 120.189V17.2905C150.569 16.0269 151.597 14.9994 152.86 14.9994H223.504C224.768 14.9994 225.796 16.0269 225.796 17.2905V120.189C225.796 121.453 224.768 122.48 223.504 122.48Z" fill="#DADBD8"/>
<path d="M71.3975 15.0971C70.1881 15.0971 69.2042 16.0813 69.2042 17.2905V120.189C69.2042 121.399 70.1881 122.383 71.3975 122.383H142.041C143.251 122.383 144.235 121.399 144.235 120.189V17.2905C144.235 16.0813 143.251 15.0971 142.041 15.0971H71.3975ZM142.041 122.48H71.3975C70.1341 122.48 69.1064 121.453 69.1064 120.189V17.2905C69.1064 16.0269 70.1341 14.9994 71.3975 14.9994H142.041C143.305 14.9994 144.333 16.0269 144.333 17.2905V120.189C144.333 121.453 143.305 122.48 142.041 122.48Z" fill="#DADBD8"/>
<path d="M50 146.447H245.422V146.35H50V146.447Z" fill="#DADBD8"/>
<path d="M70.1953 151.924H76.4723V152.021H70.1953V151.924Z" fill="#DADBD8"/>
<path d="M116.581 150.865H137.503V150.963H116.581V150.865Z" fill="#DADBD8"/>
<path d="M76.8633 155.555H91.0312V155.652H76.8633V155.555Z" fill="#DADBD8"/>
<path d="M197.877 150.814H214.758V150.912H197.877V150.814Z" fill="#DADBD8"/>
<path d="M218.24 150.814H220.714V150.912H218.24V150.814Z" fill="#DADBD8"/>
<path d="M173.59 153.25H194.652V153.348H173.59V153.25Z" fill="#DADBD8"/>
<path d="M76.6523 73.3922C76.6523 74.8797 75.4461 76.0859 73.9583 76.0859C72.4707 76.0859 71.2646 74.8797 71.2646 73.3922C71.2646 71.9042 72.4707 70.6985 73.9583 70.6985C75.4461 70.6985 76.6523 71.9042 76.6523 73.3922ZM79.1958 72.3009C79.0576 71.6338 78.7932 71.0135 78.4317 70.4628L79.0898 69.6678L77.6828 68.2608L76.8879 68.9186C76.337 68.5574 75.7168 68.2928 75.0498 68.1549L74.9533 67.1301H72.9635L72.8669 68.1549C72.2 68.2932 71.5797 68.5574 71.029 68.9186L70.234 68.2608L68.827 69.6678L69.485 70.4628C69.1236 71.0135 68.8593 71.6338 68.7208 72.3009L67.6963 72.3975V74.3873L68.7208 74.4838C68.8593 75.1506 69.1236 75.7709 69.485 76.3216L68.827 77.1165L70.234 78.5236L71.029 77.8654C71.5797 78.2269 72.2 78.4911 72.8669 78.6295L72.9635 79.6543H74.9533L75.0498 78.6295C75.7168 78.4915 76.337 78.2269 76.8879 77.8654L77.6828 78.5236L79.0898 77.1165L78.4317 76.3216C78.7932 75.7709 79.0576 75.1506 79.1958 74.4838L80.2204 74.3873V72.3975L79.1958 72.3009Z" fill="#E7E8E5"/>
<path d="M181.233 69.3063C181.233 70.7938 180.026 71.9999 178.538 71.9999C177.051 71.9999 175.845 70.7938 175.845 69.3063C175.845 67.8187 177.051 66.6126 178.538 66.6126C180.026 66.6126 181.233 67.8187 181.233 69.3063ZM183.776 68.2146C183.638 67.5478 183.374 66.9276 183.012 66.3769L183.67 65.5819L182.263 64.1749L181.468 64.8326C180.917 64.4715 180.297 64.2069 179.63 64.0689L179.534 63.0441H177.544L177.447 64.0689C176.78 64.2069 176.16 64.4715 175.609 64.8326L174.814 64.1749L173.407 65.5819L174.065 66.3769C173.704 66.9276 173.44 67.5478 173.301 68.2146L172.276 68.3116V70.3013L173.301 70.3979C173.44 71.0647 173.704 71.6849 174.065 72.2356L173.407 73.0306L174.814 74.4376L175.609 73.7795C176.16 74.141 176.78 74.4052 177.447 74.5436L177.544 75.5684H179.534L179.63 74.544C180.297 74.4056 180.917 74.141 181.468 73.7795L182.263 74.4376L183.67 73.0306L183.012 72.2356C183.374 71.6849 183.638 71.0647 183.776 70.3979L184.801 70.3013V68.3116L183.776 68.2146Z" fill="#E7E8E5"/>
<path d="M185.18 112.593C185.18 114.081 183.975 115.287 182.487 115.287C180.999 115.287 179.793 114.081 179.793 112.593C179.793 111.105 180.999 109.899 182.487 109.899C183.975 109.899 185.18 111.105 185.18 112.593ZM187.724 111.502C187.586 110.835 187.321 110.215 186.96 109.664L187.618 108.869L186.211 107.462L185.416 108.12C184.865 107.759 184.245 107.494 183.578 107.356L183.482 106.331H181.492L181.395 107.356C180.728 107.494 180.108 107.759 179.557 108.12L178.762 107.462L177.355 108.869L178.014 109.664C177.652 110.215 177.388 110.835 177.249 111.502L176.225 111.598V113.588L177.249 113.685C177.388 114.352 177.652 114.972 178.014 115.523L177.355 116.318L178.762 117.725L179.557 117.067C180.108 117.428 180.728 117.692 181.395 117.831L181.492 118.855H183.482L183.578 117.831C184.245 117.693 184.865 117.428 185.416 117.067L186.211 117.725L187.618 116.318L186.96 115.523C187.321 114.972 187.586 114.352 187.724 113.685L188.749 113.588V111.598L187.724 111.502Z" fill="#E7E8E5"/>
<path d="M138.799 32.9416C138.799 34.3377 137.667 35.4696 136.271 35.4696C134.875 35.4696 133.743 34.3377 133.743 32.9416C133.743 31.5451 134.875 30.4132 136.271 30.4132C137.667 30.4132 138.799 31.5451 138.799 32.9416ZM141.186 31.9172C141.057 31.2911 140.808 30.7091 140.469 30.192L141.087 29.4459L139.766 28.1253L139.02 28.7432C138.503 28.4039 137.921 28.1557 137.295 28.026L137.204 27.0645H135.337L135.246 28.026C134.621 28.1557 134.039 28.4039 133.521 28.7432L132.775 28.1253L131.455 29.4459L132.073 30.192C131.733 30.7091 131.485 31.2911 131.355 31.9172L130.394 32.0079V33.8754L131.355 33.9656C131.485 34.5918 131.733 35.1737 132.073 35.6908L131.455 36.4369L132.775 37.7576L133.521 37.1397C134.039 37.4793 134.621 37.7271 135.246 37.8569L135.337 38.8184H137.204L137.295 37.8569C137.921 37.7271 138.503 37.4793 139.02 37.1397L139.766 37.7576L141.087 36.4369L140.469 35.6908C140.808 35.1737 141.057 34.5918 141.186 33.9656L142.148 33.8754V32.0079L141.186 31.9172Z" fill="#E7E8E5"/>
<path d="M230.277 81.1373C231.353 80.5115 232.078 79.3492 232.078 78.0148C232.078 76.0192 230.461 74.4015 228.465 74.4015C226.47 74.4015 224.852 76.0192 224.852 78.0148C224.852 79.3503 225.579 80.5135 226.656 81.1388C222.222 82.2051 221.949 87.1094 221.949 87.1094L234.981 87.0343C234.981 87.0343 234.708 82.1918 230.277 81.1373Z" fill="#E7E8E5"/>
<path d="M188.764 39.6437C188.764 39.6437 202.573 25.5596 216.383 39.784C216.383 39.784 203.441 56.8162 188.764 39.6437Z" fill="#F3F2F1"/>
<path d="M207.578 40.3691C207.578 43.1327 205.338 45.373 202.574 45.373C199.811 45.373 197.57 43.1327 197.57 40.3691C197.57 37.6054 199.811 35.3651 202.574 35.3651C205.338 35.3651 207.578 37.6054 207.578 40.3691Z" fill="#808675"/>
<path d="M204.573 40.37C204.573 41.4741 203.678 42.3691 202.574 42.3691C201.47 42.3691 200.575 41.4741 200.575 40.37C200.575 39.2658 201.47 38.3708 202.574 38.3708C203.678 38.3708 204.573 39.2658 204.573 40.37Z" fill="#DADBD8"/>
<path d="M125.986 129.293C125.484 129.293 125.045 129.123 124.67 128.784C124.296 128.444 124.108 127.97 124.108 127.36C124.108 126.819 124.289 126.363 124.652 125.993C125.014 125.625 125.459 125.439 125.986 125.439C126.505 125.439 126.942 125.625 127.296 125.993C127.65 126.363 127.827 126.819 127.827 127.36C127.827 127.961 127.642 128.434 127.271 128.777C126.901 129.121 126.472 129.293 125.986 129.293Z" fill="#E2E2E0"/>
<path d="M120.199 115.666C120.199 114.871 120.444 114.066 120.933 113.25C121.423 112.434 122.137 111.758 123.075 111.223C124.013 110.687 125.109 110.419 126.36 110.419C127.523 110.419 128.55 110.643 129.44 111.091C130.331 111.538 131.019 112.147 131.504 112.917C131.989 113.687 132.232 114.524 132.232 115.427C132.232 116.139 132.094 116.762 131.817 117.298C131.54 117.833 131.211 118.295 130.83 118.685C130.449 119.074 129.765 119.729 128.779 120.649C128.506 120.908 128.287 121.136 128.123 121.333C127.958 121.53 127.836 121.709 127.756 121.873C127.676 122.036 127.614 122.199 127.569 122.362C127.525 122.525 127.459 122.812 127.371 123.222C127.218 124.092 126.741 124.527 125.939 124.527C125.522 124.527 125.171 124.385 124.886 124.101C124.601 123.816 124.459 123.394 124.459 122.833C124.459 122.13 124.563 121.521 124.772 121.007C124.98 120.492 125.257 120.04 125.602 119.651C125.947 119.262 126.412 118.8 126.998 118.264C127.511 117.795 127.882 117.442 128.111 117.203C128.339 116.965 128.532 116.7 128.688 116.406C128.845 116.114 128.923 115.796 128.923 115.452C128.923 114.783 128.684 114.218 128.207 113.758C127.73 113.298 127.114 113.068 126.36 113.068C125.478 113.068 124.828 113.3 124.411 113.764C123.994 114.229 123.641 114.913 123.352 115.817C123.079 116.762 122.561 117.235 121.8 117.235C121.35 117.235 120.971 117.07 120.662 116.739C120.354 116.408 120.199 116.051 120.199 115.666Z" fill="#E2E2E0"/>
<path d="M124.502 96.6211H117.878C116.383 96.6211 115.172 95.4099 115.172 93.9153C115.172 92.4211 116.383 91.2095 117.878 91.2095H124.502C125.996 91.2095 127.208 92.4211 127.208 93.9153C127.208 95.4099 125.996 96.6211 124.502 96.6211Z" fill="#E7E8E5"/>
<path d="M127.208 93.9148C127.208 95.47 125.948 96.7305 124.392 96.7305C122.838 96.7305 121.577 95.47 121.577 93.9148C121.577 92.36 122.838 91.0996 124.392 91.0996C125.948 91.0996 127.208 92.36 127.208 93.9148Z" fill="#DADBD8"/>
<path d="M76.7966 31.0156C76.4468 31.0156 76.1415 30.8976 75.8806 30.6615C75.6198 30.4251 75.4893 30.0948 75.4893 29.67C75.4893 29.2932 75.6155 28.9762 75.8678 28.7194C76.12 28.4622 76.4296 28.3333 76.7966 28.3333C77.1577 28.3333 77.4615 28.4622 77.7081 28.7194C77.9546 28.9762 78.0779 29.2932 78.0779 29.67C78.0779 30.0885 77.9488 30.4176 77.691 30.6568C77.433 30.896 77.1348 31.0156 76.7966 31.0156Z" fill="#E2E2E0"/>
<path d="M72.7686 21.5294C72.7686 20.9763 72.9389 20.4154 73.2795 19.8476C73.62 19.2797 74.1171 18.8095 74.7703 18.4366C75.4236 18.0641 76.1858 17.8773 77.0569 17.8773C77.8665 17.8773 78.5812 18.0336 79.201 18.3448C79.8207 18.6567 80.2995 19.0803 80.6373 19.6162C80.9751 20.152 81.1441 20.7344 81.1441 21.3636C81.1441 21.8584 81.0477 22.2923 80.855 22.6651C80.6626 23.038 80.4335 23.3597 80.1683 23.6305C79.9031 23.9014 79.4271 24.3571 78.7404 24.9977C78.5504 25.1783 78.3984 25.3374 78.2839 25.4741C78.1694 25.6109 78.0842 25.736 78.0285 25.8497C77.9726 25.9631 77.9292 26.0768 77.8985 26.1906C77.8679 26.3039 77.8217 26.5036 77.7604 26.7889C77.6543 27.3948 77.322 27.6973 76.7637 27.6973C76.4733 27.6973 76.2291 27.5984 76.0309 27.4006C75.8325 27.2025 75.7335 26.9082 75.7335 26.5181C75.7335 26.0288 75.8062 25.6051 75.9513 25.2467C76.0964 24.8887 76.289 24.574 76.5292 24.3032C76.7692 24.0323 77.0932 23.7107 77.5007 23.3378C77.8581 23.0118 78.1164 22.7656 78.2755 22.5995C78.4346 22.4338 78.5686 22.2489 78.6775 22.0449C78.7863 21.8409 78.8407 21.6196 78.8407 21.3808C78.8407 20.9149 78.6747 20.5218 78.3425 20.2013C78.0103 19.8812 77.5816 19.7209 77.0569 19.7209C76.4426 19.7209 75.9904 19.8823 75.7 20.206C75.4096 20.5292 75.164 21.0052 74.9629 21.6345C74.7732 22.2923 74.413 22.6214 73.8826 22.6214C73.5698 22.6214 73.306 22.5069 73.091 22.2763C72.876 22.0464 72.7686 21.7975 72.7686 21.5294Z" fill="#E2E2E0"/>
<path d="M203.323 170.64C203.323 173.048 178.076 175 146.933 175C115.79 175 90.543 173.048 90.543 170.64C90.543 168.232 115.79 166.28 146.933 166.28C178.076 166.28 203.323 168.232 203.323 170.64Z" fill="#F3F2F1"/>
<path d="M214.989 110.758H172.093C168.249 110.758 165.133 107.642 165.133 103.798V80.8277C165.133 76.9842 168.249 73.868 172.093 73.868H214.989C218.833 73.868 221.949 76.9842 221.949 80.8277V103.798C221.949 107.642 218.833 110.758 214.989 110.758Z" fill="#17282F"/>
<path d="M178.818 93.8379V83.3128H185.27V93.6468C185.27 96.5718 186.391 97.6654 188.195 97.6654C190 97.6654 191.121 96.5718 191.121 93.6468V83.3128H197.463V93.8379C197.463 99.579 194.018 102.887 188.14 102.887C182.263 102.887 178.818 99.579 178.818 93.8379Z" fill="white"/>
<path d="M200.413 83.3127H206.865V102.449H200.413V83.3127Z" fill="white"/>
<path d="M206.167 132.756H194.744C193.019 132.756 191.62 131.357 191.62 129.631V118.209C191.62 116.484 193.019 115.085 194.744 115.085H206.167C207.892 115.085 209.291 116.484 209.291 118.209V129.631C209.291 131.357 207.892 132.756 206.167 132.756Z" fill="#406FBF"/>
<path d="M197.992 128.105V119.734L201.617 121.827L205.242 123.92L201.617 126.013L197.992 128.105Z" fill="#CFE0F5"/>
<path d="M233.664 120.441H215.421C214.683 120.441 214.084 119.843 214.084 119.104V103.539C214.084 102.8 214.683 102.201 215.421 102.201H233.664C234.402 102.201 235.001 102.8 235.001 103.539V119.104C235.001 119.843 234.402 120.441 233.664 120.441Z" fill="#406FBF"/>
<path d="M233.664 120.441H215.421C214.683 120.441 214.084 119.843 214.084 119.104V103.539C214.084 102.8 214.683 102.201 215.421 102.201H233.664C234.402 102.201 235.001 102.8 235.001 103.539V119.104C235.001 119.843 234.402 120.441 233.664 120.441Z" fill="#CFE0F5"/>
<path d="M214.084 117.507L220.346 111.357L225.695 114.145L230.72 108.692L235.001 112.338V119.753C235.001 120.133 234.648 120.441 234.212 120.441H215.421C213.69 120.441 214.003 117.971 214.084 117.507Z" fill="#406FBF"/>
<path d="M227.063 107.378C227.063 108.626 226.075 109.639 224.855 109.639C223.635 109.639 222.646 108.626 222.646 107.378C222.646 106.13 223.635 105.117 224.855 105.117C226.075 105.117 227.063 106.13 227.063 107.378Z" fill="#406FBF"/>
<path d="M228.613 67.1465H209.085C207.477 67.1465 206.172 65.8418 206.172 64.2327V52.3562C206.172 50.7474 207.477 49.4428 209.085 49.4428H228.613C230.222 49.4428 231.526 50.7474 231.526 52.3562V64.2327C231.526 65.8418 230.222 67.1465 228.613 67.1465Z" fill="#406FBF"/>
<path d="M228.613 67.1465H209.085C207.477 67.1465 206.172 65.8418 206.172 64.2327V52.3562C206.172 50.7474 207.477 49.4428 209.085 49.4428H228.613C230.222 49.4428 231.526 50.7474 231.526 52.3562V64.2327C231.526 65.8418 230.222 67.1465 228.613 67.1465Z" fill="#7DA6DD"/>
<path d="M216.093 56.7693L212.14 58.2947L216.093 59.8202V60.7441L211.104 58.7735V57.8159L216.093 55.8453V56.7693Z" fill="white"/>
<path d="M220.2 52.8164H221.169L217.494 63.3047H216.525L220.2 52.8164Z" fill="white"/>
<path d="M226.492 57.8159V58.7735L221.504 60.7441V59.8202L225.467 58.2947L221.504 56.7693V55.8453L226.492 57.8159Z" fill="white"/>
<path d="M200.503 66.9537V69.1522H198.305V69.4453H200.796V66.9537H200.503Z" fill="#406FBF"/>
<path d="M193.139 69.4453H195.722V69.1522H193.139V69.4453Z" fill="#406FBF"/>
<path d="M190.555 69.1522H188.357V66.9537H188.063V69.4453H190.555V69.1522Z" fill="#406FBF"/>
<path d="M188.063 64.3691H188.357V61.7861H188.063V64.3691Z" fill="#406FBF"/>
<path d="M188.357 59.2031V57.005H190.555V56.7119H188.063V59.2031H188.357Z" fill="#406FBF"/>
<path d="M193.139 57.0059H195.722V56.7127H193.139V57.0059Z" fill="#406FBF"/>
<path d="M198.305 57.005H200.503V59.2031H200.796V56.7119H198.305V57.005Z" fill="#406FBF"/>
<path d="M200.503 64.3711H200.796V61.7877H200.503V64.3711Z" fill="#406FBF"/>
<path d="M194.821 64.2428L193.843 61.8891H193.757L192.84 64.2428H194.821ZM191.004 66.3823C191.249 66.3659 191.446 66.2549 191.594 66.0497C191.691 65.9207 191.828 65.6362 192.007 65.1957L194.266 59.6304H194.548L196.818 64.9725C197.072 65.5713 197.263 65.9578 197.388 66.1314C197.514 66.3053 197.693 66.3889 197.925 66.3823V66.6406H194.633V66.3823C194.964 66.369 195.182 66.3412 195.286 66.2979C195.39 66.2549 195.442 66.1458 195.442 65.9703C195.442 65.891 195.416 65.7702 195.363 65.608C195.33 65.5119 195.285 65.3962 195.229 65.2606L194.97 64.6446H192.687C192.538 65.0483 192.442 65.3117 192.399 65.4341C192.309 65.6956 192.265 65.8859 192.265 66.0051C192.265 66.1505 192.362 66.2564 192.558 66.3229C192.674 66.3592 192.847 66.3791 193.079 66.3823V66.6406H191.004V66.3823Z" fill="#406FBF"/>
<path d="M188.736 57.6074H187.102V55.9733H188.736V57.6074Z" fill="#406FBF"/>
<path d="M201.369 57.6074H199.735V55.9733H201.369V57.6074Z" fill="#406FBF"/>
<path d="M188.736 70.1152H187.102V68.4811H188.736V70.1152Z" fill="#406FBF"/>
<path d="M201.369 70.1152H199.735V68.4811H201.369V70.1152Z" fill="#406FBF"/>
<path d="M76.8394 34.924C76.8394 37.1721 75.0169 38.9946 72.7687 38.9946C70.5204 38.9946 68.6979 37.1721 68.6979 34.924C68.6979 32.6759 70.5204 30.8529 72.7687 30.8529C75.0169 30.8529 76.8394 32.6759 76.8394 34.924ZM80.6833 33.2746C80.4742 32.2666 80.0747 31.3294 79.5284 30.4969L80.5229 29.2958L78.3968 27.1692L77.1955 28.1636C76.3631 27.6179 75.4259 27.2181 74.418 27.0094L74.2722 25.4609H71.2651L71.1192 27.0094C70.1114 27.2181 69.1741 27.6179 68.3419 28.1636L67.1405 27.1692L65.0142 29.2958L66.0087 30.4969C65.4625 31.3294 65.0631 32.2666 64.8541 33.2746L63.3057 33.4204V36.4272L64.8541 36.5733C65.0631 37.5809 65.4625 38.5182 66.0087 39.3507L65.0142 40.5518L67.1405 42.6783L68.3419 41.6836C69.1741 42.23 70.1114 42.6291 71.1192 42.8382L71.2651 44.3867H74.2722L74.418 42.8386C75.4259 42.6295 76.3631 42.23 77.1955 41.6836L78.3968 42.6783L80.5229 40.5518L79.5284 39.3507C80.0747 38.5182 80.4742 37.5809 80.6833 36.5733L82.2314 36.4272V33.4204L80.6833 33.2746Z" fill="#406FBF"/>
<path d="M74.2722 44.3867H71.2651L71.1192 42.8382C70.4457 42.6987 69.8039 42.4739 69.2039 42.1773C69.1712 42.1612 69.1385 42.1448 69.1062 42.128C68.8428 41.9936 68.5878 41.8451 68.3419 41.6836L67.1405 42.6783L65.0142 40.5518L66.0087 39.3507C65.4625 38.5182 65.0631 37.5809 64.8541 36.5733L63.3057 36.4272V33.4204L64.8541 33.2746C65.0631 32.2666 65.4625 31.3294 66.0087 30.4969L65.0142 29.2958L67.1405 27.1692L68.3419 28.1636C69.1741 27.6179 70.1114 27.2181 71.1192 27.0094L71.2651 25.4609H74.2722L74.418 27.0094C75.4259 27.2181 76.3631 27.6179 77.1955 28.1636L78.3968 27.1692L80.5229 29.2958L79.5284 30.4969C80.0747 31.3294 80.4742 32.2666 80.6833 33.2746L82.2314 33.4204V36.4272L80.6833 36.5733C80.4742 37.5809 80.0747 38.5182 79.5284 39.3507L80.5229 40.5518L78.3968 42.6783L77.1955 41.6836C76.3631 42.23 75.4259 42.6295 74.418 42.8386L74.2722 44.3867ZM68.6979 34.924C68.6979 37.1721 70.5204 38.9946 72.7687 38.9946C75.0169 38.9946 76.8394 37.1721 76.8394 34.924C76.8394 32.6759 75.0169 30.8529 72.7687 30.8529C71.2338 30.8529 69.8975 31.7026 69.2039 32.9569C69.1697 33.0186 69.1372 33.0812 69.1062 33.1449C68.8446 33.6823 68.6979 34.2861 68.6979 34.924Z" fill="white"/>
<path d="M88.0938 88.7448C88.0938 90.2719 86.856 91.5097 85.3292 91.5097C83.8022 91.5097 82.5645 90.2719 82.5645 88.7448C82.5645 87.2182 83.8022 85.9804 85.3292 85.9804C86.856 85.9804 88.0938 87.2182 88.0938 88.7448ZM90.7042 87.6247C90.5623 86.9403 90.2911 86.3036 89.9202 85.7384L90.5956 84.9228L89.1514 83.4786L88.3356 84.154C87.7704 83.7831 87.1339 83.5114 86.4493 83.3695L86.3504 82.3182H84.3081L84.209 83.3695C83.5245 83.5118 82.8879 83.7831 82.3227 84.154L81.5068 83.4786L80.0628 84.9228L80.7383 85.7384C80.3671 86.3036 80.0959 86.9403 79.954 87.6247L78.9023 87.7239V89.7661L79.954 89.8654C80.0959 90.5497 80.3671 91.186 80.7383 91.7512L80.0628 92.5673L81.5068 94.0115L82.3227 93.3357C82.8879 93.707 83.5245 93.9782 84.209 94.1201L84.3081 95.1719H86.3504L86.4493 94.1201C87.1339 93.9782 87.7704 93.707 88.3356 93.3357L89.1514 94.0115L90.5956 92.5673L89.9202 91.7516C90.2911 91.186 90.5623 90.5497 90.7042 89.8654L91.756 89.7661V87.7239L90.7042 87.6247Z" fill="#406FBF"/>
<path d="M86.3504 95.1719H84.3081L84.209 94.1201C83.5245 93.9782 82.8879 93.707 82.3227 93.3357L81.5068 94.0115L80.0628 92.5673L80.7383 91.7512C80.3671 91.186 80.0959 90.5497 79.954 89.8654L78.9023 89.7661V87.7239L79.954 87.6247C80.0959 86.9403 80.3671 86.3036 80.7383 85.7384L80.0628 84.9228L81.5068 83.4786L82.3227 84.154C82.8879 83.7831 83.5245 83.5118 84.209 83.3695L84.3081 82.3182H86.3504L86.4493 83.3695C87.1339 83.5114 87.7704 83.7831 88.3356 84.154L89.1514 83.4786L90.5956 84.9228L89.9202 85.7384C90.2911 86.3036 90.5623 86.9403 90.7042 87.6247L91.756 87.7239V89.7661L90.7042 89.8654C90.5623 90.5497 90.2911 91.186 89.9202 91.7516L90.5956 92.5673L89.1514 94.0115L88.3356 93.3357C87.7704 93.707 87.1339 93.9782 86.4493 94.1201L86.3504 95.1719ZM82.5645 88.7448C82.5645 90.2719 83.8022 91.5097 85.3292 91.5097C86.856 91.5097 88.0938 90.2719 88.0938 88.7448C88.0938 87.2182 86.856 85.9804 85.3292 85.9804C83.8022 85.9804 82.5645 87.2182 82.5645 88.7448Z" fill="white"/>
<path d="M104.314 106.084C103.634 103.175 105.112 100.342 107.617 99.7556C110.122 99.1698 112.703 101.054 113.384 103.963C114.065 106.873 112.586 109.706 110.081 110.292C107.576 110.878 104.994 108.994 104.314 106.084Z" fill="#406FBF"/>
<path d="M109.157 110.398C106.97 110.398 104.911 108.636 104.314 106.084C104.285 105.959 104.26 105.835 104.238 105.71L105.201 105.485L105.231 105.61L107.342 105.117C107.349 105.113 107.345 105.068 107.333 104.986L109.59 104.458L109.616 104.567L111.726 104.073C111.732 104.069 111.73 104.032 111.72 103.96L113.281 103.595L113.262 103.514C113.307 103.66 113.348 103.81 113.384 103.963C113.497 104.443 113.55 104.921 113.55 105.387C113.549 107.746 112.172 109.802 110.081 110.291C109.773 110.364 109.464 110.398 109.157 110.398Z" fill="#2251AA"/>
<path d="M85.6543 26.3484L87.704 16.0465L94.7181 24.2289L113.281 103.595L104.217 105.715L85.6543 26.3484Z" fill="#406FBF"/>
<path d="M89.5589 18.2038C88.903 19.0097 88.1058 19.2028 87.1604 18.7717L85.6543 26.3478C85.6543 26.3478 86.9136 28.2066 87.9253 25.9612C87.9253 25.9612 89.5108 27.5739 90.5098 25.357C90.5098 25.357 91.9689 26.5948 92.7642 24.8298C92.7642 24.8298 94.0118 25.7947 94.7181 24.2282L89.5589 18.2038Z" fill="#C8685A"/>
<path d="M109.616 104.566L109.59 104.458L111.72 103.96C111.73 104.031 111.732 104.069 111.726 104.073L109.616 104.566Z" fill="#5B7EC0"/>
<path d="M109.589 104.459L103.673 79.8885H106.105C109.147 92.5914 111.551 102.783 111.72 103.961L109.589 104.459ZM97.2074 42.9983H94.7901L90.5498 25.39C90.671 25.4822 91.0501 25.7433 91.4878 25.7769C91.5289 25.7808 91.5703 25.7832 91.6125 25.7832C92.0174 25.7832 92.4599 25.5717 92.7901 24.8498C92.7944 24.8526 92.7987 24.8557 92.8038 24.8592C92.9215 25.3443 94.7404 32.8191 97.2074 42.9983Z" fill="#6D97D6"/>
<path d="M91.488 25.7773C91.0503 25.7437 90.6712 25.4827 90.55 25.3904L90.543 25.3615C90.543 25.3615 90.9702 25.7242 91.488 25.7773ZM92.804 24.8596C92.7989 24.8561 92.7946 24.853 92.7903 24.8503C92.7931 24.8448 92.7954 24.8397 92.7978 24.8342C92.7978 24.8342 92.7997 24.8428 92.804 24.8596Z" fill="#DA8F86"/>
<path d="M105.231 105.609L105.201 105.484L107.333 104.985C107.345 105.068 107.348 105.112 107.341 105.116L105.231 105.609Z" fill="#5B7EC0"/>
<path d="M105.201 105.484L99.0373 79.8876H101.471C104.615 93.0098 107.139 103.695 107.333 104.986L105.201 105.484ZM92.57 42.9973H90.1542L86.292 26.9575C86.4366 27.0392 86.599 27.0962 86.7712 27.0962C87.1418 27.0962 87.5575 26.8328 87.9384 25.9874C87.9384 25.9874 88.1838 26.236 88.5415 26.404C88.9841 28.2234 90.5353 34.6032 92.57 42.9973Z" fill="#6D97D6"/>
<path d="M103.852 105.211L113.452 102.965L113.814 104.515L104.214 106.76L103.852 105.211Z" fill="#17282F"/>
<path d="M128.61 49.1289V49.0311H101.83V22.349H128.512V49.1289H128.61H128.708V22.1536H101.635V49.2266H128.708V49.1289H128.61Z" fill="#17282F"/>
<path d="M127.248 47.7441V47.6464H103.122V23.6184H127.151V47.7441H127.248H127.346V23.423H102.927V47.8418H127.346V47.7441H127.248Z" fill="#17282F"/>
<path d="M103.094 47.7109L127.317 23.4876L127.179 23.3496L102.956 47.5726" fill="#17282F"/>
<path d="M127.317 47.5726L103.094 23.3496L102.956 23.4876L127.179 47.7109" fill="#17282F"/>
<path d="M126.422 79.8887H83.5252C79.6813 79.8887 76.5654 76.7725 76.5654 72.9289V49.9582C76.5654 46.1146 79.6813 42.9984 83.5252 42.9984H126.422C130.266 42.9984 133.382 46.1146 133.382 49.9582V72.9289C133.382 76.7725 130.266 79.8887 126.422 79.8887Z" fill="#406FBF"/>
<path d="M85.0527 62.9688V52.4433H91.5045V62.7772C91.5045 65.7023 92.6254 66.7959 94.4296 66.7959C96.2337 66.7959 97.3546 65.7023 97.3546 62.7772V52.4433H103.697V62.9688C103.697 68.7099 100.253 72.0176 94.3748 72.0176C88.4972 72.0176 85.0527 68.7099 85.0527 62.9688Z" fill="white"/>
<path d="M118.485 71.5801L115.177 66.4678L111.951 71.5801H104.597L111.513 61.9297L104.843 52.4432H112.087L115.341 57.2548L118.512 52.4432H125.456L118.813 61.6839L125.866 71.5801H118.485Z" fill="white"/>
<path d="M124.895 89.0996H117.056C115.562 89.0996 114.351 87.8884 114.351 86.3938C114.351 84.8996 115.562 83.6884 117.056 83.6884H124.895C126.389 83.6884 127.601 84.8996 127.601 86.3938C127.601 87.8884 126.389 89.0996 124.895 89.0996Z" fill="#406FBF"/>
<path d="M119.981 86.3953C119.981 87.9505 118.721 89.2109 117.166 89.2109C115.611 89.2109 114.351 87.9505 114.351 86.3953C114.351 84.8405 115.611 83.58 117.166 83.58C118.721 83.58 119.981 84.8405 119.981 86.3953Z" fill="#17282F"/>
<path d="M162.807 51.324C161.59 50.6549 160.548 49.573 160.302 48.2578C160.108 47.2209 160.359 45.9878 159.57 45.248C159.022 44.7356 158.156 44.6695 157.547 44.2228C156.466 43.4282 156.984 40.2788 156.869 38.9839C156.709 37.2005 155.429 37.091 153.995 35.929L146.947 32.7128C143.963 33.0364 141.262 37.4017 141.078 40.448C140.975 42.1466 141.344 43.9113 140.751 45.5172C140.373 46.5436 139.63 47.4117 139.154 48.4013C138.38 50.0088 138.352 51.8681 138.725 53.5995C139.098 55.331 139.848 56.9655 140.593 58.5851C140.876 59.2011 141.19 59.8515 141.781 60.2204C142.246 60.51 142.82 60.5839 143.373 60.6382C148.402 61.1319 153.539 60.596 158.334 59.0772C160.225 58.478 162.258 57.5424 162.923 55.757C161.748 54.704 160.809 53.415 160.185 51.9998C161.042 52.2968 161.752 52.8722 162.501 53.3666C163.249 53.8614 164.109 54.2972 165.02 54.2475C165.93 54.1979 166.849 53.4862 166.782 52.6224C165.414 52.3117 164.024 51.9931 162.807 51.324Z" fill="#17282F"/>
<path d="M148.411 29.4255C147.975 29.0605 147.409 28.8791 146.844 28.8103C146.18 28.7294 145.483 28.799 144.89 29.1078C144.297 29.4165 143.821 29.986 143.719 30.6473C143.611 31.3532 143.949 32.0915 144.513 32.5292C145.077 32.967 145.837 33.1163 146.541 32.9982L147.431 32.736C147.804 32.5347 148.174 32.3178 148.479 32.0227C148.784 31.728 149.021 31.3458 149.07 30.9244C149.136 30.3597 148.847 29.7906 148.411 29.4255Z" fill="#17282F"/>
<path d="M145.572 43.1919L149.583 47.2391L150.708 47.9149C150.456 48.5117 150.24 49.1261 150.149 49.7214C149.973 50.7712 150.351 51.1355 151.293 51.95C151.693 52.2959 150.964 62.0521 150.687 63.1211L144.054 51.9699C146.166 50.5027 146.031 45.6734 145.572 43.1919Z" fill="#F9ACAF"/>
<path d="M150.12 49.9297C150.127 49.8629 150.137 49.7933 150.149 49.7206C150.193 49.4349 150.266 49.1453 150.357 48.8549C150.27 49.1464 150.21 49.4466 150.12 49.9297Z" fill="#111D23"/>
<path d="M150.116 49.9512C149.102 49.3489 147.997 48.3405 147.938 47.1734C148.74 47.8277 149.621 48.2416 150.502 48.4331C150.443 48.584 150.397 48.7184 150.357 48.8549C150.265 49.1452 150.193 49.4349 150.149 49.7206C150.136 49.7933 150.127 49.8628 150.12 49.9297C150.119 49.9367 150.117 49.9437 150.116 49.9512Z" fill="#C3888A"/>
<path d="M144.796 38.6282C145.173 42.7488 145.246 44.4963 147.373 46.6569C150.571 49.9068 155.492 48.8136 156.339 44.7292C157.102 41.053 156.356 34.9319 152.311 33.2001C148.325 31.4941 144.419 34.5071 144.796 38.6282Z" fill="#F9ACAF"/>
<path d="M150.132 39.9702C150.152 40.4064 150.389 40.764 150.66 40.7695C150.93 40.7753 151.134 40.4263 151.113 39.9905C151.093 39.5543 150.857 39.1963 150.586 39.1908C150.315 39.1854 150.112 39.534 150.132 39.9702Z" fill="#17282F"/>
<path d="M154.197 39.9569C154.217 40.3794 154.453 40.7265 154.723 40.7324C154.993 40.7378 155.195 40.4001 155.175 39.9773C155.155 39.5547 154.919 39.2081 154.649 39.2022C154.379 39.1963 154.176 39.5348 154.197 39.9569Z" fill="#17282F"/>
<path d="M149.273 38.45C149.325 38.4558 149.378 38.4406 149.419 38.4031C150.054 37.8152 150.769 38.0216 150.777 38.0243C150.883 38.0552 150.99 37.995 151.015 37.8867C151.038 37.7789 150.971 37.6655 150.864 37.6331C150.827 37.6221 149.93 37.3618 149.142 38.0919C149.063 38.1646 149.062 38.2932 149.138 38.3792C149.175 38.4206 149.224 38.4445 149.273 38.45Z" fill="#17282F"/>
<path d="M155.563 37.8901C155.604 37.8761 155.639 37.8452 155.657 37.7998C155.695 37.7064 155.649 37.588 155.555 37.5353C154.613 37.0061 153.915 37.4082 153.886 37.4262C153.803 37.4755 153.783 37.5923 153.841 37.6877C153.899 37.7827 154.013 37.8198 154.096 37.7709C154.123 37.7549 154.67 37.452 155.419 37.8729C155.467 37.9003 155.519 37.905 155.563 37.8901Z" fill="#17282F"/>
<path d="M153.091 39.7556C153.091 39.7556 153.735 41.2983 154.463 42.2598C154.59 42.4278 154.511 42.6729 154.313 42.746C153.805 42.9332 153.209 42.7635 153.209 42.7635L153.091 39.7556Z" fill="#F46C75"/>
<path d="M150.432 39.2085L151.377 38.985C151.377 38.985 150.86 39.6904 150.432 39.2085Z" fill="#17282F"/>
<path d="M154.551 39.2124L155.497 38.9889C155.497 38.9889 154.98 39.6944 154.551 39.2124Z" fill="#17282F"/>
<path d="M146.226 40.0515C146.226 40.0515 149.681 39.6587 148.242 34.2612C148.242 34.2612 152.31 33.2004 155.555 37.5349C156.072 38.2251 156.381 39.3769 156.843 40.3701C156.843 40.3701 157.62 32.5297 150.663 31.8872C143.716 31.245 142.351 41.0107 145.74 44.2969C145.74 44.2969 144.91 42.0538 146.226 40.0515Z" fill="#17282F"/>
<path d="M153.091 43.8222C152.777 44.3393 152.39 45.3359 152.39 45.3359C152.303 45.3183 152.216 45.3008 152.13 45.2781C150.959 45.0076 150.517 44.4526 150.383 43.9191C150.31 43.6268 150.333 43.3383 150.379 43.1093C150.429 42.8439 150.519 42.6645 150.519 42.6645C151.043 43.2195 152.113 43.5654 152.693 43.7233C152.935 43.7921 153.091 43.8222 153.091 43.8222Z" fill="#17282F"/>
<path d="M152.837 43.7243L152.607 44.1914C151.44 43.9182 150.66 43.5528 150.388 43.0752C150.441 42.7941 150.537 42.6042 150.537 42.6042C151.091 43.1916 152.223 43.5575 152.837 43.7243Z" fill="white"/>
<path d="M152.241 45.3711C151.001 45.085 150.534 44.4972 150.392 43.9328C150.81 44.0485 151.3 44.2396 151.697 44.5534C152.001 44.7922 152.157 45.0885 152.241 45.3711Z" fill="#F14553"/>
<path d="M143.549 41.9858C144.035 42.8309 144.826 43.3616 145.551 43.5438C146.642 43.817 147.205 42.0636 146.833 40.9708C146.498 39.9871 145.426 39.3359 144.365 39.5505C143.319 39.7616 142.992 41.0197 143.549 41.9858Z" fill="#F9ACAF"/>
<path d="M145.853 41.9141C145.777 41.9141 145.713 41.8547 145.707 41.7773C145.685 41.4271 145.515 41.0835 145.251 40.8525C145.008 40.6391 144.682 40.5172 144.358 40.5172C144.357 40.5172 144.357 40.5172 144.356 40.5172L144.274 40.5195C144.271 40.5199 144.268 40.5199 144.265 40.5199C144.188 40.5199 144.124 40.4605 144.118 40.3827C144.113 40.3018 144.175 40.2323 144.256 40.2272L144.356 40.2241C144.753 40.2244 145.145 40.3702 145.444 40.6321C145.768 40.9166 145.971 41.3278 146 41.7577C146.005 41.8386 145.944 41.9086 145.864 41.9141C145.86 41.9141 145.857 41.9141 145.853 41.9141Z" fill="#C3888A"/>
<path d="M156.205 52.3354C156.205 52.3354 158.802 52.0505 161.01 54.9627C163.217 57.8745 167.155 62.8167 167.155 62.8167L172.499 54.9627L179.999 54.1696C179.999 54.1696 180.28 55.0956 178.78 55.735C177.28 56.3744 174.467 57.1072 174.467 57.1072C174.467 57.1072 170.851 68.2807 168.113 69.2183C165.374 70.1556 159.131 63.3236 159.131 63.3236L156.205 52.3354Z" fill="#F9ACAF"/>
<path d="M164.516 100.458C164.516 100.458 170.378 122.231 169.049 129.244C167.72 136.258 142.024 162.215 142.024 162.215L138.636 160.142C138.636 160.142 146.538 144.446 150.988 139.106C155.439 133.766 157.38 132.413 158.368 128.319C159.354 124.224 153.158 105.091 153.158 105.091L164.516 100.458Z" fill="#F9ACAF"/>
<path d="M150.719 153.229L150.72 153.099C151.039 152.755 151.363 152.405 151.689 152.05C151.362 152.46 151.039 152.852 150.719 153.229Z" fill="#C3C5C2"/>
<path d="M142.784 161.441C142.439 159.711 141.815 156.815 141.539 154.581C142.046 153.768 142.576 152.91 143.124 152.021C143.407 154.954 143.809 157.592 144.24 159.868C143.732 160.386 143.245 160.905 142.784 161.441ZM150.721 153.098L150.911 139.235C150.937 139.192 150.963 139.149 150.989 139.106C151.082 141.269 151.69 152.048 151.69 152.048C151.69 152.048 151.69 152.049 151.689 152.049C151.363 152.404 151.04 152.754 150.721 153.098Z" fill="#C3888A"/>
<path d="M137.185 105.877C137.185 105.877 140.283 127.883 140.977 131.809C141.672 135.736 142.115 141.035 143.087 151.624C144.058 162.213 146.615 169.073 146.615 169.073L150.5 169.203L151.411 102.691L137.185 105.877Z" fill="#F9ACAF"/>
<path d="M143.026 161.858L142.174 160.502C141.982 160.196 141.648 160.009 141.287 159.983C139.728 159.872 139.763 159.031 140.232 157.55C139.956 156.97 139.244 157.215 139.05 157.275L134.726 158.578C134.363 158.683 134.154 159.063 134.26 159.426C134.279 159.491 134.307 159.552 134.343 159.609C135.378 161.255 135.867 162.034 137.154 164.083L141.091 170.349C142.164 172.057 144.108 171.33 143.825 170.526C142.536 166.923 142.06 164.097 142.366 162.541C142.413 162.258 142.651 162.369 143.026 161.858Z" fill="#406FBF"/>
<path d="M142.778 171.391C142.226 171.391 141.571 171.114 141.091 170.349L137.154 164.083C135.867 162.034 135.378 161.255 134.343 159.609C134.307 159.552 134.279 159.491 134.26 159.426C134.241 159.362 134.232 159.298 134.232 159.235C134.232 158.938 134.427 158.665 134.726 158.578L139.05 157.275C139.144 157.246 139.362 157.173 139.592 157.173C139.835 157.173 140.091 157.254 140.232 157.55C140.062 158.089 139.949 158.542 139.949 158.907C139.948 159.546 140.294 159.913 141.287 159.983C141.648 160.009 141.982 160.196 142.174 160.503L143.026 161.858C142.651 162.369 142.413 162.258 142.366 162.541C142.306 162.845 142.276 163.197 142.276 163.594C142.277 165.231 142.788 167.626 143.825 170.526C143.844 170.58 143.853 170.634 143.853 170.686C143.852 171.066 143.376 171.391 142.778 171.391Z" fill="#3563B7"/>
<path d="M144.974 163.724C145.004 163.761 145.007 163.814 144.982 163.855C144.923 163.992 144.807 164.098 144.664 164.145C144.121 164.307 143.141 163.793 142.623 163.487C143.529 163.429 144.78 163.447 144.974 163.724ZM144.735 164.332C144.935 164.276 145.096 164.128 145.17 163.934C145.221 163.835 145.212 163.714 145.144 163.624C144.795 163.118 142.594 163.309 142.345 163.335L142.276 163.367C142.245 163.405 142.25 163.461 142.288 163.492C142.709 163.77 143.16 164.004 143.63 164.189C143.974 164.353 144.361 164.403 144.735 164.332Z" fill="#17282F"/>
<path d="M144.3 162.252C144.484 162.342 144.459 162.411 144.45 162.435C144.394 162.755 143.253 163.211 142.521 163.31C142.807 162.926 143.58 161.984 144.233 162.223L144.3 162.252ZM142.345 163.535C142.995 163.506 144.517 163.012 144.633 162.497C144.661 162.39 144.632 162.241 144.39 162.113C143.402 161.618 142.283 163.307 142.255 163.386L142.247 163.483L142.306 163.504L142.345 163.535Z" fill="#17282F"/>
<path d="M142.646 163.394C142.269 162.945 141.693 162.675 141.107 162.674C141.053 162.674 141.009 162.718 141.009 162.772C141.009 162.825 141.052 162.869 141.107 162.869C141.633 162.869 142.159 163.116 142.496 163.52C142.531 163.561 142.592 163.567 142.634 163.532C142.675 163.497 142.681 163.436 142.646 163.395" fill="#040606"/>
<path d="M142.542 164.634C142.165 164.185 141.589 163.915 141.002 163.914C140.948 163.914 140.905 163.958 140.904 164.012C140.904 164.066 140.948 164.109 141.002 164.109C141.528 164.109 142.055 164.356 142.392 164.76C142.427 164.801 142.488 164.807 142.53 164.772C142.571 164.738 142.577 164.676 142.542 164.634Z" fill="#040606"/>
<path d="M142.667 166.02C142.29 165.57 141.714 165.3 141.127 165.299C141.073 165.299 141.029 165.343 141.029 165.397C141.029 165.45 141.073 165.494 141.127 165.494C141.653 165.495 142.18 165.74 142.517 166.145C142.551 166.186 142.613 166.191 142.654 166.157C142.696 166.122 142.701 166.061 142.667 166.02Z" fill="#040606"/>
<path d="M137.644 109.125C137.643 109.117 137.642 109.108 137.641 109.099C137.642 109.107 137.643 109.116 137.644 109.125Z" fill="#C3C5C2"/>
<path d="M137.643 109.125C137.642 109.116 137.641 109.107 137.64 109.099C137.588 108.731 137.398 107.394 137.398 107.394L141.348 107.467L151.343 107.653L151.33 108.561L137.643 109.125Z" fill="#C3888A"/>
<path d="M154.165 108.322L153.906 107.476C153.988 107.74 154.074 108.023 154.165 108.322Z" fill="#C3C5C2"/>
<path d="M154.165 108.322L154.165 108.321C154.074 108.022 153.988 107.739 153.906 107.475L153.902 107.462L165.374 103.817L165.578 104.654L154.165 108.322Z" fill="#C3888A"/>
<path d="M151.077 166.683H149.562C149.219 166.683 148.902 166.857 148.7 167.133C147.826 168.326 147.17 167.875 146.22 166.753C145.615 166.683 145.453 167.376 145.404 167.562L144.271 171.682C144.173 172.026 144.372 172.385 144.716 172.483C144.777 172.5 144.84 172.509 144.904 172.508C146.744 172.508 147.614 172.508 149.904 172.508H156.907C158.815 172.508 159.211 170.584 158.425 170.406C154.889 169.625 152.385 168.584 151.292 167.556C151.09 167.375 151.298 167.241 151.077 166.683Z" fill="#406FBF"/>
<path d="M153.552 166.059C153.597 166.054 153.64 166.078 153.661 166.119C153.741 166.236 153.767 166.382 153.733 166.52C153.59 167.037 152.684 167.563 152.179 167.824C152.589 167.069 153.233 166.075 153.552 166.059ZM153.919 166.557C153.975 166.369 153.937 166.165 153.819 166.009C153.765 165.917 153.664 165.864 153.558 165.873C152.977 165.898 152.022 167.758 151.917 167.97L151.908 168.041C151.922 168.086 151.97 168.11 152.014 168.095C152.45 167.898 152.863 167.655 153.248 167.371C153.552 167.178 153.788 166.893 153.919 166.557Z" fill="#17282F"/>
<path d="M152.033 165.861C152.198 165.758 152.24 165.813 152.255 165.833C152.483 166.038 152.275 167.182 151.986 167.818C151.821 167.396 151.455 166.303 151.975 165.899L152.033 165.861ZM152.077 168.073C152.381 167.537 152.751 166.068 152.397 165.717C152.325 165.641 152.191 165.588 151.967 165.719C151.073 166.261 151.863 168.007 151.911 168.07L151.986 168.125L152.033 168.089L152.077 168.073Z" fill="#17282F"/>
<path d="M152.115 167.754C151.564 167.83 151.056 168.157 150.759 168.628C150.73 168.673 150.744 168.733 150.79 168.762C150.835 168.791 150.896 168.777 150.925 168.732C151.189 168.311 151.65 168.015 152.142 167.948C152.195 167.94 152.232 167.891 152.225 167.838C152.218 167.785 152.169 167.747 152.115 167.754Z" fill="#17282F"/>
<path d="M153.057 168.463C152.506 168.539 151.999 168.866 151.702 169.336C151.673 169.382 151.687 169.442 151.732 169.471C151.778 169.5 151.838 169.486 151.867 169.441C152.131 169.02 152.592 168.723 153.084 168.657C153.138 168.649 153.175 168.6 153.168 168.546C153.16 168.493 153.111 168.456 153.057 168.463Z" fill="#17282F"/>
<path d="M154.228 169.059C153.677 169.135 153.17 169.461 152.873 169.932C152.844 169.978 152.857 170.038 152.903 170.067C152.949 170.096 153.009 170.082 153.038 170.036C153.302 169.616 153.763 169.319 154.255 169.253C154.309 169.245 154.346 169.196 154.339 169.142C154.331 169.089 154.282 169.052 154.228 169.059Z" fill="#17282F"/>
<path d="M165.929 99.864L160.924 87.2049L157.589 79.918L157.656 76.6431L140.701 76.4723C140.563 76.7963 140.425 77.12 140.293 77.449C139.821 78.62 140.073 78.7072 139.7 79.9039C139.7 79.9039 138.263 83.9539 137.501 89.7286C136.579 96.7122 136.147 103.553 136.301 106.101C136.349 106.918 136.397 107.374 136.397 107.374L152.273 107.67L152.4 105.745L152.623 103.622L153.025 105.143L153.539 107.579L167.254 103.221L165.929 99.864Z" fill="#406FBF"/>
<path d="M152.273 107.67L151.343 107.652L141.348 107.467L136.397 107.374C136.397 107.374 136.349 106.918 136.301 106.101C136.281 105.762 136.271 105.348 136.271 104.868C136.271 101.733 136.702 95.7847 137.501 89.7286C138.263 83.9539 139.7 79.9039 139.7 79.9039C139.82 79.5193 139.875 79.2493 139.911 79.0206C140.796 78.4793 141.693 77.682 141.693 77.682C141.693 77.682 141.989 78.1033 142.832 78.1877C142.941 78.1987 143.034 78.2034 143.112 78.2034C143.633 78.2034 143.506 77.9911 143.506 77.9911L142.41 77.2325C142.41 77.2325 143.652 77.655 144.034 77.655C144.046 77.655 144.057 77.6546 144.067 77.6539C144.405 77.6257 144.433 77.0078 144.433 77.0078C144.77 76.9515 144.77 76.6986 144.77 76.6986L144.608 76.5118L157.656 76.6431L157.589 79.918L160.924 87.2049L165.929 99.864L167.254 103.221L165.374 103.819L153.903 107.463L153.539 107.579L153.025 105.143L152.623 103.624L153.21 95.2809L154.757 88.1019L152.623 95.2809V103.624L152.623 103.622L152.399 105.745L152.273 107.67ZM145.428 80.2323C143.731 81.8031 142.034 82.8712 140.336 83.4364C140.336 83.4364 143.458 83.377 145.428 80.2323Z" fill="#90B4E3"/>
<path d="M152.623 103.623V95.2805L154.757 88.1014L153.21 95.2805L152.623 103.623Z" fill="#7192D2"/>
<path d="M154.073 78.5416C154.073 79.0763 153.64 79.5098 153.105 79.5098C152.57 79.5098 152.137 79.0763 152.137 78.5416C152.137 78.007 152.57 77.5735 153.105 77.5735C153.64 77.5735 154.073 78.007 154.073 78.5416Z" fill="#406FBF"/>
<path d="M140.337 83.4355C142.034 82.8704 143.731 81.8022 145.428 80.2314C143.459 83.3761 140.337 83.4355 140.337 83.4355Z" fill="#7192D2"/>
<path d="M157.656 76.6426L140.701 76.4718C140.701 76.4718 140.937 71.0019 139.277 62.673C138.985 61.2101 138.636 59.651 138.214 58.0192C137.842 56.5954 138.298 54.7295 137.814 53.1989C137.814 53.1989 137.828 53.0567 139.612 52.5673L139.64 52.556C141.436 52.0608 144.111 51.598 147.792 51.4632C151.646 51.3225 153.812 52.3723 155.719 52.1984L157.469 52.4208C157.469 52.4208 159.372 57.3876 159.194 62.7019C159.055 66.868 157.816 69.6085 157.656 76.6426Z" fill="#406FBF"/>
<path d="M155.72 52.1989C155.647 53.1162 155.378 56.1851 149.317 56.1401C141.917 56.0839 140.978 52.2395 140.978 52.2395C140.966 52.2454 142.373 51.8506 140.978 52.2395C142.773 51.7443 144.031 51.3144 147.711 51.1795C151.566 51.0388 152.64 51.7404 155.72 52.1989Z" fill="#F9ACAF"/>
<path d="M138.471 52.9021C138.471 52.9021 137.34 53.071 135.524 55.3168C133.896 57.3285 126.539 65.6441 126.793 68.4472C127.019 70.9525 137.185 79.002 137.185 79.002L139.077 76.6753L132.718 68.5019L138.968 60.8175L138.471 52.9021Z" fill="#F9ACAF"/>
<path d="M138.617 77.0072C138.617 77.0072 140.135 74.872 140.781 74.7313C141.427 74.591 144.377 74.956 144.433 75.3778C144.489 75.7991 144.04 75.8542 144.04 75.8542L144.77 76.698C144.77 76.698 144.77 76.9509 144.433 77.0072C144.433 77.0072 144.405 77.6251 144.068 77.6533C143.731 77.6814 142.41 77.2319 142.41 77.2319L143.506 77.9905C143.506 77.9905 143.675 78.2712 142.832 78.1871C141.989 78.1027 141.694 77.6814 141.694 77.6814C141.694 77.6814 139.635 79.5098 138.68 79.5098C137.724 79.5098 137.185 79.0017 137.185 79.0017L138.617 77.0072Z" fill="#F9ACAF"/>
<path d="M132.718 68.502L133.105 68.0251C133.115 68.0318 133.125 68.038 133.135 68.0447L132.718 68.502Z" fill="#2D5BB2"/>
<path d="M132.718 68.502C132.718 68.502 132.046 67.9939 131.022 67.9939C130.892 67.9939 130.756 68.0021 130.615 68.0204C130.615 68.0204 131.114 67.6288 131.849 67.6288C132.219 67.6288 132.649 67.7277 133.106 68.0251L132.718 68.502Z" fill="#A57577"/>
<path d="M138.018 77.8418L138.45 75.8688L138.968 76.5344C138.757 76.8111 138.618 77.0066 138.618 77.0066L138.019 77.8402L138.018 77.8418Z" fill="#A57577"/>
<path d="M138.019 77.8398L138.617 77.0062C138.617 77.0062 138.756 76.8107 138.968 76.534L138.019 77.8398Z" fill="#A57577"/>
<path d="M173.24 48.0957C172.68 48.0957 172.191 47.9065 171.774 47.5282C171.357 47.1499 171.147 46.6214 171.147 45.9414C171.147 45.3383 171.35 44.831 171.753 44.419C172.157 44.0075 172.653 43.8015 173.24 43.8015C173.818 43.8015 174.305 44.0075 174.699 44.419C175.094 44.831 175.292 45.3383 175.292 45.9414C175.292 46.6117 175.085 47.1381 174.672 47.5212C174.259 47.9038 173.782 48.0957 173.24 48.0957Z" fill="white"/>
<path d="M166.793 32.9109C166.793 32.0252 167.065 31.1278 167.611 30.2187C168.156 29.3096 168.952 28.5569 169.998 27.96C171.043 27.3636 172.263 27.065 173.658 27.065C174.954 27.065 176.098 27.3144 177.09 27.8131C178.082 28.3118 178.849 28.9903 179.389 29.8482C179.93 30.7061 180.201 31.6383 180.201 32.6451C180.201 33.4381 180.047 34.1326 179.738 34.7291C179.43 35.3259 179.063 35.841 178.639 36.2749C178.214 36.7083 177.452 37.4376 176.353 38.4636C176.049 38.7524 175.805 39.0069 175.622 39.2257C175.439 39.445 175.302 39.6455 175.213 39.8272C175.123 40.009 175.054 40.1907 175.005 40.3725C174.956 40.5546 174.882 40.8739 174.784 41.3308C174.614 42.3005 174.082 42.7852 173.188 42.7852C172.724 42.7852 172.332 42.6269 172.015 42.3099C171.698 41.9929 171.539 41.5219 171.539 40.897C171.539 40.1137 171.655 39.4356 171.888 38.8623C172.12 38.2885 172.429 37.7851 172.813 37.3516C173.197 36.9182 173.716 36.4031 174.368 35.8062C174.941 35.2841 175.354 34.8901 175.608 34.6243C175.863 34.3585 176.078 34.0627 176.252 33.7363C176.427 33.41 176.514 33.0559 176.514 32.6732C176.514 31.9275 176.247 31.2982 175.716 30.7851C175.184 30.2727 174.498 30.0159 173.658 30.0159C172.674 30.0159 171.951 30.2746 171.485 30.7921C171.021 31.3096 170.628 32.0721 170.306 33.0789C170.002 34.1326 169.425 34.6595 168.576 34.6595C168.075 34.6595 167.653 34.4754 167.309 34.1068C166.965 33.7387 166.793 33.34 166.793 32.9109Z" fill="white"/>
</svg>
