<svg width="296" height="179" viewBox="0 0 296 179" fill="none" xmlns="http://www.w3.org/2000/svg">
<path d="M0 14C0 6.26801 6.26801 0 14 0H282C289.732 0 296 6.26801 296 14V179H0V14Z" fill="#3442D9"/>
<path d="M91.2949 70.2313C91.2949 69.9638 91.3304 69.2505 91.3304 68.9471C91.3304 67.645 90.8667 67.0562 89.6539 67.0207C89.083 66.9852 88.7441 66.6463 88.7441 66.1647C88.7441 65.6828 89.083 65.3442 89.6539 65.3084C90.8667 65.255 91.3304 64.6841 91.3304 63.3641C91.3304 63.061 91.2949 62.3474 91.2949 62.0799C91.2949 60.3497 92.0261 59.2438 94.7909 58.6374C95.3438 58.5122 95.7717 58.8514 95.7717 59.3686C95.7717 59.7967 95.4862 60.0287 95.2721 60.0998C93.5422 60.6348 93.292 61.1878 93.292 62.4009C93.292 62.7577 93.3278 63.3462 93.3278 63.7209C93.3278 65.1122 92.6501 65.79 91.4725 66.1647C92.6677 66.557 93.3278 67.2169 93.3278 68.6082C93.3278 68.983 93.292 69.5714 93.292 69.9282C93.292 71.141 93.5419 71.6943 95.2721 72.229C95.4862 72.3004 95.7717 72.5321 95.7717 72.9602C95.7717 73.4777 95.3435 73.8166 94.7909 73.6918C92.0261 73.0854 91.2949 71.9791 91.2949 70.2313Z" fill="#EBEBEB"/>
<path d="M101.747 62.0799C101.747 62.3474 101.712 63.061 101.712 63.3641C101.712 64.6841 102.193 65.255 103.407 65.3084C103.959 65.3439 104.298 65.6828 104.298 66.1647C104.298 66.6463 103.959 66.9852 103.407 67.0207C102.193 67.0562 101.712 67.645 101.712 68.9471C101.712 69.2502 101.747 69.9638 101.747 70.2313C101.747 71.9794 101.016 73.0854 98.2513 73.6918C97.6983 73.8166 97.2705 73.4777 97.2705 72.9602C97.2705 72.5321 97.5559 72.3001 97.7876 72.229C99.5003 71.694 99.7499 71.141 99.7499 69.9282C99.7499 69.5714 99.7143 68.983 99.7143 68.6082C99.7143 67.2169 100.392 66.5391 101.569 66.1647C100.374 65.7721 99.7143 65.1122 99.7143 63.7209C99.7143 63.3462 99.7499 62.7577 99.7499 62.4009C99.7499 61.1881 99.5003 60.6348 97.7876 60.0998C97.5556 60.0284 97.2705 59.7967 97.2705 59.3686C97.2705 58.8514 97.6987 58.5122 98.2513 58.6374C101.016 59.2438 101.747 60.3497 101.747 62.0799Z" fill="#EBEBEB"/>
<path d="M136.101 47.0049C136.516 47.4366 136.516 48.084 136.101 48.499C135.885 48.6984 135.636 48.7979 135.371 48.7979C135.088 48.7979 134.822 48.6984 134.607 48.499L129.941 43.7671C129.892 43.7505 129.875 43.7172 129.858 43.6676C129.842 43.651 129.808 43.6344 129.808 43.6344C129.775 43.5844 129.775 43.5515 129.758 43.5016C129.725 43.4849 129.709 43.4516 129.709 43.435C129.692 43.4017 129.692 43.3518 129.676 43.3355C129.676 43.2856 129.642 43.2689 129.642 43.2523C129.642 43.2024 129.642 43.1694 129.642 43.1361C129.642 43.1028 129.626 43.0862 129.626 43.0363C129.626 43.02 129.642 42.97 129.642 42.9534C129.642 42.9201 129.642 42.8705 129.642 42.8372C129.642 42.804 129.676 42.7873 129.676 42.7707C129.692 42.7208 129.692 42.6878 129.709 42.6379C129.709 42.6212 129.725 42.6212 129.725 42.6046C129.758 42.5547 129.775 42.4884 129.808 42.4552C129.808 42.4552 129.808 42.4219 129.841 42.4219C129.858 42.3886 129.891 42.339 129.941 42.3057L134.606 37.5742C135.021 37.1758 135.701 37.1758 136.1 37.5742C136.515 37.9892 136.515 38.6536 136.1 39.0683L132.165 43.0363L136.101 47.0049Z" fill="#EBEBEB"/>
<path d="M140.335 47.5358L144.402 37.8565C144.602 37.3918 145.133 37.1758 145.615 37.3748C146.063 37.5576 146.278 38.1054 146.079 38.5537L142.012 48.2497C141.862 48.5982 141.514 48.7976 141.165 48.7976C141.065 48.7976 140.933 48.7812 140.833 48.7313C140.351 48.5486 140.135 48.0008 140.335 47.5358Z" fill="#EBEBEB"/>
<path d="M154.115 43.634C154.115 43.634 154.115 43.6507 154.098 43.6507C154.065 43.684 154.032 43.7336 153.982 43.7668L149.317 48.4987C149.118 48.698 148.835 48.7976 148.57 48.7976C148.288 48.7976 148.039 48.698 147.823 48.4987C147.408 48.0833 147.408 47.4363 147.823 47.0046L151.758 43.0363L147.823 39.0683C147.408 38.6532 147.408 37.9892 147.823 37.5742C148.221 37.1758 148.902 37.1758 149.317 37.5742L153.982 42.3057C154.032 42.339 154.065 42.3889 154.098 42.4219C154.115 42.4219 154.115 42.4552 154.115 42.4552C154.148 42.5217 154.181 42.555 154.198 42.6046C154.198 42.6209 154.215 42.6209 154.215 42.6379C154.231 42.6878 154.231 42.7208 154.265 42.7873C154.265 42.804 154.281 42.804 154.281 42.8372C154.281 42.8705 154.281 42.9204 154.281 42.9534C154.281 42.97 154.297 43.02 154.297 43.0363C154.297 43.0529 154.281 43.1028 154.281 43.1195C154.281 43.1694 154.281 43.2024 154.281 43.2523C154.281 43.2689 154.265 43.2689 154.265 43.2856C154.231 43.3518 154.231 43.4017 154.215 43.435C154.215 43.4516 154.198 43.4516 154.198 43.4849C154.181 43.5176 154.148 43.5675 154.115 43.634Z" fill="#EBEBEB"/>
<path d="M200.734 109.261L205.008 109.172L207.113 109.136C207.813 109.121 208.51 109.124 209.208 109.118L209.065 109.261L209.048 105.68L209.207 105.84L204.971 105.82C203.558 105.818 202.146 105.784 200.734 105.767L200.821 105.68C200.815 106.266 200.794 106.855 200.779 107.451L200.734 109.261ZM200.734 109.261L200.688 107.489C200.674 106.892 200.653 106.288 200.646 105.68L200.646 105.594L200.734 105.593C202.146 105.576 203.558 105.542 204.971 105.54L209.207 105.52L209.368 105.52L209.367 105.68L209.35 109.261L209.35 109.405L209.207 109.403C208.493 109.398 207.777 109.401 207.065 109.386L204.934 109.35L200.734 109.261Z" fill="#EBEBEB"/>
<path d="M205.46 113.777L209.734 113.687L211.84 113.651C212.54 113.636 213.236 113.64 213.934 113.634L213.792 113.777L213.774 110.196L213.934 110.355L209.697 110.335C208.285 110.334 206.873 110.299 205.46 110.283L205.548 110.195C205.542 110.781 205.52 111.371 205.506 111.967L205.46 113.777ZM205.46 113.777L205.415 112.005C205.401 111.408 205.379 110.803 205.373 110.196L205.372 110.109L205.46 110.108C206.873 110.092 208.285 110.058 209.697 110.056L213.934 110.036L214.095 110.035L214.094 110.196L214.077 113.777L214.076 113.92L213.934 113.919C213.22 113.914 212.504 113.916 211.792 113.901L209.66 113.866L205.46 113.777Z" fill="#EBEBEB"/>
<path d="M196.007 113.777L200.281 113.687L202.386 113.651C203.087 113.636 203.783 113.64 204.481 113.634L204.338 113.777L204.321 110.196L204.481 110.355L200.244 110.335C198.832 110.334 197.419 110.299 196.007 110.283L196.095 110.195C196.089 110.781 196.067 111.371 196.053 111.967L196.007 113.777ZM196.007 113.777L195.962 112.005C195.947 111.408 195.926 110.803 195.92 110.196L195.919 110.109L196.007 110.108C197.419 110.092 198.832 110.058 200.244 110.056L204.481 110.036L204.642 110.035L204.641 110.196L204.624 113.777L204.623 113.92L204.481 113.919C203.767 113.914 203.051 113.916 202.338 113.901L200.207 113.866L196.007 113.777Z" fill="#EBEBEB"/>
<path d="M86.7924 113.777L91.0663 113.687L93.1716 113.651C93.8718 113.636 94.5681 113.64 95.2663 113.634L95.1236 113.777L95.1063 110.196L95.266 110.355L91.0292 110.335C89.6171 110.334 88.2046 110.299 86.7924 110.283L86.8798 110.196C86.8737 110.782 86.8523 111.371 86.8379 111.967L86.7924 113.777ZM86.7924 113.777L86.747 112.005C86.7326 111.408 86.7111 110.803 86.7051 110.196L86.7041 110.109L86.7924 110.108C88.2046 110.092 89.6171 110.058 91.0292 110.056L95.266 110.036L95.4267 110.035L95.426 110.196L95.4087 113.777L95.4081 113.92L95.266 113.919C94.5518 113.914 93.8359 113.916 93.1236 113.901L90.9921 113.866L86.7924 113.777Z" fill="#EBEBEB"/>
<path d="M86.7924 33.3821L91.0663 33.2928L93.1716 33.2569C93.8718 33.2419 94.5681 33.2451 95.2663 33.2393L95.1236 33.3821L95.1063 29.8013L95.266 29.9609L91.0292 29.9408C89.6171 29.9392 88.2046 29.9049 86.7924 29.8883L86.8798 29.8013C86.8737 30.3872 86.8523 30.9766 86.8379 31.5728L86.7924 33.3821ZM86.7924 33.3821L86.747 31.6105C86.7326 31.0131 86.7111 30.4089 86.7051 29.8013L86.7041 29.7149L86.7924 29.7139C88.2046 29.6976 89.6171 29.663 91.0292 29.6614L95.266 29.6413L95.4267 29.6406L95.426 29.8013L95.4087 33.3821L95.4081 33.5257L95.266 33.5245C94.5518 33.5187 93.8359 33.5219 93.1236 33.5069L90.9921 33.471L86.7924 33.3821Z" fill="#EBEBEB"/>
<path d="M82.0659 37.8977L86.3398 37.8084L88.4451 37.7726C89.1452 37.7575 89.8415 37.7607 90.5398 37.755L90.3971 37.8977L90.3798 34.3169L90.5395 34.4766L86.3027 34.4564C84.8905 34.4548 83.478 34.4206 82.0659 34.4039L82.1532 34.3166C82.1471 34.9025 82.1257 35.4919 82.1113 36.0881L82.0659 37.8977ZM82.0659 37.8977L82.0204 36.1262C82.006 35.5287 81.9846 34.9246 81.9785 34.3169L81.9775 34.2305L82.0659 34.2295C83.478 34.2132 84.8905 34.1786 86.3027 34.177L90.5395 34.1569L90.7001 34.1562L90.6995 34.3169L90.6822 37.8977L90.6815 38.0417L90.5395 38.0404C89.8252 38.0347 89.1094 38.0379 88.3971 38.0228L86.2655 37.987L82.0659 37.8977Z" fill="#EBEBEB"/>
<path d="M205.46 33.386L209.734 33.2967L211.84 33.2609C212.54 33.2458 213.236 33.249 213.934 33.2433L213.792 33.386L213.774 29.8052L213.934 29.9649L209.697 29.9447C208.285 29.9431 206.873 29.9085 205.46 29.8922L205.548 29.8049C205.542 30.3908 205.52 30.9802 205.506 31.5764L205.46 33.386ZM205.46 33.386L205.415 31.6145C205.401 31.017 205.379 30.4129 205.373 29.8052L205.372 29.7188L205.46 29.7178C206.873 29.7015 208.285 29.6669 209.697 29.6653L213.934 29.6452L214.095 29.6445L214.094 29.8052L214.077 33.386L214.076 33.5297L213.934 33.5287C213.22 33.5229 212.504 33.5261 211.792 33.5111L209.66 33.4753L205.46 33.386Z" fill="#EBEBEB"/>
<path d="M159.588 57.4034L155.314 57.4927L153.209 57.5286C152.509 57.5436 151.813 57.5404 151.114 57.5462L151.257 57.4034L151.274 60.9842L151.115 60.8246L155.352 60.8447C156.764 60.8463 158.176 60.8809 159.588 60.8972L159.501 60.9846C159.507 60.3986 159.529 59.8092 159.543 59.213L159.588 57.4034ZM159.588 57.4034L159.634 59.175C159.648 59.7724 159.67 60.3766 159.676 60.9842L159.677 61.0706L159.588 61.0716C158.176 61.0879 156.764 61.1225 155.352 61.1241L151.115 61.1442L150.954 61.1449L150.955 60.9842L150.972 57.4034L150.973 57.2598L151.115 57.2607C151.829 57.2665 152.545 57.2633 153.257 57.2783L155.389 57.3142L159.588 57.4034Z" fill="#EBEBEB"/>
<path d="M154.862 52.8878L150.588 52.9771L148.483 53.0129C147.782 53.028 147.086 53.0248 146.388 53.0305L146.531 52.8878L146.548 56.4686L146.388 56.3089L150.625 56.3291C152.037 56.3307 153.45 56.3653 154.862 56.3816L154.774 56.4689C154.78 55.883 154.802 55.2936 154.816 54.6974L154.862 52.8878ZM154.862 52.8878L154.907 54.6593C154.922 55.2568 154.943 55.8609 154.949 56.4686L154.95 56.555L154.862 56.556C153.45 56.5723 152.037 56.6069 150.625 56.6085L146.388 56.6286L146.228 56.6293L146.228 56.4686L146.245 52.8878L146.246 52.7441L146.388 52.7454C147.102 52.7512 147.818 52.748 148.531 52.763L150.662 52.7989L154.862 52.8878Z" fill="#EBEBEB"/>
<path d="M203.528 62.7523V15" stroke="#C7C7C7" stroke-miterlimit="10"/>
<path d="M190.28 75.5226L191.346 77.865H215.714L216.776 75.5226L206.402 68.3418H200.655L190.28 75.5226Z" fill="#EBEBEB"/>
<path d="M199.935 61.4238L200.655 68.3422H206.402L207.122 61.4238H199.935Z" fill="#DBDBDB"/>
<path d="M190.281 75.5234L191.347 77.8658H215.715L216.777 75.5234H190.281Z" fill="#DBDBDB"/>
<path d="M172.932 45.5952V15" stroke="#C7C7C7" stroke-miterlimit="10"/>
<path d="M159.684 58.3644L160.749 60.7068H185.117L186.18 58.3644L175.805 51.1836H170.058L159.684 58.3644Z" fill="#EBEBEB"/>
<path d="M169.338 44.2656L170.058 51.184H175.805L176.525 44.2656H169.338Z" fill="#DBDBDB"/>
<path d="M159.685 58.3652L160.75 60.7076H185.118L186.181 58.3652H159.685Z" fill="#DBDBDB"/>
<path d="M94.9406 145.262V105.05L86.3867 93.3753V71.5078" stroke="#EBEBEB" stroke-miterlimit="10"/>
<path d="M87.147 70.76C87.147 71.1798 86.8068 71.52 86.387 71.52C85.9671 71.52 85.627 71.1798 85.627 70.76C85.627 70.3402 85.9671 70 86.387 70C86.8068 70 87.147 70.3402 87.147 70.76Z" stroke="#EBEBEB" stroke-miterlimit="10"/>
<path d="M92.7372 145.263V106.461L84.1836 94.7865V79.5078" stroke="#EBEBEB" stroke-miterlimit="10"/>
<path d="M84.9438 78.76C84.9438 79.1798 84.6037 79.52 84.1838 79.52C83.764 79.52 83.4238 79.1798 83.4238 78.76C83.4238 78.3402 83.764 78 84.1838 78C84.6037 78 84.9438 78.3405 84.9438 78.76Z" stroke="#EBEBEB" stroke-miterlimit="10"/>
<path d="M97.0625 145.261V92.0098" stroke="#EBEBEB" stroke-miterlimit="10"/>
<path d="M97.8227 91.2502C97.8227 91.6701 97.4826 92.0102 97.0627 92.0102C96.6429 92.0102 96.3027 91.6701 96.3027 91.2502C96.3027 90.8304 96.6429 90.4902 97.0627 90.4902C97.4826 90.4902 97.8227 90.8304 97.8227 91.2502Z" stroke="#EBEBEB" stroke-miterlimit="10"/>
<path d="M99.1064 145.261V118.197L104.914 107.244V87.6074" stroke="#EBEBEB" stroke-miterlimit="10"/>
<path d="M105.673 86.8479C105.673 87.2677 105.333 87.6079 104.913 87.6079C104.493 87.6079 104.153 87.2677 104.153 86.8479C104.153 86.4281 104.493 86.0879 104.913 86.0879C105.333 86.0876 105.673 86.4281 105.673 86.8479Z" stroke="#EBEBEB" stroke-miterlimit="10"/>
<path d="M101.138 145.26V119.366L107.984 107.257V94.3242" stroke="#EBEBEB" stroke-miterlimit="10"/>
<path d="M108.744 93.5647C108.744 93.9845 108.403 94.3247 107.984 94.3247C107.564 94.3247 107.224 93.9845 107.224 93.5647C107.224 93.1448 107.564 92.8047 107.984 92.8047C108.403 92.8047 108.744 93.1448 108.744 93.5647Z" stroke="#EBEBEB" stroke-miterlimit="10"/>
<path d="M201.06 145.262V124.25L209.613 112.576V100.309" stroke="#EBEBEB" stroke-miterlimit="10"/>
<path d="M208.854 99.5608C208.854 99.9806 209.194 100.321 209.614 100.321C210.033 100.321 210.374 99.9806 210.374 99.5608C210.374 99.1409 210.033 98.8008 209.614 98.8008C209.194 98.8008 208.854 99.1409 208.854 99.5608Z" stroke="#EBEBEB" stroke-miterlimit="10"/>
<path d="M203.263 145.262V125.66L211.816 113.985V108.307" stroke="#EBEBEB" stroke-miterlimit="10"/>
<path d="M211.057 107.559C211.057 107.979 211.397 108.319 211.817 108.319C212.236 108.319 212.577 107.979 212.577 107.559C212.577 107.139 212.236 106.799 211.817 106.799C211.397 106.799 211.057 107.139 211.057 107.559Z" stroke="#EBEBEB" stroke-miterlimit="10"/>
<path d="M198.937 145.26V111.209" stroke="#EBEBEB" stroke-miterlimit="10"/>
<path d="M198.177 110.449C198.177 110.869 198.517 111.209 198.937 111.209C199.357 111.209 199.697 110.869 199.697 110.449C199.697 110.03 199.357 109.689 198.937 109.689C198.517 109.689 198.177 110.03 198.177 110.449Z" stroke="#EBEBEB" stroke-miterlimit="10"/>
<path d="M196.893 145.261V127.797L191.086 116.843V97.207" stroke="#EBEBEB" stroke-miterlimit="10"/>
<path d="M190.326 96.4475C190.326 96.8673 190.666 97.2075 191.086 97.2075C191.506 97.2075 191.846 96.8673 191.846 96.4475C191.846 96.0277 191.506 95.6875 191.086 95.6875C190.666 95.6872 190.326 96.0277 190.326 96.4475Z" stroke="#EBEBEB" stroke-miterlimit="10"/>
<path d="M194.862 145.261V128.968L188.016 116.859V103.926" stroke="#EBEBEB" stroke-miterlimit="10"/>
<path d="M187.256 103.166C187.256 103.586 187.596 103.926 188.016 103.926C188.436 103.926 188.776 103.586 188.776 103.166C188.776 102.746 188.436 102.406 188.016 102.406C187.596 102.406 187.256 102.746 187.256 103.166Z" stroke="#EBEBEB" stroke-miterlimit="10"/>
<path d="M148 156.674C183.618 156.674 212.492 154.372 212.492 151.533C212.492 148.694 183.618 146.393 148 146.393C112.381 146.393 83.5068 148.694 83.5068 151.533C83.5068 154.372 112.381 156.674 148 156.674Z" fill="#EBEBEB"/>
<path d="M85.4238 145.313H124.182L116.454 100.359H87.4718L85.4238 145.313Z" fill="#DBDBDB"/>
<path d="M85.4238 145.313H88.8222L90.7294 100.359H87.4718L85.4238 145.313Z" fill="#A6A6A6"/>
<path d="M81.0371 145.314L97.7779 145.236L114.518 145.208L148 145.154L181.482 145.207L198.222 145.236L214.963 145.314L198.222 145.392L181.482 145.42L148 145.473L114.518 145.42L97.7779 145.392L81.0371 145.314Z" fill="#263238"/>
<path d="M153.448 144.91H151.149V146.411H153.448V144.91Z" fill="#455A64"/>
<path d="M156.428 144.811H154.13V146.311H156.428V144.811Z" fill="#455A64"/>
<path d="M159.41 144.713H157.111V146.214H159.41V144.713Z" fill="#455A64"/>
<path d="M162.39 144.613H160.092V146.114H162.39V144.613Z" fill="#455A64"/>
<path d="M165.371 144.514H163.072V146.014H165.371V144.514Z" fill="#455A64"/>
<path d="M168.351 144.414H166.053V145.915H168.351V144.414Z" fill="#455A64"/>
<path d="M171.333 144.316H169.034V145.817H171.333V144.316Z" fill="#455A64"/>
<path d="M174.313 144.217H172.015V145.718H174.313V144.217Z" fill="#455A64"/>
<path d="M177.294 144.117H174.995V145.618H177.294V144.117Z" fill="#455A64"/>
<path d="M177.857 147.274H150.587V145.448L177.857 144.688V147.274Z" fill="#37474F"/>
<path d="M204.474 140.074H159.455L166.614 106.559H211.633L204.474 140.074Z" fill="#455A64"/>
<path d="M206.139 140.074H161.12L168.279 106.559H213.298L206.139 140.074Z" fill="#37474F"/>
<path d="M190.799 124.018C190.556 125.555 189.112 126.801 187.575 126.801C186.038 126.801 184.989 125.555 185.232 124.018C185.476 122.48 186.919 121.234 188.457 121.234C189.994 121.234 191.043 122.48 190.799 124.018Z" fill="#263238"/>
<path d="M185.149 112.945L184.064 118.033H183.082L184.167 112.945H185.149Z" fill="#263238"/>
<path d="M187.245 112.945L186.16 118.033H185.175L186.26 112.945H187.245Z" fill="#263238"/>
<path d="M189.338 112.945L188.253 118.033H187.271L188.355 112.945H189.338Z" fill="#263238"/>
<path d="M191.434 112.945L190.349 118.033H189.363L190.448 112.945H191.434Z" fill="#263238"/>
<path d="M193.527 112.945L192.442 118.033H191.46L192.545 112.945H193.527Z" fill="#263238"/>
<path d="M195.623 112.945L194.538 118.033H193.553L194.638 112.945H195.623Z" fill="#263238"/>
<path d="M192.766 148.828H170.625V147.109L192.766 146.393V148.828Z" fill="#455A64"/>
<path d="M198.787 148.825H186.899L179.739 130.045H191.627L198.787 148.825Z" fill="#455A64"/>
<path d="M200.743 148.825H188.855L181.695 130.045H193.583L200.743 148.825Z" fill="#263238"/>
<path d="M155.61 149.285C155.61 149.285 134.731 149.285 132.782 149.285C130.833 149.285 133.653 143.738 140.762 141.61C147.872 139.481 157.852 147.204 155.61 149.285Z" fill="#37474F"/>
<path d="M146.652 149.285C146.669 148.657 146.785 148.03 146.969 147.425C147.152 146.819 147.414 146.236 147.739 145.688C148.062 145.139 148.476 144.643 148.948 144.217C149.408 143.773 149.979 143.467 150.549 143.215C150.302 143.414 150.023 143.554 149.799 143.772L149.446 144.069L149.121 144.397C148.703 144.843 148.318 145.322 148.013 145.854C147.695 146.377 147.43 146.933 147.204 147.507C146.985 148.083 146.791 148.673 146.652 149.285Z" fill="#263238"/>
<path d="M149.357 144.008C150.035 144.219 150.687 144.503 151.324 144.817C151.962 145.131 152.576 145.495 153.159 145.907C153.738 146.324 154.293 146.789 154.75 147.347C154.976 147.628 155.181 147.927 155.34 148.251C155.49 148.579 155.602 148.929 155.611 149.286C155.53 148.94 155.392 148.617 155.203 148.326C155.022 148.031 154.804 147.76 154.565 147.51C154.084 147.012 153.544 146.569 152.974 146.168C152.408 145.759 151.809 145.394 151.207 145.032C150.906 144.852 150.599 144.68 150.289 144.513C149.983 144.336 149.669 144.176 149.357 144.008Z" fill="#263238"/>
<path d="M115.966 79.4178C114.88 77.3096 110.98 72.9314 106.339 75.2751C99.7167 78.6197 102.418 92.413 100.087 97.5839C95.8623 106.954 97.733 114.564 103.248 114.346C109.429 114.101 113.367 106.314 109.445 92.8856C106.992 84.4888 108.342 80.0965 110.094 79.8853C111.845 79.6741 113.348 81.548 113.348 81.548L115.966 79.4178Z" fill="#263238"/>
<path d="M115.501 78.6427C114.872 77.6997 114.126 76.8325 113.279 76.0597C112.43 75.2946 111.442 74.6462 110.322 74.2811C109.211 73.9022 107.959 73.876 106.823 74.2334C105.701 74.5826 104.653 75.1934 103.814 76.0322C102.979 76.8757 102.381 77.9202 101.981 79.0075C101.587 80.101 101.35 81.2338 101.215 82.3704C100.972 84.6482 101.076 86.9288 101.341 89.1762C101.324 86.9128 101.391 84.6504 101.709 82.437C101.9 81.3374 102.141 80.2472 102.547 79.2242C102.942 78.2011 103.501 77.2424 104.268 76.4821C105.021 75.7122 105.98 75.1493 107.006 74.8088C108.022 74.4568 109.132 74.4626 110.177 74.7566C111.223 75.0536 112.204 75.6091 113.08 76.2994C113.527 76.6338 113.942 77.013 114.348 77.4021C114.746 77.8008 115.13 78.2146 115.501 78.6427Z" fill="#263238"/>
<path d="M108.208 88.2285C108.503 89.5869 108.948 90.906 109.342 92.2349C109.755 93.5581 110.16 94.8816 110.527 96.2122C110.887 97.5447 111.22 98.8829 111.448 100.237C111.681 101.587 111.833 102.953 111.799 104.311C111.776 105.666 111.564 107.021 111.048 108.257C110.522 109.478 109.735 110.635 108.81 111.609C107.875 112.584 106.726 113.361 105.44 113.811C104.799 114.039 104.127 114.19 103.444 114.246C103.102 114.275 102.757 114.28 102.414 114.259C102.071 114.238 101.723 114.205 101.396 114.088C102.038 114.365 102.755 114.418 103.452 114.415C104.153 114.406 104.855 114.3 105.535 114.109C106.214 113.911 106.867 113.621 107.48 113.262C108.09 112.899 108.651 112.455 109.163 111.962C109.675 111.47 110.134 110.924 110.54 110.343L110.836 109.902L111.113 109.449C111.295 109.145 111.464 108.823 111.605 108.494C112.179 107.172 112.403 105.736 112.438 104.325C112.476 101.486 111.826 98.7264 111.005 96.0724C110.594 94.7418 110.122 93.434 109.637 92.1338C109.143 90.8368 108.642 89.5466 108.208 88.2285Z" fill="#263238"/>
<path d="M116.379 79.3468C116.284 78.7026 115.677 77.9583 115.241 77.9167C114.806 77.8751 111.962 79.7378 111.837 80.5733C111.711 81.4092 113.202 81.8655 113.202 81.8655L116.379 79.3468Z" fill="#FFC727"/>
<path d="M116.656 109.13C126.093 114.828 139.342 120.699 143.997 119.833C147.752 119.137 161.819 108.907 162.522 108.321C164.253 106.859 155.995 93.7957 153.906 95.0248C151.273 96.5736 141.23 106.327 140.089 106.331C138.9 106.33 130.404 105.194 120.654 103.783C113.92 102.804 110.8 105.595 116.656 109.13Z" fill="#AD6359"/>
<path d="M156.269 90.5992C158.522 89.4479 161.014 87.9474 163.649 87.6469C166.283 87.3464 168.927 90.5247 169.059 91.5179C169.191 92.5112 169.025 98.8389 166.397 99.189C163.769 99.5391 164.722 94.5682 164.55 94.036C164.378 93.5039 164.186 92.8194 163.697 92.9368C163.208 93.0543 155.08 98.3253 155.08 98.3253L156.269 90.5992Z" fill="#AD6359"/>
<path d="M156.485 90.9393C156.634 90.9194 163.305 87.2052 165.939 86.9047C168.573 86.6042 171.217 89.7825 171.349 90.7758C171.482 91.769 171.315 98.0967 168.688 98.4471C166.06 98.7972 167.012 93.826 166.841 93.2942C166.669 92.762 166.477 92.0778 165.988 92.195C165.499 92.3124 157.37 97.5834 157.37 97.5834L156.485 90.9393Z" fill="#AD6359"/>
<path d="M167.752 98.2335C167.372 97.8614 167.233 97.2438 167.107 96.7394C166.97 96.1887 166.94 95.6134 166.979 95.0489C167.013 94.5577 167.154 94.0546 167.106 93.5612C167.061 93.1049 166.824 92.5865 166.554 92.2207C166.302 91.8793 165.933 92.0566 165.617 92.2178C165.151 92.4553 164.707 92.7625 164.274 93.054C163.805 93.3698 163.343 93.6966 162.879 94.0201C162.403 94.3529 161.896 94.67 161.465 95.062C161.433 95.0911 161.465 95.1506 161.507 95.1292C161.945 94.9084 162.348 94.6169 162.76 94.3522C163.228 94.0518 163.698 93.7545 164.172 93.4633C164.614 93.1913 165.043 92.8956 165.49 92.6313C165.648 92.5378 165.959 92.3142 166.155 92.3314C166.362 92.3497 166.526 92.8294 166.592 92.9836C166.8 93.4687 166.764 93.9078 166.69 94.4159C166.619 94.9049 166.583 95.3986 166.61 95.8924C166.635 96.3474 166.714 96.8278 166.902 97.247C167.082 97.6495 167.412 97.9503 167.679 98.2937C167.717 98.3417 167.794 98.2751 167.752 98.2335Z" fill="#263238"/>
<path d="M149.068 98.9465C149.068 98.9465 155.466 91.3397 156.807 89.8197C159.496 86.7705 171.607 79.8325 173.367 79.4057C175.126 78.9788 176.258 82.5525 168.072 87.5119C163.757 90.1257 163.291 92.8581 163.572 94.301C163.853 95.7436 165.602 98.269 168.04 97.877C170.477 97.4853 171.588 93.7039 173.783 93.0079C175.977 92.3119 175.042 96.6287 173.772 99.2201C172.503 101.811 169.885 104.157 167.876 105.232C165.866 106.307 159.695 110 159.695 110L149.068 98.9465Z" fill="#AD6359"/>
<path d="M170.846 95.7527C170.02 96.5889 169.099 97.6519 167.894 97.859C166.647 98.0731 165.724 97.3678 165.007 96.4244C164.283 95.4731 163.786 94.3441 163.914 93.1275C164.029 92.0318 164.536 91.0094 165.224 90.1611C166.075 89.1111 167.136 88.274 168.244 87.5143C168.294 87.4804 168.237 87.4097 168.185 87.4417C167.126 88.0948 163.816 89.9943 163.528 93.1796C163.41 94.4811 163.94 95.5572 164.669 96.5355C165.34 97.4369 166.255 98.2708 167.453 98.2091C168.914 98.1335 170.001 96.7927 170.922 95.7774C170.963 95.7319 170.889 95.7089 170.846 95.7527Z" fill="#263238"/>
<path d="M138.88 105.327L127.956 115.699C127.956 115.699 120.696 112.477 115.24 108.597C109.783 104.716 115.413 102.315 124.422 103.258C133.43 104.2 138.88 105.327 138.88 105.327Z" fill="#FFC727"/>
<path d="M125.35 114.462C125.302 114.44 125.254 114.414 125.206 114.392C125.206 114.369 125.203 114.35 125.203 114.327C125.133 113.454 125.024 112.568 124.688 111.764C124.518 111.368 124.269 110.996 123.913 110.763C123.737 110.644 123.533 110.577 123.325 110.535C123.117 110.503 122.896 110.516 122.678 110.513C121.801 110.539 120.941 110.747 120.112 111.028C119.885 111.108 119.657 111.195 119.433 111.287C119.392 111.262 119.35 111.24 119.309 111.214C119.561 111.108 119.814 111.009 120.07 110.916C120.909 110.628 121.782 110.417 122.675 110.385C122.896 110.388 123.117 110.375 123.347 110.411C123.571 110.452 123.792 110.526 123.984 110.654C124.371 110.907 124.633 111.304 124.809 111.713C125.158 112.542 125.27 113.438 125.341 114.315C125.344 114.363 125.347 114.414 125.35 114.462ZM132.829 104.308C132.813 104.353 132.797 104.395 132.781 104.439C132.381 105.505 131.878 106.577 131.008 107.326C130.566 107.681 130.035 107.931 129.472 107.991C128.909 108.059 128.336 107.921 127.824 107.678C126.79 107.185 125.942 106.379 125.136 105.569C124.352 104.772 123.609 103.934 122.835 103.127H122.832C122.813 103.124 122.793 103.121 122.774 103.121C123.552 103.943 124.301 104.795 125.094 105.611C125.897 106.427 126.742 107.239 127.792 107.751C128.31 107.998 128.899 108.142 129.481 108.075C130.061 108.011 130.608 107.755 131.065 107.393C131.955 106.625 132.461 105.54 132.87 104.475C132.889 104.423 132.909 104.375 132.925 104.324C132.893 104.318 132.861 104.311 132.829 104.308ZM127.059 115.284C127.629 115.553 127.955 115.697 127.955 115.697L127.971 115.684C127.67 115.547 127.363 115.416 127.059 115.284Z" fill="white"/>
<path d="M125.251 113.796C127.454 111.399 129.829 109.153 132.241 106.959C132.924 106.339 133.621 105.734 134.332 105.146C134.352 105.13 134.382 105.154 134.363 105.174C133.237 106.347 132.064 107.474 130.897 108.609C129.727 109.746 128.546 110.875 127.344 111.98C126.666 112.603 125.988 113.227 125.297 113.837C125.267 113.863 125.223 113.826 125.251 113.796Z" fill="#263238"/>
<path opacity="0.1" d="M132.495 111.386L127.954 115.697C127.954 115.697 120.697 112.477 115.241 108.596C113.02 107.015 112.636 105.681 113.567 104.721L132.495 111.386Z" fill="black"/>
<path d="M131.764 145.369H95.2402C95.2402 145.369 103.173 114.732 110.515 106.107C110.679 105.908 110.849 105.721 111.019 105.545C111.054 105.504 111.083 105.474 111.119 105.44C111.751 104.778 112.413 104.28 113.08 103.923C113.209 103.853 113.338 103.788 113.473 103.73C116.301 102.43 119.287 103.507 121.442 105.352C122.127 105.937 129.868 116.009 130.553 119.85C131.144 123.24 128.855 126.882 128.855 126.882L131.764 145.369Z" fill="#FFC727"/>
<path d="M123.373 125.571C121.823 125.744 120.269 125.97 118.76 126.371C118.009 126.57 117.272 126.803 116.537 127.053C116.17 127.177 115.802 127.288 115.431 127.399C115.05 127.511 114.642 127.617 114.243 127.633C114.207 127.635 114.209 127.688 114.244 127.689C114.632 127.696 115.004 127.702 115.39 127.658C115.758 127.615 116.123 127.534 116.481 127.442C117.245 127.247 117.999 127.017 118.76 126.814C120.296 126.405 121.831 125.996 123.394 125.699C123.466 125.685 123.447 125.563 123.373 125.571Z" fill="#263238"/>
<path d="M127.231 126.916C125.954 126.797 124.652 126.738 123.37 126.764C122.725 126.778 122.086 126.828 121.444 126.896C121.138 126.928 120.832 126.966 120.527 127.008C120.191 127.053 119.861 127.144 119.525 127.185C119.49 127.189 119.49 127.244 119.526 127.241C119.844 127.212 120.169 127.235 120.488 127.225C120.809 127.215 121.13 127.202 121.451 127.191C122.094 127.169 122.736 127.155 123.379 127.128C124.665 127.074 125.946 127.032 127.234 127.022C127.303 127.021 127.297 126.922 127.231 126.916Z" fill="#263238"/>
<g opacity="0.1">
<path d="M119.872 121.87C120.117 122.041 120.209 122.322 120.084 122.518C120.017 122.613 119.921 122.666 119.803 122.676C119.678 122.688 119.546 122.655 119.422 122.577L116.685 120.708C116.661 120.703 116.649 120.689 116.634 120.668C116.625 120.662 116.607 120.656 116.607 120.656C116.586 120.635 116.581 120.621 116.566 120.6C116.549 120.594 116.537 120.58 116.535 120.573C116.523 120.559 116.516 120.538 116.506 120.531C116.499 120.509 116.482 120.504 116.48 120.496C116.473 120.474 116.468 120.46 116.463 120.446C116.458 120.432 116.449 120.425 116.442 120.403C116.44 120.396 116.44 120.374 116.437 120.367C116.433 120.352 116.426 120.331 116.421 120.316C116.416 120.302 116.429 120.293 116.426 120.286C116.427 120.264 116.422 120.249 116.422 120.227C116.42 120.22 116.427 120.219 116.425 120.212C116.433 120.189 116.431 120.16 116.441 120.144C116.441 120.144 116.436 120.13 116.451 120.128C116.453 120.113 116.461 120.09 116.478 120.074L117.874 117.837C118.002 117.648 118.303 117.621 118.536 117.778C118.779 117.942 118.873 118.23 118.748 118.426L117.567 120.303L119.872 121.87Z" fill="black"/>
<path d="M121.822 121.935L122.252 117.575C122.275 117.365 122.48 117.251 122.721 117.318C122.945 117.38 123.119 117.609 123.094 117.811L122.666 122.178C122.649 122.335 122.523 122.436 122.368 122.449C122.324 122.453 122.263 122.451 122.212 122.434C121.973 122.373 121.8 122.144 121.822 121.935Z" fill="black"/>
<path d="M127.374 119.698C127.374 119.698 127.376 119.706 127.369 119.706C127.359 119.722 127.352 119.745 127.334 119.761L125.938 121.998C125.878 122.092 125.767 122.146 125.65 122.157C125.524 122.168 125.4 122.135 125.276 122.057C125.034 121.893 124.942 121.612 125.064 121.409L126.245 119.532L123.94 117.965C123.697 117.802 123.603 117.514 123.728 117.317C123.848 117.129 124.15 117.102 124.39 117.258L127.127 119.127C127.154 119.139 127.175 119.16 127.195 119.173C127.202 119.172 127.207 119.186 127.207 119.186C127.231 119.214 127.25 119.227 127.265 119.248C127.267 119.255 127.275 119.255 127.277 119.262C127.291 119.283 127.296 119.297 127.32 119.325C127.322 119.332 127.33 119.331 127.334 119.346C127.339 119.36 127.346 119.382 127.351 119.396C127.353 119.403 127.368 119.424 127.37 119.431C127.372 119.439 127.372 119.461 127.374 119.468C127.381 119.49 127.386 119.504 127.393 119.526C127.395 119.533 127.388 119.534 127.391 119.541C127.385 119.571 127.392 119.593 127.39 119.608C127.392 119.615 127.385 119.616 127.389 119.63C127.387 119.645 127.379 119.668 127.374 119.698Z" fill="black"/>
</g>
<path d="M129.634 131.837C129.583 131.869 129.532 131.894 129.478 131.92L129.174 132.061C129.071 132.106 128.962 132.134 128.857 132.173C128.649 132.256 128.422 132.282 128.204 132.33C127.756 132.371 127.302 132.384 126.863 132.243C126.642 132.173 126.447 132.051 126.265 131.914C126.092 131.763 125.935 131.597 125.814 131.405C125.558 131.03 125.398 130.608 125.273 130.179C125.033 129.322 124.943 128.432 124.892 127.549C124.886 127.395 124.879 127.242 124.876 127.088C124.873 127.03 124.87 126.973 124.87 126.915C124.825 125.357 124.902 123.802 124.985 122.25C125.081 120.486 125.209 118.726 125.247 116.963C125.263 116.189 125.266 115.411 125.222 114.64C125.222 114.605 125.218 114.57 125.215 114.534C125.212 114.464 125.209 114.397 125.202 114.326C125.132 113.453 125.023 112.566 124.687 111.763C124.518 111.366 124.268 110.995 123.913 110.762C123.737 110.643 123.532 110.576 123.324 110.534C123.116 110.502 122.895 110.515 122.678 110.512C121.801 110.538 120.94 110.746 120.111 111.027C119.551 111.226 119.004 111.459 118.466 111.715L118.342 111.773C117.334 112.259 116.361 112.822 115.398 113.395C113.881 114.298 112.39 115.245 110.822 116.064C110.287 116.339 109.746 116.602 109.193 116.832C109.17 116.842 109.151 116.851 109.129 116.861C108.889 116.96 108.646 117.053 108.399 117.139C107.564 117.434 106.69 117.638 105.801 117.667C105.311 117.677 104.822 117.613 104.354 117.475C104.364 117.453 104.37 117.434 104.38 117.414C104.841 117.542 105.321 117.603 105.801 117.59C106.678 117.555 107.545 117.354 108.37 117.056C108.61 116.97 108.85 116.877 109.087 116.781C109.11 116.771 109.132 116.762 109.154 116.752C109.708 116.518 110.249 116.259 110.78 115.981C112.338 115.162 113.826 114.211 115.343 113.302C116.281 112.746 117.231 112.192 118.217 111.709C118.258 111.69 118.297 111.667 118.338 111.648C118.902 111.376 119.478 111.13 120.07 110.915C120.908 110.627 121.782 110.416 122.674 110.384C122.895 110.387 123.116 110.374 123.346 110.41C123.57 110.451 123.791 110.525 123.983 110.653C124.37 110.906 124.633 111.302 124.809 111.712C125.158 112.541 125.27 113.437 125.34 114.314C125.346 114.406 125.353 114.499 125.356 114.592C125.362 114.627 125.362 114.659 125.362 114.694C125.407 115.453 125.407 116.211 125.394 116.966C125.359 118.736 125.238 120.496 125.142 122.259C125.062 123.744 124.985 125.229 125.014 126.71C125.014 126.768 125.014 126.826 125.017 126.883C125.023 127.104 125.03 127.322 125.039 127.542C125.087 128.419 125.174 129.299 125.407 130.141C125.529 130.56 125.682 130.973 125.926 131.328C126.044 131.51 126.191 131.667 126.351 131.808C126.521 131.936 126.7 132.051 126.905 132.115C127.308 132.25 127.759 132.24 128.185 132.202C128.396 132.154 128.614 132.131 128.818 132.051C128.921 132.013 129.023 131.984 129.126 131.942L129.42 131.808C129.484 131.776 129.548 131.744 129.612 131.709L129.634 131.837ZM130.524 119.715C129.81 120.419 129.148 121.178 128.518 121.949C127.276 123.482 126.146 125.098 125.014 126.71C124.966 126.778 124.918 126.845 124.87 126.915C124.729 127.117 124.585 127.315 124.444 127.517C123.657 128.627 122.86 129.741 122.015 130.81C121.993 130.838 121.97 130.87 121.945 130.899C121.388 131.6 120.812 132.282 120.198 132.931C119.414 133.766 118.566 134.547 117.622 135.194C117.388 135.36 117.151 135.517 116.902 135.654C116.658 135.808 116.399 135.93 116.146 136.061C115.644 136.323 115.068 136.429 114.518 136.31C113.97 136.186 113.478 135.882 113.055 135.501C112.633 135.126 112.262 134.685 111.926 134.224C111.257 133.299 110.7 132.291 110.185 131.267C109.158 129.213 108.284 127.085 107.382 124.973C106.47 122.864 105.561 120.742 104.418 118.739C104.306 118.544 104.191 118.352 104.073 118.16C104.05 118.214 104.028 118.272 104.006 118.326C104.105 118.486 104.201 118.65 104.294 118.813C105.426 120.806 106.329 122.925 107.234 125.037C108.143 127.146 109.02 129.274 110.054 131.331C110.575 132.358 111.135 133.37 111.814 134.307C112.156 134.771 112.53 135.219 112.966 135.603C113.398 135.99 113.91 136.31 114.492 136.438C115.071 136.563 115.689 136.448 116.201 136.176C116.46 136.045 116.722 135.92 116.966 135.766C117.218 135.622 117.458 135.466 117.695 135.299C118.646 134.64 119.497 133.853 120.287 133.014C120.895 132.365 121.471 131.683 122.022 130.986C122.047 130.957 122.07 130.925 122.092 130.896C122.943 129.818 123.74 128.698 124.53 127.578C124.646 127.414 124.761 127.251 124.876 127.088C124.921 127.021 124.969 126.954 125.017 126.883C126.175 125.232 127.321 123.574 128.591 122.006C129.206 121.251 129.849 120.509 130.546 119.818C130.54 119.786 130.534 119.75 130.524 119.715ZM112.988 142.829C111.561 141.03 110.159 139.2 108.614 137.498C107.068 135.805 105.356 134.189 103.26 133.19C102.732 132.963 102.185 132.765 101.618 132.659C101.337 132.589 101.049 132.57 100.761 132.531C100.473 132.522 100.185 132.493 99.8968 132.515C99.58 132.522 99.2664 132.55 98.9528 132.598C98.9464 132.618 98.94 132.637 98.9336 132.656C99.2536 132.605 99.5768 132.579 99.9 132.573C100.185 132.554 100.47 132.582 100.758 132.592C101.039 132.634 101.327 132.653 101.602 132.726C102.166 132.832 102.706 133.034 103.228 133.261C105.302 134.256 107.007 135.869 108.543 137.558C110.086 139.261 111.481 141.091 112.905 142.893C113.564 143.725 114.23 144.557 114.918 145.37H115.065C114.354 144.538 113.67 143.683 112.988 142.829ZM130.537 137.581C130.316 138.17 130.102 138.755 129.884 139.344C129.151 141.363 128.444 143.392 127.609 145.37H127.769C128.598 143.408 129.302 141.398 130.034 139.398C130.217 138.899 130.402 138.397 130.588 137.898L130.537 137.581ZM127.199 140.794C127.17 140.627 127.145 140.458 127.11 140.288L126.994 139.789C126.927 139.456 126.822 139.13 126.729 138.8C126.342 137.488 125.769 136.237 125.094 135.053C124.242 133.562 123.209 132.192 122.092 130.896C122.063 130.867 122.038 130.838 122.015 130.81C121.372 130.07 120.703 129.36 120.025 128.659C118.118 126.71 116.108 124.87 114.188 122.941C113.231 121.974 112.294 120.989 111.404 119.958C111.18 119.702 110.959 119.443 110.745 119.181C110.527 118.918 110.316 118.653 110.118 118.378C109.766 117.891 109.452 117.373 109.193 116.832C109.177 116.806 109.164 116.781 109.154 116.752C109.129 116.71 109.11 116.666 109.09 116.624C108.527 115.392 108.23 114.038 108.214 112.678C108.191 111.322 108.425 109.965 108.828 108.666C108.876 108.509 108.93 108.349 108.985 108.195C108.959 108.234 108.937 108.272 108.911 108.31C108.87 108.426 108.831 108.541 108.796 108.656C108.386 109.955 108.143 111.315 108.159 112.678C108.172 114.045 108.463 115.408 109.026 116.653C109.046 116.698 109.065 116.739 109.087 116.781C109.097 116.81 109.11 116.835 109.129 116.861C109.388 117.408 109.702 117.93 110.054 118.426C110.252 118.704 110.466 118.97 110.684 119.232C110.898 119.494 111.116 119.757 111.34 120.013C112.23 121.046 113.167 122.035 114.124 123.005C116.044 124.938 118.05 126.784 119.948 128.73C120.633 129.434 121.305 130.157 121.945 130.899C121.974 130.928 121.996 130.957 122.022 130.986C123.132 132.275 124.153 133.635 124.991 135.11C125.66 136.291 126.226 137.533 126.61 138.835C126.7 139.165 126.802 139.488 126.87 139.818L126.985 140.314C127.017 140.48 127.042 140.65 127.074 140.816C127.206 141.482 127.25 142.157 127.186 142.829C127.113 143.718 126.838 144.573 126.438 145.37H126.591C126.978 144.579 127.247 143.728 127.318 142.842C127.382 142.157 127.334 141.462 127.199 140.794ZM129.004 116.166C128.946 116.138 128.886 116.109 128.828 116.08C127.689 115.536 126.527 115.053 125.356 114.592C125.308 114.573 125.263 114.554 125.215 114.534C124.201 114.134 123.18 113.747 122.169 113.347C121.055 112.902 119.948 112.445 118.873 111.92C118.738 111.853 118.601 111.786 118.466 111.715C118.425 111.696 118.383 111.674 118.338 111.648C117.452 111.19 116.594 110.678 115.814 110.061C114.873 109.331 114.047 108.432 113.497 107.376C113.222 106.851 113.01 106.288 112.895 105.709C112.786 105.174 112.764 104.624 112.806 104.08C112.761 104.106 112.716 104.131 112.671 104.163C112.642 104.685 112.665 105.216 112.77 105.731C112.892 106.326 113.11 106.896 113.391 107.434C113.951 108.506 114.793 109.414 115.743 110.15C116.514 110.752 117.353 111.258 118.217 111.709C118.258 111.731 118.3 111.754 118.342 111.773C118.502 111.856 118.662 111.936 118.825 112.016C119.906 112.544 121.017 112.998 122.13 113.44C123.158 113.846 124.194 114.234 125.222 114.64C125.27 114.656 125.314 114.675 125.362 114.694C126.521 115.149 127.666 115.622 128.79 116.16C128.886 116.205 128.982 116.253 129.078 116.298C129.052 116.256 129.026 116.211 129.004 116.166Z" fill="white"/>
<path d="M109.185 106.893C102.855 113.414 87.6229 138.051 92.3161 142.739C97.0428 147.461 123.21 144.492 130.433 143.108C132.846 142.645 127.05 126.747 124.45 126.374C122.285 126.063 109.497 128.542 109.055 127.98C108.697 127.525 111.267 121.568 114.122 111.981C117.414 100.927 111.98 104.012 109.185 106.893Z" fill="#AD6359"/>
<path d="M136.844 124.247C142.286 124.318 143.673 125.171 148.298 122.791C151.332 121.23 153.632 122.497 151.593 125.403C148.259 130.156 141.218 131.54 138.639 131.317L136.844 124.247Z" fill="#AD6359"/>
<path d="M121.906 127.219C121.906 127.219 128.401 124.806 134.209 124.307C138.225 123.963 147.045 124.186 154.023 133.987C155.678 136.311 156.388 140.797 152.306 137.983C149.406 135.983 148.172 133.839 146.273 132.983C146.273 132.983 146.499 138.796 144.105 140.363C143.036 141.064 140.071 142.907 137.558 144.013C137.558 144.013 137.171 143.531 136.766 142.849C136.766 142.849 134.392 144.102 130.434 143.107L121.906 127.219Z" fill="#AD6359"/>
<path d="M138.094 124.592C139.798 125.84 143.367 128.545 145.516 131.774C147.903 135.36 151.535 142.911 148.87 144.646C146.916 145.919 145.276 143.157 145.276 143.157C145.276 143.157 146.119 146.595 144.102 147.358C142.264 148.053 141.124 145.841 141.124 145.841C141.124 145.841 141.277 148.015 139.377 148.343C137.093 148.739 137.147 144.119 134.487 142.52C133.89 142.161 138.094 124.592 138.094 124.592Z" fill="#AD6359"/>
<path d="M141.306 133.664C142.717 135.101 145.083 139.185 145.317 143.078C145.322 143.166 145.258 143.217 145.237 143.138C144.069 138.907 142.172 135.208 141.272 133.687C141.26 133.667 141.29 133.648 141.306 133.664Z" fill="#263238"/>
<path d="M137.756 136.179C138.846 137.544 141.097 141.862 141.198 145.815C141.201 145.903 141.133 145.95 141.115 145.87C140.077 141.399 138.528 137.772 137.721 136.199C137.71 136.179 137.742 136.162 137.756 136.179Z" fill="#263238"/>
<path d="M146.279 132.948C147.938 133.724 148.938 134.749 150.248 135.99C150.897 136.604 151.556 137.209 152.27 137.748C152.919 138.239 153.874 138.976 154.719 138.492C155.189 138.222 155.276 137.614 155.255 137.122C155.233 136.568 155.106 136.02 154.855 135.526C154.842 135.501 154.886 135.478 154.899 135.503C155.132 135.944 155.322 136.405 155.421 136.896C155.512 137.34 155.558 137.848 155.371 138.275C154.97 139.194 153.822 139.148 153.062 138.762C152.608 138.532 152.194 138.208 151.796 137.892C151.412 137.587 151.043 137.263 150.682 136.929C149.941 136.246 149.241 135.52 148.508 134.828C147.704 134.068 147.129 133.668 146.244 133.002C146.214 132.98 146.246 132.933 146.279 132.948Z" fill="#263238"/>
<path d="M148.984 139.613C148.686 138.554 146.881 134.059 146.237 132.984C146.221 132.957 146.258 132.93 146.278 132.956C147.436 134.445 149.092 138.185 149.432 139.355C149.769 140.51 150.136 141.977 149.952 143.18C149.676 144.995 148.42 145.155 147.961 145.176C147.414 145.201 146.895 145.008 146.456 144.688C145.967 144.332 145.54 143.683 145.256 143.159C145.241 143.131 145.279 143.103 145.297 143.13C145.817 143.941 146.754 144.806 147.76 144.826C148.197 144.835 148.659 144.707 148.975 144.392C149.345 144.022 149.453 143.478 149.487 142.975C149.565 141.836 149.291 140.701 148.984 139.613Z" fill="#263238"/>
<path d="M141.198 145.815C141.417 146.07 141.823 146.902 142.626 147.189C143.212 147.399 143.854 147.438 144.385 147.068C144.906 146.706 145.169 146.123 145.29 145.517C145.359 145.175 145.311 143.643 145.259 143.176C145.254 143.139 145.301 143.129 145.307 143.165C145.447 144.005 145.597 144.92 145.478 145.705C145.378 146.357 145.065 147.026 144.507 147.408C143.929 147.802 143.162 147.856 142.548 147.512C142.243 147.342 141.321 146.532 141.123 145.841C141.118 145.826 141.188 145.804 141.198 145.815Z" fill="#263238"/>
<path d="M134.708 142.219C134.968 142.431 135.176 142.721 135.379 142.985C135.596 143.269 135.803 143.562 136.004 143.858C136.404 144.45 136.728 145.108 136.997 145.769C137.269 146.441 137.502 147.178 138.035 147.697C138.556 148.206 139.351 148.395 140.013 148.049C140.359 147.869 140.618 147.579 140.774 147.224C140.936 146.859 141.076 146.405 141.079 146.004C141.079 145.968 141.131 145.969 141.128 146.006C141.1 146.393 141.149 146.763 141.046 147.144C140.955 147.479 140.793 147.799 140.545 148.045C140.037 148.55 139.253 148.686 138.586 148.455C137.85 148.2 137.38 147.545 137.063 146.866C136.709 146.11 136.443 145.321 136.055 144.579C135.851 144.189 135.652 143.796 135.42 143.421C135.18 143.031 134.874 142.668 134.659 142.265C134.642 142.233 134.676 142.193 134.708 142.219Z" fill="#263238"/>
<path d="M132.348 143.444C132.926 143.481 134.275 143.463 135.363 143.283C135.395 143.278 135.425 143.37 135.395 143.381C134.975 143.536 134.133 143.625 133.881 143.637C133.379 143.662 132.838 143.625 132.348 143.498C132.32 143.491 132.315 143.441 132.348 143.444Z" fill="#263238"/>
<path d="M95.9646 133.444C97.532 132.417 99.1998 131.54 100.898 130.751C102.58 129.969 104.338 129.371 106.115 128.845C107.13 128.544 108.156 128.294 109.182 128.036C109.213 128.028 109.224 128.076 109.193 128.085C107.402 128.585 105.646 129.244 103.925 129.947C102.211 130.647 100.513 131.377 98.8264 132.139C97.8721 132.571 96.9387 133.047 95.9998 133.511C95.9557 133.532 95.9249 133.47 95.9646 133.444Z" fill="#263238"/>
<path d="M96.1807 122.312L111.242 122.105C111.242 122.105 114.188 114.729 115.382 108.141C116.577 101.552 111.124 103.465 105.335 110.431C99.5467 117.398 96.1807 122.312 96.1807 122.312Z" fill="#FFC727"/>
<path d="M113.929 114.162C113.916 114.21 113.903 114.258 113.887 114.306C112.879 114.917 111.868 115.519 110.822 116.066C110.287 116.341 109.747 116.603 109.193 116.834C109.171 116.843 109.151 116.853 109.129 116.863C108.889 116.962 108.646 117.055 108.399 117.141C107.564 117.435 106.691 117.64 105.801 117.669C104.943 117.688 104.079 117.474 103.331 117.051C103.305 117.039 103.279 117.026 103.254 117.01C103.171 116.962 103.091 116.914 103.011 116.863C102.383 116.456 101.843 115.922 101.382 115.333C101.388 115.323 101.398 115.311 101.404 115.301C101.833 115.839 102.326 116.328 102.892 116.712C103.007 116.795 103.126 116.869 103.247 116.936C103.26 116.946 103.27 116.952 103.283 116.959C104.044 117.397 104.924 117.615 105.801 117.592C106.678 117.557 107.545 117.355 108.371 117.058C108.611 116.971 108.851 116.879 109.087 116.783C109.11 116.773 109.132 116.763 109.155 116.754C109.708 116.52 110.249 116.261 110.78 115.983C111.852 115.419 112.892 114.792 113.929 114.162ZM104.419 118.741C104.086 118.162 103.731 117.592 103.331 117.051C103.305 117.013 103.276 116.975 103.247 116.936C102.982 116.587 102.7 116.255 102.393 115.941C102.118 115.663 101.817 115.403 101.487 115.195C101.462 115.231 101.433 115.266 101.404 115.301C101.727 115.509 102.025 115.765 102.294 116.04C102.505 116.255 102.703 116.479 102.892 116.712C102.931 116.76 102.972 116.811 103.011 116.863C103.491 117.474 103.907 118.139 104.294 118.815C104.915 119.906 105.465 121.032 105.983 122.178L106.15 122.175C105.619 121.007 105.055 119.855 104.419 118.741ZM111.404 119.96C111.18 119.704 110.959 119.445 110.745 119.183C110.527 118.92 110.316 118.655 110.118 118.379C109.766 117.893 109.452 117.375 109.193 116.834C109.177 116.808 109.164 116.783 109.155 116.754C109.129 116.712 109.11 116.667 109.091 116.626C108.527 115.394 108.23 114.04 108.214 112.68C108.191 111.323 108.425 109.967 108.828 108.667C109.132 107.695 109.526 106.751 109.987 105.842C109.974 105.848 109.961 105.858 109.948 105.871C109.491 106.767 109.1 107.698 108.796 108.658C108.387 109.957 108.143 111.317 108.159 112.68C108.172 114.047 108.463 115.41 109.027 116.655C109.046 116.699 109.065 116.741 109.087 116.783C109.097 116.811 109.11 116.837 109.129 116.863C109.388 117.41 109.702 117.931 110.054 118.427C110.252 118.706 110.467 118.971 110.684 119.234C110.899 119.496 111.116 119.759 111.34 120.015C111.5 120.2 111.66 120.383 111.823 120.565C111.836 120.536 111.846 120.507 111.859 120.475C111.705 120.306 111.555 120.133 111.404 119.96ZM113.497 107.378C113.222 106.853 113.011 106.29 112.895 105.711C112.799 105.234 112.771 104.744 112.793 104.258C112.751 104.271 112.71 104.283 112.665 104.303C112.646 104.779 112.675 105.263 112.771 105.733C112.892 106.328 113.11 106.898 113.391 107.435C113.82 108.255 114.409 108.978 115.091 109.602C115.1 109.56 115.11 109.515 115.119 109.471C114.47 108.866 113.907 108.165 113.497 107.378Z" fill="white"/>
<path d="M110.624 122.041C110.705 122.042 111.237 121.96 111.239 121.96C111.28 121.763 112.199 118.674 112.438 118.003C112.924 116.635 113.491 115.292 114.039 113.947C114.056 113.905 114.122 113.925 114.108 113.97C113.746 115.128 113.404 116.295 113.033 117.451C113.141 117.288 113.248 117.124 113.351 116.958C113.562 116.617 113.747 116.262 113.944 115.913C113.961 115.882 114.011 115.907 114 115.94C113.841 116.426 113.587 116.885 113.309 117.312C113.19 117.496 113.051 117.669 112.908 117.836C112.876 117.932 112.846 118.029 112.814 118.124C112.588 118.8 111.42 122.14 111.364 122.143C111.35 122.143 110.806 122.144 110.637 122.143C110.596 122.143 110.582 122.04 110.624 122.041Z" fill="#263238"/>
<path d="M98.6737 119.444C101.925 119.264 105.193 119.312 108.451 119.423C109.373 119.455 110.295 119.508 111.214 119.583C111.24 119.586 111.244 119.623 111.217 119.624C109.591 119.68 107.965 119.669 106.337 119.667C104.706 119.666 103.072 119.651 101.44 119.604C100.519 119.577 99.5985 119.551 98.6775 119.505C98.6382 119.504 98.633 119.446 98.6737 119.444Z" fill="#263238"/>
<path d="M114.768 104.041C114.879 104.687 117.674 109.004 120.595 109.041C121.546 109.051 121.834 103.862 121.834 103.862L121.943 103.483L123.462 98.1877L117.399 93.7675L116.519 93.1777C116.519 93.1777 116.199 94.6539 115.819 96.4961C115.801 96.5816 115.783 96.667 115.765 96.7585C115.74 96.8622 115.716 96.9598 115.698 97.0574C115.638 97.3317 115.577 97.6123 115.523 97.8933C115.48 98.1067 115.438 98.314 115.402 98.5396C115.36 98.7652 115.324 98.9851 115.281 99.2104C114.915 101.443 114.725 103.767 114.768 104.041Z" fill="#AD6359"/>
<path d="M115.819 96.4961C117.103 100.859 120.411 102.803 121.943 103.483L123.463 98.1877L117.399 93.7675L116.52 93.1777C116.52 93.1777 116.199 94.6542 115.819 96.4961Z" fill="#263238"/>
<path d="M130.203 87.5926C132.934 96.8681 127.687 99.551 125.686 100.137C123.87 100.67 117.617 102.252 113.943 93.3084C110.269 84.3647 113.719 80.1628 117.808 78.7254C121.898 77.2879 127.473 78.3171 130.203 87.5926Z" fill="#AD6359"/>
<path d="M128.424 86.3777C128.198 86.4116 127.984 86.4052 127.757 86.4154C127.501 86.4273 127.298 86.4628 127.069 86.3242C126.947 86.25 126.899 86.0445 126.96 85.9188C127.102 85.6253 127.412 85.5335 127.72 85.5066C128.054 85.4778 128.318 85.5412 128.595 85.729C128.863 85.9114 128.721 86.3332 128.424 86.3777Z" fill="#263238"/>
<path d="M122.176 88.1202C122.388 88.0354 122.569 87.9218 122.771 87.8165C122.998 87.6975 123.19 87.6262 123.318 87.3913C123.386 87.2652 123.324 87.0639 123.208 86.9861C122.937 86.8044 122.623 86.8812 122.344 87.0134C122.041 87.1567 121.845 87.3449 121.701 87.6466C121.561 87.9388 121.896 88.2319 122.176 88.1202Z" fill="#263238"/>
<path d="M123.894 90.0495C123.882 90.0268 123.853 90.094 123.862 90.1196C124.069 90.7449 124.2 91.4959 123.691 91.8745C123.675 91.8863 123.687 91.9174 123.707 91.9081C124.375 91.6038 124.19 90.6086 123.894 90.0495Z" fill="#263238"/>
<path d="M123.135 89.5569C122.097 89.7803 122.62 91.8401 123.582 91.6334C124.528 91.4299 124.005 89.37 123.135 89.5569Z" fill="#263238"/>
<path d="M122.758 89.7682C122.608 89.9305 122.484 90.181 122.273 90.2575C122.028 90.3461 121.784 90.1785 121.567 90.0127C121.544 89.9954 121.531 90.0178 121.538 90.0453C121.632 90.4415 121.887 90.8079 122.325 90.7593C122.724 90.7151 122.913 90.2953 122.911 89.8735C122.91 89.7954 122.819 89.7029 122.758 89.7682Z" fill="#263238"/>
<path d="M127.629 88.9453C127.628 88.9197 127.687 88.9632 127.692 88.9898C127.829 89.6339 128.094 90.3491 128.724 90.4192C128.744 90.4214 128.75 90.4538 128.728 90.456C127.998 90.5302 127.655 89.5776 127.629 88.9453Z" fill="#263238"/>
<path d="M128.036 88.1376C129.045 87.8071 129.632 89.8496 128.698 90.1559C127.777 90.4573 127.19 88.4147 128.036 88.1376Z" fill="#263238"/>
<path d="M128.501 88.1498C128.694 88.2116 128.91 88.3626 129.106 88.3197C129.334 88.2701 129.435 88.002 129.517 87.7489C129.526 87.7226 129.547 87.7351 129.555 87.762C129.678 88.1492 129.666 88.593 129.312 88.7757C128.99 88.9425 128.642 88.6797 128.438 88.3175C128.4 88.2509 128.423 88.1252 128.501 88.1498Z" fill="#263238"/>
<path d="M125.297 95.4444C125.483 95.5635 125.679 95.7398 125.917 95.7113C126.146 95.6838 126.388 95.5283 126.577 95.4064C126.596 95.3942 126.621 95.4115 126.612 95.4336C126.495 95.7155 126.175 95.943 125.866 95.9523C125.563 95.9612 125.367 95.7388 125.241 95.4864C125.223 95.4512 125.27 95.4272 125.297 95.4444Z" fill="#263238"/>
<path d="M127.42 92.2285C127.42 92.2285 127.805 93.1437 127.924 93.5917C127.935 93.6336 126.391 94.4052 125.384 93.4925C125.342 93.4551 125.386 93.3956 125.434 93.4125C126.14 93.689 126.823 93.6269 127.528 93.4519C127.526 93.3194 126.817 91.9066 126.887 91.8823C127.126 91.7959 127.653 91.834 127.966 91.8416C127.221 89.912 126.172 88.1178 125.459 86.1853C125.434 86.1159 125.53 86.0676 125.568 86.1252C126.8 87.928 127.707 90.1296 128.528 92.1025C128.632 92.3476 127.62 92.257 127.42 92.2285Z" fill="#263238"/>
<path d="M127.407 93.6063C127.407 93.6063 127.205 94.2527 126.747 94.6197C126.579 94.7554 126.382 94.8546 126.145 94.8722C125.659 94.91 125.505 94.5048 125.465 94.1266C125.432 93.8159 125.479 93.5215 125.479 93.5215C125.479 93.5215 126.341 93.9042 127.407 93.6063Z" fill="#263238"/>
<path d="M126.747 94.6198C126.579 94.7555 126.381 94.8547 126.145 94.8723C125.658 94.9101 125.505 94.505 125.465 94.1267C125.96 94.0099 126.545 94.1696 126.747 94.6198Z" fill="#FF99BA"/>
<path d="M114.408 94.4806C116.338 93.1104 116.037 90.8873 116.037 90.8873C118.454 89.2998 119.505 87.0093 119.615 86.7766C119.586 86.9846 119.378 88.4861 119.248 89.248C125.096 87.0368 126.141 82.0736 126.141 82.0736C128.453 83.6813 129.068 84.8637 129.464 85.4377C129.464 85.4377 128.845 81.7184 126.493 79.5741C123.614 76.9481 120.531 78.095 120.531 78.095C120.531 78.095 115.581 77.535 112.64 82.1558C109.475 87.1382 114.408 94.4806 114.408 94.4806Z" fill="#263238"/>
<path d="M123.668 87.4255C122.801 88.1401 121.794 88.6975 120.768 89.1193C120.759 89.1228 120.755 89.11 120.763 89.1059C122.381 88.319 123.752 87.1523 124.724 85.6281C125.135 84.984 125.464 84.2963 125.704 83.5705C125.954 82.8118 126.171 81.9225 126.096 81.1206C126.09 81.0598 126.185 81.0508 126.191 81.1119C126.27 81.9596 126.334 82.7427 126.136 83.5814C125.949 84.3779 125.612 85.1481 125.15 85.8243C124.737 86.4281 124.232 86.9599 123.668 87.4255Z" fill="#263238"/>
<path d="M123.39 93.432C122.139 93.6285 120.861 92.9622 120.34 91.7456C119.723 90.3062 120.392 88.6339 121.831 88.017C123.27 87.3997 124.942 88.0688 125.559 89.5078C126.176 90.9466 125.507 92.6195 124.068 93.2365C123.846 93.3315 123.619 93.3962 123.39 93.432ZM122.568 88.1962C122.37 88.2272 122.173 88.2832 121.981 88.3654C120.734 88.8995 120.155 90.3488 120.688 91.5955C121.223 92.8416 122.673 93.4224 123.918 92.887C125.165 92.3526 125.744 90.9037 125.21 89.657C124.758 88.6032 123.653 88.0259 122.568 88.1962Z" fill="#FFC727"/>
<path d="M129.657 91.6455C128.583 91.8138 127.437 90.8672 127.038 89.4407C126.837 88.7207 126.852 87.984 127.081 87.3674C127.318 86.729 127.754 86.2922 128.309 86.137C128.866 85.9802 129.464 86.1293 129.998 86.552C130.513 86.961 130.908 87.5828 131.109 88.3024C131.53 89.8103 130.96 91.2922 129.838 91.6061C129.778 91.6224 129.718 91.6359 129.657 91.6455ZM128.553 86.472C128.505 86.4794 128.458 86.4896 128.412 86.5028C127.977 86.624 127.631 86.9783 127.437 87.4996C127.236 88.042 127.224 88.6951 127.403 89.3386C127.769 90.6448 128.812 91.4999 129.736 91.2407C130.657 90.9834 131.109 89.7111 130.744 88.4052C130.564 87.762 130.215 87.2096 129.762 86.85C129.373 86.5408 128.949 86.4096 128.553 86.472Z" fill="#FFC727"/>
<path d="M125.556 89.8516L125.243 89.6368C125.561 89.1728 126.389 88.4362 127.256 88.9642L127.059 89.2884C126.282 88.8144 125.586 89.8093 125.556 89.8516Z" fill="#FFC727"/>
<path d="M113.569 93.9588L113.197 93.8817C113.233 93.7082 113.571 92.1777 114.351 91.817C115.08 91.482 120.109 90.5713 120.322 90.5332L120.389 90.9066C118.947 91.1662 115.072 91.9009 114.51 92.1617C113.995 92.4001 113.656 93.5399 113.569 93.9588Z" fill="#FFC727"/>
<path d="M115.671 92.9294C115.671 92.9294 113.003 90.3899 111.81 91.3992C110.618 92.4085 113.041 96.3816 114.735 96.6491C116.43 96.9166 116.708 95.3531 116.708 95.3531L115.671 92.9294Z" fill="#AD6359"/>
<path d="M112.533 92.5205C112.507 92.5234 112.51 92.5599 112.533 92.5644C113.729 92.7884 114.518 93.6949 115.14 94.6748C114.729 94.3324 114.236 94.1989 113.767 94.701C113.743 94.7272 113.78 94.7669 113.809 94.7541C114.242 94.5653 114.585 94.5778 114.964 94.8786C115.232 95.0914 115.446 95.3861 115.661 95.6511C115.733 95.7394 115.901 95.6504 115.84 95.5442C115.835 95.5365 115.83 95.5285 115.826 95.5205C115.568 94.1058 114.074 92.3564 112.533 92.5205Z" fill="#263238"/>
<path d="M113.567 104.721C113.951 105.211 114.344 105.692 114.761 106.152C115.17 106.618 115.595 107.069 116.041 107.496C116.933 108.342 117.891 109.156 119.01 109.625C119.562 109.861 120.162 110 120.746 109.916C121.048 109.876 121.291 109.786 121.478 109.563C121.666 109.353 121.796 109.078 121.9 108.798C122.102 108.229 122.189 107.612 122.234 106.997C122.283 106.382 122.291 105.759 122.223 105.141C122.364 105.75 122.387 106.379 122.391 107.005C122.376 107.63 122.319 108.261 122.135 108.877C122.04 109.182 121.911 109.489 121.685 109.747C121.574 109.875 121.439 109.992 121.277 110.067C121.11 110.144 120.951 110.178 120.789 110.205C120.135 110.309 119.475 110.164 118.886 109.92C118.297 109.666 117.763 109.317 117.264 108.933C116.767 108.546 116.298 108.125 115.869 107.669C115.005 106.762 114.229 105.777 113.567 104.721Z" fill="#263238"/>
<path d="M203.855 36.9668H173.891V56.081H203.855V36.9668Z" fill="white"/>
<path d="M204.045 56.2705H173.701V36.7773H204.045V56.2705ZM174.08 55.8916H203.666V37.1562H174.08V55.8916Z" fill="#EBEBEB"/>
<path d="M203.855 36.9668H173.891V40.5815H203.855V36.9668Z" fill="#455A64"/>
<path d="M204.045 40.7709H173.701V36.7773H204.045V40.7709ZM174.08 40.3921H203.666V37.1562H174.08V40.3921Z" fill="#EBEBEB"/>
<path d="M177.284 38.8004C177.284 39.3028 176.877 39.7101 176.375 39.7101C175.872 39.7101 175.465 39.3028 175.465 38.8004C175.465 38.298 175.872 37.8906 176.375 37.8906C176.877 37.8906 177.284 38.298 177.284 38.8004Z" fill="#FFC727"/>
<path d="M180.999 38.8004C180.999 39.3028 180.592 39.7101 180.089 39.7101C179.587 39.7101 179.18 39.3028 179.18 38.8004C179.18 38.298 179.587 37.8906 180.089 37.8906C180.592 37.8906 180.999 38.298 180.999 38.8004Z" fill="#EBEBEB"/>
<path d="M184.714 38.8004C184.714 39.3028 184.307 39.7101 183.804 39.7101C183.302 39.7101 182.895 39.3028 182.895 38.8004C182.895 38.298 183.302 37.8906 183.804 37.8906C184.307 37.8906 184.714 38.298 184.714 38.8004Z" fill="white"/>
<path d="M179.062 47.7278C179.072 45.7346 180.744 44.1134 182.757 44.1035C183.643 44.1035 184.449 44.3957 185.083 44.8888C185.325 45.0901 185.365 45.4424 185.183 45.6942C184.982 45.9458 184.61 45.9861 184.378 45.805C183.935 45.4424 183.382 45.2514 182.757 45.2514C182.062 45.2514 181.418 45.5333 180.945 45.9762C180.492 46.4392 180.21 47.0434 180.21 47.7278C180.21 48.4126 180.492 49.0366 180.945 49.4798C181.418 49.9227 182.062 50.2046 182.757 50.2046C183.382 50.2046 183.925 50.0133 184.378 49.651C184.61 49.4798 184.982 49.5202 185.183 49.7618C185.365 50.0133 185.324 50.3758 185.083 50.5672C184.449 51.0603 183.643 51.3525 182.757 51.3525C180.744 51.3525 179.073 49.7317 179.062 47.7278Z" fill="#EBEBEB"/>
<path d="M186.916 49.6005C187.097 49.379 187.429 49.349 187.651 49.5301C188.094 49.8926 188.859 50.3154 189.573 50.3051C190.077 50.3051 190.53 50.1544 190.832 49.9326C191.134 49.7112 191.265 49.4597 191.265 49.2078C191.265 49.077 191.235 48.9864 191.174 48.8856C191.114 48.7848 191.023 48.6843 190.872 48.5835C190.58 48.3922 190.087 48.221 189.493 48.1102H189.472C188.999 48.0197 188.556 47.8987 188.174 47.7176C187.791 47.5365 187.459 47.2846 187.238 46.9323C187.087 46.6907 187.006 46.4088 187.006 46.1067C187.006 45.5026 187.348 44.979 187.811 44.637C188.284 44.2946 188.899 44.1035 189.553 44.1035C190.519 44.1035 191.235 44.5768 191.748 44.909C191.98 45.0699 192.05 45.3922 191.889 45.6238C191.737 45.8654 191.415 45.9362 191.174 45.7749C190.661 45.4325 190.167 45.1304 189.553 45.1304C189.1 45.1304 188.697 45.2712 188.425 45.4725C188.154 45.6738 188.043 45.8955 188.043 46.1067C188.043 46.2277 188.063 46.308 188.114 46.3886C188.164 46.4693 188.255 46.5598 188.386 46.6504C188.647 46.8315 189.1 46.9928 189.644 47.0933H189.664C190.178 47.1938 190.651 47.325 191.054 47.516C191.467 47.7173 191.829 47.979 192.06 48.3518C192.212 48.5934 192.302 48.8955 192.302 49.2075C192.302 49.852 191.94 50.4056 191.436 50.7682C190.943 51.1304 190.288 51.3419 189.574 51.3419C188.487 51.3317 187.57 50.7883 186.996 50.3352C186.775 50.1541 186.744 49.8219 186.916 49.6005Z" fill="#EBEBEB"/>
<path d="M193.53 49.6005C193.711 49.379 194.043 49.349 194.265 49.5301C194.708 49.8926 195.473 50.3154 196.187 50.3051C196.691 50.3051 197.144 50.1544 197.446 49.9326C197.748 49.7112 197.879 49.4597 197.879 49.2078C197.879 49.077 197.849 48.9864 197.788 48.8856C197.728 48.7848 197.637 48.6843 197.486 48.5835C197.194 48.3922 196.701 48.221 196.107 48.1102H196.087C195.614 48.0197 195.17 47.8987 194.788 47.7176C194.406 47.5365 194.073 47.2846 193.852 46.9323C193.7 46.6907 193.62 46.4088 193.62 46.1067C193.62 45.5026 193.962 44.979 194.425 44.637C194.898 44.2946 195.513 44.1035 196.167 44.1035C197.133 44.1035 197.849 44.5768 198.362 44.909C198.593 45.0699 198.664 45.3922 198.503 45.6238C198.351 45.8654 198.029 45.9362 197.788 45.7749C197.274 45.4325 196.781 45.1304 196.167 45.1304C195.714 45.1304 195.311 45.2712 195.039 45.4725C194.768 45.6738 194.657 45.8955 194.657 46.1067C194.657 46.2277 194.677 46.308 194.728 46.3886C194.778 46.4693 194.868 46.5598 195 46.6504C195.261 46.8315 195.714 46.9928 196.258 47.0933H196.278C196.792 47.1938 197.265 47.325 197.668 47.516C198.081 47.7173 198.443 47.979 198.674 48.3518C198.825 48.5934 198.916 48.8955 198.916 49.2075C198.916 49.852 198.553 50.4056 198.05 50.7682C197.557 51.1304 196.902 51.3419 196.187 51.3419C195.1 51.3317 194.184 50.7883 193.61 50.3352C193.389 50.1541 193.359 49.8219 193.53 49.6005Z" fill="#EBEBEB"/>
<path d="M108.777 77.7988H91.9551V85.3563H108.777V77.7988Z" fill="#455A64"/>
<path d="M96.9601 81.9121H96.2619V83.1448C96.2619 83.3153 96.1198 83.4574 95.9438 83.4574C95.7729 83.4574 95.6309 83.3153 95.6309 83.1448V79.7928C95.6309 79.6168 95.7729 79.4805 95.9438 79.4805H95.9499H96.9601C97.6363 79.4805 98.1822 80.0257 98.1822 80.7019C98.1822 81.3665 97.6363 81.9121 96.9601 81.9121ZM96.2616 81.2814H96.9601C97.2901 81.2814 97.5454 81.02 97.5512 80.7019C97.5451 80.3726 97.2901 80.1112 96.9601 80.1112H96.2619L96.2616 81.2814Z" fill="white"/>
<path d="M98.9434 83.1448V79.7928C98.9434 79.6168 99.0794 79.4805 99.2554 79.4805C99.4314 79.4805 99.5734 79.6168 99.5734 79.7928V81.1563H101.045V79.7928C101.045 79.6168 101.182 79.4805 101.358 79.4805C101.534 79.4805 101.676 79.6168 101.676 79.7928V83.1448C101.676 83.3211 101.534 83.4574 101.358 83.4574C101.182 83.4574 101.045 83.3211 101.045 83.1448V81.7813H99.5734V83.1448C99.5734 83.3211 99.4314 83.4574 99.2554 83.4574C99.0794 83.4574 98.9434 83.3211 98.9434 83.1448Z" fill="white"/>
<path d="M104.3 81.9121H103.601V83.1448C103.601 83.3153 103.459 83.4574 103.283 83.4574C103.113 83.4574 102.971 83.3153 102.971 83.1448V79.7928C102.971 79.6168 103.113 79.4805 103.283 79.4805H103.289H104.3C104.976 79.4805 105.522 80.0257 105.522 80.7019C105.522 81.3665 104.976 81.9121 104.3 81.9121ZM103.601 81.2814H104.301C104.63 81.2814 104.886 81.02 104.892 80.7019C104.886 80.3726 104.63 80.1112 104.301 80.1112H103.601V81.2814Z" fill="white"/>
<path d="M144.319 54.4629H114.354V73.5771H144.319V54.4629Z" fill="white"/>
<path d="M144.508 73.7662H114.165V54.2734H144.508V73.7662ZM114.544 73.3874H144.129V54.652H114.544V73.3874Z" fill="#EBEBEB"/>
<path d="M144.319 54.4629H114.354V58.0776H144.319V54.4629Z" fill="#455A64"/>
<path d="M144.508 58.2667H114.165V54.2734H144.508V58.2667ZM114.544 57.8878H144.129V54.652H114.544V57.8878Z" fill="#EBEBEB"/>
<path d="M117.748 56.2965C117.748 56.7989 117.341 57.2062 116.838 57.2062C116.336 57.2062 115.929 56.7989 115.929 56.2965C115.929 55.7941 116.336 55.3867 116.838 55.3867C117.341 55.3867 117.748 55.7941 117.748 56.2965Z" fill="#FFC727"/>
<path d="M121.463 56.2965C121.463 56.7989 121.056 57.2062 120.553 57.2062C120.051 57.2062 119.644 56.7989 119.644 56.2965C119.644 55.7941 120.051 55.3867 120.553 55.3867C121.056 55.3867 121.463 55.7941 121.463 56.2965Z" fill="#EBEBEB"/>
<path d="M125.178 56.2965C125.178 56.7989 124.771 57.2062 124.268 57.2062C123.766 57.2062 123.358 56.7989 123.358 56.2965C123.358 55.7941 123.766 55.3867 124.268 55.3867C124.771 55.3867 125.178 55.7941 125.178 56.2965Z" fill="white"/>
<path d="M119.949 65.2239C119.959 63.2306 121.631 61.6095 123.644 61.5996C124.53 61.5996 125.335 61.8914 125.97 62.3849C126.211 62.5865 126.252 62.9385 126.07 63.1903C125.869 63.4422 125.496 63.4825 125.264 63.301C124.822 62.9385 124.268 62.7475 123.644 62.7475C122.949 62.7475 122.305 63.0294 121.831 63.4723C121.378 63.9353 121.096 64.5394 121.096 65.2239C121.096 65.9087 121.378 66.5327 121.831 66.9759C122.304 67.4188 122.949 67.7007 123.644 67.7007C124.268 67.7007 124.811 67.5094 125.264 67.1471C125.496 66.9759 125.869 67.0162 126.07 67.2578C126.251 67.5094 126.211 67.8719 125.97 68.0633C125.335 68.5567 124.53 68.8486 123.644 68.8486C121.63 68.8482 119.959 67.2274 119.949 65.2239Z" fill="#EBEBEB"/>
<path d="M129.603 65.8577H128.174C127.872 65.8577 127.62 65.6161 127.62 65.3041C127.62 65.002 127.872 64.7505 128.174 64.7505H129.603V63.3511C129.603 63.0289 129.855 62.7773 130.177 62.7773C130.489 62.7773 130.751 63.0292 130.751 63.3511V64.7505H132.18C132.483 64.7505 132.734 65.0023 132.734 65.3041C132.734 65.6164 132.483 65.8577 132.18 65.8577H130.751V67.257C130.751 67.5793 130.49 67.8308 130.177 67.8308C129.855 67.8308 129.603 67.5793 129.603 67.257V65.8577Z" fill="#EBEBEB"/>
<path d="M135.845 65.8577H134.416C134.114 65.8577 133.862 65.6161 133.862 65.3041C133.862 65.002 134.114 64.7505 134.416 64.7505H135.845V63.3511C135.845 63.0289 136.097 62.7773 136.419 62.7773C136.731 62.7773 136.993 63.0292 136.993 63.3511V64.7505H138.423C138.724 64.7505 138.976 65.0023 138.976 65.3041C138.976 65.6164 138.724 65.8577 138.423 65.8577H136.993V67.257C136.993 67.5793 136.731 67.8308 136.419 67.8308C136.097 67.8308 135.845 67.5793 135.845 67.257V65.8577Z" fill="#EBEBEB"/>
<g opacity="0.6">
<path d="M199.875 58.7715H149.902V93.7811H199.875V58.7715Z" fill="white"/>
<path d="M200.064 93.9702H149.713V58.582H200.064V93.9702ZM150.091 93.5913H199.685V58.9606H150.091V93.5913Z" fill="#EBEBEB"/>
<path d="M199.875 58.7715H149.902V62.3862H199.875V58.7715Z" fill="#455A64"/>
<path d="M200.064 62.5753H149.713V58.582H200.064V62.5753ZM150.091 62.1967H199.685V58.9609H150.091V62.1967Z" fill="#EBEBEB"/>
<path d="M153.295 60.6051C153.295 61.1075 152.888 61.5148 152.385 61.5148C151.883 61.5148 151.476 61.1075 151.476 60.6051C151.476 60.1027 151.883 59.6953 152.385 59.6953C152.888 59.6953 153.295 60.1027 153.295 60.6051Z" fill="#FFC727"/>
<path d="M157.01 60.6051C157.01 61.1075 156.603 61.5148 156.1 61.5148C155.598 61.5148 155.19 61.1075 155.19 60.6051C155.19 60.1027 155.598 59.6953 156.1 59.6953C156.603 59.6953 157.01 60.1027 157.01 60.6051Z" fill="#EBEBEB"/>
<path d="M160.725 60.6051C160.725 61.1075 160.317 61.5148 159.815 61.5148C159.313 61.5148 158.905 61.1075 158.905 60.6051C158.905 60.1027 159.313 59.6953 159.815 59.6953C160.317 59.6953 160.725 60.1027 160.725 60.6051Z" fill="white"/>
<path d="M155.713 69.5781H153.78V70.284H155.713V69.5781Z" fill="#EBEBEB"/>
<path d="M179.29 69.5781H157.121V70.284H179.29V69.5781Z" fill="#EBEBEB"/>
<path d="M184.149 69.5781H180.478V70.284H184.149V69.5781Z" fill="#FFC727"/>
<path d="M191.292 69.5781H184.946V70.284H191.292V69.5781Z" fill="#A6A6A6"/>
<path d="M157.645 71.4668H155.713V72.1727H157.645V71.4668Z" fill="#EBEBEB"/>
<path d="M173.554 71.4668H159.006V72.1727H173.554V71.4668Z" fill="#A6A6A6"/>
<path d="M171.017 77.1348H157.121V77.8407H171.017V77.1348Z" fill="#A6A6A6"/>
<path d="M168.754 73.3555H159.006V74.0614H168.754V73.3555Z" fill="#FFC727"/>
<path d="M186.651 75.2461H182.933V75.952H186.651V75.2461Z" fill="#A6A6A6"/>
<path d="M185.404 73.3555H169.836V74.0614H185.404V73.3555Z" fill="#A6A6A6"/>
<path d="M175.704 79.0234H157.121V79.7294H175.704V79.0234Z" fill="#FFC727"/>
<path d="M194.608 71.4668H184.537V72.1727H194.608V71.4668Z" fill="#FFC727"/>
<path d="M183.739 71.4668H174.468V72.1727H183.739V71.4668Z" fill="#EBEBEB"/>
<path d="M192.391 73.3555H186.135V74.0614H192.391V73.3555Z" fill="#EBEBEB"/>
<path d="M157.645 73.3555H155.713V74.0614H157.645V73.3555Z" fill="#EBEBEB"/>
<path d="M155.713 75.2461H153.78V75.952H155.713V75.2461Z" fill="#A6A6A6"/>
<path d="M168.543 75.2461H157.121V75.952H168.543V75.2461Z" fill="#EBEBEB"/>
<path d="M184.148 77.1348H171.804V77.8407H184.148V77.1348Z" fill="#EBEBEB"/>
<path d="M192.801 77.1348H184.946V77.8407H192.801V77.1348Z" fill="#FFC727"/>
<path d="M182.034 75.2461H169.704V75.952H182.034V75.2461Z" fill="#FFC727"/>
<path d="M155.713 77.1348H153.78V77.8407H155.713V77.1348Z" fill="#EBEBEB"/>
<path d="M155.713 79.0234H153.78V79.7294H155.713V79.0234Z" fill="#EBEBEB"/>
<path d="M154.975 67.7187C155.041 67.7878 155.041 67.8912 154.975 67.9574C154.94 67.9891 154.901 68.0051 154.858 68.0051C154.813 68.0051 154.771 67.9891 154.736 67.9574L153.991 67.2013C153.983 67.1987 153.98 67.1933 153.978 67.1853C153.975 67.1824 153.97 67.1798 153.97 67.1798C153.964 67.1718 153.964 67.1664 153.962 67.1587C153.956 67.1561 153.954 67.1507 153.954 67.1481C153.951 67.1427 153.951 67.1347 153.948 67.1321C153.948 67.1241 153.943 67.1216 153.943 67.119C153.943 67.111 153.943 67.1056 153.943 67.1005C153.943 67.095 153.94 67.0925 153.94 67.0848C153.94 67.0819 153.943 67.0739 153.943 67.0713C153.943 67.0659 153.943 67.0579 153.943 67.0528C153.943 67.0473 153.948 67.0448 153.948 67.0419C153.951 67.0339 153.951 67.0288 153.954 67.0208C153.954 67.0182 153.956 67.0182 153.956 67.0157C153.962 67.0077 153.964 66.9971 153.97 66.992C153.97 66.992 153.97 66.9865 153.975 66.9865C153.978 66.9811 153.983 66.9731 153.991 66.968L154.736 66.2118C154.803 66.1481 154.911 66.1481 154.975 66.2118C155.042 66.2781 155.042 66.3843 154.975 66.4505L154.347 67.0845L154.975 67.7187Z" fill="#FFC727"/>
<path d="M155.651 67.8033L156.3 66.2567C156.332 66.1825 156.417 66.1479 156.494 66.1799C156.566 66.209 156.6 66.2967 156.568 66.3681L155.918 67.9172C155.894 67.9729 155.839 68.0046 155.783 68.0046C155.767 68.0046 155.746 68.002 155.73 67.994C155.653 67.9652 155.619 67.8775 155.651 67.8033Z" fill="#FFC727"/>
<path d="M157.852 67.1798C157.852 67.1798 157.852 67.1824 157.849 67.1824C157.844 67.1878 157.839 67.1958 157.83 67.2009L157.085 67.9571C157.054 67.9888 157.008 68.0048 156.966 68.0048C156.921 68.0048 156.881 67.9888 156.847 67.9571C156.78 67.8909 156.78 67.7872 156.847 67.7184L157.475 67.0845L156.847 66.4505C156.78 66.384 156.78 66.2781 156.847 66.2118C156.91 66.1481 157.019 66.1481 157.085 66.2118L157.83 66.968C157.839 66.9731 157.844 66.9811 157.849 66.9865C157.852 66.9865 157.852 66.992 157.852 66.992C157.857 67.0025 157.862 67.008 157.865 67.0157C157.865 67.0182 157.868 67.0182 157.868 67.0208C157.87 67.0288 157.87 67.0342 157.876 67.0448C157.876 67.0473 157.878 67.0473 157.878 67.0528C157.878 67.0579 157.878 67.0659 157.878 67.0713C157.878 67.0739 157.881 67.0819 157.881 67.0848C157.881 67.0873 157.878 67.0953 157.878 67.0979C157.878 67.1059 157.878 67.1113 157.878 67.119C157.878 67.1219 157.876 67.1219 157.876 67.1245C157.87 67.135 157.87 67.143 157.868 67.1481C157.868 67.1507 157.865 67.1507 157.865 67.1561C157.862 67.1616 157.857 67.1696 157.852 67.1798Z" fill="#FFC727"/>
</g>
<path d="M119.714 47.418H99.3008V54.9754H119.714V47.418Z" fill="#FFC727"/>
<path d="M102.246 52.7639V49.4119C102.246 49.2359 102.383 49.0996 102.559 49.0996C102.735 49.0996 102.877 49.2359 102.877 49.4119V50.7754H104.348V49.4119C104.348 49.2359 104.485 49.0996 104.661 49.0996C104.837 49.0996 104.979 49.2359 104.979 49.4119V52.7639C104.979 52.9402 104.837 53.0766 104.661 53.0766C104.485 53.0766 104.348 52.9402 104.348 52.7639V51.4004H102.877V52.7639C102.877 52.9402 102.735 53.0766 102.559 53.0766C102.383 53.0762 102.246 52.9399 102.246 52.7639Z" fill="white"/>
<path d="M108.706 49.7303H107.803V52.7639C107.803 52.9402 107.667 53.0766 107.49 53.0766C107.32 53.0766 107.178 52.9402 107.178 52.7639V49.7303H106.28C106.104 49.7303 105.968 49.5825 105.968 49.4119C105.968 49.2359 106.104 49.0996 106.28 49.0996H108.706C108.877 49.0996 109.019 49.2359 109.019 49.4119C109.019 49.5825 108.877 49.7303 108.706 49.7303Z" fill="white"/>
<path d="M113.376 49.4119V52.7639C113.376 52.9345 113.228 53.0766 113.057 53.0766C112.881 53.0766 112.745 52.9345 112.745 52.7639V50.3723L111.927 51.5086C111.864 51.5937 111.773 51.6391 111.671 51.6391H111.665H111.66C111.558 51.6391 111.461 51.5937 111.399 51.5086L110.586 50.3723V52.7639C110.586 52.9345 110.444 53.0766 110.268 53.0766C110.097 53.0766 109.955 52.9345 109.955 52.7639V49.4119C109.955 49.2417 110.097 49.0996 110.268 49.0996C110.273 49.0996 110.273 49.0996 110.285 49.0996C110.376 49.0996 110.478 49.1451 110.535 49.2302L111.665 50.7982L112.795 49.2302C112.858 49.1451 112.949 49.0996 113.051 49.0996C113.051 49.0996 113.051 49.0996 113.057 49.0996C113.227 49.1054 113.376 49.2417 113.376 49.4119Z" fill="white"/>
<path d="M114.751 52.7639V49.4119C114.751 49.2417 114.887 49.0996 115.064 49.0996C115.24 49.0996 115.382 49.2417 115.382 49.4119V52.4455H116.922C117.086 52.4455 117.234 52.5876 117.234 52.7636C117.234 52.9342 117.086 53.0762 116.922 53.0762H115.081C115.069 53.0762 115.069 53.0762 115.069 53.0762C115.063 53.0762 115.063 53.0762 115.063 53.0762C114.888 53.0762 114.751 52.9345 114.751 52.7639Z" fill="white"/>
<path d="M152.313 88.1152H140.917V95.6727H152.313V88.1152Z" fill="#FFC727"/>
<path d="M144.011 92.6266C144.11 92.9293 144.396 93.1495 144.732 93.1495C145.15 93.1495 145.491 92.8084 145.491 92.3956V90.2109C145.491 90.0404 145.629 89.9082 145.8 89.9082C145.965 89.9082 146.102 90.0404 146.102 90.2109V92.3956C146.102 93.1495 145.486 93.76 144.732 93.76C144.127 93.76 143.61 93.3639 143.434 92.8135C143.379 92.6484 143.472 92.4778 143.626 92.4336C143.791 92.3789 143.961 92.4669 144.011 92.6266Z" fill="white"/>
<path d="M146.869 92.8027C146.967 92.6817 147.149 92.6651 147.27 92.7643C147.512 92.9623 147.931 93.1934 148.321 93.1879C148.597 93.1879 148.844 93.1054 149.009 92.9844C149.174 92.8631 149.246 92.7255 149.246 92.5883C149.246 92.5169 149.229 92.4673 149.196 92.4123C149.163 92.3575 149.113 92.3022 149.031 92.2471C148.871 92.1428 148.602 92.0491 148.277 91.9886H148.266C148.007 91.939 147.765 91.8731 147.556 91.7739C147.347 91.675 147.166 91.5374 147.045 91.3447C146.962 91.2129 146.918 91.0587 146.918 90.8935C146.918 90.5633 147.105 90.2772 147.358 90.0903C147.617 89.9035 147.953 89.7988 148.31 89.7988C148.839 89.7988 149.229 90.0574 149.51 90.2391C149.637 90.3271 149.675 90.5031 149.587 90.6299C149.504 90.7617 149.328 90.8004 149.196 90.7124C148.916 90.5252 148.646 90.3601 148.31 90.3601C148.063 90.3601 147.843 90.4372 147.694 90.5473C147.546 90.6574 147.485 90.7783 147.485 90.8942C147.485 90.9604 147.496 91.0043 147.524 91.0484C147.551 91.0923 147.601 91.1419 147.672 91.1915C147.815 91.2903 148.063 91.3783 148.36 91.4337H148.371C148.651 91.4887 148.91 91.5601 149.13 91.6647C149.356 91.7748 149.554 91.9179 149.68 92.1214C149.763 92.2535 149.812 92.4187 149.812 92.5892C149.812 92.9412 149.614 93.2439 149.339 93.442C149.069 93.6404 148.712 93.7556 148.321 93.7556C147.727 93.7502 147.226 93.4532 146.912 93.2055C146.792 93.1051 146.775 92.9239 146.869 92.8027Z" fill="white"/>
<path opacity="0.6" d="M102.19 141.781C102.19 141.781 109.188 138.558 109.188 134.237C109.188 129.915 100.113 127.134 100.113 123.757C100.113 120.379 104.07 118.393 104.07 118.393C104.07 118.393 97.8193 120.528 97.8193 124.8C97.8193 129.071 103.802 131.965 104.374 134.683C105.169 138.458 102.19 141.781 102.19 141.781Z" fill="#DBDBDB"/>
<path opacity="0.6" d="M102.537 141.782C102.537 141.782 95.5391 139.247 95.5391 135.85C95.5391 132.452 104.614 130.266 104.614 127.61C104.614 124.955 100.657 123.393 100.657 123.393C100.657 123.393 106.907 125.072 106.907 128.43C106.907 131.788 100.038 134.097 99.5464 136.826C99.0645 139.502 102.537 141.782 102.537 141.782Z" fill="#DBDBDB"/>
<path d="M105.593 152.646H98.9365V153.685H105.593V152.646Z" fill="#37474F"/>
<path d="M105.593 152.646H98.9365V153.332H105.593V152.646Z" fill="#263238"/>
<path d="M91.0364 149.853C91.8236 150.96 93.2169 151.752 94.7843 151.456C95.0067 151.414 95.2304 151.352 95.4595 151.262C95.7696 151.142 96.0822 150.981 96.4006 150.768L95.5548 149.514C95.3827 149.633 95.216 149.726 95.0553 149.797C93.4704 150.516 92.4668 149.266 92.2697 148.981C91.3574 147.699 91.0307 144.77 91.9552 143.644C92.0163 143.56 92.2832 143.428 93.3552 143.656C93.5529 143.701 93.7776 143.751 94.0313 143.821C94.3126 143.901 94.48 143.946 94.6396 143.952L94.6668 143.199L94.7404 142.448C94.6713 142.436 94.5632 142.405 94.4227 142.365C94.0182 142.256 93.4732 142.108 92.9094 142.051C92.1209 141.969 91.2937 142.063 90.7865 142.686C89.2848 144.526 89.894 148.246 91.0364 149.853Z" fill="#37474F"/>
<path d="M95.5552 149.514C95.383 149.633 95.2163 149.726 95.0557 149.797L95.4598 151.262C95.7699 151.142 96.0825 150.981 96.4009 150.767L95.5552 149.514Z" fill="#263238"/>
<path d="M92.9092 142.051L93.3549 143.656C93.5527 143.701 93.7773 143.751 94.0311 143.821C94.3124 143.901 94.4797 143.946 94.6394 143.952L94.6666 143.199L94.7402 142.448C94.6711 142.435 94.5629 142.404 94.4225 142.364C94.018 142.257 93.473 142.108 92.9092 142.051Z" fill="#263238"/>
<path d="M111.119 140.088C111.119 140.088 110.32 146.871 108.941 149.728C107.562 152.581 105.637 152.9 104.441 152.9C103.245 152.9 103.355 152.9 102.268 152.9C101.177 152.9 101.29 152.9 100.09 152.9C98.894 152.9 96.9692 152.581 95.59 149.728C94.2108 146.871 93.4121 140.088 93.4121 140.088H111.119Z" fill="#37474F"/>
<path d="M110.174 145.721C110.036 146.345 109.886 146.962 109.719 147.545H94.8138C94.6474 146.962 94.497 146.345 94.3594 145.721H110.174Z" fill="#455A64"/>
<path d="M109.515 148.236C109.412 148.56 109.307 148.867 109.195 149.148H95.3386C95.2266 148.867 95.121 148.56 95.0186 148.236H109.515Z" fill="#455A64"/>
<path d="M110.516 144.006C110.461 144.303 110.404 144.607 110.34 144.918H94.1926C94.1286 144.607 94.071 144.303 94.0166 144.006H110.516Z" fill="#455A64"/>
</svg>
