<svg width="49" height="48" viewBox="0 0 49 48" fill="none" xmlns="http://www.w3.org/2000/svg">
<path d="M24.7601 17.0166H6.76162C6.37331 17.0166 6.05859 17.3314 6.05859 17.7196C6.05859 18.1079 6.37331 18.4227 6.76162 18.4227H24.7602C25.1485 18.4227 25.4632 18.1079 25.4632 17.7196C25.4632 17.3314 25.1485 17.0166 24.7601 17.0166Z" fill="#F8DA64"/>
<path d="M24.7601 21.9561H6.76162C6.37331 21.9561 6.05859 22.2709 6.05859 22.6591C6.05859 23.0473 6.37331 23.3621 6.76162 23.3621H24.7602C25.1485 23.3621 25.4632 23.0473 25.4632 22.6591C25.4632 22.2709 25.1485 21.9561 24.7601 21.9561Z" fill="#F8DA64"/>
<path d="M24.7601 26.8965H6.76162C6.37331 26.8965 6.05859 27.2113 6.05859 27.5995C6.05859 27.9877 6.37331 28.3025 6.76162 28.3025H24.7602C25.1485 28.3025 25.4632 27.9877 25.4632 27.5995C25.4632 27.2113 25.1485 26.8965 24.7601 26.8965Z" fill="#F8DA64"/>
<path d="M25.4632 32.5399C25.4632 32.1516 25.1485 31.8369 24.7602 31.8369H6.76162C6.37331 31.8369 6.05859 32.1517 6.05859 32.5399C6.05859 32.9282 6.37331 33.243 6.76162 33.243H24.7602C25.1485 33.243 25.4632 32.9283 25.4632 32.5399Z" fill="#F8DA64"/>
<path d="M6.76163 39.0771C6.37331 39.0771 6.05859 39.392 6.05859 39.7802C6.05859 40.1684 6.37331 40.4832 6.76163 40.4832H15.7839C16.1722 40.4832 16.487 40.1684 16.487 39.7802C16.487 39.392 16.1722 39.0771 15.7839 39.0771H6.76163Z" fill="#F8DA64"/>
<path d="M32.862 8.70509V6.42378C32.862 5.55472 32.155 4.84766 31.2858 4.84766H16.8514C15.9824 4.84766 15.2754 5.55472 15.2754 6.42378V8.70509C15.2754 9.57416 15.9824 10.2811 16.8514 10.2811H18.0704C18.4587 10.2811 18.7734 9.96631 18.7734 9.57809C18.7734 9.18978 18.4587 8.87506 18.0704 8.87506H16.8514C16.7578 8.87506 16.6815 8.79884 16.6815 8.70519V6.42378C16.6815 6.33012 16.7578 6.25381 16.8514 6.25381H31.2858C31.3796 6.25381 31.4558 6.33003 31.4558 6.42378V8.70509C31.4558 8.79875 31.3796 8.87497 31.2858 8.87497H21.3572C20.9689 8.87497 20.6542 9.18978 20.6542 9.578C20.6542 9.96631 20.9689 10.281 21.3572 10.281H31.2859C32.155 10.2812 32.862 9.57416 32.862 8.70509Z" fill="#F8DA64"/>
<path d="M38.1187 42.8715C37.7303 42.8715 37.4156 43.1863 37.4156 43.5745V44.5213C37.4156 45.664 36.4859 46.5938 35.343 46.5938H4.24031C3.09759 46.5938 2.16778 45.6641 2.16778 44.5213V10.7276C2.16778 10.5755 2.18559 10.4262 2.21737 10.281H8.61891C9.95541 10.281 11.0427 9.19369 11.0427 7.85719V1.45575C11.1879 1.42397 11.3371 1.40616 11.4893 1.40616H35.3429C36.4857 1.40616 37.4155 2.33588 37.4155 3.47869V12.8389C37.4155 13.2272 37.7302 13.5419 38.1186 13.5419C38.5069 13.5419 38.8216 13.2271 38.8216 12.8389V3.47859C38.8217 1.56056 37.2611 0 35.343 0H11.4893C10.5602 0 9.68653 0.361875 9.02953 1.01888L1.7805 8.26791C1.1235 8.92491 0.761719 9.79847 0.761719 10.7277V44.5214C0.761719 46.4395 2.32219 48 4.24031 48H35.343C37.2611 48 38.8217 46.4394 38.8217 44.5214V43.5746C38.8217 43.1863 38.507 42.8715 38.1187 42.8715ZM9.63666 2.40037V7.85719C9.63666 8.41838 9.18009 8.87494 8.61891 8.87494H3.16209L9.63666 2.40037Z" fill="#F8DA64"/>
<path d="M47.7486 25.1252C48.2421 24.4008 48.3698 23.5073 48.0989 22.6737C47.8281 21.84 47.1995 21.1922 46.3745 20.8964C45.8272 20.7 45.462 20.1975 45.4446 19.6163C45.4181 18.7402 44.9961 17.9422 44.2869 17.4269C43.5778 16.9118 42.6883 16.7572 41.8472 17.0026C41.2886 17.1656 40.6983 16.9736 40.3424 16.5137C39.8061 15.8204 38.9957 15.4229 38.1191 15.4229C37.2427 15.4229 36.4322 15.8204 35.8958 16.5137C35.5399 16.9737 34.9492 17.1654 34.3911 17.0026C33.5499 16.757 32.6605 16.9118 31.9512 17.4269C31.2421 17.9422 30.8203 18.7401 30.7937 19.6162C30.7762 20.1974 30.4111 20.6999 29.8637 20.8963C29.0387 21.1921 28.4101 21.84 28.1394 22.6736C27.8685 23.5072 27.9962 24.4008 28.4897 25.1251C28.8171 25.6058 28.8171 26.2268 28.4897 26.7074C27.9962 27.4318 27.8685 28.3253 28.1394 29.1589C28.4101 29.9925 29.0387 30.6404 29.8637 30.9363C30.4111 31.1327 30.7763 31.6351 30.7937 32.2164C30.8182 33.0223 31.1875 33.7795 31.8071 34.2937C32.216 34.6331 32.7071 34.8454 33.2212 34.9164V41.3174C33.2212 41.8575 33.5141 42.3568 33.9856 42.6201C34.4565 42.8833 35.0354 42.8715 35.4956 42.5881L38.0742 41.0008C38.1162 40.9748 38.1413 40.9865 38.1644 41.0008L40.7428 42.5881C41.2029 42.8713 41.7816 42.8834 42.253 42.62C42.7245 42.3566 43.0174 41.8574 43.0174 41.3174V34.9162C43.5312 34.8453 44.0224 34.633 44.4312 34.2937C45.051 33.7795 45.4204 33.0224 45.4449 32.2163C45.4623 31.635 45.8275 31.1325 46.3748 30.9362C47.1999 30.6404 47.8285 29.9924 48.0992 29.1588C48.37 28.3252 48.2424 27.4317 47.7489 26.7073C47.4211 26.2269 47.4211 25.6059 47.7486 25.1252ZM41.4798 41.3908L38.9013 39.8034C38.422 39.5084 37.8167 39.5079 37.3369 39.8034L34.7584 41.3907C34.6997 41.4264 34.6272 41.3852 34.6272 41.3174V34.7829C35.1106 34.7269 35.5899 34.9236 35.8958 35.3189C36.4323 36.0121 37.2427 36.4097 38.1192 36.4097C38.9957 36.4097 39.8061 36.0121 40.3424 35.3189C40.6484 34.9235 41.1278 34.7269 41.6111 34.7829V41.3174C41.6111 41.3857 41.5376 41.4265 41.4798 41.3908ZM46.5866 27.4993C46.8333 27.8613 46.897 28.3079 46.7617 28.7245C46.6263 29.1411 46.3121 29.4649 45.8997 29.6129C44.8046 30.0057 44.0742 31.0109 44.0391 32.1739C44.0266 32.5828 43.8469 32.9513 43.5331 33.2117C43.1803 33.5045 42.7026 33.6149 42.2411 33.4803C41.1243 33.1544 39.9424 33.5384 39.2303 34.4585C38.9622 34.8049 38.5571 35.0037 38.1191 35.0037C37.681 35.0037 37.276 34.805 37.0077 34.4585C36.4641 33.7558 35.6465 33.3658 34.7931 33.3658C34.5289 33.3658 34.2611 33.4032 33.9971 33.4802C33.5312 33.616 33.0549 33.5022 32.7049 33.2116C32.3911 32.9512 32.2114 32.5827 32.1991 32.1739C32.1639 31.0109 31.4336 30.0057 30.3383 29.6128C29.926 29.4648 29.6119 29.1411 29.4764 28.7245C29.3411 28.3079 29.4048 27.8612 29.6515 27.4992C30.3066 26.5376 30.3066 25.2951 29.6515 24.3335C29.4048 23.9714 29.3411 23.5248 29.4764 23.1081C29.6118 22.6915 29.926 22.3677 30.3383 22.2198C31.4336 21.8269 32.1639 20.8216 32.1991 19.6587C32.2123 19.2208 32.4231 18.8219 32.7775 18.5645C33.1318 18.307 33.5762 18.2297 33.9971 18.3524C35.1136 18.6783 36.2958 18.2942 37.0077 17.3742C37.2759 17.0277 37.6809 16.8289 38.1191 16.8289C38.5571 16.8289 38.9621 17.0276 39.2303 17.3741C39.9423 18.2942 41.1239 18.6782 42.241 18.3524C42.6616 18.2295 43.106 18.3069 43.4605 18.5644C43.8149 18.8219 44.0259 19.2208 44.039 19.6586C44.0742 20.8215 44.8046 21.8269 45.8997 22.2197C46.3121 22.3676 46.6262 22.6914 46.7617 23.108C46.897 23.5246 46.8333 23.9714 46.5866 24.3333C45.9313 25.295 45.9313 26.5377 46.5866 27.4993Z" fill="#F8DA64"/>
<path d="M38.1191 20.0234C34.8699 20.0234 32.2266 22.6668 32.2266 25.916C32.2266 29.1652 34.8699 31.8086 38.1191 31.8086C41.3682 31.8086 44.0116 29.1652 44.0116 25.916C44.0116 22.6668 41.3682 20.0234 38.1191 20.0234ZM38.1191 30.4025C35.6453 30.4025 33.6326 28.3899 33.6326 25.9161C33.6326 23.4423 35.6453 21.4296 38.1191 21.4296C40.593 21.4296 42.6055 23.4422 42.6055 25.9161C42.6055 28.39 40.5929 30.4025 38.1191 30.4025Z" fill="#F8DA64"/>
</svg>
