<svg width="201" height="201" viewBox="0 0 201 201" fill="none" xmlns="http://www.w3.org/2000/svg">
<circle cx="100.5" cy="100.5" r="100.5" fill="#161616"/>
<path d="M94.5381 158V160.947H103.641V163.894H94.8655V166.819H103.641V169.679H94.5381V172.626H106.916V158H94.5381Z" fill="white"/>
<path d="M90.8613 158.26L87.2998 161.209L87.1295 161.17L85.115 156.948L81.2203 156.059L84.277 162.288L84.2333 162.479L78.7867 166.722L82.6388 167.601L86.2052 164.631L86.3755 164.67L88.3851 168.913L92.2798 169.802L89.228 163.552L89.2668 163.382L94.7134 159.139L90.8613 158.26Z" fill="white"/>
<path d="M78.9338 151.886L76.045 157.885L75.9073 157.818C76.4064 155.926 75.6876 154.199 73.4061 153.1C70.4362 151.67 67.8275 152.861 66.3215 155.988C64.8155 159.116 65.5408 161.936 68.5697 163.395C70.8905 164.512 72.6323 164.116 73.8956 162.398L74.0923 162.493L72.7947 165.187L75.5285 166.504L81.884 153.307L78.9338 151.886ZM75.022 160.009L74.9462 160.166C74.1033 161.916 72.8073 162.092 70.8995 161.173C69.0311 160.273 68.4396 159.237 69.311 157.428C70.1729 155.638 71.3611 155.435 73.2492 156.344C75.098 157.235 75.8366 158.317 75.022 160.009Z" fill="white"/>
<path d="M61.5381 147.745L52.4189 159.18L54.979 161.222L64.0982 149.786L61.5381 147.745Z" fill="white"/>
<path d="M50.7411 138.891C48.4136 135.973 45.1076 135.398 42.4109 137.549C39.6802 139.726 39.5216 143.064 41.849 145.982C44.1765 148.901 47.4655 149.489 50.1962 147.311C52.8928 145.161 53.0685 141.81 50.7411 138.891ZM48.4711 140.701C49.8594 142.442 49.6702 143.57 48.1682 144.768C46.6663 145.966 45.4902 145.926 44.1019 144.186C42.7272 142.462 42.937 141.289 44.4389 140.092C45.9408 138.894 47.0964 138.977 48.4711 140.701Z" fill="white"/>
<path d="M43.2247 128.747L37.521 131.493C36.2819 132.09 35.4449 131.912 34.8103 130.594C34.2325 129.394 34.4962 128.734 35.5779 128.213L36.6006 127.721L35.1799 124.771L33.5475 125.557C31.62 126.485 30.5413 128.119 31.6021 130.322C32.5587 132.308 34.2801 132.763 36.0058 132.272L36.0911 132.449L33.4752 133.708L34.7918 136.442L44.6454 131.697L43.2247 128.747Z" fill="white"/>
<path d="M37.3041 113.136C36.5317 109.752 34.3994 107.865 32.0796 108.395L31.8455 108.448L32.5741 111.641L32.7869 111.592C33.7021 111.383 34.3422 111.931 34.7745 113.825C35.2457 115.89 34.7182 116.816 33.0989 117.275L31.117 108.592C30.7455 108.632 30.4591 108.653 30.076 108.74C26.7347 109.503 25.4339 112.24 26.2305 115.731C27.032 119.242 29.7304 121.157 33.1356 120.379C36.9239 119.515 38.1153 116.69 37.3041 113.136ZM28.7351 115.226C28.3077 113.353 28.7306 112.361 30.1158 111.955L31.4079 117.617C29.9905 117.783 29.1675 117.12 28.7351 115.226Z" fill="white"/>
<path d="M37.132 89.6362L29.8959 87.9846L27.6321 87.6023L27.6856 87.3682L30.1097 87.0482L37.1745 85.5259L38.0586 81.6525L32.3539 77.2157L30.3087 75.8757L30.3621 75.6415L32.5725 76.258L39.8085 77.9096L40.5371 74.7172L26.2779 71.4626L25.2869 75.8043L31.5718 80.6422L34.6168 82.7031L34.5634 82.9372L30.916 83.5153L23.1302 85.2537L22.1441 89.574L36.4033 92.8286L37.132 89.6362Z" fill="white"/>
<path d="M44.558 71.9888C46.1777 68.6256 45.2608 65.3977 42.1532 63.9012C39.0064 62.3857 35.9307 63.6909 34.311 67.0541C32.6914 70.4173 33.5886 73.6358 36.7355 75.1512C39.843 76.6477 42.9384 75.352 44.558 71.9888ZM41.9422 70.7291C40.9761 72.7352 39.8775 73.0542 38.1468 72.2207C36.416 71.3872 35.9411 70.3105 36.9072 68.3044C37.8638 66.3179 39.0112 65.9982 40.742 66.8317C42.4728 67.6652 42.8988 68.7426 41.9422 70.7291Z" fill="white"/>
<path d="M51.696 62.5603L46.7465 58.6132C45.6713 57.7558 45.4689 56.9242 46.3808 55.7807C47.211 54.7396 47.9201 54.6908 48.8588 55.4394L49.7463 56.1471L51.7879 53.587L50.3713 52.4574C48.6987 51.1235 46.7584 50.8606 45.234 52.7721C43.8594 54.4959 44.1962 56.2443 45.3881 57.5857L45.2656 57.7393L42.9956 55.9291L41.1037 58.3015L49.6544 65.1204L51.696 62.5603Z" fill="white"/>
<path d="M64.187 53.4216C66.9007 51.2575 67.6754 48.5177 66.1919 46.6574L66.0422 46.4696L63.4821 48.5112L63.6182 48.6819C64.2034 49.4158 63.9874 50.2303 62.4684 51.4416C60.8129 52.7619 59.7493 52.6886 58.633 51.4289L65.5965 45.8757C65.3992 45.5584 65.2564 45.3093 65.0114 45.0021C62.8746 42.3225 59.8437 42.3383 57.0447 44.5705C54.2286 46.8162 53.6747 50.078 55.8524 52.8088C58.2751 55.8467 61.3368 55.6946 64.187 53.4216ZM58.5859 46.6081C60.0878 45.4104 61.1652 45.3609 62.1318 46.4329L57.5919 50.0534C56.8267 48.8487 57.0669 47.8195 58.5859 46.6081Z" fill="white"/>
<path d="M91.1449 39.5028L90.5183 36.7574L82.5799 38.5692L83.2066 41.3147L91.1449 39.5028Z" fill="white"/>
<path d="M119.363 46.8075L120.018 43.9344L111.144 41.9088L111.799 39.0356L120.355 40.9884L121.006 38.1365L112.45 36.1838L113.087 33.3958L121.961 35.4214L122.617 32.5482L110.55 29.794L107.295 44.0532L119.363 46.8075Z" fill="white"/>
<path d="M123.363 47.5398L127.492 45.4574L127.649 45.5332L128.674 50.0971L132.273 51.8304L130.679 45.0781L130.764 44.9011L137.018 41.9768L133.458 40.2624L129.32 42.3644L129.163 42.2887L128.148 37.7051L124.549 35.9718L126.133 42.7437L126.057 42.9011L119.803 45.8254L123.363 47.5398Z" fill="white"/>
<path d="M134.48 55.8955L138.632 50.69L138.751 50.7853C137.843 52.5186 138.16 54.3625 140.14 55.9413C142.717 57.9965 145.525 57.416 147.689 54.7023C149.853 51.9886 149.774 49.0773 147.146 46.9812C145.132 45.3752 143.345 45.3745 141.731 46.768L141.561 46.6319L143.425 44.2937L141.053 42.4018L131.92 53.8539L134.48 55.8955ZM140.102 48.8467L140.21 48.7102C141.422 47.1912 142.724 47.3085 144.38 48.6287C146.001 49.9218 146.347 51.0633 145.095 52.6335C143.857 54.1866 142.653 54.1203 141.015 52.8137C139.41 51.5343 138.931 50.3145 140.102 48.8467Z" fill="white"/>
<path d="M150.606 63.9848L162.041 54.8656L159.999 52.3055L148.564 61.4247L150.606 63.9848Z" fill="white"/>
<path d="M158.587 76.0972C160.207 79.4604 163.302 80.7561 166.41 79.2596C169.557 77.7441 170.454 74.5257 168.834 71.1625C167.215 67.7993 164.139 66.4941 160.992 68.0095C157.885 69.506 156.968 72.734 158.587 76.0972ZM161.203 74.8375C160.237 72.8313 160.673 71.7736 162.404 70.9401C164.134 70.1066 165.272 70.4066 166.238 72.4127C167.195 74.3992 166.73 75.4956 164.999 76.3291C163.268 77.1626 162.16 76.8239 161.203 74.8375Z" fill="white"/>
<path d="M163.602 87.743L169.774 86.3343C171.115 86.0282 171.891 86.3884 172.217 87.8144C172.513 89.1126 172.109 89.6974 170.939 89.9646L169.832 90.2172L170.561 93.4095L172.327 93.0063C174.413 92.5303 175.828 91.1773 175.284 88.7936C174.793 86.6441 173.216 85.8173 171.425 85.9128L171.381 85.7213L174.211 85.0752L173.536 82.117L162.874 84.5506L163.602 87.743Z" fill="white"/>
<path d="M165.865 104.353C165.865 107.824 167.524 110.138 169.903 110.138H170.143V106.863H169.925C168.986 106.863 168.484 106.186 168.484 104.244C168.484 102.126 169.205 101.34 170.886 101.253V110.159C171.257 110.203 171.54 110.247 171.933 110.247C175.361 110.247 177.238 107.867 177.238 104.287C177.238 100.685 175.033 98.2185 171.54 98.2185C167.655 98.2185 165.865 100.707 165.865 104.353ZM174.684 104.222C174.684 106.143 174.051 107.016 172.61 107.103V101.297C174.029 101.449 174.684 102.279 174.684 104.222Z" fill="white"/>
<path d="M159.109 126.322L165.796 129.543L167.918 130.419L167.814 130.635L165.38 130.408L158.153 130.32L156.429 133.9L161.004 139.495L162.699 141.256L162.595 141.473L160.577 140.38L153.89 137.159L152.47 140.109L165.647 146.455L167.579 142.443L162.529 136.328L160.018 133.641L160.123 133.425L163.807 133.673L171.785 133.711L173.707 129.718L160.53 123.372L159.109 126.322Z" fill="white"/>
<path d="M148.128 141.772C145.801 144.691 145.976 148.042 148.673 150.192C151.404 152.37 154.693 151.782 157.02 148.864C159.347 145.945 159.189 142.608 156.458 140.43C153.761 138.28 150.455 138.854 148.128 141.772ZM150.398 143.583C151.786 141.842 152.928 141.775 154.43 142.973C155.932 144.171 156.155 145.326 154.767 147.067C153.392 148.791 152.203 148.847 150.701 147.649C149.199 146.452 149.023 145.306 150.398 143.583Z" fill="white"/>
<path d="M138.642 148.532L142.589 153.482C143.446 154.557 143.458 155.413 142.315 156.325C141.274 157.155 140.572 157.045 139.823 156.106L139.115 155.218L136.555 157.26L137.685 158.677C139.019 160.349 140.852 161.037 142.763 159.513C144.487 158.138 144.548 156.359 143.684 154.786L143.838 154.663L145.648 156.933L148.021 155.041L141.202 146.491L138.642 148.532Z" fill="white"/>
<path d="M124.857 154.498C121.73 156.004 120.365 158.503 121.397 160.647L121.501 160.863L124.452 159.443L124.357 159.246C123.95 158.4 124.341 157.654 126.092 156.811C128 155.892 129.02 156.201 129.828 157.677L121.804 161.541C121.925 161.895 122.009 162.169 122.18 162.523C123.667 165.611 126.625 166.27 129.851 164.717C133.096 163.154 134.362 160.097 132.846 156.951C131.16 153.45 128.141 152.917 124.857 154.498ZM128.801 162.387C127.071 163.221 126.009 163.029 125.305 161.769L130.537 159.25C131.015 160.595 130.552 161.544 128.801 162.387Z" fill="white"/>
<path d="M126.522 96.6051C130.29 98.7806 130.29 104.219 126.522 106.395L94.7283 124.751C90.9601 126.926 86.25 124.207 86.25 119.856L86.25 83.144C86.25 78.793 90.9601 76.0736 94.7283 78.2491L126.522 96.6051Z" fill="white"/>
</svg>
