<svg width="1275" height="472" viewBox="0 0 1275 472" fill="none" xmlns="http://www.w3.org/2000/svg">
<rect width="1275" height="472" rx="18" fill="#2C3742"/>
<path d="M719.4 264V207.2H757.24V215.12H728.36V232.08H752.52V239.52H728.36V264H719.4ZM785.55 229.76C782.137 229.813 779.097 230.587 776.43 232.08C773.817 233.573 771.95 235.68 770.83 238.4V264H762.03V222.16H770.19V231.52C771.63 228.64 773.523 226.347 775.87 224.64C778.217 222.88 780.697 221.92 783.31 221.76C783.843 221.76 784.27 221.76 784.59 221.76C784.963 221.76 785.283 221.787 785.55 221.84V229.76ZM809.971 264.8C806.664 264.8 803.704 264.24 801.091 263.12C798.477 261.947 796.211 260.347 794.291 258.32C792.424 256.293 790.984 254 789.971 251.44C788.957 248.827 788.451 246.053 788.451 243.12C788.451 240.187 788.957 237.413 789.971 234.8C790.984 232.187 792.424 229.893 794.291 227.92C796.211 225.893 798.477 224.32 801.091 223.2C803.757 222.027 806.717 221.44 809.971 221.44C813.224 221.44 816.157 222.027 818.771 223.2C821.437 224.32 823.704 225.893 825.571 227.92C827.491 229.893 828.957 232.187 829.971 234.8C830.984 237.413 831.491 240.187 831.491 243.12C831.491 246.053 830.984 248.827 829.971 251.44C828.957 254 827.491 256.293 825.571 258.32C823.704 260.347 821.437 261.947 818.771 263.12C816.157 264.24 813.224 264.8 809.971 264.8ZM797.491 243.2C797.491 245.867 798.051 248.267 799.171 250.4C800.291 252.533 801.784 254.213 803.651 255.44C805.517 256.667 807.624 257.28 809.971 257.28C812.264 257.28 814.344 256.667 816.211 255.44C818.131 254.16 819.651 252.453 820.771 250.32C821.891 248.133 822.451 245.733 822.451 243.12C822.451 240.453 821.891 238.053 820.771 235.92C819.651 233.787 818.131 232.107 816.211 230.88C814.344 229.6 812.264 228.96 809.971 228.96C807.624 228.96 805.517 229.6 803.651 230.88C801.784 232.16 800.291 233.867 799.171 236C798.051 238.08 797.491 240.48 797.491 243.2ZM876.816 264H868.016V240.56C868.016 236.667 867.376 233.813 866.096 232C864.869 230.187 863.029 229.28 860.576 229.28C858.869 229.28 857.162 229.707 855.456 230.56C853.802 231.413 852.309 232.587 850.976 234.08C849.642 235.52 848.682 237.2 848.096 239.12V264H839.296V222.16H847.296V230.56C848.362 228.693 849.749 227.093 851.456 225.76C853.216 224.373 855.189 223.307 857.376 222.56C859.562 221.813 861.882 221.44 864.336 221.44C866.842 221.44 868.896 221.893 870.496 222.8C872.149 223.707 873.429 224.96 874.336 226.56C875.296 228.107 875.936 229.92 876.256 232C876.629 234.027 876.816 236.187 876.816 238.48V264ZM909.998 261.84C909.251 262.213 908.318 262.613 907.198 263.04C906.078 263.467 904.798 263.84 903.358 264.16C901.971 264.48 900.531 264.64 899.038 264.64C897.224 264.64 895.544 264.32 893.998 263.68C892.451 263.04 891.198 262.027 890.238 260.64C889.331 259.2 888.878 257.36 888.878 255.12V228.96H883.358V222.16H888.878V208.4H897.678V222.16H906.798V228.96H897.678V252.32C897.784 253.76 898.238 254.827 899.038 255.52C899.891 256.213 900.931 256.56 902.158 256.56C903.384 256.56 904.558 256.347 905.678 255.92C906.798 255.493 907.624 255.147 908.158 254.88L909.998 261.84ZM915.693 246.08V238.16H939.613V246.08H915.693ZM989.844 256.08V264H950.884V207.2H989.124V215.12H959.844V231.28H985.204V238.72H959.844V256.08H989.844ZM1035.18 264H1026.38V240.56C1026.38 236.667 1025.74 233.813 1024.46 232C1023.23 230.187 1021.39 229.28 1018.94 229.28C1017.23 229.28 1015.52 229.707 1013.82 230.56C1012.16 231.413 1010.67 232.587 1009.34 234.08C1008 235.52 1007.04 237.2 1006.46 239.12V264H997.655V222.16H1005.66V230.56C1006.72 228.693 1008.11 227.093 1009.82 225.76C1011.58 224.373 1013.55 223.307 1015.74 222.56C1017.92 221.813 1020.24 221.44 1022.7 221.44C1025.2 221.44 1027.26 221.893 1028.86 222.8C1030.51 223.707 1031.79 224.96 1032.7 226.56C1033.66 228.107 1034.3 229.92 1034.61 232C1034.99 234.027 1035.18 236.187 1035.18 238.48V264ZM1042.75 243.12C1042.75 239.12 1043.55 235.493 1045.15 232.24C1046.8 228.933 1049.04 226.32 1051.87 224.4C1054.7 222.427 1057.95 221.44 1061.63 221.44C1064.83 221.44 1067.71 222.267 1070.27 223.92C1072.88 225.573 1074.91 227.627 1076.35 230.08V205.6H1085.15V254.08C1085.15 255.093 1085.34 255.813 1085.71 256.24C1086.08 256.667 1086.7 256.907 1087.55 256.96V264C1085.9 264.267 1084.62 264.4 1083.71 264.4C1082.06 264.4 1080.64 263.92 1079.47 262.96C1078.35 262 1077.76 260.853 1077.71 259.52L1077.63 256.4C1076.03 259.067 1073.87 261.147 1071.15 262.64C1068.43 264.08 1065.6 264.8 1062.67 264.8C1059.79 264.8 1057.12 264.24 1054.67 263.12C1052.27 262 1050.16 260.427 1048.35 258.4C1046.59 256.373 1045.2 254.053 1044.19 251.44C1043.23 248.827 1042.75 246.053 1042.75 243.12ZM1076.35 248.96V238C1075.76 236.293 1074.8 234.773 1073.47 233.44C1072.19 232.053 1070.72 230.96 1069.07 230.16C1067.47 229.36 1065.87 228.96 1064.27 228.96C1062.4 228.96 1060.7 229.36 1059.15 230.16C1057.66 230.96 1056.35 232.027 1055.23 233.36C1054.16 234.693 1053.34 236.213 1052.75 237.92C1052.16 239.627 1051.87 241.413 1051.87 243.28C1051.87 245.2 1052.19 247.013 1052.83 248.72C1053.47 250.373 1054.38 251.867 1055.55 253.2C1056.78 254.48 1058.16 255.493 1059.71 256.24C1061.31 256.933 1063.04 257.28 1064.91 257.28C1066.08 257.28 1067.26 257.067 1068.43 256.64C1069.66 256.213 1070.8 255.627 1071.87 254.88C1072.99 254.133 1073.92 253.253 1074.67 252.24C1075.47 251.227 1076.03 250.133 1076.35 248.96Z" fill="white"/>
<path d="M503.418 266.58H369.594V70.1484H503.418V266.58ZM373.194 262.98H499.818V73.7484H373.194V262.98Z" fill="#EBEBEB"/>
<path d="M438.253 74.6895H434.653V264.78H438.253V74.6895Z" fill="#EBEBEB"/>
<path d="M506.681 77.4258H366.33V82.4388H506.681V77.4258Z" fill="#EBEBEB"/>
<path d="M506.681 83.0664H366.33V88.0794H506.681V83.0664Z" fill="#EBEBEB"/>
<path d="M506.681 88.7051H366.33V93.7181H506.681V88.7051Z" fill="#EBEBEB"/>
<path d="M506.681 94.3457H366.33V99.3587H506.681V94.3457Z" fill="#EBEBEB"/>
<path d="M506.681 99.9844H366.33V104.997H506.681V99.9844Z" fill="#EBEBEB"/>
<path d="M506.681 105.625H366.33V110.638H506.681V105.625Z" fill="#EBEBEB"/>
<path d="M506.681 111.264H366.33V116.277H506.681V111.264Z" fill="#EBEBEB"/>
<path d="M506.681 116.904H366.33V121.917H506.681V116.904Z" fill="#EBEBEB"/>
<path d="M506.681 122.543H366.33V127.556H506.681V122.543Z" fill="#EBEBEB"/>
<path d="M495.989 76.4102H495.089V191.958H495.989V76.4102Z" fill="#263238"/>
<path d="M497.139 196.151H493.944L494.745 191.561H496.338L497.139 196.151Z" fill="#263238"/>
<path d="M499.234 76.4102H498.334V234.569H499.234V76.4102Z" fill="#263238"/>
<path d="M500.38 237.944H497.185L497.986 233.354H499.579L500.38 237.944Z" fill="#263238"/>
<path d="M512.268 69.4453H360.744V79.933H512.268V69.4453Z" fill="#DBDBDB"/>
<path d="M150.392 172.392C150.392 171.64 150.492 169.634 150.492 168.78C150.492 165.118 149.188 163.462 145.777 163.362C144.171 163.262 143.218 162.309 143.218 160.955C143.218 159.599 144.171 158.647 145.777 158.546C149.188 158.396 150.492 156.791 150.492 153.078C150.492 152.226 150.392 150.219 150.392 149.466C150.392 144.6 152.448 141.49 160.224 139.784C161.78 139.432 162.983 140.386 162.983 141.841C162.983 143.045 162.18 143.697 161.578 143.897C156.713 145.402 156.009 146.957 156.009 150.368C156.009 151.372 156.11 153.027 156.11 154.081C156.11 157.994 154.203 159.9 150.891 160.954C154.253 162.057 156.11 163.913 156.11 167.826C156.11 168.88 156.009 170.535 156.009 171.539C156.009 174.95 156.712 176.506 161.578 178.011C162.18 178.211 162.983 178.863 162.983 180.067C162.983 181.523 161.779 182.476 160.224 182.125C152.448 180.419 150.392 177.309 150.392 172.392Z" fill="#EBEBEB"/>
<path d="M179.789 149.466C179.789 150.219 179.689 152.225 179.689 153.078C179.689 156.791 181.043 158.396 184.455 158.546C186.01 158.646 186.963 159.599 186.963 160.955C186.963 162.309 186.009 163.262 184.455 163.362C181.043 163.462 179.689 165.118 179.689 168.78C179.689 169.633 179.789 171.64 179.789 172.392C179.789 177.309 177.732 180.419 169.956 182.125C168.401 182.476 167.198 181.523 167.198 180.067C167.198 178.863 168 178.211 168.652 178.011C173.469 176.506 174.171 174.951 174.171 171.539C174.171 170.535 174.071 168.88 174.071 167.826C174.071 163.913 175.977 162.007 179.288 160.954C175.927 159.85 174.071 157.994 174.071 154.081C174.071 153.027 174.171 151.372 174.171 150.368C174.171 146.957 173.469 145.401 168.652 143.897C168 143.696 167.198 143.045 167.198 141.841C167.198 140.386 168.402 139.432 169.956 139.784C177.732 141.49 179.789 144.6 179.789 149.466Z" fill="#EBEBEB"/>
<path d="M283.23 102.373C284.396 103.587 284.396 105.408 283.23 106.576C282.623 107.136 281.922 107.417 281.175 107.417C280.382 107.417 279.634 107.137 279.027 106.576L265.906 93.2678C265.766 93.221 265.72 93.1274 265.672 92.9879C265.626 92.9411 265.532 92.8943 265.532 92.8943C265.439 92.7539 265.439 92.6612 265.391 92.5208C265.298 92.474 265.251 92.3804 265.251 92.3336C265.205 92.24 265.205 92.0996 265.158 92.0537C265.158 91.9133 265.064 91.8665 265.064 91.8197C265.064 91.6793 265.064 91.5866 265.064 91.493C265.064 91.3994 265.019 91.3526 265.019 91.2122C265.019 91.1663 265.064 91.0259 265.064 90.9791C265.064 90.8855 265.064 90.746 265.064 90.6524C265.064 90.5588 265.158 90.512 265.158 90.4652C265.204 90.3248 265.204 90.2321 265.251 90.0917C265.251 90.0449 265.298 90.0449 265.298 89.9981C265.391 89.8577 265.439 89.6714 265.531 89.5778C265.531 89.5778 265.531 89.4842 265.624 89.4842C265.67 89.3906 265.765 89.2511 265.904 89.1575L279.025 75.8501C280.192 74.7296 282.106 74.7296 283.227 75.8501C284.394 77.0174 284.394 78.8858 283.227 80.0522L272.16 91.2122L283.23 102.373Z" fill="#EBEBEB"/>
<path d="M295.136 103.866L306.576 76.6429C307.138 75.3361 308.632 74.7286 309.986 75.2884C311.246 75.8023 311.853 77.3431 311.293 78.604L299.853 105.874C299.433 106.854 298.453 107.415 297.471 107.415C297.191 107.415 296.818 107.369 296.538 107.228C295.183 106.714 294.575 105.174 295.136 103.866Z" fill="#EBEBEB"/>
<path d="M333.891 92.8924C333.891 92.8924 333.891 92.9392 333.845 92.9392C333.752 93.0319 333.659 93.1723 333.518 93.2659L320.397 106.574C319.838 107.134 319.043 107.415 318.297 107.415C317.503 107.415 316.803 107.135 316.195 106.574C315.029 105.406 315.029 103.586 316.195 102.371L327.263 91.2103L316.195 80.0503C315.029 78.883 315.029 77.0146 316.195 75.8482C317.316 74.7277 319.231 74.7277 320.397 75.8482L333.518 89.1556C333.659 89.2492 333.751 89.3896 333.845 89.4823C333.891 89.4823 333.891 89.5759 333.891 89.5759C333.985 89.7631 334.078 89.8567 334.125 89.9962C334.125 90.0421 334.173 90.0421 334.173 90.0898C334.22 90.2302 334.22 90.3229 334.313 90.5101C334.313 90.5569 334.359 90.5569 334.359 90.6505C334.359 90.7441 334.359 90.8845 334.359 90.9772C334.359 91.024 334.405 91.1644 334.405 91.2103C334.405 91.2571 334.359 91.3975 334.359 91.4443C334.359 91.5847 334.359 91.6774 334.359 91.8178C334.359 91.8646 334.313 91.8646 334.313 91.9114C334.22 92.0977 334.22 92.2381 334.173 92.3317C334.173 92.3785 334.125 92.3785 334.125 92.4721C334.079 92.5657 333.986 92.7061 333.891 92.8924Z" fill="#EBEBEB"/>
<path d="M316 416.456C416.177 416.456 497.386 409.983 497.386 401.999C497.386 394.014 416.177 387.541 316 387.541C215.823 387.541 134.614 394.014 134.614 401.999C134.614 409.983 215.823 416.456 316 416.456Z" fill="#EBEBEB"/>
<path d="M487.036 384.506H378.028L399.763 258.074H481.276L487.036 384.506Z" fill="#DBDBDB"/>
<path d="M487.036 384.506H477.478L472.114 258.074H481.276L487.036 384.506Z" fill="#A6A6A6"/>
<path d="M127.667 384.51L174.75 384.29L221.833 384.211L316 384.061L410.167 384.21L457.25 384.289L504.333 384.51L457.25 384.729L410.167 384.808L316 384.958L221.833 384.808L174.75 384.728L127.667 384.51Z" fill="#263238"/>
<path d="M229.992 69.4453H140.549V126.501H229.992V69.4453Z" fill="white"/>
<path d="M230.558 127.066H139.984V68.8789H230.558V127.066ZM141.115 125.935H229.427V70.0102H141.115V125.935Z" fill="#EBEBEB"/>
<path d="M229.992 69.4453H140.549V80.2354H229.992V69.4453Z" fill="#FFC727"/>
<path d="M230.558 80.8003H139.984V68.8789H230.558V80.8003ZM141.115 79.669H229.427V70.0102H141.115V79.669Z" fill="#EBEBEB"/>
<path d="M150.678 74.9184C150.678 76.4178 149.462 77.6337 147.963 77.6337C146.462 77.6337 145.247 76.4178 145.247 74.9184C145.247 73.419 146.463 72.2031 147.963 72.2031C149.463 72.2031 150.678 73.419 150.678 74.9184Z" fill="#A6A6A6"/>
<path d="M161.768 74.9184C161.768 76.4178 160.552 77.6337 159.053 77.6337C157.553 77.6337 156.337 76.4178 156.337 74.9184C156.337 73.419 157.553 72.2031 159.053 72.2031C160.552 72.2031 161.768 73.419 161.768 74.9184Z" fill="#EBEBEB"/>
<path d="M172.857 74.9184C172.857 76.4178 171.641 77.6337 170.141 77.6337C168.642 77.6337 167.426 76.4178 167.426 74.9184C167.426 73.419 168.642 72.2031 170.141 72.2031C171.641 72.2031 172.857 73.419 172.857 74.9184Z" fill="white"/>
<path d="M155.986 101.568C156.016 95.6181 161.006 90.7797 167.015 90.75C169.66 90.75 172.064 91.6212 173.957 93.0936C174.678 93.6948 174.799 94.746 174.258 95.4975C173.658 96.249 172.545 96.3696 171.854 95.8278C170.531 94.746 168.879 94.1754 167.015 94.1754C164.941 94.1754 163.018 95.0169 161.606 96.339C160.253 97.7214 159.412 99.525 159.412 101.568C159.412 103.612 160.253 105.475 161.606 106.798C163.018 108.12 164.941 108.962 167.015 108.962C168.879 108.962 170.501 108.391 171.854 107.309C172.545 106.799 173.657 106.918 174.258 107.639C174.799 108.391 174.678 109.473 173.957 110.043C172.064 111.516 169.66 112.387 167.015 112.387C161.006 112.387 156.017 107.549 155.986 101.568Z" fill="#EBEBEB"/>
<path d="M179.427 107.158C179.968 106.496 180.959 106.406 181.621 106.947C182.943 108.029 185.227 109.291 187.36 109.261C188.863 109.261 190.215 108.811 191.118 108.15C192.019 107.489 192.409 106.738 192.409 105.986C192.409 105.596 192.32 105.325 192.139 105.025C191.959 104.724 191.688 104.424 191.238 104.123C190.366 103.552 188.895 103.041 187.121 102.71H187.061C185.648 102.439 184.325 102.079 183.184 101.538C182.043 100.997 181.05 100.246 180.39 99.1947C179.938 98.4729 179.699 97.6323 179.699 96.7305C179.699 94.9278 180.72 93.3645 182.102 92.343C183.515 91.3215 185.349 90.75 187.302 90.75C190.187 90.75 192.321 92.163 193.854 93.1539C194.545 93.6345 194.755 94.5966 194.274 95.2878C193.822 96.0096 192.861 96.2193 192.14 95.7387C190.607 94.7172 189.135 93.8154 187.302 93.8154C185.949 93.8154 184.747 94.2357 183.936 94.8369C183.126 95.4381 182.795 96.0996 182.795 96.7305C182.795 97.0914 182.855 97.3317 183.005 97.572C183.155 97.8132 183.425 98.0832 183.817 98.3541C184.597 98.895 185.95 99.3756 187.573 99.6762H187.632C189.166 99.9768 190.578 100.367 191.78 100.938C193.012 101.539 194.093 102.32 194.784 103.433C195.236 104.154 195.506 105.056 195.506 105.987C195.506 107.91 194.424 109.564 192.921 110.645C191.448 111.727 189.495 112.358 187.361 112.358C184.117 112.328 181.382 110.706 179.668 109.353C179.006 108.811 178.916 107.819 179.427 107.158Z" fill="#EBEBEB"/>
<path d="M199.17 107.158C199.711 106.496 200.703 106.406 201.364 106.947C202.685 108.029 204.971 109.291 207.104 109.261C208.607 109.261 209.958 108.811 210.861 108.15C211.762 107.489 212.153 106.738 212.153 105.986C212.153 105.596 212.063 105.325 211.883 105.025C211.703 104.724 211.432 104.424 210.982 104.123C210.11 103.552 208.638 103.041 206.864 102.71H206.803C205.391 102.439 204.068 102.079 202.927 101.538C201.785 100.997 200.793 100.246 200.132 99.1947C199.68 98.4729 199.441 97.6323 199.441 96.7305C199.441 94.9278 200.462 93.3645 201.845 92.343C203.257 91.3215 205.091 90.75 207.044 90.75C209.929 90.75 212.063 92.163 213.596 93.1539C214.287 93.6345 214.497 94.5966 214.016 95.2878C213.565 96.0096 212.603 96.2193 211.883 95.7387C210.35 94.7172 208.877 93.8154 207.044 93.8154C205.691 93.8154 204.489 94.2357 203.678 94.8369C202.868 95.4381 202.537 96.0996 202.537 96.7305C202.537 97.0914 202.598 97.3317 202.748 97.572C202.898 97.8132 203.168 98.0832 203.559 98.3541C204.34 98.895 205.692 99.3756 207.315 99.6762H207.374C208.908 99.9768 210.32 100.367 211.523 100.938C212.755 101.539 213.836 102.32 214.527 103.433C214.979 104.154 215.249 105.056 215.249 105.987C215.249 107.91 214.167 109.564 212.664 110.645C211.19 111.727 209.237 112.358 207.104 112.358C203.859 112.328 201.124 110.706 199.41 109.353C198.749 108.811 198.658 107.819 199.17 107.158Z" fill="#EBEBEB"/>
<path d="M377.726 232.689H288.283V289.745H377.726V232.689Z" fill="white"/>
<path d="M378.29 290.311H287.717V232.125H378.29V290.311ZM288.848 289.18H377.159V233.255H288.848V289.18Z" fill="#EBEBEB"/>
<path d="M377.726 232.689H288.283V243.48H377.726V232.689Z" fill="#FFC727"/>
<path d="M378.29 244.044H287.717V232.123H378.29V244.044ZM288.848 242.913H377.159V233.254H288.848V242.913Z" fill="#EBEBEB"/>
<path d="M298.411 238.163C298.411 239.662 297.195 240.878 295.695 240.878C294.195 240.878 292.98 239.662 292.98 238.163C292.98 236.662 294.196 235.447 295.695 235.447C297.195 235.447 298.411 236.663 298.411 238.163Z" fill="#A6A6A6"/>
<path d="M309.5 238.163C309.5 239.662 308.284 240.878 306.785 240.878C305.285 240.878 304.07 239.662 304.07 238.163C304.07 236.662 305.285 235.447 306.785 235.447C308.284 235.447 309.5 236.663 309.5 238.163Z" fill="#EBEBEB"/>
<path d="M320.589 238.163C320.589 239.662 319.373 240.878 317.873 240.878C316.373 240.878 315.157 239.662 315.157 238.163C315.157 236.662 316.373 235.447 317.873 235.447C319.373 235.447 320.589 236.663 320.589 238.163Z" fill="white"/>
<path d="M304.982 264.814C305.012 258.864 310.001 254.026 316.011 253.996C318.655 253.996 321.06 254.868 322.953 256.34C323.674 256.941 323.795 257.993 323.254 258.744C322.652 259.495 321.54 259.616 320.849 259.074C319.528 257.992 317.875 257.421 316.011 257.421C313.937 257.421 312.014 258.262 310.602 259.584C309.249 260.967 308.408 262.77 308.408 264.813C308.408 266.857 309.249 268.72 310.602 270.043C312.014 271.365 313.937 272.207 316.011 272.207C317.875 272.207 319.496 271.636 320.849 270.553C321.54 270.043 322.652 270.163 323.254 270.884C323.795 271.635 323.674 272.717 322.953 273.288C321.06 274.76 318.655 275.631 316.011 275.631C310 275.633 305.012 270.795 304.982 264.814Z" fill="#EBEBEB"/>
<path d="M333.8 266.708H329.533C328.632 266.708 327.881 265.987 327.881 265.056C327.881 264.154 328.632 263.403 329.533 263.403H333.8V259.226C333.8 258.264 334.552 257.514 335.514 257.514C336.445 257.514 337.226 258.265 337.226 259.226V263.403H341.493C342.395 263.403 343.146 264.155 343.146 265.056C343.146 265.987 342.395 266.708 341.493 266.708H337.226V270.886C337.226 271.847 336.446 272.599 335.514 272.599C334.552 272.599 333.8 271.847 333.8 270.886V266.708Z" fill="#EBEBEB"/>
<path d="M352.431 266.708H348.164C347.262 266.708 346.512 265.987 346.512 265.056C346.512 264.154 347.262 263.403 348.164 263.403H352.431V259.226C352.431 258.264 353.182 257.514 354.144 257.514C355.075 257.514 355.857 258.265 355.857 259.226V263.403H360.124C361.025 263.403 361.777 264.155 361.777 265.056C361.777 265.987 361.025 266.708 360.124 266.708H355.857V270.886C355.857 271.847 355.075 272.599 354.144 272.599C353.183 272.599 352.431 271.847 352.431 270.886V266.708Z" fill="#EBEBEB"/>
<path d="M336.006 123.061H186.841V245.562H336.006V123.061Z" fill="white"/>
<path d="M336.571 246.129H186.276V122.496H336.571V246.129ZM187.406 244.998H335.441V123.627H187.406V244.998Z" fill="#EBEBEB"/>
<path d="M336.006 123.061H186.841V133.851H336.006V123.061Z" fill="#FFC727"/>
<path d="M336.571 134.417H186.276V122.496H336.571V134.417ZM187.406 133.286H335.441V123.627H187.406V133.286Z" fill="#EBEBEB"/>
<path d="M196.97 128.536C196.97 130.036 195.754 131.251 194.253 131.251C192.754 131.251 191.538 130.035 191.538 128.536C191.538 127.036 192.754 125.82 194.253 125.82C195.754 125.819 196.97 127.035 196.97 128.536Z" fill="#A6A6A6"/>
<path d="M208.059 128.536C208.059 130.036 206.843 131.251 205.343 131.251C203.844 131.251 202.628 130.035 202.628 128.536C202.628 127.036 203.844 125.82 205.343 125.82C206.843 125.819 208.059 127.035 208.059 128.536Z" fill="#EBEBEB"/>
<path d="M219.147 128.536C219.147 130.036 217.932 131.251 216.431 131.251C214.932 131.251 213.716 130.035 213.716 128.536C213.716 127.036 214.932 125.82 216.431 125.82C217.932 125.819 219.147 127.035 219.147 128.536Z" fill="white"/>
<path d="M204.185 155.316H198.416V157.423H204.185V155.316Z" fill="#EBEBEB"/>
<path d="M274.561 155.316H208.389V157.423H274.561V155.316Z" fill="#EBEBEB"/>
<path d="M289.064 155.316H278.106V157.423H289.064V155.316Z" fill="#FFC727"/>
<path d="M314.126 183.514H303.169V185.621H314.126V183.514Z" fill="#EBEBEB"/>
<path d="M310.388 155.316H291.446V157.423H310.388V155.316Z" fill="#A6A6A6"/>
<path d="M209.954 160.955H204.185V163.062H209.954V160.955Z" fill="#EBEBEB"/>
<path d="M257.44 160.955H214.013V163.062H257.44V160.955Z" fill="#A6A6A6"/>
<path d="M300.567 183.514H275.14V185.621H300.567V183.514Z" fill="#A6A6A6"/>
<path d="M249.868 177.875H208.389V179.982H249.868V177.875Z" fill="#A6A6A6"/>
<path d="M243.112 166.596H214.013V168.703H243.112V166.596Z" fill="#FFC727"/>
<path d="M296.533 172.234H285.434V174.341H296.533V172.234Z" fill="#A6A6A6"/>
<path d="M292.81 166.596H246.341V168.703H292.81V166.596Z" fill="#A6A6A6"/>
<path d="M263.858 183.514H208.389V185.621H263.858V183.514Z" fill="#FFC727"/>
<path d="M320.285 160.955H290.224V163.062H320.285V160.955Z" fill="#FFC727"/>
<path d="M287.842 160.955H260.166V163.062H287.842V160.955Z" fill="#EBEBEB"/>
<path d="M313.67 166.596H294.994V168.703H313.67V166.596Z" fill="#EBEBEB"/>
<path d="M209.954 166.596H204.185V168.703H209.954V166.596Z" fill="#EBEBEB"/>
<path d="M204.185 172.234H198.416V174.341H204.185V172.234Z" fill="#A6A6A6"/>
<path d="M242.483 172.234H208.389V174.341H242.483V172.234Z" fill="#EBEBEB"/>
<path d="M248.107 189.152H214.013V191.259H248.107V189.152Z" fill="#EBEBEB"/>
<path d="M303.504 194.793H277.585V196.9H303.504V194.793Z" fill="#FFC727"/>
<path d="M285.063 189.152H250.874V191.259H285.063V189.152Z" fill="#FFC727"/>
<path d="M274.605 194.793H244.844V196.9H274.605V194.793Z" fill="#EBEBEB"/>
<path d="M223.884 194.793H214.013V196.9H223.884V194.793Z" fill="#A6A6A6"/>
<path d="M289.064 177.875H252.215V179.982H289.064V177.875Z" fill="#EBEBEB"/>
<path d="M314.892 177.875H291.446V179.982H314.892V177.875Z" fill="#FFC727"/>
<path d="M282.752 172.234H245.948V174.341H282.752V172.234Z" fill="#FFC727"/>
<path d="M204.185 177.875H198.416V179.982H204.185V177.875Z" fill="#EBEBEB"/>
<path d="M204.185 183.514H198.416V185.621H204.185V183.514Z" fill="#EBEBEB"/>
<path d="M209.954 189.152H204.185V191.259H209.954V189.152Z" fill="#A6A6A6"/>
<path d="M209.954 194.793H204.185V196.9H209.954V194.793Z" fill="#EBEBEB"/>
<path d="M204.185 199.516H198.416V201.623H204.185V199.516Z" fill="#EBEBEB"/>
<path d="M274.561 199.516H208.389V201.623H274.561V199.516Z" fill="#EBEBEB"/>
<path d="M209.954 205.154H204.185V207.261H209.954V205.154Z" fill="#EBEBEB"/>
<path d="M257.44 205.154H214.013V207.261H257.44V205.154Z" fill="#A6A6A6"/>
<path d="M249.868 222.074H208.389V224.181H249.868V222.074Z" fill="#A6A6A6"/>
<path d="M243.112 210.795H214.013V212.902H243.112V210.795Z" fill="#FFC727"/>
<path d="M292.81 210.795H246.341V212.902H292.81V210.795Z" fill="#A6A6A6"/>
<path d="M263.858 227.713H208.389V229.82H263.858V227.713Z" fill="#FFC727"/>
<path d="M320.285 205.154H290.224V207.261H320.285V205.154Z" fill="#FFC727"/>
<path d="M287.842 205.154H260.166V207.261H287.842V205.154Z" fill="#EBEBEB"/>
<path d="M313.67 210.795H294.994V212.902H313.67V210.795Z" fill="#EBEBEB"/>
<path d="M209.954 210.795H204.185V212.902H209.954V210.795Z" fill="#EBEBEB"/>
<path d="M204.185 216.436H198.416V218.542H204.185V216.436Z" fill="#A6A6A6"/>
<path d="M242.483 216.436H208.389V218.542H242.483V216.436Z" fill="#EBEBEB"/>
<path d="M289.064 222.074H252.215V224.181H289.064V222.074Z" fill="#EBEBEB"/>
<path d="M282.752 216.436H245.948V218.542H282.752V216.436Z" fill="#FFC727"/>
<path d="M204.185 222.074H198.416V224.181H204.185V222.074Z" fill="#EBEBEB"/>
<path d="M201.979 149.766C202.178 149.973 202.178 150.281 201.979 150.479C201.876 150.574 201.759 150.621 201.632 150.621C201.497 150.621 201.37 150.574 201.267 150.479L199.042 148.223C199.018 148.215 199.01 148.2 199.003 148.175C198.995 148.167 198.978 148.159 198.978 148.159C198.963 148.136 198.963 148.119 198.955 148.096C198.939 148.088 198.931 148.073 198.931 148.065C198.923 148.048 198.923 148.025 198.915 148.017C198.915 147.993 198.898 147.985 198.898 147.977C198.898 147.954 198.898 147.938 198.898 147.922C198.898 147.906 198.891 147.899 198.891 147.875C198.891 147.867 198.898 147.842 198.898 147.835C198.898 147.819 198.898 147.795 198.898 147.78C198.898 147.764 198.915 147.757 198.915 147.748C198.923 147.724 198.923 147.708 198.931 147.684C198.931 147.676 198.939 147.676 198.939 147.669C198.955 147.645 198.963 147.613 198.978 147.597C198.978 147.597 198.978 147.581 198.995 147.581C199.003 147.565 199.018 147.542 199.042 147.526L201.267 145.27C201.465 145.079 201.789 145.079 201.979 145.27C202.178 145.468 202.178 145.785 201.979 145.983L200.103 147.876L201.979 149.766Z" fill="#FFC727"/>
<path d="M203.997 150.021L205.937 145.404C206.032 145.182 206.285 145.079 206.515 145.174C206.729 145.261 206.832 145.523 206.737 145.736L204.798 150.36C204.726 150.527 204.56 150.621 204.394 150.621C204.346 150.621 204.283 150.613 204.236 150.59C204.004 150.504 203.901 150.243 203.997 150.021Z" fill="#FFC727"/>
<path d="M210.567 148.159C210.567 148.159 210.567 148.167 210.559 148.167C210.543 148.183 210.526 148.207 210.502 148.223L208.277 150.479C208.183 150.574 208.048 150.621 207.921 150.621C207.786 150.621 207.668 150.574 207.565 150.479C207.366 150.281 207.366 149.972 207.565 149.766L209.441 147.874L207.565 145.981C207.366 145.783 207.366 145.466 207.565 145.268C207.755 145.077 208.08 145.077 208.277 145.268L210.502 147.524C210.526 147.54 210.542 147.564 210.559 147.579C210.567 147.579 210.567 147.595 210.567 147.595C210.582 147.627 210.597 147.643 210.606 147.667C210.606 147.675 210.614 147.675 210.614 147.682C210.622 147.706 210.622 147.721 210.637 147.754C210.637 147.761 210.644 147.761 210.644 147.777C210.644 147.793 210.644 147.816 210.644 147.832C210.644 147.839 210.653 147.864 210.653 147.872C210.653 147.88 210.644 147.903 210.644 147.911C210.644 147.935 210.644 147.951 210.644 147.975C210.644 147.983 210.637 147.983 210.637 147.992C210.622 148.023 210.622 148.046 210.614 148.063C210.614 148.071 210.606 148.071 210.606 148.086C210.597 148.104 210.582 148.128 210.567 148.159Z" fill="#FFC727"/>
<path d="M353.017 105.881H292.084V128.439H353.017V105.881Z" fill="#455A64"/>
<path d="M300.877 121.84V111.835C300.877 111.309 301.285 110.902 301.81 110.902C302.336 110.902 302.76 111.309 302.76 111.835V115.905H307.152V111.835C307.152 111.309 307.56 110.902 308.085 110.902C308.611 110.902 309.035 111.309 309.035 111.835V121.84C309.035 122.367 308.611 122.773 308.085 122.773C307.56 122.773 307.152 122.367 307.152 121.84V117.77H302.76V121.84C302.76 122.367 302.336 122.773 301.81 122.773C301.284 122.773 300.877 122.367 300.877 121.84Z" fill="white"/>
<path d="M320.159 112.785H317.462V121.84C317.462 122.367 317.055 122.773 316.529 122.773C316.02 122.773 315.598 122.367 315.598 121.84V112.785H312.918C312.393 112.785 311.985 112.344 311.985 111.835C311.985 111.309 312.393 110.902 312.918 110.902H320.159C320.668 110.902 321.092 111.309 321.092 111.835C321.091 112.344 320.667 112.785 320.159 112.785Z" fill="white"/>
<path d="M334.099 111.835V121.84C334.099 122.349 333.657 122.773 333.149 122.773C332.623 122.773 332.216 122.349 332.216 121.84V114.701L329.774 118.093C329.587 118.347 329.315 118.483 329.01 118.483H328.994H328.976C328.671 118.483 328.383 118.347 328.197 118.093L325.771 114.701V121.84C325.771 122.349 325.347 122.773 324.822 122.773C324.312 122.773 323.888 122.349 323.888 121.84V111.835C323.888 111.326 324.312 110.902 324.822 110.902C324.84 110.902 324.84 110.902 324.872 110.902C325.144 110.902 325.448 111.038 325.618 111.292L328.993 115.973L332.367 111.292C332.554 111.038 332.825 110.902 333.131 110.902C333.131 110.902 333.131 110.902 333.149 110.902C333.657 110.919 334.099 111.326 334.099 111.835Z" fill="white"/>
<path d="M338.203 121.84V111.835C338.203 111.326 338.611 110.902 339.135 110.902C339.661 110.902 340.085 111.326 340.085 111.835V120.891H344.681C345.172 120.891 345.613 121.314 345.613 121.84C345.613 122.349 345.172 122.773 344.681 122.773H339.187C339.153 122.773 339.153 122.773 339.153 122.773C339.135 122.773 339.135 122.773 339.135 122.773C338.61 122.773 338.203 122.349 338.203 121.84Z" fill="white"/>
<path d="M190.198 192.074H139.984V214.633H190.198V192.074Z" fill="#455A64"/>
<path d="M154.694 205.077C154.976 205.942 155.794 206.57 156.753 206.57C157.948 206.57 158.922 205.596 158.922 204.417V198.177C158.922 197.69 159.315 197.312 159.802 197.312C160.274 197.312 160.667 197.69 160.667 198.177V204.417C160.667 206.57 158.907 208.314 156.754 208.314C155.025 208.314 153.548 207.183 153.045 205.611C152.889 205.139 153.155 204.652 153.595 204.526C154.065 204.369 154.552 204.621 154.694 205.077Z" fill="white"/>
<path d="M162.855 205.58C163.137 205.234 163.657 205.187 164.002 205.47C164.694 206.036 165.889 206.696 167.005 206.68C167.791 206.68 168.497 206.444 168.969 206.099C169.44 205.752 169.644 205.359 169.644 204.967C169.644 204.764 169.597 204.622 169.502 204.465C169.408 204.308 169.267 204.15 169.031 203.993C168.576 203.695 167.805 203.427 166.877 203.255H166.846C166.108 203.113 165.416 202.925 164.819 202.641C164.222 202.359 163.703 201.966 163.358 201.416C163.122 201.039 162.997 200.598 162.997 200.127C162.997 199.184 163.531 198.366 164.254 197.833C164.994 197.299 165.952 197 166.973 197C168.482 197 169.598 197.739 170.399 198.258C170.761 198.509 170.871 199.012 170.619 199.374C170.384 199.75 169.881 199.861 169.503 199.609C168.702 199.075 167.932 198.603 166.973 198.603C166.266 198.603 165.637 198.823 165.213 199.138C164.789 199.452 164.616 199.798 164.616 200.129C164.616 200.318 164.647 200.443 164.726 200.569C164.805 200.694 164.946 200.836 165.15 200.978C165.559 201.26 166.266 201.511 167.115 201.67H167.146C167.947 201.827 168.686 202.031 169.314 202.33C169.959 202.644 170.525 203.053 170.886 203.634C171.122 204.011 171.263 204.483 171.263 204.97C171.263 205.975 170.697 206.84 169.911 207.406C169.141 207.973 168.12 208.302 167.004 208.302C165.306 208.286 163.876 207.438 162.98 206.73C162.636 206.443 162.588 205.926 162.855 205.58Z" fill="white"/>
<path d="M338.198 190.605L342.009 199.804L338.204 201.379L334.373 192.117L328.085 196.995V171.078L346.227 189.407L338.198 190.605Z" fill="#263238"/>
<path d="M328.085 168.253C327.903 167.818 327.863 167.384 327.855 166.95C327.862 166.515 327.902 166.081 328.085 165.646C328.268 166.081 328.308 166.515 328.316 166.95C328.307 167.384 328.267 167.819 328.085 168.253Z" fill="#263238"/>
<path d="M325.841 169.183C325.405 169.004 325.069 168.726 324.756 168.424C324.454 168.112 324.176 167.776 323.997 167.34C324.434 167.518 324.77 167.796 325.082 168.099C325.383 168.412 325.661 168.747 325.841 169.183Z" fill="#263238"/>
<path d="M324.911 171.428C324.477 171.609 324.042 171.65 323.608 171.658C323.173 171.652 322.739 171.61 322.304 171.428C322.738 171.245 323.173 171.204 323.608 171.197C324.042 171.205 324.476 171.246 324.911 171.428Z" fill="#263238"/>
<path d="M325.841 173.672C325.661 174.107 325.383 174.443 325.082 174.756C324.77 175.059 324.434 175.337 323.997 175.515C324.176 175.079 324.454 174.743 324.756 174.431C325.069 174.128 325.405 173.85 325.841 173.672Z" fill="#263238"/>
<path d="M331.259 171.428C331.693 171.246 332.127 171.205 332.562 171.197C332.996 171.204 333.43 171.245 333.865 171.428C333.43 171.61 332.996 171.652 332.562 171.658C332.128 171.65 331.693 171.609 331.259 171.428Z" fill="#263238"/>
<path d="M330.329 169.183C330.508 168.747 330.786 168.412 331.088 168.099C331.4 167.796 331.736 167.518 332.172 167.34C331.994 167.776 331.716 168.112 331.413 168.424C331.101 168.727 330.764 169.005 330.329 169.183Z" fill="#263238"/>
<path d="M396.429 279.382C389.49 309.6 375.445 347.86 364.592 355.577C355.839 361.804 309.918 372.772 307.357 373.048C301.018 373.688 288.498 328.905 295.07 327.085C303.35 324.793 342.704 323.568 344.943 321.27C347.266 318.866 361.588 299.472 377.802 277.005C388.994 261.48 400.735 260.632 396.429 279.382Z" fill="#DD6A57"/>
<path d="M312.447 370.589C311.692 370.972 300.969 376.364 294.339 378.287C289.392 379.72 275.042 383.466 272.923 378.177C271.473 374.572 279.653 371.376 285.386 368.986C288.406 367.728 292.128 364.566 291.238 362.624C289.682 359.229 281.906 362.639 276.793 365.61C266.905 371.356 253.734 381.697 247.694 376.681C245.413 374.785 248.064 371.332 251.943 367.946C245.649 371.891 238.937 375.129 236.319 373.123C234.816 371.98 234.747 370.412 235.583 368.621C233.64 369.253 231.923 369.129 230.726 367.863C228.679 365.722 229.677 362.562 231.915 359.323C231.198 359.248 230.552 358.883 230.057 358.102C225.726 351.498 247.407 332.534 254.905 330.76C276.966 325.516 300.435 327.428 300.435 327.428C309.1 334.351 312.464 370.574 312.447 370.589Z" fill="#DD6A57"/>
<path d="M280.006 350.28C274.811 351.094 269.697 353.037 265.291 355.945C259.699 359.635 255.989 363.956 251.296 368.308C251.173 368.422 251.347 368.617 251.471 368.503C253.707 366.435 262.972 358.659 265.366 356.892C269.753 353.654 274.653 351.38 280.027 350.371C280.084 350.358 280.064 350.271 280.006 350.28Z" fill="#263238"/>
<path d="M275.895 340.92C270.097 342.505 264.156 344.108 258.774 346.851C252.885 349.853 248.276 354.745 243.744 359.454C241.023 362.282 238.361 365.166 235.771 368.115C235.662 368.239 235.828 368.434 235.945 368.311C240.543 363.446 245.286 358.715 250.173 354.14C254.77 349.837 259.898 346.543 265.787 344.3C269.106 343.035 272.514 342.027 275.917 341.023C275.982 341.003 275.961 340.902 275.895 340.92Z" fill="#263238"/>
<path d="M269.701 332.733C264.068 333.889 259.153 334.879 254.165 337.898C247.56 341.894 241.186 348.628 238.948 351.016C236.478 353.653 234.097 356.37 231.758 359.124C231.663 359.235 231.855 359.404 231.954 359.294C237.3 353.273 243.06 347.554 249.14 342.275C252.045 339.752 255.203 337.554 258.748 336.026C262.254 334.516 266.01 333.661 269.709 332.773C269.734 332.765 269.727 332.728 269.701 332.733Z" fill="#263238"/>
<path d="M345.282 316.866L387.609 315.07C387.609 315.07 395.295 294.097 398.122 275.478C400.949 256.859 385.088 263.542 369.375 283.595C353.662 303.646 345.282 316.866 345.282 316.866Z" fill="#FFC727"/>
<path d="M359.133 304.212C359.421 304.132 359.709 304.097 359.997 304.039C360.264 303.986 360.645 303.974 360.954 304.103C361.604 304.328 362.084 305.003 362.09 305.717C362.079 306.187 362.31 306.609 362.707 306.876C362.913 307.009 363.127 307.082 363.418 307.116C363.705 307.175 363.993 307.209 364.281 307.29C363.993 307.371 363.706 307.406 363.418 307.465C363.136 307.518 362.764 307.511 362.456 307.372C361.813 307.128 361.366 306.416 361.378 305.73C361.383 305.285 361.127 304.852 360.723 304.606C360.51 304.48 360.301 304.42 359.997 304.386C359.709 304.328 359.421 304.292 359.133 304.212ZM388.913 278.5C389.217 278.534 389.427 278.594 389.639 278.72C390.043 278.966 390.299 279.399 390.294 279.844C390.282 280.531 390.73 281.243 391.372 281.486C391.68 281.625 392.053 281.632 392.334 281.579C392.622 281.52 392.91 281.486 393.198 281.405C392.91 281.324 392.622 281.289 392.334 281.23C392.043 281.197 391.829 281.123 391.623 280.991C391.227 280.723 390.995 280.301 391.006 279.831C391 279.118 390.52 278.443 389.87 278.217C389.562 278.088 389.179 278.101 388.913 278.153C388.625 278.211 388.338 278.246 388.05 278.327C388.338 278.407 388.625 278.442 388.913 278.5ZM389.986 294.99C389.747 295.182 389.557 295.287 389.318 295.348C388.858 295.46 388.371 295.335 388.059 295.017C387.582 294.523 386.763 294.336 386.135 294.618C385.82 294.738 385.551 294.996 385.39 295.233C385.228 295.478 385.05 295.706 384.903 295.967C385.163 295.82 385.392 295.642 385.637 295.48C385.866 295.297 386.07 295.198 386.309 295.146C386.778 295.054 387.24 295.19 387.565 295.529C388.075 296.03 388.891 296.167 389.509 295.868C389.819 295.74 390.08 295.461 390.232 295.235C390.394 294.99 390.573 294.762 390.72 294.502C390.46 294.65 390.232 294.828 389.986 294.99ZM378.487 275.752C378.244 275.941 378.055 276.049 377.812 276.112C377.353 276.22 376.867 276.094 376.552 275.779C376.48 275.707 376.408 275.644 376.327 275.581C376.156 275.752 375.994 275.923 375.832 276.103C375.913 276.148 375.994 276.22 376.066 276.292C376.57 276.796 377.389 276.931 378.01 276.634C378.316 276.508 378.577 276.229 378.73 275.995C378.892 275.752 379.072 275.527 379.216 275.266C378.955 275.41 378.73 275.59 378.487 275.752ZM373.7 291.602C373.666 291.908 373.606 292.116 373.48 292.329C373.234 292.733 372.801 292.988 372.356 292.984C371.67 292.972 370.958 293.42 370.714 294.062C370.575 294.37 370.568 294.743 370.621 295.024C370.68 295.312 370.715 295.599 370.796 295.887C370.877 295.599 370.911 295.312 370.97 295.024C371.004 294.733 371.077 294.518 371.21 294.313C371.477 293.916 371.899 293.686 372.369 293.696C373.083 293.69 373.758 293.21 373.983 292.56C374.112 292.251 374.099 291.869 374.047 291.602C373.989 291.314 373.954 291.026 373.874 290.738C373.794 291.027 373.758 291.314 373.7 291.602ZM385.818 307.721C385.783 308.027 385.724 308.235 385.598 308.448C385.352 308.852 384.918 309.107 384.474 309.103C383.787 309.091 383.075 309.538 382.831 310.181C382.693 310.489 382.686 310.861 382.739 311.143C382.798 311.43 382.832 311.718 382.913 312.006C382.994 311.718 383.028 311.431 383.088 311.143C383.121 310.852 383.195 310.637 383.327 310.432C383.594 310.035 384.017 309.805 384.486 309.815C385.2 309.809 385.875 309.329 386.101 308.679C386.23 308.37 386.217 307.988 386.165 307.721C386.106 307.433 386.071 307.145 385.991 306.857C385.91 307.145 385.876 307.433 385.818 307.721Z" fill="white"/>
<path d="M389.053 305.881C379.899 305.648 370.716 306.054 361.564 306.64C358.975 306.806 356.389 307.032 353.811 307.32C353.738 307.329 353.73 307.436 353.807 307.437C358.381 307.456 362.954 307.29 367.529 307.149C372.115 307.009 376.707 306.831 381.289 306.562C383.877 306.41 386.463 306.26 389.048 306.055C389.158 306.046 389.167 305.884 389.053 305.881Z" fill="#263238"/>
<path d="M357.156 384.509H465.189C466.378 382.325 448.673 287.694 412.239 261.049C404.155 255.137 389.815 258.939 385.827 264.687C365.779 293.578 357.156 384.509 357.156 384.509Z" fill="#FFC727"/>
<path d="M402.975 304.211C403.263 304.131 403.55 304.096 403.838 304.037C404.106 303.985 404.487 303.972 404.796 304.101C405.446 304.327 405.925 305.001 405.932 305.716C405.921 306.186 406.152 306.608 406.549 306.875C406.754 307.007 406.968 307.081 407.26 307.114C407.548 307.174 407.835 307.208 408.123 307.289C407.835 307.37 407.548 307.404 407.26 307.464C406.978 307.517 406.606 307.509 406.298 307.371C405.654 307.127 405.208 306.415 405.22 305.728C405.224 305.284 404.969 304.851 404.565 304.604C404.352 304.478 404.142 304.419 403.838 304.385C403.55 304.326 403.262 304.291 402.975 304.211ZM419.758 361.333C420.063 361.367 420.272 361.427 420.485 361.553C420.889 361.798 421.144 362.232 421.14 362.677C421.128 363.364 421.575 364.075 422.218 364.319C422.526 364.458 422.898 364.465 423.18 364.412C423.468 364.353 423.755 364.318 424.043 364.237C423.755 364.156 423.468 364.122 423.18 364.063C422.889 364.03 422.674 363.956 422.469 363.823C422.072 363.557 421.842 363.134 421.852 362.664C421.845 361.951 421.366 361.275 420.716 361.05C420.407 360.921 420.025 360.934 419.758 360.986C419.47 361.044 419.183 361.079 418.895 361.159C419.183 361.24 419.471 361.275 419.758 361.333ZM439.575 307.463C439.881 307.497 440.089 307.556 440.302 307.682C440.706 307.928 440.961 308.362 440.957 308.806C440.945 309.493 441.392 310.205 442.035 310.449C442.343 310.588 442.715 310.595 442.997 310.542C443.285 310.482 443.572 310.448 443.86 310.367C443.573 310.286 443.285 310.252 442.997 310.192C442.706 310.159 442.491 310.085 442.286 309.953C441.889 309.686 441.659 309.264 441.669 308.794C441.663 308.08 441.183 307.405 440.533 307.179C440.224 307.051 439.843 307.063 439.575 307.115C439.287 307.174 439 307.209 438.712 307.289C439 307.369 439.287 307.403 439.575 307.463ZM388.913 278.499C389.217 278.533 389.427 278.592 389.639 278.718C390.043 278.964 390.299 279.398 390.294 279.843C390.282 280.529 390.73 281.241 391.372 281.485C391.68 281.624 392.053 281.631 392.334 281.578C392.622 281.518 392.91 281.484 393.198 281.403C392.91 281.322 392.622 281.288 392.334 281.229C392.043 281.195 391.829 281.122 391.623 280.989C391.227 280.722 390.995 280.3 391.006 279.83C391 279.116 390.52 278.441 389.87 278.215C389.562 278.087 389.179 278.099 388.913 278.152C388.625 278.21 388.338 278.245 388.05 278.325C388.338 278.405 388.625 278.44 388.913 278.499ZM420.097 277.846C420.402 277.881 420.611 277.94 420.823 278.066C421.227 278.312 421.483 278.746 421.478 279.19C421.467 279.877 421.913 280.589 422.556 280.833C422.864 280.971 423.236 280.978 423.519 280.925C423.807 280.866 424.094 280.832 424.382 280.751C424.094 280.67 423.807 280.636 423.519 280.576C423.227 280.543 423.013 280.469 422.808 280.337C422.411 280.069 422.18 279.647 422.19 279.177C422.184 278.464 421.704 277.789 421.054 277.563C420.746 277.434 420.363 277.447 420.097 277.499C419.809 277.558 419.522 277.593 419.234 277.673C419.522 277.753 419.809 277.787 420.097 277.846ZM381.258 328.212C381.563 328.246 381.772 328.306 381.984 328.432C382.389 328.677 382.644 329.111 382.64 329.556C382.628 330.244 383.075 330.954 383.718 331.198C384.026 331.337 384.397 331.344 384.68 331.291C384.967 331.232 385.255 331.197 385.543 331.116C385.255 331.035 384.968 331.001 384.68 330.942C384.388 330.909 384.174 330.835 383.969 330.702C383.572 330.435 383.342 330.013 383.352 329.543C383.345 328.83 382.866 328.155 382.216 327.929C381.906 327.8 381.525 327.813 381.257 327.865C380.969 327.923 380.682 327.958 380.394 328.039C380.683 328.119 380.97 328.154 381.258 328.212ZM415.265 380.391C415.57 380.426 415.779 380.485 415.991 380.611C416.395 380.858 416.651 381.291 416.646 381.735C416.634 382.422 417.081 383.134 417.724 383.378C418.032 383.516 418.405 383.524 418.686 383.47C418.974 383.411 419.262 383.377 419.55 383.296C419.262 383.215 418.974 383.181 418.686 383.121C418.395 383.088 418.181 383.014 417.975 382.882C417.579 382.614 417.348 382.192 417.358 381.723C417.352 381.008 416.872 380.334 416.222 380.108C415.914 379.979 415.532 379.992 415.265 380.044C414.977 380.103 414.69 380.138 414.402 380.218C414.69 380.298 414.978 380.333 415.265 380.391ZM398.521 352.354C398.826 352.388 399.035 352.447 399.247 352.573C399.651 352.82 399.907 353.253 399.903 353.697C399.891 354.384 400.337 355.096 400.981 355.34C401.289 355.479 401.66 355.486 401.943 355.433C402.231 355.373 402.518 355.339 402.806 355.258C402.518 355.177 402.231 355.143 401.943 355.083C401.651 355.05 401.437 354.976 401.232 354.844C400.835 354.578 400.605 354.155 400.614 353.685C400.608 352.971 400.128 352.296 399.479 352.07C399.17 351.942 398.788 351.955 398.521 352.006C398.233 352.065 397.946 352.1 397.658 352.18C397.945 352.261 398.233 352.295 398.521 352.354ZM360.181 381.095C359.893 381.059 359.677 380.987 359.47 380.852C359.074 380.591 358.84 380.168 358.858 379.691C358.849 379.025 358.426 378.386 357.832 378.134C357.805 378.368 357.778 378.584 357.76 378.8C358.003 379.043 358.147 379.367 358.138 379.709C358.129 380.393 358.579 381.104 359.218 381.347C359.524 381.491 359.902 381.5 360.181 381.446C360.469 381.383 360.757 381.347 361.045 381.266C360.757 381.185 360.469 381.149 360.181 381.095ZM367.546 357.449C367.851 357.483 368.06 357.542 368.272 357.668C368.676 357.914 368.932 358.348 368.927 358.792C368.916 359.479 369.362 360.191 370.005 360.435C370.313 360.574 370.686 360.581 370.968 360.528C371.256 360.468 371.543 360.434 371.831 360.353C371.543 360.272 371.256 360.238 370.968 360.178C370.676 360.145 370.462 360.071 370.257 359.939C369.86 359.672 369.629 359.25 369.639 358.78C369.633 358.066 369.153 357.391 368.503 357.165C368.195 357.037 367.812 357.049 367.545 357.101C367.257 357.16 366.97 357.195 366.682 357.275C366.971 357.355 367.259 357.39 367.546 357.449ZM412.78 328.899C413.085 328.933 413.294 328.992 413.506 329.118C413.91 329.364 414.166 329.798 414.161 330.243C414.15 330.929 414.596 331.641 415.239 331.885C415.547 332.024 415.919 332.031 416.202 331.978C416.49 331.918 416.777 331.884 417.065 331.803C416.777 331.722 416.49 331.688 416.202 331.629C415.91 331.595 415.696 331.521 415.491 331.389C415.094 331.122 414.863 330.7 414.873 330.23C414.867 329.516 414.387 328.841 413.737 328.615C413.429 328.487 413.047 328.499 412.78 328.552C412.492 328.61 412.205 328.645 411.917 328.725C412.204 328.805 412.492 328.84 412.78 328.899ZM452.391 367.287C452.697 367.322 452.905 367.381 453.118 367.507C453.522 367.754 453.777 368.187 453.773 368.631C453.761 369.318 454.208 370.03 454.851 370.274C455.159 370.412 455.531 370.42 455.813 370.366C456.101 370.307 456.388 370.273 456.676 370.192C456.388 370.111 456.101 370.077 455.813 370.017C455.522 369.984 455.307 369.91 455.102 369.778C454.705 369.511 454.475 369.088 454.485 368.619C454.479 367.905 453.999 367.23 453.349 367.004C453.039 366.875 452.659 366.888 452.391 366.94C452.103 366.999 451.816 367.034 451.528 367.114C451.816 367.194 452.104 367.229 452.391 367.287ZM436.667 343.853C436.972 343.887 437.181 343.947 437.393 344.073C437.797 344.319 438.053 344.752 438.048 345.197C438.036 345.884 438.484 346.596 439.126 346.839C439.434 346.978 439.806 346.985 440.088 346.932C440.376 346.873 440.664 346.839 440.952 346.758C440.664 346.677 440.376 346.642 440.088 346.583C439.797 346.55 439.583 346.476 439.377 346.344C438.981 346.076 438.75 345.654 438.76 345.184C438.754 344.471 438.274 343.796 437.624 343.57C437.316 343.441 436.934 343.454 436.667 343.506C436.379 343.564 436.092 343.6 435.804 343.68C436.092 343.76 436.38 343.795 436.667 343.853ZM389.986 294.989C389.747 295.18 389.557 295.286 389.318 295.347C388.858 295.458 388.371 295.333 388.059 295.016C387.582 294.522 386.763 294.334 386.135 294.617C385.82 294.737 385.551 294.995 385.39 295.232C385.228 295.477 385.05 295.705 384.903 295.965C385.163 295.819 385.392 295.64 385.637 295.478C385.866 295.296 386.07 295.197 386.309 295.144C386.778 295.053 387.24 295.188 387.565 295.528C388.075 296.028 388.891 296.166 389.509 295.866C389.819 295.738 390.08 295.459 390.232 295.233C390.394 294.989 390.573 294.761 390.72 294.501C390.46 294.648 390.232 294.827 389.986 294.989ZM436.533 328.48C436.293 328.672 436.103 328.777 435.864 328.839C435.404 328.95 434.917 328.824 434.606 328.507C434.128 328.013 433.309 327.826 432.681 328.109C432.366 328.228 432.097 328.487 431.935 328.723C431.774 328.968 431.595 329.197 431.448 329.457C431.709 329.31 431.937 329.132 432.182 328.97C432.411 328.787 432.616 328.688 432.854 328.636C433.323 328.544 433.786 328.68 434.111 329.02C434.62 329.52 435.436 329.658 436.055 329.358C436.364 329.23 436.625 328.951 436.777 328.725C436.939 328.48 437.118 328.253 437.265 327.993C437.005 328.14 436.777 328.318 436.533 328.48ZM407.485 266.124C407.246 266.316 407.056 266.422 406.816 266.482C406.356 266.594 405.87 266.469 405.558 266.151C405.08 265.657 404.261 265.47 403.634 265.752C403.319 265.872 403.05 266.13 402.889 266.367C402.727 266.612 402.549 266.84 402.402 267.1C402.662 266.955 402.891 266.776 403.135 266.614C403.365 266.431 403.569 266.332 403.808 266.28C404.277 266.188 404.739 266.324 405.064 266.663C405.573 267.163 406.39 267.301 407.009 267.001C407.319 266.874 407.579 266.595 407.732 266.369C407.894 266.124 408.073 265.896 408.219 265.636C407.958 265.783 407.731 265.962 407.485 266.124ZM406.914 284.594C406.879 284.899 406.82 285.108 406.694 285.32C406.448 285.724 406.014 285.98 405.57 285.975C404.882 285.964 404.171 286.411 403.927 287.053C403.789 287.361 403.782 287.734 403.835 288.016C403.894 288.304 403.928 288.591 404.009 288.879C404.09 288.591 404.124 288.304 404.184 288.016C404.217 287.724 404.291 287.51 404.423 287.304C404.69 286.908 405.113 286.676 405.582 286.687C406.296 286.681 406.971 286.201 407.197 285.551C407.326 285.243 407.313 284.861 407.261 284.594C407.202 284.306 407.167 284.019 407.087 283.731C407.007 284.019 406.973 284.306 406.914 284.594ZM400.058 335.2C400.024 335.505 399.965 335.714 399.839 335.926C399.592 336.33 399.159 336.586 398.715 336.581C398.028 336.57 397.316 337.017 397.072 337.66C396.933 337.967 396.926 338.339 396.979 338.622C397.039 338.91 397.073 339.197 397.154 339.485C397.235 339.197 397.269 338.91 397.329 338.622C397.362 338.33 397.436 338.116 397.568 337.911C397.835 337.514 398.257 337.282 398.727 337.293C399.441 337.287 400.116 336.807 400.342 336.157C400.47 335.849 400.458 335.467 400.406 335.2C400.347 334.913 400.312 334.625 400.232 334.337C400.151 334.625 400.117 334.912 400.058 335.2ZM435.97 291.113C435.925 291.122 435.88 291.122 435.826 291.122C435.133 291.113 434.422 291.554 434.179 292.202C434.044 292.508 434.035 292.877 434.089 293.165C434.143 293.453 434.179 293.741 434.26 294.029C434.341 293.741 434.377 293.453 434.44 293.165C434.467 292.868 434.548 292.661 434.674 292.454C434.944 292.058 435.367 291.824 435.835 291.833C435.997 291.833 436.15 291.806 436.303 291.752C436.195 291.536 436.078 291.329 435.97 291.113ZM435.723 372.854C435.688 373.159 435.629 373.368 435.503 373.58C435.257 373.984 434.823 374.24 434.379 374.235C433.692 374.224 432.98 374.67 432.736 375.314C432.598 375.621 432.591 375.993 432.644 376.276C432.703 376.564 432.737 376.851 432.818 377.139C432.899 376.852 432.933 376.564 432.993 376.276C433.026 375.984 433.1 375.77 433.232 375.565C433.499 375.168 433.922 374.937 434.391 374.947C435.105 374.941 435.78 374.461 436.006 373.812C436.135 373.503 436.122 373.121 436.07 372.853C436.011 372.565 435.976 372.278 435.896 371.99C435.815 372.279 435.781 372.567 435.723 372.854ZM451.171 326.978C451.162 327.005 451.153 327.023 451.135 327.05C450.892 327.455 450.46 327.716 450.01 327.707C449.326 327.698 448.615 328.148 448.372 328.787C448.228 329.093 448.219 329.471 448.273 329.75C448.336 330.038 448.372 330.326 448.453 330.614C448.534 330.326 448.57 330.038 448.624 329.75C448.66 329.462 448.732 329.246 448.867 329.039C449.128 328.643 449.551 328.409 450.028 328.418C450.568 328.418 451.099 328.13 451.414 327.707C451.414 327.707 451.414 327.707 451.414 327.698C451.333 327.464 451.252 327.221 451.171 326.978ZM372.161 337.011C372.127 337.316 372.067 337.525 371.941 337.737C371.695 338.141 371.262 338.397 370.817 338.392C370.13 338.38 369.419 338.827 369.175 339.47C369.036 339.778 369.029 340.15 369.082 340.432C369.141 340.72 369.176 341.007 369.257 341.295C369.338 341.008 369.372 340.72 369.431 340.432C369.465 340.141 369.538 339.927 369.671 339.721C369.938 339.324 370.36 339.093 370.83 339.104C371.544 339.098 372.219 338.618 372.444 337.968C372.573 337.659 372.561 337.278 372.508 337.011C372.45 336.723 372.415 336.435 372.335 336.147C372.255 336.435 372.219 336.723 372.161 337.011ZM374.059 291.662C373.906 292.166 373.753 292.661 373.6 293.165C373.771 292.994 373.906 292.787 373.987 292.562C374.104 292.274 374.095 291.923 374.059 291.662ZM390.264 262.084C390.23 262.389 390.171 262.598 390.045 262.81C389.799 263.214 389.365 263.47 388.921 263.465C388.233 263.454 387.522 263.9 387.278 264.543C387.14 264.851 387.132 265.224 387.186 265.506C387.245 265.794 387.279 266.081 387.36 266.369C387.441 266.081 387.475 265.794 387.535 265.506C387.568 265.214 387.642 265 387.774 264.795C388.041 264.398 388.464 264.166 388.933 264.177C389.647 264.171 390.322 263.691 390.548 263.041C390.677 262.733 390.664 262.351 390.612 262.084C390.553 261.796 390.518 261.509 390.438 261.221C390.357 261.508 390.323 261.796 390.264 262.084ZM385.818 307.72C385.783 308.025 385.724 308.234 385.598 308.446C385.352 308.85 384.918 309.106 384.474 309.102C383.787 309.09 383.075 309.536 382.831 310.18C382.693 310.488 382.686 310.859 382.739 311.142C382.798 311.429 382.832 311.717 382.913 312.005C382.994 311.717 383.028 311.43 383.088 311.142C383.121 310.85 383.195 310.636 383.327 310.431C383.594 310.034 384.017 309.804 384.486 309.814C385.2 309.807 385.875 309.328 386.101 308.678C386.23 308.369 386.217 307.987 386.165 307.719C386.106 307.431 386.071 307.144 385.991 306.856C385.91 307.144 385.876 307.432 385.818 307.72ZM425.747 313.854C425.713 314.16 425.653 314.368 425.527 314.581C425.282 314.985 424.848 315.241 424.403 315.236C423.717 315.224 423.005 315.671 422.761 316.314C422.622 316.622 422.615 316.995 422.668 317.276C422.727 317.564 422.762 317.851 422.843 318.139C422.924 317.851 422.958 317.564 423.017 317.276C423.051 316.985 423.124 316.77 423.257 316.565C423.524 316.168 423.946 315.938 424.416 315.948C425.13 315.942 425.805 315.462 426.03 314.812C426.159 314.502 426.147 314.122 426.094 313.854C426.036 313.566 426.001 313.279 425.921 312.991C425.84 313.279 425.805 313.566 425.747 313.854ZM388.842 365.1C388.808 365.405 388.749 365.613 388.623 365.826C388.376 366.23 387.943 366.486 387.499 366.481C386.812 366.469 386.1 366.917 385.856 367.559C385.718 367.867 385.71 368.24 385.764 368.521C385.823 368.809 385.857 369.097 385.938 369.385C386.019 369.097 386.053 368.809 386.113 368.521C386.146 368.23 386.22 368.016 386.352 367.81C386.619 367.413 387.042 367.183 387.511 367.193C388.225 367.187 388.9 366.707 389.126 366.057C389.255 365.748 389.242 365.367 389.19 365.1C389.131 364.812 389.096 364.525 389.016 364.237C388.936 364.525 388.901 364.812 388.842 365.1ZM419.811 298.018C420.05 297.826 420.24 297.721 420.479 297.66C420.939 297.548 421.426 297.674 421.737 297.991C422.215 298.485 423.034 298.672 423.662 298.39C423.977 298.27 424.246 298.012 424.408 297.775C424.569 297.53 424.748 297.302 424.895 297.042C424.635 297.187 424.406 297.367 424.161 297.529C423.932 297.711 423.727 297.81 423.489 297.862C423.02 297.954 422.557 297.818 422.233 297.479C421.724 296.979 420.908 296.841 420.288 297.141C419.979 297.268 419.718 297.547 419.566 297.773C419.404 298.018 419.225 298.246 419.078 298.506C419.338 298.358 419.566 298.18 419.811 298.018ZM396.518 319.116C396.757 318.924 396.947 318.819 397.186 318.758C397.646 318.646 398.133 318.771 398.445 319.089C398.922 319.583 399.741 319.77 400.369 319.488C400.684 319.368 400.953 319.11 401.114 318.873C401.275 318.628 401.454 318.4 401.601 318.139C401.341 318.286 401.112 318.464 400.867 318.626C400.638 318.809 400.434 318.908 400.195 318.96C399.726 319.052 399.264 318.916 398.939 318.577C398.429 318.076 397.613 317.939 396.995 318.238C396.685 318.366 396.424 318.645 396.272 318.871C396.11 319.116 395.931 319.344 395.784 319.604C396.045 319.456 396.273 319.278 396.518 319.116ZM380.738 350.197C380.977 350.005 381.167 349.899 381.407 349.838C381.867 349.727 382.353 349.852 382.665 350.17C383.143 350.664 383.962 350.851 384.589 350.568C384.904 350.448 385.173 350.19 385.334 349.954C385.495 349.709 385.674 349.48 385.821 349.22C385.561 349.367 385.332 349.545 385.088 349.707C384.858 349.89 384.654 349.989 384.415 350.041C383.946 350.133 383.484 349.997 383.16 349.657C382.65 349.157 381.834 349.019 381.215 349.319C380.905 349.447 380.644 349.726 380.492 349.952C380.33 350.196 380.151 350.424 380.004 350.684C380.265 350.538 380.493 350.358 380.738 350.197ZM387.559 382.493C387.798 382.301 387.988 382.196 388.228 382.135C388.687 382.023 389.175 382.148 389.486 382.466C389.964 382.96 390.783 383.147 391.41 382.865C391.725 382.745 391.994 382.487 392.156 382.25C392.318 382.004 392.496 381.777 392.643 381.516C392.382 381.663 392.154 381.841 391.91 382.003C391.68 382.186 391.476 382.285 391.237 382.337C390.768 382.429 390.306 382.293 389.982 381.954C389.472 381.454 388.656 381.316 388.037 381.616C387.727 381.743 387.467 382.022 387.314 382.248C387.152 382.493 386.973 382.721 386.826 382.981C387.087 382.834 387.314 382.655 387.559 382.493ZM418.093 347.002C418.333 346.81 418.523 346.704 418.762 346.643C419.222 346.532 419.709 346.657 420.02 346.975C420.498 347.469 421.317 347.656 421.944 347.373C422.259 347.254 422.529 346.995 422.69 346.758C422.851 346.514 423.03 346.285 423.177 346.025C422.916 346.172 422.688 346.35 422.443 346.512C422.214 346.695 422.009 346.794 421.771 346.846C421.302 346.938 420.839 346.802 420.514 346.462C420.005 345.962 419.189 345.824 418.569 346.124C418.26 346.252 417.999 346.531 417.847 346.757C417.685 347.002 417.506 347.229 417.359 347.489C417.621 347.343 417.849 347.164 418.093 347.002ZM439.111 359.865C439.35 359.674 439.54 359.567 439.78 359.507C440.24 359.395 440.727 359.521 441.038 359.838C441.516 360.332 442.335 360.52 442.962 360.237C443.277 360.117 443.546 359.859 443.708 359.622C443.869 359.377 444.048 359.149 444.195 358.889C443.935 359.035 443.706 359.214 443.462 359.376C443.232 359.558 443.028 359.657 442.789 359.71C442.32 359.801 441.858 359.665 441.533 359.326C441.024 358.826 440.207 358.688 439.589 358.988C439.279 359.116 439.018 359.395 438.866 359.62C438.704 359.865 438.525 360.093 438.378 360.353C438.639 360.205 438.866 360.027 439.111 359.865ZM403.758 369.629C403.998 369.438 404.187 369.332 404.427 369.271C404.887 369.16 405.374 369.285 405.685 369.602C406.163 370.096 406.982 370.284 407.609 370.001C407.924 369.881 408.193 369.623 408.354 369.386C408.516 369.141 408.695 368.913 408.841 368.653C408.58 368.799 408.353 368.978 408.108 369.14C407.878 369.322 407.674 369.421 407.436 369.474C406.967 369.565 406.504 369.43 406.179 369.09C405.67 368.59 404.853 368.452 404.234 368.752C403.925 368.88 403.664 369.159 403.512 369.385C403.35 369.629 403.17 369.857 403.024 370.117C403.285 369.97 403.512 369.791 403.758 369.629ZM449.354 382.493C449.593 382.301 449.783 382.196 450.023 382.135C450.483 382.023 450.969 382.148 451.281 382.466C451.759 382.96 452.578 383.147 453.205 382.865C453.52 382.745 453.789 382.487 453.951 382.25C454.112 382.004 454.291 381.777 454.438 381.516C454.178 381.663 453.949 381.841 453.705 382.003C453.475 382.186 453.271 382.285 453.032 382.337C452.563 382.429 452.101 382.293 451.776 381.954C451.266 381.454 450.45 381.316 449.831 381.616C449.521 381.743 449.26 382.022 449.108 382.248C448.946 382.493 448.767 382.721 448.62 382.981C448.881 382.834 449.108 382.655 449.354 382.493ZM457.489 347.534C457.273 347.471 457.084 347.354 456.922 347.192C456.418 346.697 455.599 346.553 454.978 346.859C454.672 346.985 454.411 347.264 454.258 347.489C454.096 347.732 453.916 347.957 453.772 348.218C454.033 348.074 454.258 347.894 454.501 347.732C454.744 347.543 454.933 347.435 455.167 347.372C455.626 347.264 456.121 347.39 456.427 347.705C456.742 348.038 457.21 348.227 457.678 348.236C457.615 348.002 457.552 347.768 457.489 347.534ZM371.225 374.078C371.464 373.886 371.654 373.78 371.894 373.72C372.354 373.608 372.84 373.733 373.152 374.051C373.63 374.545 374.449 374.732 375.076 374.45C375.391 374.33 375.66 374.072 375.821 373.835C375.982 373.59 376.161 373.362 376.308 373.102C376.047 373.248 375.819 373.426 375.575 373.588C375.345 373.771 375.141 373.87 374.902 373.922C374.433 374.014 373.971 373.878 373.646 373.539C373.137 373.039 372.32 372.901 371.701 373.201C371.391 373.328 371.13 373.607 370.978 373.833C370.816 374.078 370.637 374.306 370.491 374.566C370.752 374.419 370.979 374.24 371.225 374.078ZM368.62 319.848C368.86 319.656 369.05 319.551 369.289 319.489C369.749 319.378 370.236 319.503 370.547 319.821C371.025 320.315 371.844 320.502 372.471 320.219C372.786 320.1 373.056 319.841 373.218 319.605C373.38 319.36 373.558 319.131 373.704 318.871C373.444 319.017 373.216 319.196 372.971 319.358C372.741 319.541 372.537 319.64 372.299 319.692C371.83 319.784 371.367 319.648 371.042 319.308C370.533 318.808 369.717 318.67 369.097 318.97C368.788 319.098 368.527 319.377 368.375 319.603C368.213 319.848 368.034 320.075 367.887 320.335C368.148 320.189 368.376 320.01 368.62 319.848Z" fill="white"/>
<path d="M374.32 289.859C373.326 293.451 372.367 297.047 371.439 300.651C371.56 299.078 371.731 297.509 371.933 295.945C371.945 295.853 371.805 295.813 371.785 295.909C371.386 297.857 371.193 299.826 371.139 301.804C370.032 306.151 368.98 310.511 368.015 314.897C366.163 323.302 364.518 331.766 363.156 340.259C362.387 345.048 361.791 349.869 360.971 354.648C360.956 354.737 361.097 354.772 361.113 354.682C361.865 350.443 362.863 346.227 363.786 342.018C364.704 337.837 365.594 333.65 366.462 329.46C368.208 321.033 370.055 312.627 371.792 304.198C372.77 299.45 373.681 294.689 374.662 289.942C374.704 289.727 374.379 289.646 374.32 289.859Z" fill="#263238"/>
<path d="M370.1 233.801C371.298 240.355 367.608 246.52 361.858 247.57C356.108 248.62 350.476 244.16 349.278 237.606C348.081 231.052 351.771 224.887 357.521 223.837C363.27 222.787 368.902 227.247 370.1 233.801Z" fill="#455A64"/>
<path d="M373.549 233.599C374.882 240.89 370.776 247.748 364.379 248.917C357.983 250.086 351.717 245.123 350.385 237.832C349.053 230.541 353.158 223.683 359.555 222.514C365.951 221.345 372.217 226.308 373.549 233.599Z" fill="#C7C7C7"/>
<path d="M391.789 285.035C398.304 284.997 406.597 273.016 408.924 264.371C409.08 263.778 401.831 243.377 400.815 239.186C400.611 238.324 376.075 251.949 376.075 251.949C376.075 251.949 380.791 260.109 382.518 267.428C382.656 268.041 385.492 285.068 391.789 285.035Z" fill="#DD6A57"/>
<path d="M385.523 268.974C384.596 269.217 383.741 269.388 382.922 269.451C382.814 268.938 382.724 268.506 382.661 268.173C382.661 268.164 382.661 268.146 382.652 268.128C382.652 268.092 382.643 268.047 382.634 268.011C382.607 267.885 382.589 267.75 382.553 267.615C382.553 267.588 382.544 267.561 382.535 267.534C382.526 267.498 382.517 267.462 382.508 267.426C382.13 265.824 381.608 264.186 381.032 262.602C379.7 258.966 378.035 255.618 377.018 253.683C376.892 253.44 376.775 253.224 376.667 253.035C376.343 252.432 376.136 252.063 376.091 251.973C376.073 251.964 376.073 251.955 376.073 251.955C376.073 251.955 376.073 251.955 376.082 251.955C376.136 251.919 376.361 251.793 376.73 251.586C376.964 251.46 377.252 251.298 377.594 251.109C377.612 251.109 377.621 251.1 377.63 251.091C377.81 250.992 378.008 250.884 378.206 250.776C378.431 250.65 378.665 250.524 378.917 250.38C379.124 250.272 379.349 250.146 379.574 250.02C379.61 250.002 379.655 249.975 379.7 249.948C379.97 249.804 380.258 249.651 380.555 249.48C380.618 249.444 380.69 249.408 380.753 249.372C381.032 249.219 381.32 249.066 381.608 248.904C381.752 248.823 381.905 248.742 382.058 248.661C382.508 248.418 382.967 248.166 383.444 247.905C383.795 247.716 384.146 247.527 384.506 247.329C384.803 247.167 385.109 247.005 385.406 246.843C386.414 246.294 387.449 245.736 388.484 245.187C388.817 245.007 389.15 244.827 389.474 244.647C390.689 243.999 391.886 243.369 393.029 242.775C393.29 242.64 393.542 242.505 393.794 242.379C393.965 242.289 394.136 242.199 394.298 242.118C394.505 242.01 394.703 241.911 394.901 241.803C395.351 241.569 395.783 241.353 396.197 241.146C396.467 241.011 396.737 240.876 396.989 240.75C397.376 240.552 397.736 240.381 398.078 240.219C398.249 240.129 398.42 240.057 398.573 239.985C399.041 239.76 399.446 239.58 399.779 239.445C399.86 239.409 399.932 239.382 399.995 239.355V239.364C400.301 246.465 399.734 265.176 385.523 268.974Z" fill="#263238"/>
<path d="M393.453 207.607C399.263 215.782 403.219 243.671 398.7 251.689C392.149 263.313 377.058 269.245 366.08 260.373C355.438 251.772 350.925 215.335 356.379 207.6C364.414 196.206 384.871 195.532 393.453 207.607Z" fill="#DD6A57"/>
<path d="M372.652 232.226C372.657 232.152 372.812 232.293 372.821 232.371C373.037 234.256 373.602 236.38 375.392 236.754C375.448 236.765 375.456 236.861 375.392 236.861C373.276 236.874 372.554 234.047 372.652 232.226Z" fill="#263238"/>
<path d="M374.041 230.019C377.026 229.347 378.152 235.367 375.386 235.991C372.663 236.603 371.538 230.582 374.041 230.019Z" fill="#263238"/>
<path d="M362.404 234.431C362.376 234.363 362.274 234.546 362.291 234.622C362.699 236.476 362.854 238.667 361.282 239.602C361.234 239.631 361.256 239.724 361.318 239.704C363.323 239.029 363.088 236.121 362.404 234.431Z" fill="#263238"/>
<path d="M360.374 232.794C357.332 233.127 358.223 239.187 361.04 238.878C363.814 238.576 362.924 232.515 360.374 232.794Z" fill="#263238"/>
<path d="M375.901 226.821C375.043 226.768 374.26 226.576 373.416 226.436C372.464 226.278 371.69 226.25 370.957 225.56C370.563 225.19 370.55 224.396 370.874 223.98C371.628 223.012 372.841 222.915 373.995 223.059C375.247 223.215 376.172 223.656 377.043 224.566C377.886 225.448 377.034 226.891 375.901 226.821Z" fill="#263238"/>
<path d="M357.48 230.198C358.289 229.906 358.987 229.502 359.757 229.13C360.627 228.711 361.362 228.466 361.871 227.598C362.145 227.132 361.935 226.368 361.508 226.059C360.512 225.342 359.321 225.591 358.254 226.053C357.097 226.554 356.333 227.237 355.753 228.355C355.19 229.438 356.413 230.584 357.48 230.198Z" fill="#263238"/>
<path d="M378.105 249.095C377.739 249.615 377.406 250.3 376.74 250.482C376.101 250.658 375.286 250.508 374.648 250.388C374.585 250.376 374.536 250.45 374.585 250.499C375.203 251.124 376.305 251.382 377.142 251.068C377.959 250.763 378.239 249.955 378.3 249.144C378.307 249.032 378.158 249.019 378.105 249.095Z" fill="#263238"/>
<path d="M375.1 243.877C374.359 245.691 372.99 246.863 371.39 247.495C370.677 247.782 369.902 247.954 369.125 248.027C368.975 248.052 368.821 248.063 368.68 248.058C368.54 248.067 368.415 248.075 368.259 248.072C368.035 248.081 367.882 247.923 367.808 247.724L367.805 247.711C367.793 247.643 367.784 247.588 367.787 247.517C367.787 247.517 367.787 247.517 367.784 247.503L367.757 247.339C367.449 245.911 367.18 243.701 367.18 243.701C366.704 244.061 364.254 245.765 364.156 245.006C363.366 238.727 362.488 231.743 363.027 225.328C363.034 225.116 363.355 225.104 363.376 225.312C364.374 231.317 364.31 237.457 365.217 243.505C366.009 243.021 367.29 242.161 368.043 242.036C368.259 242.056 368.487 246.316 368.676 246.946C368.676 246.946 368.681 246.974 368.701 247.013C371.172 246.87 372.854 245.801 374.893 243.743C375.013 243.61 375.184 243.708 375.1 243.877Z" fill="#263238"/>
<path d="M369.836 247.141C369.836 247.141 371.43 248.621 373.289 248.915C373.974 249.026 374.684 248.987 375.372 248.659C376.789 247.989 376.57 246.615 376.078 245.497C375.676 244.576 375.075 243.832 375.075 243.832C375.075 243.832 373.282 246.274 369.836 247.141Z" fill="#263238"/>
<path d="M373.289 248.914C373.974 249.025 374.684 248.986 375.372 248.658C376.789 247.988 376.57 246.614 376.078 245.496C374.513 245.958 373.135 247.337 373.289 248.914Z" fill="#FF99BA"/>
<path opacity="0.2" d="M392.407 219.312C394.261 221.664 398.318 227.291 399.693 227.363C398.272 218.284 395.951 210.353 392.335 206.138C390.77 204.314 389.049 202.965 387.023 201.846C387.54 204.237 390.442 216.851 392.407 219.312Z" fill="#263238"/>
<path d="M365.353 213.791C367.643 215.902 370.868 216.754 373.887 215.909C376.828 215.087 379.569 212.681 380.317 209.656C380.339 209.566 380.479 209.6 380.457 209.691C379.657 212.926 377.429 215.766 374.094 216.613C370.964 217.408 367.383 216.331 365.2 213.954C365.104 213.848 365.247 213.693 365.353 213.791Z" fill="#263238"/>
<path d="M372.142 190.607C377.352 190.136 382.448 192.475 384.746 195.802C386.143 197.824 386.563 199.988 386.465 202.249C386.461 202.341 386.273 202.342 386.27 202.251C386.172 198.698 383.982 194.885 379.935 192.854C376.047 190.903 371.157 190.713 367.171 192.759C365.09 193.828 363.485 195.405 362.771 197.188C362.691 197.388 362.288 197.309 362.35 197.107C363.394 193.703 367.427 191.034 372.142 190.607Z" fill="#263238"/>
<path d="M343.225 205.274C343.757 202.623 345.298 200.227 347.415 198.562C350.381 196.229 354.02 196.114 357.638 196.074C357.736 196.073 357.738 196.225 357.64 196.226C354.561 196.27 351.439 196.495 348.8 198.243C346.648 199.668 344.957 201.832 344.206 204.314C342.649 209.463 345.328 215.329 350.292 217.44C353.102 218.636 356.409 218.602 359.191 217.345C359.301 217.295 359.403 217.453 359.292 217.507C354.226 219.959 347.745 218.255 344.772 213.405C343.304 211.012 342.67 208.042 343.225 205.274Z" fill="#263238"/>
<path d="M396.36 213.565C396.36 213.565 400.206 203.697 395.453 198.8C392.759 196.025 385.053 197.334 385.053 197.334C385.053 197.334 382.031 193.169 375.436 192.453C368.772 191.729 361.5 196.424 361.5 196.424C361.5 196.424 354.924 193.618 349.538 197.595C342.028 203.14 344.473 215.283 353.038 218.274C359.052 220.373 366.186 214.432 366.186 214.432C366.941 214.445 375.086 218.138 380.04 210.676C380.04 210.676 385.202 214.281 389.055 210.878C389.055 210.878 391.675 214.843 396.36 213.565Z" fill="#263238"/>
<path d="M376.607 240.402C372.138 240.675 368.279 237.26 368.006 232.792C367.733 228.322 371.146 224.464 375.616 224.191C380.085 223.918 383.943 227.331 384.217 231.802C384.449 235.582 382.042 238.924 378.591 240.03C377.961 240.233 377.297 240.36 376.607 240.402ZM369.089 232.726C369.327 236.598 372.669 239.555 376.541 239.318C380.411 239.086 383.369 235.739 383.134 231.867C382.895 227.995 379.553 225.037 375.681 225.275C375.084 225.311 374.507 225.421 373.963 225.597C370.973 226.555 368.889 229.452 369.089 232.726Z" fill="#FFC727"/>
<path d="M359.768 243.65C356.497 244.29 353.137 241.236 352.275 236.842C351.863 234.745 352.073 232.649 352.866 230.942C353.686 229.175 355.022 228.026 356.646 227.712C358.263 227.395 359.94 227.95 361.365 229.278C362.743 230.559 363.73 232.421 364.14 234.52C364.954 238.678 363.242 242.569 360.283 243.519C360.115 243.571 359.944 243.615 359.768 243.65ZM353.851 231.398C353.154 232.9 352.972 234.76 353.339 236.635C354.086 240.44 356.875 243.11 359.559 242.584C362.253 242.06 363.82 238.534 363.075 234.727C362.707 232.852 361.837 231.199 360.626 230.072C359.46 228.989 358.12 228.529 356.854 228.778C356.718 228.804 356.586 228.839 356.455 228.88C355.364 229.23 354.45 230.11 353.851 231.398Z" fill="#FFC727"/>
<path d="M368.454 233.662L368.979 232.711C367.571 231.933 364.508 231.116 362.971 233.579L363.892 234.154C365.266 231.946 368.324 233.593 368.454 233.662Z" fill="#FFC727"/>
<path d="M404.364 228.756L405.214 228.082C404.898 227.686 402.069 224.209 399.615 224.288C397.321 224.369 383.302 228.505 382.707 228.682L383.016 229.723C387.033 228.533 397.878 225.431 399.65 225.374C401.271 225.321 403.602 227.798 404.364 228.756Z" fill="#FFC727"/>
<path d="M394.975 230.904C394.975 230.904 398.296 220.486 402.842 221.412C407.388 222.337 406.748 236.139 402.718 239.254C398.688 242.369 395.731 238.695 395.731 238.695L394.975 230.904Z" fill="#DD6A57"/>
<path d="M402.56 225.363C402.631 225.334 402.677 225.432 402.622 225.478C399.83 227.767 399.069 231.254 398.847 234.693C399.429 233.214 400.522 232.164 402.459 232.802C402.56 232.835 402.521 232.991 402.425 233C401.028 233.127 400.155 233.647 399.597 234.971C399.201 235.908 399.066 236.98 398.884 237.977C398.823 238.309 398.259 238.317 398.266 237.954C398.267 237.928 398.269 237.899 398.269 237.872C396.92 233.822 398.313 227.134 402.56 225.363Z" fill="#263238"/>
<path d="M399.999 223.018C399.999 223.018 399.352 208.455 394.228 200.954C388.524 192.603 372.774 187.01 361.501 196.425C361.501 196.425 377.871 192.173 388.584 202.229C393.512 206.854 395.216 223.942 395.216 223.942L399.999 223.018Z" fill="#C7C7C7"/>
<path d="M387.275 231.835C388.023 239.209 393.873 244.655 400.343 243.999C406.812 243.343 411.45 236.833 410.702 229.459C409.954 222.086 404.103 216.64 397.634 217.296C391.164 217.952 386.527 224.462 387.275 231.835Z" fill="#C7C7C7"/>
<path d="M390.644 231.069C391.317 237.698 396.576 242.593 402.391 242.002C408.206 241.413 412.375 235.561 411.702 228.933C411.03 222.304 405.771 217.409 399.956 217.999C394.142 218.59 389.972 224.441 390.644 231.069Z" fill="#455A64"/>
<path d="M426.063 270.398C443.506 289.08 484.999 359.188 471.547 372.116C457.999 385.135 383.435 367.642 362.464 357.651C356.226 354.679 379.931 315.786 387.263 314.878C393.367 314.122 424.576 328.397 425.479 326.602C426.499 324.573 419.411 311.55 411.902 284.438C403.245 253.174 418.358 262.146 426.063 270.398Z" fill="#DD6A57"/>
<path d="M356.271 302.324C341.109 300.212 336.892 301.997 325.042 293.42C317.266 287.791 310.336 290.341 314.773 299.284C322.028 313.912 341.017 320.745 348.283 321.218L356.271 302.324Z" fill="#DD6A57"/>
<path d="M396.543 316.918C396.543 316.918 379.507 307.458 363.572 303.609C352.553 300.948 327.933 297.83 304.378 322.121C298.791 327.883 294.916 340.055 307.459 333.959C316.369 329.628 320.711 324.19 326.351 322.615C326.351 322.615 323.259 338.683 329.25 344.055C331.926 346.456 339.388 352.837 345.904 356.977C345.904 356.977 347.188 355.8 348.602 354.077C348.602 354.077 354.671 358.568 366.098 357.479L396.543 316.918Z" fill="#DD6A57"/>
<path d="M352.65 302.75C347.381 305.498 336.313 311.507 328.969 319.572C320.812 328.531 307.511 347.986 314.186 353.939C319.08 358.305 324.811 351.323 324.811 351.323C324.811 351.323 321.009 360.523 326.293 363.5C331.108 366.213 335.218 360.545 335.218 360.545C335.218 360.545 333.871 366.523 339.012 368.242C345.196 370.31 347.004 357.444 355.078 354.126C356.891 353.382 352.65 302.75 352.65 302.75Z" fill="#DD6A57"/>
<path d="M339.872 326.613C335.34 330.009 327.029 340.361 324.729 351.086C324.677 351.329 324.833 351.499 324.927 351.287C329.966 340.018 336.81 330.539 339.956 326.69C339.999 326.638 339.923 326.575 339.872 326.613Z" fill="#263238"/>
<path d="M348.676 335.11C345.068 338.442 336.977 349.496 335.02 360.443C334.976 360.687 335.144 360.847 335.23 360.632C340.01 348.64 345.854 339.212 348.765 335.182C348.803 335.128 348.722 335.067 348.676 335.11Z" fill="#263238"/>
<path d="M326.347 322.517C321.406 323.972 318.192 326.396 314.023 329.292C311.96 330.724 309.869 332.128 307.658 333.323C305.645 334.411 302.676 336.057 300.533 334.352C299.339 333.404 299.357 331.677 299.622 330.316C299.92 328.787 300.505 327.317 301.412 326.048C301.458 325.984 301.347 325.901 301.299 325.965C300.462 327.094 299.742 328.295 299.256 329.618C298.816 330.815 298.472 332.207 298.809 333.474C299.536 336.199 302.748 336.557 305.024 335.807C306.384 335.359 307.673 334.635 308.913 333.925C310.11 333.238 311.275 332.493 312.419 331.721C314.768 330.134 317.023 328.413 319.353 326.8C321.913 325.027 323.681 324.159 326.421 322.683C326.515 322.633 326.446 322.489 326.347 322.517Z" fill="#263238"/>
<path d="M316.001 339.902C317.279 337.085 324.204 325.351 326.449 322.636C326.507 322.566 326.413 322.476 326.347 322.538C322.496 326.19 316.307 335.885 314.864 338.992C313.439 342.062 311.797 345.986 311.797 349.409C311.796 354.571 315.221 355.55 316.487 355.802C317.998 356.104 319.524 355.786 320.881 355.083C322.391 354.301 323.853 352.679 324.863 351.341C324.916 351.271 324.823 351.175 324.762 351.244C322.973 353.277 320.001 355.285 317.195 354.916C315.979 354.756 314.746 354.202 314.002 353.193C313.128 352.008 313.059 350.448 313.177 349.035C313.444 345.837 314.688 342.797 316.001 339.902Z" fill="#263238"/>
<path d="M335.02 360.443C334.302 361.058 332.82 363.199 330.468 363.656C328.748 363.991 326.948 363.828 325.626 362.575C324.332 361.347 323.847 359.614 323.768 357.88C323.723 356.899 324.506 352.66 324.849 351.382C324.876 351.282 324.75 351.237 324.719 351.331C323.973 353.609 323.169 356.089 323.169 358.321C323.168 360.178 323.754 362.171 325.146 363.467C326.585 364.809 328.695 365.283 330.549 364.588C331.469 364.244 334.374 362.383 335.219 360.545C335.236 360.506 335.051 360.416 335.02 360.443Z" fill="#263238"/>
<path d="M354.589 353.201C353.778 353.68 353.077 354.397 352.401 355.047C351.676 355.744 350.977 356.47 350.295 357.209C348.93 358.685 347.75 360.376 346.723 362.101C345.68 363.852 344.72 365.804 343.018 367.022C341.353 368.215 339.064 368.404 337.367 367.163C336.482 366.515 335.887 365.597 335.601 364.544C335.308 363.461 335.111 362.141 335.272 361.023C335.286 360.922 335.141 360.905 335.133 361.007C335.048 362.095 334.753 363.104 334.879 364.207C334.991 365.177 335.307 366.137 335.891 366.926C337.089 368.543 339.211 369.253 341.162 368.895C343.319 368.499 344.901 366.877 346.072 365.124C347.376 363.172 348.45 361.089 349.843 359.191C350.575 358.193 351.295 357.185 352.098 356.241C352.933 355.259 353.936 354.379 354.706 353.348C354.769 353.265 354.689 353.142 354.589 353.201Z" fill="#263238"/>
<path d="M360.63 357.604C359.008 357.464 355.267 356.839 352.315 355.879C352.229 355.851 352.107 356.094 352.186 356.137C353.288 356.745 355.592 357.35 356.287 357.491C357.674 357.774 359.193 357.9 360.609 357.755C360.689 357.747 360.725 357.612 360.63 357.604Z" fill="#263238"/>
<path d="M453.712 340.237C449.36 337.262 444.718 334.706 439.987 332.393C435.3 330.102 430.387 328.326 425.42 326.75C422.583 325.85 419.712 325.09 416.84 324.309C416.751 324.286 416.719 324.42 416.805 324.446C421.816 325.95 426.717 327.9 431.517 329.97C436.299 332.032 441.034 334.176 445.736 336.413C448.395 337.678 450.995 339.068 453.61 340.421C453.732 340.485 453.822 340.312 453.712 340.237Z" fill="#263238"/>
<path d="M461.789 314.461L419.448 313.06C419.448 313.06 411.567 292.159 408.566 273.568C405.565 254.976 420.794 260.651 436.694 280.555C452.592 300.461 461.789 314.461 461.789 314.461Z" fill="#FFC727"/>
<path d="M424.162 297.533C423.928 297.713 423.73 297.812 423.487 297.866C423.019 297.956 422.56 297.821 422.236 297.479C421.723 296.984 420.904 296.84 420.292 297.146C419.977 297.272 419.716 297.551 419.563 297.776C419.401 298.019 419.221 298.244 419.077 298.505C419.338 298.361 419.563 298.181 419.815 298.019C420.049 297.83 420.238 297.722 420.481 297.659C420.94 297.551 421.426 297.677 421.741 297.992C422.218 298.487 423.037 298.676 423.658 298.397C423.973 298.271 424.243 298.019 424.405 297.776C424.567 297.533 424.747 297.308 424.891 297.047C424.63 297.191 424.405 297.371 424.162 297.533ZM437.518 289.748C437.455 289.46 437.419 289.172 437.338 288.884C437.257 289.172 437.221 289.46 437.167 289.748C437.131 290.045 437.077 290.261 436.951 290.468C436.699 290.873 436.267 291.134 435.826 291.125C435.133 291.116 434.422 291.557 434.179 292.205C434.044 292.511 434.035 292.88 434.089 293.168C434.143 293.456 434.179 293.744 434.26 294.032C434.341 293.744 434.377 293.456 434.44 293.168C434.467 292.871 434.548 292.664 434.674 292.457C434.944 292.061 435.367 291.827 435.835 291.836C436.546 291.827 437.221 291.35 437.446 290.702C437.581 290.396 437.563 290.009 437.518 289.748ZM422.641 266.465C422.641 266.573 422.65 266.672 422.668 266.771C422.731 267.05 422.758 267.338 422.839 267.626C422.92 267.338 422.956 267.05 423.019 266.771C423.019 266.762 423.019 266.762 423.019 266.753C422.893 266.645 422.767 266.555 422.641 266.465ZM452.827 301.682C452.503 301.673 452.206 301.538 451.99 301.313C451.513 300.818 450.694 300.638 450.064 300.917C449.749 301.034 449.479 301.295 449.317 301.529C449.155 301.781 448.975 302.006 448.831 302.267C449.092 302.123 449.317 301.943 449.569 301.781C449.794 301.592 450.001 301.493 450.235 301.448C450.703 301.349 451.171 301.493 451.495 301.826C451.945 302.276 452.647 302.429 453.232 302.249C453.106 302.069 452.971 301.88 452.827 301.682ZM423.523 280.577C423.226 280.541 423.01 280.469 422.803 280.343C422.407 280.073 422.182 279.65 422.191 279.182C422.182 278.462 421.705 277.787 421.057 277.562C420.742 277.436 420.364 277.445 420.094 277.499C419.806 277.562 419.518 277.598 419.23 277.679C419.518 277.751 419.806 277.787 420.094 277.85C420.4 277.886 420.607 277.94 420.823 278.066C421.228 278.318 421.48 278.75 421.48 279.191C421.471 279.875 421.912 280.595 422.56 280.838C422.866 280.973 423.235 280.982 423.523 280.928C423.802 280.865 424.09 280.838 424.378 280.757C424.09 280.676 423.802 280.64 423.523 280.577ZM442.999 310.196C442.702 310.16 442.495 310.088 442.288 309.953C441.892 309.692 441.658 309.269 441.667 308.792C441.658 308.081 441.181 307.406 440.533 307.181C440.227 307.055 439.84 307.064 439.579 307.118C439.291 307.181 439.003 307.208 438.715 307.289C439.003 307.37 439.291 307.406 439.579 307.469C439.876 307.496 440.092 307.559 440.299 307.685C440.704 307.928 440.965 308.36 440.956 308.81C440.947 309.494 441.388 310.205 442.036 310.448C442.342 310.592 442.711 310.601 442.999 310.547C443.287 310.484 443.575 310.448 443.863 310.367C443.575 310.286 443.287 310.25 442.999 310.196Z" fill="white"/>
<path d="M421.189 312.917C420.962 312.915 419.472 312.655 419.466 312.655C419.36 312.099 416.944 303.364 416.31 301.463C415.016 297.59 413.495 293.782 412.028 289.972C411.981 289.852 411.796 289.904 411.833 290.032C412.789 293.309 413.685 296.609 414.666 299.88C414.37 299.416 414.078 298.949 413.798 298.476C413.224 297.505 412.724 296.497 412.188 295.506C412.141 295.418 412.001 295.484 412.029 295.578C412.449 296.955 413.137 298.258 413.896 299.474C414.222 299.997 414.602 300.492 414.996 300.969C415.08 301.241 415.159 301.515 415.244 301.786C415.845 303.697 418.946 313.155 419.104 313.164C419.143 313.167 420.673 313.2 421.146 313.204C421.264 313.204 421.306 312.918 421.189 312.917Z" fill="#263238"/>
<path d="M454.936 306.263C445.804 305.581 436.612 305.537 427.443 305.674C424.849 305.712 422.254 305.811 419.665 305.972C419.592 305.977 419.578 306.084 419.655 306.088C424.222 306.332 428.797 306.389 433.374 306.474C437.961 306.558 442.556 306.605 447.146 306.562C449.738 306.537 452.329 306.514 454.921 306.436C455.033 306.432 455.05 306.271 454.936 306.263Z" fill="#263238"/>
<path d="M308.332 387.598H314.796V383.377H308.332V387.598Z" fill="#455A64"/>
<path d="M299.948 387.318H306.413V383.097H299.948V387.318Z" fill="#455A64"/>
<path d="M291.565 387.039H298.03V382.818H291.565V387.039Z" fill="#455A64"/>
<path d="M283.181 386.76H289.646V382.539H283.181V386.76Z" fill="#455A64"/>
<path d="M274.798 386.48H281.262V382.259H274.798V386.48Z" fill="#455A64"/>
<path d="M266.414 386.201H272.879V381.98H266.414V386.201Z" fill="#455A64"/>
<path d="M258.031 385.924H264.496V381.703H258.031V385.924Z" fill="#455A64"/>
<path d="M249.648 385.645H256.112V381.424H249.648V385.645Z" fill="#455A64"/>
<path d="M241.264 385.365H247.729V381.144H241.264V385.365Z" fill="#455A64"/>
<path d="M239.682 390.024H316.379V384.888L239.682 382.75V390.024Z" fill="#37474F"/>
<path d="M164.822 369.772H291.439L271.302 275.51H144.687L164.822 369.772Z" fill="#455A64"/>
<path d="M160.139 369.772H286.755L266.619 275.51H140.003L160.139 369.772Z" fill="#37474F"/>
<path d="M202.437 317.18C203.122 321.503 207.182 325.008 211.505 325.008C215.829 325.008 218.779 321.503 218.094 317.18C217.409 312.856 213.35 309.352 209.026 309.352C204.702 309.352 201.752 312.856 202.437 317.18Z" fill="#263238"/>
<path d="M195.949 394.391H258.223V389.555L195.949 387.541V394.391Z" fill="#455A64"/>
<path d="M179.018 394.384H212.453L232.589 341.564H199.154L179.018 394.384Z" fill="#455A64"/>
<path d="M173.515 394.384H206.95L227.085 341.564H193.651L173.515 394.384Z" fill="#263238"/>
<path d="M318.747 395.675C318.747 395.675 377.468 395.675 382.949 395.675C388.43 395.675 380.501 380.073 360.504 374.088C340.508 368.102 312.44 389.822 318.747 395.675Z" fill="#37474F"/>
<path d="M343.94 395.674C343.55 393.954 343.004 392.293 342.388 390.672C341.753 389.058 341.006 387.494 340.115 386.023C339.254 384.529 338.174 383.179 336.997 381.925L336.084 381.005L335.09 380.169C334.46 379.556 333.676 379.161 332.982 378.602C334.584 379.312 336.191 380.172 337.484 381.42C338.81 382.619 339.976 384.014 340.884 385.559C341.798 387.099 342.535 388.74 343.049 390.445C343.569 392.145 343.895 393.907 343.94 395.674Z" fill="#263238"/>
<path d="M336.333 380.828C335.454 381.301 334.572 381.752 333.713 382.248C332.842 382.719 331.979 383.203 331.13 383.71C329.437 384.727 327.752 385.752 326.162 386.903C324.557 388.033 323.039 389.277 321.685 390.679C321.014 391.383 320.4 392.144 319.893 392.975C319.361 393.792 318.972 394.701 318.746 395.673C318.769 394.67 319.086 393.685 319.506 392.764C319.955 391.852 320.532 391.011 321.167 390.221C322.453 388.651 324.013 387.342 325.641 386.171C327.281 385.011 329.009 383.989 330.802 383.105C332.593 382.22 334.427 381.422 336.333 380.828Z" fill="#263238"/>
<path d="M439.289 358.318L435.479 406.229H409.12L405.31 358.318H439.289Z" fill="#FFC727"/>
<path opacity="0.1" d="M439.289 358.318L435.479 406.229H409.12L405.31 358.318H439.289Z" fill="black"/>
<path d="M441.559 353.994H402.817V360.979H441.559V353.994Z" fill="#455A64"/>
<path d="M438.904 353.994H405.472L407.426 346.146H436.95L438.904 353.994Z" fill="#37474F"/>
<path d="M431.451 382.696C431.451 388.916 427.354 393.959 422.3 393.959C417.245 393.959 413.149 388.916 413.149 382.696C413.149 376.476 417.245 371.434 422.3 371.434C427.353 371.434 431.451 376.476 431.451 382.696Z" fill="white"/>
</svg>
