<svg width="1275" height="472" viewBox="0 0 1275 472" fill="none" xmlns="http://www.w3.org/2000/svg">
<rect width="1275" height="472" rx="18" fill="#2C3742"/>
<path d="M719.4 253V196.2H757.24V204.12H728.36V221.08H752.52V228.52H728.36V253H719.4ZM762.099 236.76V211.16H770.899V235C770.899 238.733 771.565 241.56 772.899 243.48C774.285 245.347 776.285 246.28 778.899 246.28C780.552 246.28 782.152 245.933 783.699 245.24C785.299 244.547 786.739 243.533 788.019 242.2C789.352 240.813 790.419 239.16 791.219 237.24V211.16H800.019V243.08C800.019 244.093 800.205 244.813 800.579 245.24C800.952 245.667 801.565 245.907 802.419 245.96V253C801.512 253.16 800.765 253.267 800.179 253.32C799.592 253.373 799.032 253.4 798.499 253.4C796.899 253.4 795.565 252.973 794.499 252.12C793.432 251.213 792.819 250.067 792.659 248.68L792.499 244.52C790.632 247.56 788.205 249.88 785.219 251.48C782.232 253.027 778.952 253.8 775.379 253.8C771.005 253.8 767.699 252.36 765.459 249.48C763.219 246.6 762.099 242.36 762.099 236.76ZM811.329 194.6H820.129V240.92C820.129 243.053 820.449 244.413 821.089 245C821.729 245.587 822.529 245.88 823.489 245.88C824.555 245.88 825.542 245.773 826.449 245.56C827.409 245.347 828.235 245.08 828.929 244.76L830.209 251.72C828.929 252.253 827.409 252.707 825.649 253.08C823.889 253.453 822.315 253.64 820.929 253.64C817.942 253.64 815.595 252.813 813.889 251.16C812.182 249.453 811.329 247.107 811.329 244.12V194.6ZM835.391 194.6H844.191V240.92C844.191 243.053 844.511 244.413 845.151 245C845.791 245.587 846.591 245.88 847.551 245.88C848.618 245.88 849.605 245.773 850.511 245.56C851.471 245.347 852.298 245.08 852.991 244.76L854.271 251.72C852.991 252.253 851.471 252.707 849.711 253.08C847.951 253.453 846.378 253.64 844.991 253.64C842.005 253.64 839.658 252.813 837.951 251.16C836.245 249.453 835.391 247.107 835.391 244.12V194.6ZM874.254 253.8C870.734 253.8 867.4 253.24 864.254 252.12C861.107 250.947 858.414 249.213 856.174 246.92L859.454 241C861.854 243.133 864.254 244.68 866.654 245.64C869.107 246.6 871.534 247.08 873.934 247.08C876.387 247.08 878.387 246.627 879.934 245.72C881.48 244.76 882.254 243.373 882.254 241.56C882.254 240.227 881.854 239.24 881.054 238.6C880.254 237.96 879.08 237.4 877.534 236.92C876.04 236.44 874.227 235.907 872.094 235.32C869.107 234.413 866.6 233.48 864.574 232.52C862.547 231.507 861.027 230.28 860.014 228.84C859 227.4 858.494 225.56 858.494 223.32C858.494 220.6 859.187 218.28 860.574 216.36C861.96 214.44 863.88 212.973 866.334 211.96C868.84 210.947 871.72 210.44 874.974 210.44C878.014 210.44 880.814 210.92 883.374 211.88C885.987 212.787 888.28 214.227 890.254 216.2L886.494 222.04C884.627 220.333 882.707 219.08 880.734 218.28C878.814 217.48 876.734 217.08 874.494 217.08C873.214 217.08 871.987 217.24 870.814 217.56C869.64 217.827 868.654 218.36 867.854 219.16C867.107 219.907 866.734 220.973 866.734 222.36C866.734 223.48 867.054 224.387 867.694 225.08C868.334 225.773 869.294 226.36 870.574 226.84C871.854 227.32 873.427 227.853 875.294 228.44C878.547 229.4 881.32 230.36 883.614 231.32C885.907 232.227 887.667 233.427 888.894 234.92C890.174 236.36 890.814 238.36 890.814 240.92C890.814 244.973 889.294 248.147 886.254 250.44C883.267 252.68 879.267 253.8 874.254 253.8ZM921.873 250.84C921.126 251.213 920.193 251.613 919.073 252.04C917.953 252.467 916.673 252.84 915.233 253.16C913.846 253.48 912.406 253.64 910.913 253.64C909.099 253.64 907.419 253.32 905.873 252.68C904.326 252.04 903.073 251.027 902.113 249.64C901.206 248.2 900.753 246.36 900.753 244.12V217.96H895.233V211.16H900.753V197.4H909.553V211.16H918.673V217.96H909.553V241.32C909.659 242.76 910.113 243.827 910.913 244.52C911.766 245.213 912.806 245.56 914.033 245.56C915.259 245.56 916.433 245.347 917.553 244.92C918.673 244.493 919.499 244.147 920.033 243.88L921.873 250.84ZM924.928 240.76C924.928 238.093 925.674 235.773 927.168 233.8C928.714 231.773 930.821 230.227 933.488 229.16C936.154 228.04 939.248 227.48 942.768 227.48C944.634 227.48 946.528 227.613 948.448 227.88C950.421 228.147 952.154 228.573 953.648 229.16V226.52C953.648 223.587 952.768 221.293 951.008 219.64C949.248 217.987 946.714 217.16 943.408 217.16C941.061 217.16 938.848 217.587 936.768 218.44C934.688 219.24 932.474 220.387 930.128 221.88L927.168 215.96C929.941 214.093 932.714 212.707 935.488 211.8C938.314 210.893 941.274 210.44 944.368 210.44C949.968 210.44 954.368 211.933 957.568 214.92C960.821 217.853 962.448 222.04 962.448 227.48V243.08C962.448 244.093 962.608 244.813 962.928 245.24C963.301 245.667 963.914 245.907 964.768 245.96V253C963.968 253.16 963.248 253.267 962.608 253.32C961.968 253.373 961.434 253.4 961.008 253.4C959.141 253.4 957.728 252.947 956.768 252.04C955.808 251.133 955.248 250.067 955.088 248.84L954.848 246.44C953.034 248.787 950.714 250.6 947.888 251.88C945.061 253.16 942.208 253.8 939.328 253.8C936.554 253.8 934.074 253.24 931.888 252.12C929.701 250.947 927.994 249.373 926.768 247.4C925.541 245.427 924.928 243.213 924.928 240.76ZM951.568 243.32C952.208 242.627 952.714 241.933 953.088 241.24C953.461 240.547 953.648 239.933 953.648 239.4V234.6C952.154 234.013 950.581 233.587 948.928 233.32C947.274 233 945.648 232.84 944.048 232.84C940.848 232.84 938.234 233.48 936.208 234.76C934.234 236.04 933.247 237.8 933.247 240.04C933.247 241.267 933.568 242.44 934.208 243.56C934.901 244.68 935.861 245.587 937.088 246.28C938.368 246.973 939.941 247.32 941.808 247.32C943.728 247.32 945.568 246.947 947.328 246.2C949.088 245.453 950.501 244.493 951.568 243.32ZM992.084 253.8C988.83 253.8 985.87 253.24 983.204 252.12C980.59 250.947 978.324 249.347 976.404 247.32C974.484 245.293 972.99 242.973 971.924 240.36C970.91 237.747 970.404 234.973 970.404 232.04C970.404 228.093 971.284 224.493 973.044 221.24C974.857 217.987 977.364 215.373 980.564 213.4C983.817 211.427 987.657 210.44 992.084 210.44C996.35 210.44 1000.06 211.4 1003.2 213.32C1006.4 215.187 1008.75 217.693 1010.24 220.84L1001.68 223.56C1000.72 221.8 999.364 220.44 997.604 219.48C995.897 218.467 994.004 217.96 991.924 217.96C989.577 217.96 987.444 218.573 985.524 219.8C983.657 220.973 982.164 222.627 981.044 224.76C979.977 226.84 979.444 229.267 979.444 232.04C979.444 234.707 980.004 237.133 981.124 239.32C982.244 241.453 983.737 243.16 985.604 244.44C987.524 245.667 989.657 246.28 992.004 246.28C993.444 246.28 994.83 246.04 996.164 245.56C997.55 245.027 998.75 244.333 999.764 243.48C1000.78 242.573 1001.5 241.587 1001.92 240.52L1010.56 243.08C1009.66 245.16 1008.3 247 1006.48 248.6C1004.72 250.2 1002.62 251.48 1000.16 252.44C997.764 253.347 995.07 253.8 992.084 253.8ZM1046.93 253L1033.49 233.72L1026.61 240.28V253H1017.81V194.6H1026.61V231.4L1045.97 211.24H1055.41L1039.17 228.76L1056.29 253H1046.93Z" fill="white"/>
<path d="M157.536 164.752C157.536 163.988 157.638 161.951 157.638 161.084C157.638 157.365 156.314 155.683 152.849 155.582C151.219 155.48 150.251 154.512 150.251 153.137C150.251 151.76 151.219 150.793 152.849 150.691C156.314 150.538 157.638 148.908 157.638 145.138C157.638 144.272 157.536 142.234 157.536 141.47C157.536 136.528 159.625 133.369 167.522 131.637C169.101 131.279 170.323 132.248 170.323 133.725C170.323 134.948 169.508 135.611 168.897 135.814C163.955 137.342 163.241 138.921 163.241 142.386C163.241 143.406 163.343 145.086 163.343 146.157C163.343 150.131 161.407 152.067 158.044 153.137C161.458 154.257 163.343 156.142 163.343 160.116C163.343 161.186 163.241 162.867 163.241 163.886C163.241 167.35 163.955 168.931 168.897 170.458C169.508 170.662 170.323 171.324 170.323 172.547C170.323 174.025 169.1 174.992 167.522 174.636C159.625 172.904 157.536 169.744 157.536 164.752Z" fill="#EBEBEB"/>
<path d="M187.39 141.47C187.39 142.234 187.289 144.272 187.289 145.138C187.289 148.908 188.664 150.538 192.129 150.691C193.709 150.792 194.677 151.76 194.677 153.137C194.677 154.512 193.709 155.48 192.129 155.582C188.664 155.683 187.289 157.365 187.289 161.084C187.289 161.95 187.39 163.988 187.39 164.752C187.39 169.745 185.302 172.904 177.405 174.636C175.826 174.992 174.604 174.025 174.604 172.547C174.604 171.324 175.419 170.661 176.081 170.458C180.972 168.93 181.685 167.35 181.685 163.886C181.685 162.867 181.584 161.186 181.584 160.116C181.584 156.142 183.52 154.206 186.882 153.137C183.468 152.015 181.584 150.131 181.584 146.157C181.584 145.086 181.685 143.406 181.685 142.386C181.685 138.922 180.972 137.342 176.081 135.814C175.418 135.61 174.604 134.948 174.604 133.725C174.604 132.248 175.826 131.279 177.405 131.637C185.302 133.369 187.39 136.528 187.39 141.47Z" fill="#EBEBEB"/>
<path d="M285.514 98.411C286.698 99.644 286.698 101.493 285.514 102.679C284.897 103.248 284.186 103.532 283.427 103.532C282.621 103.532 281.861 103.248 281.245 102.679L267.92 89.1632C267.778 89.1157 267.731 89.0206 267.683 88.8789C267.636 88.8314 267.54 88.7839 267.54 88.7839C267.446 88.6413 267.446 88.5471 267.397 88.4046C267.303 88.357 267.255 88.262 267.255 88.2145C267.208 88.1194 267.208 87.9768 267.161 87.9302C267.161 87.7876 267.066 87.7401 267.066 87.6926C267.066 87.55 267.066 87.4558 267.066 87.3608C267.066 87.2657 267.019 87.2182 267.019 87.0756C267.019 87.029 267.066 86.8864 267.066 86.8389C267.066 86.7438 267.066 86.6022 267.066 86.5071C267.066 86.412 267.161 86.3645 267.161 86.317C267.207 86.1744 267.207 86.0803 267.255 85.9377C267.255 85.8901 267.303 85.8902 267.303 85.8426C267.397 85.7 267.446 85.5108 267.539 85.4158C267.539 85.4158 267.539 85.3207 267.634 85.3207C267.681 85.2257 267.777 85.084 267.918 84.9889L281.244 71.4745C282.428 70.3366 284.372 70.3366 285.511 71.4745C286.696 72.66 286.696 74.5575 285.511 75.742L274.272 87.0756L285.514 98.411Z" fill="#EBEBEB"/>
<path d="M297.605 99.9291L309.223 72.2824C309.793 70.9553 311.31 70.3384 312.686 70.9069C313.966 71.4288 314.582 72.9935 314.013 74.274L302.395 101.968C301.969 102.964 300.973 103.533 299.976 103.533C299.692 103.533 299.313 103.486 299.029 103.344C297.654 102.822 297.037 101.257 297.605 99.9291Z" fill="#EBEBEB"/>
<path d="M336.964 88.783C336.964 88.783 336.964 88.8305 336.917 88.8305C336.822 88.9255 336.728 89.0672 336.586 89.1623L323.26 102.678C322.692 103.247 321.885 103.531 321.127 103.531C320.321 103.531 319.61 103.247 318.993 102.678C317.808 101.491 317.808 99.6431 318.993 98.4101L330.232 87.0756L318.993 75.742C317.808 74.5565 317.808 72.66 318.993 71.4745C320.131 70.3366 322.076 70.3366 323.26 71.4745L336.586 84.989C336.728 85.084 336.822 85.2266 336.917 85.3207C336.964 85.3207 336.964 85.4158 336.964 85.4158C337.059 85.6059 337.154 85.701 337.202 85.8426C337.202 85.8892 337.25 85.8892 337.25 85.9377C337.298 86.0803 337.298 86.1744 337.393 86.3645C337.393 86.412 337.439 86.412 337.439 86.5071C337.439 86.6022 337.439 86.7447 337.439 86.8389C337.439 86.8864 337.486 87.029 337.486 87.0756C337.486 87.1231 337.439 87.2657 337.439 87.3133C337.439 87.4558 337.439 87.55 337.439 87.6926C337.439 87.7401 337.393 87.7401 337.393 87.7876C337.298 87.9768 337.298 88.1194 337.25 88.2145C337.25 88.262 337.202 88.262 337.202 88.357C337.154 88.4503 337.059 88.5929 336.964 88.783Z" fill="#EBEBEB"/>
<path d="M470.12 276.231L482.327 275.976L488.341 275.874C490.34 275.831 492.329 275.84 494.324 275.824L493.916 276.231L493.867 266.004L494.323 266.46L482.221 266.402C478.188 266.398 474.153 266.3 470.12 266.252L470.369 266.003C470.352 267.676 470.291 269.36 470.25 271.063L470.12 276.231ZM470.12 276.231L469.99 271.172C469.949 269.465 469.888 267.739 469.87 266.004L469.868 265.757L470.12 265.754C474.153 265.708 478.188 265.609 482.221 265.604L494.323 265.547L494.781 265.545L494.78 266.004L494.73 276.231L494.728 276.642L494.323 276.638C492.283 276.622 490.238 276.631 488.203 276.588L482.115 276.486L470.12 276.231Z" fill="#EBEBEB"/>
<path d="M483.621 289.13L495.829 288.875L501.842 288.772C503.842 288.73 505.831 288.739 507.825 288.722L507.417 289.13L507.368 278.902L507.824 279.358L495.723 279.301C491.689 279.296 487.655 279.198 483.621 279.151L483.871 278.901C483.854 280.575 483.792 282.258 483.751 283.961L483.621 289.13ZM483.621 289.13L483.492 284.07C483.45 282.364 483.389 280.638 483.372 278.902L483.369 278.655L483.621 278.653C487.655 278.606 491.689 278.507 495.723 278.503L507.824 278.445L508.283 278.443L508.281 278.902L508.232 289.13L508.23 289.54L507.824 289.537C505.784 289.521 503.739 289.529 501.705 289.486L495.617 289.384L483.621 289.13Z" fill="#EBEBEB"/>
<path d="M456.619 289.13L468.826 288.875L474.84 288.772C476.839 288.73 478.828 288.739 480.823 288.722L480.415 289.13L480.366 278.902L480.822 279.358L468.72 279.301C464.687 279.296 460.652 279.198 456.619 279.151L456.868 278.901C456.851 280.575 456.79 282.258 456.749 283.961L456.619 289.13ZM456.619 289.13L456.489 284.07C456.448 282.364 456.387 280.638 456.369 278.902L456.367 278.655L456.619 278.653C460.652 278.606 464.687 278.507 468.72 278.503L480.822 278.445L481.281 278.443L481.279 278.902L481.229 289.13L481.228 289.54L480.822 289.537C478.782 289.521 476.737 289.529 474.702 289.486L468.614 289.384L456.619 289.13Z" fill="#EBEBEB"/>
<path d="M144.677 289.13L156.884 288.875L162.897 288.772C164.897 288.73 166.886 288.739 168.88 288.722L168.473 289.13L168.423 278.902L168.879 279.358L156.778 279.301C152.744 279.296 148.71 279.198 144.677 279.151L144.926 278.902C144.909 280.576 144.847 282.259 144.806 283.962L144.677 289.13ZM144.677 289.13L144.547 284.07C144.506 282.364 144.444 280.638 144.427 278.902L144.424 278.655L144.677 278.653C148.71 278.606 152.744 278.507 156.778 278.503L168.879 278.445L169.338 278.443L169.336 278.902L169.287 289.13L169.285 289.54L168.879 289.537C166.839 289.521 164.795 289.529 162.76 289.486L156.672 289.384L144.677 289.13Z" fill="#EBEBEB"/>
<path d="M144.677 59.5009L156.884 59.2459L162.897 59.1436C164.897 59.1006 166.886 59.1098 168.88 59.0933L168.473 59.5009L168.423 49.2733L168.879 49.7294L156.778 49.6718C152.744 49.6672 148.71 49.5694 144.677 49.5219L144.926 49.2733C144.909 50.9468 144.847 52.6304 144.806 54.3332L144.677 59.5009ZM144.677 59.5009L144.547 54.441C144.506 52.7346 144.444 51.009 144.427 49.2733L144.424 49.0265L144.677 49.0238C148.71 48.9771 152.744 48.8784 156.778 48.8739L168.879 48.8163L169.338 48.8145L169.336 49.2733L169.287 59.5009L169.285 59.9113L168.879 59.9077C166.839 59.8912 164.795 59.9004 162.76 59.8574L156.672 59.755L144.677 59.5009Z" fill="#EBEBEB"/>
<path d="M131.175 72.3974L143.382 72.1424L149.395 72.04C151.395 71.9971 153.384 72.0062 155.378 71.9898L154.971 72.3974L154.921 62.1698L155.378 62.6259L143.276 62.5683C139.243 62.5637 135.208 62.4659 131.175 62.4184L131.424 62.1689C131.407 63.8424 131.346 65.526 131.305 67.2288L131.175 72.3974ZM131.175 72.3974L131.045 67.3375C131.004 65.6311 130.943 63.9055 130.925 62.1698L130.923 61.923L131.175 61.9202C135.208 61.8736 139.243 61.7749 143.276 61.7703L155.378 61.7128L155.836 61.7109L155.835 62.1698L155.785 72.3974L155.783 72.8087L155.378 72.8051C153.338 72.7886 151.293 72.7978 149.258 72.7548L143.17 72.6524L131.175 72.3974Z" fill="#EBEBEB"/>
<path d="M483.621 59.5127L495.829 59.2577L501.842 59.1553C503.842 59.1123 505.831 59.1215 507.825 59.105L507.417 59.5127L507.368 49.285L507.824 49.7411L495.723 49.6835C491.689 49.6789 487.655 49.5802 483.621 49.5336L483.871 49.2841C483.854 50.9576 483.792 52.6412 483.751 54.344L483.621 59.5127ZM483.621 59.5127L483.492 54.4528C483.45 52.7463 483.389 51.0207 483.372 49.285L483.369 49.0382L483.621 49.0355C487.655 48.9889 491.689 48.8902 495.723 48.8856L507.824 48.828L508.283 48.8262L508.281 49.285L508.232 59.5127L508.23 59.9231L507.824 59.9203C505.784 59.9039 503.739 59.913 501.705 59.87L495.617 59.7677L483.621 59.5127Z" fill="#EBEBEB"/>
<path d="M352.599 128.112L340.391 128.367L334.378 128.469C332.378 128.512 330.39 128.503 328.395 128.519L328.803 128.112L328.852 138.339L328.396 137.883L340.497 137.941C344.531 137.945 348.565 138.044 352.599 138.091L352.349 138.34C352.367 136.667 352.428 134.983 352.469 133.28L352.599 128.112ZM352.599 128.112L352.729 133.171C352.77 134.878 352.831 136.604 352.848 138.339L352.851 138.586L352.599 138.589C348.565 138.635 344.531 138.734 340.497 138.739L328.396 138.796L327.937 138.798L327.939 138.339L327.988 128.112L327.99 127.701L328.396 127.704C330.436 127.72 332.481 127.711 334.515 127.754L340.603 127.857L352.599 128.112Z" fill="#EBEBEB"/>
<path d="M339.098 115.215L326.891 115.47L320.877 115.572C318.878 115.615 316.889 115.606 314.894 115.623L315.302 115.215L315.351 125.443L314.895 124.987L326.997 125.044C331.03 125.049 335.065 125.148 339.098 125.194L338.849 125.444C338.866 123.77 338.927 122.087 338.968 120.384L339.098 115.215ZM339.098 115.215L339.228 120.275C339.269 121.981 339.33 123.707 339.348 125.443L339.35 125.69L339.098 125.692C335.065 125.739 331.03 125.838 326.997 125.842L314.895 125.9L314.437 125.902L314.438 125.443L314.488 115.215L314.49 114.805L314.895 114.808C316.935 114.825 318.98 114.816 321.015 114.859L327.103 114.961L339.098 115.215Z" fill="#EBEBEB"/>
<path d="M478.101 143.393V7" stroke="#C7C7C7" stroke-miterlimit="10"/>
<path d="M440.261 179.868L443.305 186.558H512.906L515.941 179.868L486.309 159.357H469.893L440.261 179.868Z" fill="#EBEBEB"/>
<path d="M467.837 139.598L469.893 159.358H486.309L488.365 139.598H467.837Z" fill="#DBDBDB"/>
<path d="M440.264 179.873L443.308 186.564H512.909L515.943 179.873H440.264Z" fill="#DBDBDB"/>
<path d="M390.709 94.3876V7" stroke="#C7C7C7" stroke-miterlimit="10"/>
<path d="M352.869 130.862L355.913 137.552H425.514L428.548 130.862L398.917 110.352H382.501L352.869 130.862Z" fill="#EBEBEB"/>
<path d="M380.445 90.5918L382.501 110.352H398.917L400.973 90.5918H380.445Z" fill="#DBDBDB"/>
<path d="M352.872 130.865L355.915 137.556H425.517L428.551 130.865H352.872Z" fill="#DBDBDB"/>
<path d="M167.949 379.06V264.204L143.517 230.86V168.4" stroke="#EBEBEB" stroke-miterlimit="10"/>
<path d="M145.687 166.266C145.687 167.466 144.716 168.437 143.517 168.437C142.318 168.437 141.346 167.466 141.346 166.266C141.346 165.067 142.318 164.096 143.517 164.096C144.716 164.096 145.687 165.067 145.687 166.266Z" stroke="#EBEBEB" stroke-miterlimit="10"/>
<path d="M161.656 379.06V268.232L137.225 234.888V191.248" stroke="#EBEBEB" stroke-miterlimit="10"/>
<path d="M139.395 189.114C139.395 190.313 138.424 191.285 137.225 191.285C136.026 191.285 135.054 190.313 135.054 189.114C135.054 187.915 136.026 186.943 137.225 186.943C138.424 186.943 139.395 187.916 139.395 189.114Z" stroke="#EBEBEB" stroke-miterlimit="10"/>
<path d="M174.011 379.06V226.961" stroke="#EBEBEB" stroke-miterlimit="10"/>
<path d="M176.182 224.79C176.182 225.989 175.21 226.961 174.011 226.961C172.812 226.961 171.841 225.989 171.841 224.79C171.841 223.591 172.812 222.619 174.011 222.619C175.21 222.619 176.182 223.591 176.182 224.79Z" stroke="#EBEBEB" stroke-miterlimit="10"/>
<path d="M179.847 379.06V301.759L196.434 270.473V214.387" stroke="#EBEBEB" stroke-miterlimit="10"/>
<path d="M198.605 212.216C198.605 213.415 197.634 214.386 196.434 214.386C195.235 214.386 194.264 213.415 194.264 212.216C194.264 211.017 195.235 210.045 196.434 210.045C197.634 210.044 198.605 211.017 198.605 212.216Z" stroke="#EBEBEB" stroke-miterlimit="10"/>
<path d="M185.65 379.059V305.1L205.205 270.514V233.574" stroke="#EBEBEB" stroke-miterlimit="10"/>
<path d="M207.376 231.403C207.376 232.602 206.404 233.574 205.205 233.574C204.006 233.574 203.034 232.602 203.034 231.403C203.034 230.204 204.006 229.232 205.205 229.232C206.404 229.232 207.376 230.204 207.376 231.403Z" stroke="#EBEBEB" stroke-miterlimit="10"/>
<path d="M471.052 379.06V319.044L495.484 285.698V250.66" stroke="#EBEBEB" stroke-miterlimit="10"/>
<path d="M493.313 248.526C493.313 249.725 494.284 250.697 495.483 250.697C496.683 250.697 497.654 249.725 497.654 248.526C497.654 247.327 496.683 246.355 495.483 246.355C494.284 246.355 493.313 247.327 493.313 248.526Z" stroke="#EBEBEB" stroke-miterlimit="10"/>
<path d="M477.344 379.06V323.072L501.775 289.728V273.508" stroke="#EBEBEB" stroke-miterlimit="10"/>
<path d="M499.605 271.374C499.605 272.573 500.576 273.545 501.775 273.545C502.975 273.545 503.946 272.573 503.946 271.374C503.946 270.175 502.975 269.203 501.775 269.203C500.577 269.203 499.605 270.176 499.605 271.374Z" stroke="#EBEBEB" stroke-miterlimit="10"/>
<path d="M464.989 379.06V281.801" stroke="#EBEBEB" stroke-miterlimit="10"/>
<path d="M462.818 279.63C462.818 280.829 463.79 281.8 464.989 281.8C466.188 281.8 467.16 280.829 467.16 279.63C467.16 278.431 466.188 277.459 464.989 277.459C463.79 277.459 462.818 278.431 462.818 279.63Z" stroke="#EBEBEB" stroke-miterlimit="10"/>
<path d="M459.153 379.06V329.179L442.566 297.892V241.807" stroke="#EBEBEB" stroke-miterlimit="10"/>
<path d="M440.395 239.636C440.395 240.835 441.367 241.806 442.566 241.806C443.765 241.806 444.737 240.835 444.737 239.636C444.737 238.436 443.765 237.465 442.566 237.465C441.367 237.464 440.395 238.436 440.395 239.636Z" stroke="#EBEBEB" stroke-miterlimit="10"/>
<path d="M453.35 379.061V332.522L433.795 297.935V260.996" stroke="#EBEBEB" stroke-miterlimit="10"/>
<path d="M431.624 258.825C431.624 260.024 432.596 260.996 433.795 260.996C434.994 260.996 435.966 260.024 435.966 258.825C435.966 257.626 434.994 256.654 433.795 256.654C432.596 256.654 431.624 257.626 431.624 258.825Z" stroke="#EBEBEB" stroke-miterlimit="10"/>
<path d="M319.5 411.656C421.235 411.656 503.708 405.082 503.708 396.974C503.708 388.865 421.235 382.291 319.5 382.291C217.765 382.291 135.292 388.865 135.292 396.974C135.292 405.082 217.765 411.656 319.5 411.656Z" fill="#EBEBEB"/>
<path d="M140.765 379.207H251.469L229.396 250.809H146.615L140.765 379.207Z" fill="#DBDBDB"/>
<path d="M140.765 379.207H150.472L155.92 250.809H146.615L140.765 379.207Z" fill="#A6A6A6"/>
<path d="M128.237 379.21L176.053 378.987L223.868 378.907L319.5 378.754L415.132 378.906L462.947 378.986L510.763 379.21L462.947 379.433L415.132 379.513L319.5 379.665L223.868 379.513L176.053 379.432L128.237 379.21Z" fill="#263238"/>
<path d="M335.062 378.061H328.497V382.347H335.062V378.061Z" fill="#455A64"/>
<path d="M343.576 377.777H337.01V382.064H343.576V377.777Z" fill="#455A64"/>
<path d="M352.09 377.494H345.524V381.781H352.09V377.494Z" fill="#455A64"/>
<path d="M360.604 377.211H354.038V381.498H360.604V377.211Z" fill="#455A64"/>
<path d="M369.117 376.928H362.551V381.214H369.117V376.928Z" fill="#455A64"/>
<path d="M377.63 376.645H371.065V380.931H377.63V376.645Z" fill="#455A64"/>
<path d="M386.144 376.361H379.579V380.648H386.144V376.361Z" fill="#455A64"/>
<path d="M394.658 376.078H388.093V380.365H394.658V376.078Z" fill="#455A64"/>
<path d="M403.172 375.795H396.607V380.082H403.172V375.795Z" fill="#455A64"/>
<path d="M404.78 384.813H326.889V379.597L404.78 377.426V384.813Z" fill="#37474F"/>
<path d="M480.803 364.244H352.218L372.666 268.516H501.252L480.803 364.244Z" fill="#455A64"/>
<path d="M485.559 364.244H356.974L377.423 268.516H506.008L485.559 364.244Z" fill="#37474F"/>
<path d="M441.745 318.382C441.049 322.772 436.926 326.332 432.535 326.332C428.144 326.332 425.148 322.772 425.844 318.382C426.54 313.991 430.663 310.432 435.053 310.432C439.445 310.431 442.44 313.991 441.745 318.382Z" fill="#263238"/>
<path d="M425.606 286.756L422.508 301.288H419.702L422.8 286.756H425.606Z" fill="#263238"/>
<path d="M431.593 286.756L428.495 301.288H425.679L428.778 286.756H431.593Z" fill="#263238"/>
<path d="M437.57 286.756L434.472 301.288H431.666L434.764 286.756H437.57Z" fill="#263238"/>
<path d="M443.557 286.756L440.459 301.288H437.644L440.742 286.756H443.557Z" fill="#263238"/>
<path d="M449.535 286.756L446.436 301.288H443.63L446.729 286.756H449.535Z" fill="#263238"/>
<path d="M455.521 286.756L452.423 301.288H449.608L452.706 286.756H455.521Z" fill="#263238"/>
<path d="M447.364 389.246H384.123V384.335L447.364 382.289V389.246Z" fill="#455A64"/>
<path d="M464.559 389.238H430.604L410.154 335.598H444.109L464.559 389.238Z" fill="#455A64"/>
<path d="M470.147 389.238H436.192L415.743 335.598H449.698L470.147 389.238Z" fill="#263238"/>
<path d="M341.235 390.55C341.235 390.55 281.6 390.55 276.034 390.55C270.468 390.55 278.52 374.706 298.827 368.628C319.135 362.549 347.64 384.606 341.235 390.55Z" fill="#37474F"/>
<path d="M315.649 390.551C315.696 388.756 316.027 386.966 316.554 385.239C317.077 383.508 317.826 381.842 318.753 380.278C319.676 378.71 320.859 377.293 322.206 376.076C323.52 374.808 325.152 373.934 326.778 373.213C326.074 373.781 325.277 374.182 324.638 374.805L323.628 375.653L322.701 376.588C321.505 377.862 320.408 379.232 319.535 380.75C318.628 382.244 317.87 383.832 317.225 385.471C316.6 387.118 316.046 388.804 315.649 390.551Z" fill="#263238"/>
<path d="M323.375 375.475C325.311 376.078 327.174 376.889 328.993 377.786C330.814 378.684 332.568 379.723 334.235 380.9C335.888 382.089 337.472 383.418 338.778 385.013C339.423 385.815 340.009 386.67 340.464 387.595C340.89 388.53 341.212 389.531 341.236 390.549C341.007 389.561 340.611 388.639 340.071 387.809C339.556 386.965 338.933 386.193 338.251 385.477C336.876 384.055 335.334 382.79 333.705 381.644C332.09 380.475 330.379 379.434 328.659 378.401C327.797 377.887 326.922 377.395 326.036 376.917C325.163 376.413 324.267 375.954 323.375 375.475Z" fill="#263238"/>
<path d="M228.005 190.997C224.902 184.975 213.764 172.47 200.508 179.164C181.592 188.717 189.307 228.114 182.649 242.884C170.583 269.647 175.926 291.383 191.679 290.76C209.333 290.061 220.582 267.819 209.378 229.464C202.372 205.481 206.229 192.935 211.231 192.332C216.234 191.729 220.526 197.081 220.526 197.081L228.005 190.997Z" fill="#263238"/>
<path d="M226.674 188.779C224.879 186.086 222.747 183.609 220.329 181.402C217.903 179.216 215.08 177.365 211.883 176.322C208.71 175.239 205.132 175.165 201.888 176.185C198.683 177.183 195.691 178.927 193.293 181.323C190.908 183.732 189.202 186.716 188.059 189.821C186.933 192.945 186.257 196.18 185.87 199.427C185.177 205.933 185.475 212.447 186.231 218.866C186.182 212.401 186.372 205.939 187.283 199.617C187.827 196.476 188.515 193.362 189.675 190.44C190.804 187.518 192.4 184.78 194.59 182.608C196.741 180.409 199.48 178.801 202.412 177.829C205.312 176.823 208.484 176.84 211.467 177.68C214.455 178.528 217.259 180.115 219.759 182.086C221.038 183.041 222.223 184.124 223.383 185.236C224.517 186.375 225.614 187.557 226.674 188.779Z" fill="#263238"/>
<path d="M205.843 216.156C206.688 220.036 207.959 223.804 209.082 227.6C210.261 231.379 211.42 235.159 212.469 238.96C213.495 242.766 214.448 246.588 215.098 250.454C215.765 254.312 216.199 258.214 216.1 262.093C216.034 265.963 215.431 269.834 213.956 273.363C212.452 276.85 210.207 280.155 207.564 282.938C204.892 285.721 201.611 287.941 197.938 289.225C196.108 289.878 194.189 290.309 192.236 290.469C191.259 290.551 190.276 290.567 189.294 290.506C188.315 290.447 187.322 290.352 186.389 290.017C188.221 290.808 190.269 290.959 192.258 290.952C194.262 290.927 196.266 290.623 198.21 290.077C200.149 289.513 202.014 288.685 203.764 287.659C205.507 286.62 207.11 285.352 208.571 283.946C210.034 282.539 211.345 280.979 212.505 279.321L213.352 278.061L214.14 276.767C214.662 275.9 215.145 274.979 215.548 274.039C217.186 270.263 217.826 266.162 217.927 262.131C218.033 254.023 216.178 246.141 213.834 238.56C212.658 234.76 211.31 231.024 209.927 227.311C208.516 223.606 207.084 219.921 205.843 216.156Z" fill="#263238"/>
<path d="M229.182 190.788C228.913 188.948 227.178 186.822 225.934 186.703C224.69 186.584 216.566 191.905 216.209 194.291C215.851 196.679 220.109 197.982 220.109 197.982L229.182 190.788Z" fill="#FFC727"/>
<path d="M229.975 275.857C256.93 292.132 294.773 308.9 308.069 306.428C318.795 304.438 358.972 275.219 360.982 273.545C365.926 269.37 342.339 232.058 336.371 235.569C328.85 239.992 300.165 267.85 296.906 267.861C293.511 267.858 269.243 264.616 241.395 260.584C222.161 257.788 213.25 265.759 229.975 275.857Z" fill="#AD6359"/>
<path d="M343.121 222.929C349.558 219.64 356.676 215.355 364.201 214.496C371.725 213.638 379.276 222.716 379.654 225.553C380.032 228.39 379.557 246.464 372.051 247.463C364.546 248.463 367.267 234.265 366.776 232.745C366.285 231.225 365.736 229.27 364.34 229.606C362.943 229.941 339.727 244.997 339.727 244.997L343.121 222.929Z" fill="#AD6359"/>
<path d="M343.738 223.901C344.163 223.844 363.216 213.236 370.74 212.377C378.264 211.519 385.815 220.597 386.194 223.434C386.571 226.271 386.097 244.344 378.591 245.345C371.085 246.345 373.806 232.146 373.315 230.627C372.824 229.107 372.276 227.153 370.879 227.488C369.483 227.823 346.266 242.878 346.266 242.878L343.738 223.901Z" fill="#AD6359"/>
<path d="M375.917 244.734C374.833 243.671 374.437 241.907 374.077 240.466C373.684 238.893 373.6 237.25 373.711 235.638C373.807 234.235 374.21 232.798 374.072 231.389C373.945 230.085 373.269 228.605 372.497 227.56C371.777 226.585 370.723 227.091 369.82 227.552C368.489 228.23 367.221 229.107 365.985 229.94C364.645 230.842 363.325 231.775 362.001 232.699C360.64 233.65 359.191 234.556 357.962 235.675C357.87 235.758 357.96 235.928 358.081 235.867C359.332 235.237 360.484 234.404 361.661 233.648C362.997 232.79 364.339 231.941 365.692 231.109C366.956 230.332 368.18 229.487 369.457 228.733C369.908 228.466 370.796 227.827 371.356 227.876C371.947 227.928 372.417 229.298 372.605 229.739C373.198 231.124 373.095 232.378 372.885 233.83C372.683 235.226 372.58 236.637 372.656 238.047C372.727 239.347 372.953 240.719 373.49 241.916C374.005 243.066 374.948 243.925 375.709 244.906C375.818 245.043 376.039 244.853 375.917 244.734Z" fill="#263238"/>
<path d="M322.554 246.772C322.554 246.772 340.829 225.045 344.658 220.703C352.337 211.994 386.93 192.177 391.956 190.958C396.982 189.739 400.216 199.946 376.832 214.112C364.508 221.577 363.177 229.382 363.981 233.503C364.783 237.623 369.78 244.837 376.741 243.717C383.702 242.598 386.875 231.797 393.144 229.809C399.414 227.822 396.742 240.151 393.115 247.553C389.489 254.955 382.013 261.655 376.273 264.725C370.533 267.796 352.906 278.344 352.906 278.344L322.554 246.772Z" fill="#AD6359"/>
<path d="M384.756 237.65C382.398 240.039 379.767 243.075 376.323 243.666C372.762 244.278 370.127 242.263 368.077 239.569C366.01 236.851 364.59 233.627 364.956 230.152C365.285 227.022 366.735 224.102 368.699 221.679C371.129 218.68 374.16 216.289 377.325 214.119C377.467 214.022 377.303 213.82 377.155 213.912C374.132 215.777 364.678 221.203 363.855 230.301C363.518 234.018 365.031 237.092 367.112 239.886C369.03 242.461 371.642 244.843 375.065 244.666C379.237 244.45 382.344 240.621 384.974 237.721C385.09 237.591 384.879 237.525 384.756 237.65Z" fill="#263238"/>
<path d="M293.451 264.997L262.25 294.621C262.25 294.621 241.516 285.419 225.93 274.334C210.345 263.249 226.425 256.393 252.156 259.085C277.886 261.778 293.451 264.997 293.451 264.997Z" fill="#FFC727"/>
<path d="M254.807 291.087C254.67 291.024 254.533 290.95 254.396 290.886C254.396 290.822 254.387 290.768 254.387 290.704C254.186 288.208 253.875 285.677 252.915 283.382C252.431 282.249 251.718 281.189 250.703 280.522C250.201 280.183 249.616 279.992 249.021 279.873C248.427 279.781 247.797 279.818 247.175 279.809C244.671 279.882 242.212 280.476 239.845 281.28C239.196 281.509 238.547 281.756 237.907 282.021C237.788 281.947 237.67 281.884 237.551 281.81C238.273 281.509 238.995 281.225 239.726 280.96C242.121 280.138 244.616 279.535 247.166 279.443C247.797 279.452 248.427 279.416 249.085 279.516C249.725 279.635 250.356 279.845 250.904 280.211C252.01 280.933 252.76 282.066 253.262 283.236C254.259 285.603 254.579 288.163 254.78 290.667C254.789 290.804 254.798 290.95 254.807 291.087ZM276.167 262.086C276.122 262.214 276.076 262.333 276.03 262.461C274.888 265.505 273.453 268.567 270.967 270.705C269.705 271.72 268.188 272.433 266.579 272.606C264.971 272.798 263.335 272.405 261.872 271.711C258.92 270.303 256.498 268 254.195 265.687C251.955 263.412 249.835 261.017 247.623 258.714H247.614C247.559 258.704 247.504 258.695 247.449 258.695C249.67 261.044 251.809 263.476 254.076 265.806C256.37 268.137 258.783 270.459 261.781 271.921C263.262 272.625 264.943 273.036 266.607 272.844C268.261 272.661 269.824 271.93 271.131 270.897C273.672 268.704 275.116 265.605 276.286 262.562C276.341 262.415 276.396 262.278 276.441 262.132C276.35 262.114 276.259 262.095 276.167 262.086ZM259.688 293.436C261.315 294.204 262.247 294.616 262.247 294.616L262.293 294.579C261.434 294.186 260.556 293.811 259.688 293.436Z" fill="white"/>
<path d="M254.525 289.186C260.818 282.34 267.6 275.925 274.491 269.659C276.441 267.887 278.432 266.159 280.463 264.481C280.521 264.433 280.605 264.503 280.55 264.559C277.334 267.912 273.984 271.131 270.65 274.371C267.309 277.618 263.937 280.844 260.504 283.999C258.565 285.78 256.631 287.562 254.655 289.304C254.571 289.379 254.446 289.272 254.525 289.186Z" fill="#263238"/>
<path opacity="0.1" d="M275.217 282.304L262.247 294.616C262.247 294.616 241.518 285.421 225.934 274.334C219.591 269.819 218.494 266.008 221.154 263.266L275.217 282.304Z" fill="black"/>
<path d="M273.128 379.369H168.806C168.806 379.369 191.464 291.862 212.436 267.227C212.904 266.659 213.389 266.123 213.875 265.622C213.975 265.505 214.058 265.42 214.159 265.321C215.965 263.431 217.855 262.009 219.762 260.989C220.13 260.788 220.497 260.605 220.882 260.437C228.96 256.725 237.49 259.802 243.645 265.07C245.601 266.743 267.711 295.509 269.668 306.48C271.357 316.164 264.817 326.566 264.817 326.566L273.128 379.369Z" fill="#FFC727"/>
<path d="M249.16 322.817C244.734 323.312 240.294 323.958 235.983 325.103C233.839 325.673 231.735 326.338 229.635 327.05C228.587 327.405 227.535 327.724 226.476 328.038C225.388 328.361 224.221 328.663 223.082 328.709C222.98 328.713 222.984 328.866 223.086 328.868C224.195 328.889 225.255 328.906 226.36 328.779C227.409 328.658 228.452 328.424 229.476 328.163C231.656 327.606 233.81 326.948 235.984 326.368C240.371 325.199 244.757 324.032 249.219 323.183C249.425 323.145 249.371 322.795 249.16 322.817Z" fill="#263238"/>
<path d="M260.181 326.658C256.534 326.319 252.815 326.149 249.152 326.225C247.309 326.263 245.483 326.408 243.651 326.601C242.776 326.694 241.902 326.803 241.031 326.92C240.073 327.051 239.129 327.311 238.17 327.428C238.07 327.44 238.071 327.596 238.173 327.587C239.082 327.504 240.009 327.571 240.922 327.542C241.838 327.513 242.755 327.475 243.672 327.444C245.508 327.383 247.343 327.343 249.178 327.265C252.852 327.109 256.511 326.99 260.189 326.961C260.387 326.959 260.369 326.675 260.181 326.658Z" fill="#263238"/>
<g opacity="0.1">
<path d="M239.161 312.25C239.86 312.738 240.123 313.541 239.766 314.102C239.573 314.374 239.299 314.524 238.963 314.555C238.605 314.587 238.229 314.492 237.875 314.27L230.058 308.933C229.988 308.917 229.954 308.879 229.912 308.818C229.885 308.8 229.836 308.783 229.836 308.783C229.773 308.725 229.761 308.684 229.719 308.624C229.67 308.607 229.635 308.568 229.629 308.547C229.594 308.508 229.574 308.445 229.547 308.427C229.527 308.365 229.477 308.348 229.471 308.327C229.451 308.265 229.437 308.225 229.424 308.184C229.411 308.143 229.383 308.125 229.363 308.062C229.357 308.042 229.357 307.978 229.35 307.957C229.337 307.916 229.316 307.855 229.304 307.813C229.29 307.772 229.326 307.747 229.319 307.727C229.32 307.663 229.306 307.622 229.307 307.559C229.301 307.538 229.322 307.536 229.316 307.516C229.337 307.45 229.332 307.366 229.359 307.321C229.359 307.321 229.346 307.28 229.389 307.276C229.396 307.233 229.418 307.168 229.467 307.121L233.455 300.732C233.819 300.192 234.68 300.115 235.345 300.564C236.038 301.032 236.307 301.854 235.95 302.416L232.578 307.775L239.161 312.25Z" fill="black"/>
<path d="M244.732 312.432L245.961 299.98C246.025 299.381 246.609 299.054 247.3 299.247C247.94 299.423 248.435 300.078 248.364 300.655L247.142 313.129C247.095 313.577 246.734 313.863 246.292 313.903C246.166 313.914 245.992 313.908 245.846 313.858C245.164 313.685 244.668 313.031 244.732 312.432Z" fill="black"/>
<path d="M260.587 306.045C260.587 306.045 260.594 306.067 260.573 306.068C260.545 306.113 260.523 306.179 260.474 306.226L256.486 312.614C256.314 312.884 255.998 313.039 255.662 313.069C255.304 313.101 254.95 313.006 254.595 312.783C253.902 312.315 253.64 311.513 253.99 310.931L257.363 305.57L250.778 301.096C250.085 300.629 249.817 299.806 250.173 299.244C250.516 298.706 251.378 298.629 252.063 299.076L259.881 304.414C259.957 304.45 260.019 304.508 260.074 304.545C260.095 304.543 260.109 304.584 260.109 304.584C260.178 304.663 260.233 304.7 260.275 304.76C260.281 304.781 260.303 304.779 260.309 304.8C260.35 304.859 260.363 304.9 260.433 304.979C260.439 305 260.46 304.997 260.474 305.038C260.488 305.079 260.508 305.142 260.521 305.183C260.528 305.204 260.569 305.263 260.575 305.283C260.582 305.304 260.582 305.367 260.588 305.388C260.608 305.45 260.622 305.491 260.642 305.553C260.648 305.574 260.628 305.576 260.635 305.596C260.619 305.682 260.639 305.744 260.632 305.787C260.638 305.807 260.617 305.81 260.631 305.851C260.625 305.894 260.603 305.96 260.587 306.045Z" fill="black"/>
</g>
<path d="M267.046 340.72C266.899 340.811 266.753 340.884 266.598 340.957L265.729 341.36C265.437 341.488 265.126 341.57 264.825 341.679C264.23 341.917 263.582 341.99 262.96 342.127C261.68 342.246 260.383 342.283 259.13 341.881C258.5 341.679 257.942 341.332 257.421 340.939C256.928 340.51 256.48 340.034 256.132 339.486C255.401 338.416 254.944 337.21 254.588 335.985C253.902 333.536 253.646 330.995 253.5 328.472C253.482 328.033 253.464 327.595 253.454 327.156C253.445 326.992 253.436 326.827 253.436 326.662C253.308 322.211 253.528 317.769 253.765 313.336C254.039 308.3 254.405 303.273 254.515 298.237C254.56 296.025 254.57 293.804 254.442 291.601C254.442 291.501 254.432 291.4 254.423 291.3C254.414 291.099 254.405 290.907 254.387 290.706C254.186 288.21 253.875 285.679 252.915 283.385C252.431 282.251 251.718 281.191 250.703 280.524C250.201 280.186 249.616 279.994 249.022 279.875C248.427 279.783 247.797 279.82 247.175 279.811C244.671 279.884 242.212 280.478 239.845 281.282C238.245 281.849 236.683 282.516 235.147 283.247L234.791 283.412C231.911 284.801 229.133 286.41 226.382 288.046C222.049 290.623 217.79 293.329 213.312 295.669C211.785 296.455 210.241 297.204 208.659 297.862C208.595 297.89 208.54 297.917 208.476 297.945C207.791 298.228 207.096 298.493 206.393 298.74C204.007 299.581 201.512 300.166 198.971 300.248C197.572 300.275 196.174 300.092 194.84 299.699C194.867 299.635 194.885 299.581 194.913 299.526C196.229 299.891 197.6 300.065 198.971 300.029C201.475 299.928 203.952 299.352 206.31 298.502C206.996 298.255 207.681 297.99 208.358 297.716C208.422 297.689 208.486 297.661 208.55 297.634C210.131 296.967 211.675 296.226 213.193 295.431C217.644 293.091 221.894 290.377 226.226 287.781C228.904 286.191 231.619 284.609 234.434 283.229C234.553 283.174 234.663 283.11 234.781 283.056C236.39 282.279 238.035 281.575 239.726 280.962C242.121 280.14 244.616 279.537 247.166 279.445C247.797 279.454 248.427 279.418 249.086 279.518C249.725 279.637 250.356 279.847 250.904 280.213C252.01 280.935 252.76 282.068 253.262 283.238C254.259 285.606 254.579 288.165 254.78 290.669C254.798 290.934 254.816 291.199 254.825 291.464C254.844 291.565 254.844 291.656 254.844 291.757C254.972 293.923 254.972 296.089 254.935 298.246C254.835 303.301 254.487 308.328 254.213 313.364C253.985 317.605 253.765 321.846 253.847 326.078C253.847 326.242 253.847 326.407 253.857 326.571C253.875 327.202 253.893 327.823 253.921 328.454C254.058 330.958 254.304 333.472 254.972 335.876C255.319 337.073 255.758 338.252 256.452 339.267C256.791 339.787 257.211 340.235 257.668 340.638C258.152 341.003 258.664 341.332 259.249 341.515C260.401 341.899 261.69 341.871 262.905 341.762C263.508 341.625 264.13 341.561 264.715 341.332C265.007 341.222 265.3 341.14 265.592 341.021L266.433 340.638C266.616 340.546 266.799 340.455 266.982 340.354L267.046 340.72ZM269.587 306.097C267.548 308.108 265.656 310.274 263.856 312.477C260.309 316.855 257.083 321.471 253.847 326.078C253.71 326.269 253.573 326.461 253.436 326.662C253.034 327.238 252.623 327.805 252.221 328.381C249.972 331.552 247.696 334.733 245.283 337.786C245.219 337.868 245.155 337.96 245.082 338.042C243.492 340.043 241.847 341.99 240.092 343.846C237.852 346.231 235.43 348.461 232.734 350.308C232.067 350.783 231.39 351.231 230.678 351.624C229.983 352.063 229.243 352.41 228.521 352.785C227.086 353.534 225.44 353.836 223.868 353.498C222.305 353.141 220.898 352.273 219.691 351.185C218.485 350.116 217.425 348.854 216.465 347.538C214.555 344.897 212.964 342.018 211.493 339.093C208.559 333.225 206.064 327.147 203.486 321.114C200.881 315.091 198.285 309.031 195.022 303.31C194.703 302.752 194.373 302.204 194.035 301.655C193.971 301.811 193.907 301.975 193.843 302.131C194.127 302.588 194.401 303.054 194.666 303.52C197.902 309.214 200.479 315.265 203.066 321.297C205.661 327.321 208.166 333.399 211.118 339.276C212.608 342.21 214.207 345.098 216.145 347.776C217.123 349.101 218.192 350.381 219.435 351.478C220.669 352.584 222.132 353.497 223.795 353.863C225.449 354.22 227.213 353.891 228.676 353.114C229.416 352.739 230.166 352.382 230.86 351.944C231.582 351.532 232.268 351.085 232.944 350.609C235.659 348.726 238.09 346.478 240.348 344.083C242.084 342.228 243.729 340.281 245.302 338.289C245.375 338.206 245.439 338.115 245.503 338.033C247.934 334.952 250.21 331.753 252.467 328.554C252.796 328.088 253.125 327.622 253.454 327.156C253.582 326.964 253.719 326.772 253.857 326.571C257.165 321.855 260.437 317.12 264.066 312.642C265.821 310.485 267.658 308.364 269.651 306.39C269.632 306.299 269.614 306.198 269.587 306.097ZM219.499 372.116C215.423 366.979 211.42 361.751 207.005 356.888C202.59 352.053 197.7 347.438 191.714 344.586C190.206 343.937 188.643 343.37 187.025 343.069C186.221 342.868 185.398 342.813 184.575 342.703C183.753 342.676 182.93 342.593 182.108 342.657C181.203 342.676 180.307 342.758 179.411 342.895C179.393 342.95 179.375 343.005 179.356 343.06C180.27 342.913 181.194 342.84 182.117 342.822C182.93 342.767 183.744 342.849 184.566 342.877C185.371 342.996 186.193 343.05 186.979 343.261C188.588 343.562 190.133 344.138 191.622 344.787C197.545 347.63 202.417 352.236 206.804 357.062C211.209 361.925 215.194 367.153 219.262 372.298C221.145 374.675 223.046 377.051 225.011 379.373H225.431C223.402 376.996 221.446 374.556 219.499 372.116ZM269.623 357.126C268.992 358.808 268.38 360.48 267.759 362.162C265.665 367.93 263.646 373.724 261.26 379.373H261.717C264.084 373.77 266.095 368.03 268.188 362.318C268.709 360.892 269.239 359.457 269.769 358.031L269.623 357.126ZM260.09 366.303C260.008 365.827 259.935 365.343 259.834 364.859L259.505 363.433C259.313 362.482 259.012 361.55 258.746 360.608C257.641 356.861 256.004 353.287 254.076 349.905C251.645 345.646 248.692 341.734 245.503 338.033C245.42 337.95 245.347 337.868 245.283 337.786C243.446 335.675 241.536 333.645 239.598 331.644C234.151 326.078 228.411 320.822 222.927 315.311C220.194 312.55 217.516 309.735 214.975 306.792C214.335 306.061 213.705 305.321 213.092 304.571C212.471 303.822 211.867 303.063 211.301 302.277C210.295 300.888 209.4 299.407 208.659 297.862C208.614 297.789 208.577 297.716 208.55 297.634C208.476 297.515 208.422 297.387 208.367 297.268C206.758 293.749 205.908 289.883 205.862 285.999C205.798 282.123 206.466 278.248 207.617 274.537C207.754 274.089 207.91 273.632 208.065 273.193C207.992 273.303 207.928 273.413 207.855 273.523C207.736 273.852 207.626 274.181 207.526 274.51C206.356 278.22 205.661 282.105 205.707 285.999C205.744 289.901 206.575 293.795 208.184 297.351C208.239 297.478 208.294 297.597 208.358 297.716C208.385 297.798 208.422 297.871 208.476 297.945C209.217 299.508 210.113 300.997 211.118 302.414C211.685 303.209 212.297 303.968 212.919 304.717C213.531 305.467 214.152 306.216 214.792 306.948C217.333 309.9 220.011 312.724 222.744 315.493C228.228 321.014 233.959 326.288 239.379 331.845C241.335 333.856 243.254 335.921 245.082 338.042C245.164 338.124 245.228 338.206 245.302 338.289C248.473 341.972 251.389 345.856 253.783 350.07C255.694 353.443 257.312 356.989 258.408 360.709C258.664 361.65 258.957 362.574 259.149 363.515L259.478 364.932C259.569 365.407 259.642 365.891 259.734 366.367C260.108 368.268 260.236 370.196 260.054 372.116C259.843 374.657 259.057 377.097 257.915 379.373H258.353C259.459 377.115 260.227 374.684 260.428 372.152C260.611 370.196 260.474 368.213 260.09 366.303ZM265.245 295.961C265.081 295.879 264.907 295.797 264.742 295.714C261.488 294.161 258.171 292.781 254.825 291.464C254.688 291.41 254.56 291.355 254.423 291.3C251.526 290.157 248.61 289.051 245.722 287.909C242.541 286.638 239.379 285.331 236.308 283.832C235.924 283.641 235.531 283.449 235.147 283.247C235.028 283.193 234.909 283.129 234.781 283.056C232.25 281.749 229.8 280.286 227.57 278.522C224.883 276.438 222.525 273.87 220.953 270.854C220.167 269.355 219.563 267.746 219.234 266.092C218.924 264.565 218.86 262.993 218.978 261.439C218.85 261.513 218.722 261.586 218.594 261.677C218.512 263.167 218.576 264.684 218.878 266.156C219.225 267.856 219.847 269.483 220.651 271.018C222.25 274.08 224.654 276.676 227.369 278.778C229.572 280.496 231.966 281.94 234.434 283.229C234.553 283.293 234.672 283.357 234.791 283.412C235.248 283.65 235.705 283.878 236.171 284.107C239.26 285.615 242.432 286.913 245.612 288.174C248.546 289.335 251.508 290.441 254.442 291.601C254.579 291.647 254.707 291.702 254.844 291.757C258.152 293.055 261.425 294.407 264.633 295.943C264.907 296.071 265.181 296.208 265.455 296.336C265.382 296.217 265.309 296.089 265.245 295.961Z" fill="white"/>
<path d="M208.635 269.47C190.557 288.097 147.049 358.467 160.454 371.857C173.955 385.343 248.694 376.864 269.327 372.909C276.218 371.589 259.663 326.178 252.236 325.113C246.053 324.225 209.526 331.306 208.263 329.702C207.241 328.402 214.582 311.385 222.738 284.004C232.141 252.43 216.619 261.242 208.635 269.47Z" fill="#AD6359"/>
<path d="M287.636 319.039C303.182 319.24 307.141 321.678 320.351 314.88C329.019 310.42 335.587 314.04 329.764 322.34C320.24 335.916 300.131 339.868 292.764 339.231L287.636 319.039Z" fill="#AD6359"/>
<path d="M244.97 327.527C244.97 327.527 263.521 320.638 280.108 319.213C291.579 318.227 316.773 318.866 336.702 346.859C341.43 353.499 343.457 366.312 331.798 358.272C323.516 352.561 319.99 346.437 314.567 343.992C314.567 343.992 315.212 360.597 308.375 365.073C305.32 367.073 296.853 372.338 289.676 375.497C289.676 375.497 288.568 374.118 287.412 372.173C287.412 372.173 280.631 375.751 269.326 372.909L244.97 327.527Z" fill="#AD6359"/>
<path d="M291.206 320.02C296.075 323.584 306.267 331.312 312.406 340.533C319.225 350.776 329.599 372.344 321.986 377.3C316.404 380.934 311.719 373.047 311.719 373.047C311.719 373.047 314.129 382.865 308.368 385.045C303.118 387.031 299.86 380.713 299.86 380.713C299.86 380.713 300.297 386.921 294.872 387.859C288.347 388.989 288.502 375.795 280.904 371.228C279.198 370.203 291.206 320.02 291.206 320.02Z" fill="#AD6359"/>
<path d="M300.382 345.932C304.411 350.034 311.171 361.701 311.838 372.819C311.853 373.071 311.671 373.217 311.609 372.99C308.274 360.906 302.854 350.342 300.286 345.995C300.251 345.938 300.336 345.886 300.382 345.932Z" fill="#263238"/>
<path d="M290.243 353.115C293.356 357.012 299.786 369.347 300.075 380.637C300.081 380.889 299.888 381.024 299.835 380.794C296.872 368.024 292.447 357.664 290.142 353.172C290.111 353.113 290.203 353.064 290.243 353.115Z" fill="#263238"/>
<path d="M314.586 343.893C319.324 346.11 322.18 349.036 325.923 352.581C327.774 354.335 329.659 356.064 331.696 357.602C333.551 359.004 336.278 361.11 338.692 359.727C340.036 358.957 340.283 357.22 340.224 355.814C340.159 354.233 339.797 352.668 339.081 351.255C339.044 351.183 339.168 351.118 339.206 351.189C339.873 352.45 340.413 353.766 340.698 355.169C340.957 356.438 341.09 357.888 340.556 359.109C339.41 361.734 336.129 361.601 333.959 360.5C332.662 359.841 331.479 358.918 330.344 358.015C329.246 357.142 328.191 356.216 327.161 355.264C325.046 353.312 323.045 351.239 320.953 349.262C318.655 347.091 317.012 345.949 314.487 344.048C314.401 343.984 314.492 343.85 314.586 343.893Z" fill="#263238"/>
<path d="M322.313 362.93C321.461 359.906 316.306 347.065 314.467 343.996C314.42 343.917 314.527 343.841 314.584 343.914C317.892 348.169 322.621 358.851 323.593 362.192C324.554 365.492 325.602 369.683 325.078 373.119C324.289 378.302 320.701 378.76 319.391 378.819C317.828 378.89 316.345 378.338 315.091 377.424C313.694 376.408 312.476 374.554 311.665 373.057C311.622 372.979 311.731 372.896 311.782 372.975C313.267 375.29 315.944 377.761 318.816 377.82C320.063 377.846 321.385 377.478 322.286 376.58C323.344 375.523 323.653 373.969 323.75 372.532C323.971 369.279 323.188 366.037 322.313 362.93Z" fill="#263238"/>
<path d="M300.074 380.64C300.701 381.367 301.861 383.743 304.152 384.562C305.827 385.162 307.659 385.274 309.178 384.218C310.665 383.184 311.417 381.518 311.763 379.789C311.958 378.811 311.821 374.436 311.672 373.1C311.661 372.995 311.794 372.968 311.81 373.069C312.211 375.47 312.638 378.083 312.298 380.323C312.014 382.188 311.119 384.099 309.525 385.188C307.876 386.315 305.685 386.467 303.929 385.487C303.059 385 300.427 382.687 299.861 380.713C299.847 380.67 300.046 380.608 300.074 380.64Z" fill="#263238"/>
<path d="M281.536 370.374C282.277 370.979 282.872 371.806 283.451 372.562C284.072 373.373 284.663 374.209 285.235 375.054C286.378 376.746 287.305 378.624 288.072 380.513C288.851 382.431 289.516 384.537 291.037 386.021C292.527 387.473 294.796 388.013 296.688 387.026C297.676 386.511 298.414 385.681 298.862 384.668C299.323 383.625 299.723 382.329 299.731 381.183C299.732 381.079 299.88 381.084 299.873 381.188C299.791 382.293 299.933 383.352 299.638 384.439C299.377 385.396 298.914 386.311 298.206 387.014C296.756 388.455 294.517 388.843 292.612 388.184C290.508 387.456 289.168 385.585 288.26 383.647C287.25 381.487 286.491 379.232 285.383 377.114C284.8 375.999 284.231 374.877 283.57 373.807C282.882 372.693 282.01 371.656 281.394 370.504C281.345 370.411 281.445 370.3 281.536 370.374Z" fill="#263238"/>
<path d="M274.797 373.871C276.447 373.978 280.298 373.925 283.409 373.413C283.499 373.398 283.584 373.66 283.498 373.692C282.3 374.134 279.894 374.388 279.175 374.424C277.739 374.495 276.195 374.389 274.796 374.027C274.717 374.006 274.701 373.864 274.797 373.871Z" fill="#263238"/>
<path d="M170.874 345.307C175.351 342.373 180.115 339.868 184.965 337.613C189.77 335.38 194.792 333.673 199.866 332.17C202.766 331.311 205.695 330.596 208.626 329.86C208.716 329.837 208.746 329.974 208.658 329.999C203.542 331.427 198.527 333.311 193.612 335.318C188.717 337.318 183.866 339.402 179.048 341.58C176.323 342.812 173.657 344.173 170.975 345.497C170.849 345.559 170.761 345.382 170.874 345.307Z" fill="#263238"/>
<path d="M171.493 313.508L214.513 312.917C214.513 312.917 222.926 291.85 226.338 273.032C229.75 254.212 214.175 259.676 197.641 279.574C181.108 299.473 171.493 313.508 171.493 313.508Z" fill="#FFC727"/>
<path d="M222.186 290.23C222.15 290.367 222.113 290.504 222.068 290.641C219.188 292.387 216.3 294.105 213.311 295.668C211.785 296.454 210.24 297.204 208.659 297.862C208.595 297.889 208.54 297.916 208.476 297.944C207.791 298.227 207.096 298.492 206.392 298.739C204.007 299.58 201.512 300.165 198.971 300.247C196.521 300.302 194.053 299.69 191.915 298.483C191.842 298.447 191.768 298.41 191.695 298.364C191.458 298.227 191.229 298.09 191.001 297.944C189.209 296.783 187.665 295.257 186.348 293.575C186.367 293.548 186.394 293.511 186.412 293.484C187.637 295.019 189.045 296.417 190.662 297.514C190.992 297.752 191.33 297.962 191.677 298.154C191.714 298.181 191.741 298.2 191.778 298.218C193.953 299.47 196.466 300.092 198.971 300.028C201.475 299.927 203.952 299.351 206.31 298.501C206.996 298.255 207.681 297.99 208.358 297.715C208.421 297.688 208.485 297.661 208.549 297.633C210.131 296.966 211.675 296.226 213.193 295.43C216.254 293.822 219.225 292.03 222.186 290.23ZM195.022 303.309C194.072 301.655 193.057 300.028 191.915 298.483C191.842 298.373 191.759 298.264 191.677 298.154C190.918 297.158 190.114 296.207 189.237 295.312C188.451 294.516 187.591 293.776 186.65 293.182C186.577 293.282 186.495 293.383 186.412 293.484C187.336 294.078 188.186 294.809 188.953 295.595C189.557 296.207 190.123 296.847 190.662 297.514C190.772 297.651 190.891 297.798 191.001 297.944C192.372 299.69 193.56 301.591 194.666 303.519C196.439 306.636 198.011 309.853 199.492 313.125L199.967 313.116C198.45 309.78 196.841 306.49 195.022 303.309ZM214.975 306.791C214.335 306.06 213.704 305.32 213.092 304.57C212.471 303.821 211.867 303.062 211.301 302.276C210.295 300.887 209.399 299.406 208.659 297.862C208.613 297.788 208.577 297.715 208.549 297.633C208.476 297.514 208.421 297.386 208.367 297.267C206.758 293.749 205.908 289.882 205.862 285.998C205.798 282.123 206.466 278.247 207.617 274.536C208.485 271.758 209.61 269.061 210.926 266.466C210.889 266.484 210.853 266.511 210.816 266.548C209.509 269.107 208.394 271.767 207.526 274.509C206.356 278.22 205.661 282.104 205.707 285.998C205.743 289.901 206.575 293.794 208.184 297.35C208.239 297.478 208.294 297.597 208.358 297.715C208.385 297.798 208.421 297.871 208.476 297.944C209.217 299.507 210.112 300.997 211.118 302.413C211.684 303.208 212.297 303.967 212.918 304.717C213.531 305.466 214.152 306.216 214.792 306.947C215.249 307.477 215.706 307.998 216.172 308.519C216.209 308.437 216.236 308.354 216.273 308.263C215.834 307.778 215.404 307.285 214.975 306.791ZM220.952 270.853C220.166 269.354 219.563 267.745 219.234 266.091C218.96 264.729 218.878 263.331 218.942 261.941C218.823 261.978 218.704 262.015 218.576 262.069C218.521 263.431 218.603 264.811 218.878 266.155C219.225 267.855 219.847 269.482 220.651 271.017C221.876 273.357 223.557 275.423 225.504 277.205C225.532 277.086 225.559 276.958 225.586 276.83C223.731 275.103 222.122 273.101 220.952 270.853Z" fill="white"/>
<path d="M212.747 312.737C212.979 312.74 214.497 312.505 214.503 312.505C214.622 311.943 217.246 303.121 217.928 301.203C219.317 297.297 220.937 293.46 222.501 289.62C222.55 289.498 222.738 289.555 222.698 289.684C221.663 292.993 220.688 296.326 219.628 299.627C219.938 299.162 220.243 298.694 220.536 298.219C221.138 297.245 221.666 296.232 222.229 295.236C222.279 295.147 222.42 295.216 222.389 295.311C221.937 296.701 221.211 298.01 220.418 299.23C220.076 299.755 219.68 300.251 219.271 300.727C219.18 301.001 219.095 301.277 219.003 301.55C218.356 303.48 215.02 313.021 214.86 313.027C214.82 313.029 213.267 313.033 212.785 313.028C212.666 313.027 212.629 312.736 212.747 312.737Z" fill="#263238"/>
<path d="M178.613 305.318C187.899 304.806 197.233 304.941 206.54 305.26C209.174 305.35 211.806 305.502 214.432 305.717C214.506 305.723 214.518 305.831 214.439 305.834C209.797 305.992 205.15 305.961 200.502 305.956C195.842 305.952 191.175 305.91 186.516 305.774C183.884 305.699 181.255 305.625 178.624 305.494C178.512 305.489 178.497 305.325 178.613 305.318Z" fill="#263238"/>
<path d="M224.581 261.324C224.898 263.17 232.883 275.501 241.225 275.606C243.942 275.635 244.764 260.813 244.764 260.813L245.076 259.732L249.416 244.606L232.096 231.981L229.584 230.297C229.584 230.297 228.67 234.513 227.584 239.775C227.532 240.019 227.48 240.263 227.428 240.525C227.359 240.821 227.29 241.099 227.238 241.378C227.065 242.162 226.893 242.963 226.737 243.766C226.617 244.375 226.496 244.967 226.393 245.612C226.272 246.256 226.169 246.884 226.048 247.528C225.002 253.905 224.458 260.541 224.581 261.324Z" fill="#AD6359"/>
<path d="M227.585 239.775C231.251 252.237 240.701 257.79 245.077 259.732L249.417 244.606L232.097 231.981L229.585 230.297C229.585 230.297 228.671 234.514 227.585 239.775Z" fill="#263238"/>
<path d="M268.669 214.347C276.468 240.84 261.48 248.503 255.766 250.177C250.578 251.698 232.72 256.218 222.226 230.673C211.731 205.127 221.584 193.126 233.264 189.02C244.946 184.914 260.87 187.854 268.669 214.347Z" fill="#AD6359"/>
<path d="M263.585 210.874C262.94 210.971 262.328 210.953 261.68 210.982C260.949 211.016 260.371 211.117 259.717 210.721C259.367 210.509 259.231 209.923 259.405 209.563C259.811 208.725 260.696 208.463 261.575 208.386C262.529 208.304 263.284 208.485 264.074 209.021C264.84 209.542 264.436 210.747 263.585 210.874Z" fill="#263238"/>
<path d="M245.741 215.854C246.347 215.612 246.865 215.287 247.44 214.987C248.088 214.647 248.639 214.443 249.004 213.772C249.199 213.412 249.021 212.837 248.689 212.615C247.916 212.096 247.019 212.315 246.222 212.693C245.357 213.102 244.795 213.639 244.384 214.501C243.986 215.336 244.942 216.173 245.741 215.854Z" fill="#263238"/>
<path d="M250.648 221.361C250.614 221.296 250.532 221.488 250.557 221.561C251.147 223.347 251.523 225.492 250.069 226.573C250.024 226.607 250.056 226.696 250.114 226.669C252.021 225.8 251.494 222.958 250.648 221.361Z" fill="#263238"/>
<path d="M248.481 219.954C245.516 220.592 247.01 226.476 249.757 225.885C252.46 225.304 250.967 219.42 248.481 219.954Z" fill="#263238"/>
<path d="M247.405 220.557C246.975 221.021 246.621 221.736 246.017 221.955C245.318 222.208 244.621 221.729 244.002 221.256C243.937 221.206 243.899 221.27 243.919 221.349C244.188 222.48 244.915 223.527 246.166 223.388C247.308 223.262 247.846 222.063 247.84 220.858C247.839 220.635 247.577 220.371 247.405 220.557Z" fill="#263238"/>
<path d="M261.318 218.206C261.315 218.133 261.482 218.257 261.498 218.333C261.888 220.173 262.646 222.216 264.446 222.416C264.502 222.422 264.519 222.514 264.456 222.521C262.371 222.733 261.393 220.012 261.318 218.206Z" fill="#263238"/>
<path d="M262.48 215.898C265.363 214.954 267.039 220.788 264.369 221.663C261.741 222.524 260.064 216.689 262.48 215.898Z" fill="#263238"/>
<path d="M263.807 215.933C264.357 216.109 264.974 216.54 265.535 216.418C266.185 216.276 266.475 215.51 266.709 214.787C266.734 214.712 266.793 214.748 266.818 214.825C267.169 215.931 267.134 217.199 266.124 217.72C265.203 218.197 264.211 217.446 263.626 216.412C263.518 216.222 263.585 215.862 263.807 215.933Z" fill="#263238"/>
<path d="M254.655 236.769C255.185 237.109 255.748 237.612 256.428 237.531C257.08 237.452 257.771 237.008 258.312 236.66C258.365 236.625 258.437 236.675 258.411 236.738C258.078 237.543 257.163 238.193 256.279 238.219C255.416 238.245 254.855 237.61 254.496 236.888C254.445 236.788 254.579 236.719 254.655 236.769Z" fill="#263238"/>
<path d="M260.719 227.586C260.719 227.586 261.817 230.2 262.158 231.479C262.19 231.599 257.779 233.803 254.902 231.196C254.784 231.089 254.908 230.919 255.046 230.968C257.063 231.757 259.013 231.58 261.027 231.08C261.022 230.702 258.997 226.666 259.196 226.597C259.88 226.35 261.385 226.459 262.278 226.481C260.15 220.969 257.154 215.845 255.116 210.325C255.047 210.127 255.321 209.989 255.429 210.153C258.949 215.303 261.537 221.591 263.882 227.226C264.18 227.926 261.289 227.667 260.719 227.586Z" fill="#263238"/>
<path d="M260.681 231.518C260.681 231.518 260.104 233.364 258.798 234.412C258.318 234.8 257.753 235.083 257.076 235.133C255.687 235.241 255.249 234.084 255.135 233.004C255.039 232.116 255.174 231.275 255.174 231.275C255.174 231.275 257.637 232.369 260.681 231.518Z" fill="#263238"/>
<path d="M258.798 234.412C258.318 234.8 257.753 235.083 257.077 235.133C255.687 235.241 255.25 234.084 255.135 233.004C256.548 232.67 258.221 233.126 258.798 234.412Z" fill="#FF99BA"/>
<path d="M223.556 234.019C229.067 230.106 228.206 223.756 228.206 223.756C235.11 219.222 238.114 212.679 238.427 212.015C238.344 212.609 237.751 216.897 237.38 219.074C254.082 212.758 257.068 198.582 257.068 198.582C263.669 203.174 265.428 206.551 266.558 208.191C266.558 208.191 264.79 197.567 258.072 191.442C249.85 183.942 241.042 187.218 241.042 187.218C241.042 187.218 226.905 185.618 218.504 198.817C209.464 213.048 223.556 234.019 223.556 234.019Z" fill="#263238"/>
<path d="M250.002 213.867C247.527 215.908 244.652 217.5 241.72 218.705C241.696 218.715 241.683 218.678 241.706 218.666C246.328 216.419 250.243 213.086 253.019 208.733C254.193 206.893 255.134 204.929 255.818 202.856C256.532 200.689 257.151 198.149 256.938 195.858C256.922 195.685 257.193 195.659 257.209 195.834C257.435 198.255 257.619 200.492 257.054 202.887C256.517 205.162 255.556 207.362 254.237 209.293C253.058 211.018 251.614 212.537 250.002 213.867Z" fill="#263238"/>
<path d="M249.212 231.026C245.637 231.587 241.989 229.684 240.499 226.209C238.738 222.098 240.648 217.321 244.759 215.559C248.87 213.796 253.645 215.707 255.408 219.817C257.168 223.927 255.259 228.705 251.148 230.467C250.514 230.739 249.864 230.923 249.212 231.026ZM246.864 216.071C246.299 216.159 245.735 216.319 245.185 216.554C241.624 218.08 239.97 222.219 241.495 225.78C243.022 229.339 247.162 230.998 250.72 229.469C254.281 227.943 255.935 223.804 254.41 220.243C253.12 217.233 249.962 215.584 246.864 216.071Z" fill="#FFC727"/>
<path d="M267.11 225.921C264.044 226.402 260.77 223.698 259.63 219.624C259.055 217.567 259.099 215.463 259.755 213.702C260.43 211.878 261.677 210.631 263.262 210.187C264.852 209.74 266.559 210.165 268.084 211.373C269.557 212.541 270.685 214.317 271.259 216.372C272.462 220.679 270.833 224.912 267.629 225.809C267.457 225.855 267.284 225.894 267.11 225.921ZM263.957 211.144C263.822 211.165 263.688 211.195 263.555 211.232C262.313 211.579 261.324 212.59 260.77 214.079C260.195 215.628 260.161 217.494 260.673 219.332C261.717 223.063 264.698 225.505 267.336 224.765C269.967 224.03 271.257 220.396 270.216 216.666C269.703 214.829 268.705 213.251 267.41 212.224C266.299 211.341 265.088 210.966 263.957 211.144Z" fill="#FFC727"/>
<path d="M255.398 220.793L254.504 220.18C255.41 218.855 257.776 216.751 260.254 218.259L259.69 219.185C257.471 217.831 255.483 220.673 255.398 220.793Z" fill="#FFC727"/>
<path d="M221.158 232.53L220.097 232.31C220.2 231.815 221.166 227.443 223.391 226.413C225.474 225.456 239.838 222.855 240.447 222.746L240.639 223.813C236.521 224.554 225.453 226.653 223.847 227.397C222.377 228.078 221.409 231.334 221.158 232.53Z" fill="#FFC727"/>
<path d="M227.16 229.589C227.16 229.589 219.542 222.335 216.135 225.218C212.728 228.101 219.649 239.449 224.49 240.213C229.329 240.977 230.125 236.512 230.125 236.512L227.16 229.589Z" fill="#AD6359"/>
<path d="M218.201 228.421C218.127 228.43 218.133 228.534 218.201 228.547C221.615 229.186 223.869 231.776 225.647 234.574C224.472 233.596 223.065 233.215 221.726 234.649C221.656 234.724 221.761 234.838 221.846 234.801C223.082 234.262 224.06 234.297 225.143 235.157C225.91 235.764 226.521 236.606 227.135 237.363C227.34 237.615 227.819 237.361 227.645 237.058C227.632 237.036 227.618 237.013 227.605 236.99C226.87 232.949 222.602 227.952 218.201 228.421Z" fill="#263238"/>
<path d="M221.154 263.268C222.249 264.668 223.373 266.041 224.562 267.356C225.731 268.686 226.944 269.975 228.22 271.194C230.765 273.609 233.502 275.936 236.699 277.276C238.275 277.949 239.99 278.347 241.656 278.105C242.519 277.992 243.214 277.735 243.748 277.097C244.284 276.498 244.656 275.714 244.954 274.914C245.53 273.287 245.779 271.525 245.906 269.771C246.047 268.012 246.07 266.234 245.876 264.469C246.278 266.208 246.345 268.005 246.357 269.791C246.314 271.578 246.151 273.38 245.624 275.138C245.354 276.01 244.986 276.888 244.34 277.623C244.023 277.988 243.637 278.323 243.174 278.538C242.697 278.757 242.243 278.854 241.782 278.931C239.913 279.229 238.027 278.816 236.346 278.119C234.663 277.392 233.136 276.396 231.712 275.299C230.293 274.193 228.954 272.993 227.727 271.689C225.258 269.098 223.042 266.285 221.154 263.268Z" fill="#263238"/>
<path d="M479.037 69.7422H393.451V124.337H479.037V69.7422Z" fill="white"/>
<path d="M479.578 124.878H392.91V69.2012H479.578V124.878ZM393.992 123.796H478.497V70.2833H393.992V123.796Z" fill="#EBEBEB"/>
<path d="M479.037 69.7422H393.451V80.0667H479.037V69.7422Z" fill="#455A64"/>
<path d="M479.578 80.6079H392.91V69.2012H479.578V80.6079ZM393.992 79.5257H478.497V70.2833H393.992V79.5257Z" fill="#EBEBEB"/>
<path d="M403.143 74.9794C403.143 76.4143 401.98 77.5779 400.545 77.5779C399.11 77.5779 397.946 76.4143 397.946 74.9794C397.946 73.5444 399.11 72.3809 400.545 72.3809C401.98 72.3809 403.143 73.5444 403.143 74.9794Z" fill="#FFC727"/>
<path d="M413.754 74.9794C413.754 76.4143 412.59 77.5779 411.155 77.5779C409.72 77.5779 408.557 76.4143 408.557 74.9794C408.557 73.5444 409.72 72.3809 411.155 72.3809C412.59 72.3809 413.754 73.5444 413.754 74.9794Z" fill="#EBEBEB"/>
<path d="M424.365 74.9794C424.365 76.4143 423.202 77.5779 421.767 77.5779C420.332 77.5779 419.168 76.4143 419.168 74.9794C419.168 73.5444 420.332 72.3809 421.767 72.3809C423.202 72.3809 424.365 73.5444 424.365 74.9794Z" fill="white"/>
<path d="M408.222 100.481C408.251 94.7876 413.025 90.1572 418.775 90.1289C421.306 90.1289 423.607 90.9634 425.418 92.3719C426.108 92.9468 426.223 93.9531 425.705 94.6724C425.13 95.3908 424.066 95.506 423.406 94.9886C422.14 93.9531 420.558 93.4074 418.775 93.4074C416.791 93.4074 414.951 94.2127 413.599 95.4776C412.305 96.8002 411.5 98.5258 411.5 100.481C411.5 102.437 412.305 104.219 413.599 105.485C414.95 106.75 416.791 107.555 418.775 107.555C420.558 107.555 422.111 107.009 423.406 105.974C424.067 105.485 425.131 105.6 425.705 106.29C426.222 107.009 426.107 108.044 425.418 108.591C423.607 109.999 421.306 110.834 418.775 110.834C413.025 110.834 408.251 106.204 408.222 100.481Z" fill="#EBEBEB"/>
<path d="M430.652 105.83C431.169 105.197 432.118 105.111 432.751 105.629C434.016 106.664 436.202 107.871 438.243 107.842C439.68 107.842 440.974 107.412 441.837 106.778C442.699 106.146 443.074 105.427 443.074 104.708C443.074 104.334 442.988 104.076 442.815 103.788C442.642 103.5 442.384 103.213 441.953 102.925C441.119 102.378 439.71 101.889 438.014 101.573H437.955C436.604 101.314 435.338 100.969 434.246 100.452C433.153 99.9343 432.204 99.215 431.572 98.2087C431.14 97.5186 430.91 96.7134 430.91 95.8505C430.91 94.1249 431.887 92.6296 433.21 91.6525C434.561 90.6746 436.316 90.1289 438.185 90.1289C440.945 90.1289 442.988 91.4807 444.454 92.4295C445.116 92.8892 445.316 93.8096 444.856 94.4713C444.424 95.1614 443.504 95.3634 442.814 94.9027C441.348 93.9248 439.939 93.0619 438.185 93.0619C436.891 93.0619 435.74 93.4641 434.964 94.039C434.189 94.6139 433.872 95.2473 433.872 95.8505C433.872 96.196 433.93 96.4255 434.074 96.6558C434.217 96.8861 434.476 97.1448 434.851 97.4034C435.597 97.9208 436.892 98.3814 438.444 98.6684H438.502C439.969 98.9554 441.321 99.3301 442.472 99.8758C443.651 100.451 444.685 101.198 445.346 102.263C445.778 102.953 446.037 103.816 446.037 104.707C446.037 106.548 445.002 108.129 443.564 109.165C442.154 110.199 440.285 110.804 438.243 110.804C435.139 110.774 432.522 109.222 430.882 107.928C430.249 107.411 430.163 106.462 430.652 105.83Z" fill="#EBEBEB"/>
<path d="M449.543 105.83C450.06 105.197 451.009 105.111 451.643 105.629C452.908 106.664 455.093 107.871 457.134 107.842C458.572 107.842 459.866 107.412 460.729 106.778C461.591 106.146 461.964 105.427 461.964 104.708C461.964 104.334 461.878 104.076 461.706 103.788C461.534 103.5 461.274 103.213 460.844 102.925C460.009 102.378 458.601 101.889 456.904 101.573H456.846C455.495 101.314 454.229 100.969 453.137 100.452C452.045 99.9343 451.095 99.215 450.463 98.2087C450.03 97.5186 449.801 96.7134 449.801 95.8505C449.801 94.1249 450.778 92.6296 452.1 91.6525C453.451 90.6746 455.206 90.1289 457.075 90.1289C459.836 90.1289 461.878 91.4807 463.345 92.4295C464.005 92.8892 464.206 93.8096 463.747 94.4713C463.314 95.1614 462.394 95.3634 461.705 94.9027C460.239 93.9248 458.829 93.0619 457.075 93.0619C455.781 93.0619 454.63 93.4641 453.854 94.039C453.078 94.6139 452.762 95.2473 452.762 95.8505C452.762 96.196 452.821 96.4255 452.964 96.6558C453.108 96.8861 453.366 97.1448 453.741 97.4034C454.488 97.9208 455.782 98.3814 457.335 98.6684H457.393C458.86 98.9554 460.211 99.3301 461.362 99.8758C462.541 100.451 463.576 101.198 464.237 102.263C464.669 102.953 464.928 103.816 464.928 104.707C464.928 106.548 463.892 108.129 462.454 109.165C461.045 110.199 459.176 110.804 457.134 110.804C454.029 110.774 451.412 109.222 449.773 107.928C449.141 107.411 449.054 106.462 449.543 105.83Z" fill="#EBEBEB"/>
<path d="M207.47 186.371H159.422V207.957H207.47V186.371Z" fill="#455A64"/>
<path d="M173.717 198.123H171.723V201.644C171.723 202.131 171.317 202.537 170.814 202.537C170.326 202.537 169.92 202.131 169.92 201.644V192.07C169.92 191.567 170.326 191.178 170.814 191.178H170.832H173.717C175.648 191.178 177.208 192.735 177.208 194.666C177.208 196.565 175.648 198.123 173.717 198.123ZM171.722 196.322H173.717C174.659 196.322 175.389 195.575 175.405 194.666C175.388 193.726 174.659 192.979 173.717 192.979H171.723L171.722 196.322Z" fill="white"/>
<path d="M179.382 201.644V192.07C179.382 191.567 179.771 191.178 180.273 191.178C180.776 191.178 181.182 191.567 181.182 192.07V195.964H185.384V192.07C185.384 191.567 185.776 191.178 186.278 191.178C186.781 191.178 187.187 191.567 187.187 192.07V201.644C187.187 202.148 186.781 202.537 186.278 202.537C185.776 202.537 185.384 202.148 185.384 201.644V197.749H181.182V201.644C181.182 202.148 180.776 202.537 180.273 202.537C179.771 202.537 179.382 202.148 179.382 201.644Z" fill="white"/>
<path d="M194.683 198.123H192.686V201.644C192.686 202.131 192.281 202.537 191.778 202.537C191.292 202.537 190.886 202.131 190.886 201.644V192.07C190.886 191.567 191.292 191.178 191.778 191.178H191.795H194.683C196.615 191.178 198.172 192.735 198.172 194.666C198.172 196.565 196.615 198.123 194.683 198.123ZM192.687 196.322H194.684C195.625 196.322 196.356 195.575 196.372 194.666C196.356 193.726 195.625 192.979 194.684 192.979H192.687V196.322Z" fill="white"/>
<path d="M308.987 119.717H223.401V174.312H308.987V119.717Z" fill="white"/>
<path d="M309.527 174.852H222.86V119.176H309.527V174.852ZM223.942 173.77H308.445V120.257H223.942V173.77Z" fill="#EBEBEB"/>
<path d="M308.987 119.717H223.401V130.041H308.987V119.717Z" fill="#455A64"/>
<path d="M309.527 130.582H222.86V119.176H309.527V130.582ZM223.942 129.499H308.445V120.257H223.942V129.499Z" fill="#EBEBEB"/>
<path d="M233.093 124.954C233.093 126.389 231.93 127.552 230.495 127.552C229.06 127.552 227.896 126.389 227.896 124.954C227.896 123.519 229.06 122.355 230.495 122.355C231.93 122.355 233.093 123.519 233.093 124.954Z" fill="#FFC727"/>
<path d="M243.704 124.954C243.704 126.389 242.54 127.552 241.105 127.552C239.67 127.552 238.507 126.389 238.507 124.954C238.507 123.519 239.67 122.355 241.105 122.355C242.54 122.355 243.704 123.519 243.704 124.954Z" fill="#EBEBEB"/>
<path d="M254.314 124.954C254.314 126.389 253.151 127.552 251.716 127.552C250.281 127.552 249.117 126.389 249.117 124.954C249.117 123.519 250.281 122.355 251.716 122.355C253.151 122.355 254.314 123.519 254.314 124.954Z" fill="white"/>
<path d="M239.381 150.455C239.409 144.762 244.183 140.132 249.934 140.104C252.464 140.104 254.765 140.937 256.577 142.346C257.267 142.922 257.382 143.928 256.864 144.647C256.288 145.366 255.224 145.481 254.562 144.963C253.298 143.928 251.716 143.382 249.933 143.382C247.948 143.382 246.109 144.187 244.757 145.452C243.463 146.775 242.657 148.5 242.657 150.455C242.657 152.411 243.463 154.194 244.757 155.46C246.108 156.725 247.948 157.53 249.933 157.53C251.716 157.53 253.268 156.983 254.562 155.949C255.224 155.46 256.288 155.575 256.864 156.265C257.381 156.983 257.266 158.019 256.577 158.565C254.765 159.975 252.464 160.808 249.934 160.808C244.182 160.807 239.409 156.178 239.381 150.455Z" fill="#EBEBEB"/>
<path d="M266.955 152.267H262.872C262.01 152.267 261.291 151.577 261.291 150.686C261.291 149.823 262.01 149.104 262.872 149.104H266.955V145.108C266.955 144.187 267.674 143.469 268.595 143.469C269.486 143.469 270.234 144.188 270.234 145.108V149.104H274.316C275.179 149.104 275.898 149.824 275.898 150.686C275.898 151.578 275.179 152.267 274.316 152.267H270.234V156.264C270.234 157.184 269.487 157.903 268.595 157.903C267.674 157.903 266.955 157.184 266.955 156.264V152.267Z" fill="#EBEBEB"/>
<path d="M284.784 152.267H280.701C279.837 152.267 279.12 151.577 279.12 150.686C279.12 149.823 279.838 149.104 280.701 149.104H284.784V145.108C284.784 144.187 285.502 143.469 286.422 143.469C287.315 143.469 288.062 144.188 288.062 145.108V149.104H292.145C293.007 149.104 293.726 149.824 293.726 150.686C293.726 151.578 293.007 152.267 292.145 152.267H288.062V156.264C288.062 157.184 287.315 157.903 286.422 157.903C285.502 157.903 284.784 157.184 284.784 156.264V152.267Z" fill="#EBEBEB"/>
<g opacity="0.6">
<path d="M467.665 132.023H324.932V232.02H467.665V132.023Z" fill="white"/>
<path d="M468.206 232.56H324.392V131.482H468.206V232.56ZM325.473 231.478H467.124V132.564H325.473V231.478Z" fill="#EBEBEB"/>
<path d="M467.665 132.023H324.932V142.348H467.665V132.023Z" fill="#455A64"/>
<path d="M468.206 142.888H324.392V131.482H468.206V142.888ZM325.473 141.807H467.124V132.565H325.473V141.807Z" fill="#EBEBEB"/>
<path d="M334.624 137.261C334.624 138.696 333.461 139.859 332.026 139.859C330.591 139.859 329.427 138.696 329.427 137.261C329.427 135.826 330.591 134.662 332.026 134.662C333.461 134.662 334.624 135.826 334.624 137.261Z" fill="#FFC727"/>
<path d="M345.235 137.261C345.235 138.696 344.071 139.859 342.636 139.859C341.201 139.859 340.038 138.696 340.038 137.261C340.038 135.826 341.201 134.662 342.636 134.662C344.071 134.662 345.235 135.826 345.235 137.261Z" fill="#EBEBEB"/>
<path d="M355.845 137.261C355.845 138.696 354.682 139.859 353.247 139.859C351.812 139.859 350.648 138.696 350.648 137.261C350.648 135.826 351.812 134.662 353.247 134.662C354.682 134.662 355.845 135.826 355.845 137.261Z" fill="white"/>
<path d="M341.527 162.887H336.008V164.903H341.527V162.887Z" fill="#EBEBEB"/>
<path d="M408.87 162.887H345.551V164.903H408.87V162.887Z" fill="#EBEBEB"/>
<path d="M422.747 162.887H412.262V164.903H422.747V162.887Z" fill="#FFC727"/>
<path d="M443.152 162.887H425.027V164.903H443.152V162.887Z" fill="#A6A6A6"/>
<path d="M347.048 168.283H341.528V170.299H347.048V168.283Z" fill="#EBEBEB"/>
<path d="M392.487 168.283H350.933V170.299H392.487V168.283Z" fill="#A6A6A6"/>
<path d="M385.241 184.473H345.551V186.489H385.241V184.473Z" fill="#A6A6A6"/>
<path d="M378.777 173.68H350.933V175.696H378.777V173.68Z" fill="#FFC727"/>
<path d="M429.895 179.076H419.274V181.092H429.895V179.076Z" fill="#A6A6A6"/>
<path d="M426.331 173.68H381.866V175.696H426.331V173.68Z" fill="#A6A6A6"/>
<path d="M398.628 189.867H345.551V191.883H398.628V189.867Z" fill="#FFC727"/>
<path d="M452.622 168.283H423.858V170.299H452.622V168.283Z" fill="#FFC727"/>
<path d="M421.577 168.283H395.095V170.299H421.577V168.283Z" fill="#EBEBEB"/>
<path d="M446.292 173.68H428.421V175.696H446.292V173.68Z" fill="#EBEBEB"/>
<path d="M347.048 173.68H341.528V175.696H347.048V173.68Z" fill="#EBEBEB"/>
<path d="M341.527 179.076H336.008V181.092H341.527V179.076Z" fill="#A6A6A6"/>
<path d="M378.174 179.076H345.551V181.092H378.174V179.076Z" fill="#EBEBEB"/>
<path d="M422.747 184.473H387.488V186.489H422.747V184.473Z" fill="#EBEBEB"/>
<path d="M447.462 184.473H425.027V186.489H447.462V184.473Z" fill="#FFC727"/>
<path d="M416.709 179.076H381.491V181.092H416.709V179.076Z" fill="#FFC727"/>
<path d="M341.527 184.473H336.008V186.489H341.527V184.473Z" fill="#EBEBEB"/>
<path d="M341.527 189.867H336.008V191.883H341.527V189.867Z" fill="#EBEBEB"/>
<path d="M339.418 157.577C339.608 157.775 339.608 158.07 339.418 158.259C339.319 158.349 339.207 158.395 339.085 158.395C338.956 158.395 338.835 158.349 338.737 158.259L336.608 156.099C336.585 156.092 336.577 156.076 336.57 156.054C336.563 156.045 336.547 156.038 336.547 156.038C336.532 156.015 336.532 156 336.524 155.978C336.509 155.97 336.501 155.955 336.501 155.948C336.494 155.932 336.494 155.909 336.487 155.902C336.487 155.879 336.471 155.872 336.471 155.864C336.471 155.841 336.471 155.826 336.471 155.811C336.471 155.796 336.464 155.788 336.464 155.767C336.464 155.758 336.471 155.735 336.471 155.728C336.471 155.713 336.471 155.69 336.471 155.675C336.471 155.66 336.487 155.652 336.487 155.644C336.494 155.621 336.494 155.607 336.501 155.584C336.501 155.576 336.509 155.576 336.509 155.569C336.524 155.546 336.532 155.516 336.547 155.501C336.547 155.501 336.547 155.486 336.563 155.486C336.57 155.47 336.585 155.448 336.608 155.433L338.737 153.273C338.926 153.091 339.237 153.091 339.419 153.273C339.609 153.462 339.609 153.766 339.419 153.955L337.624 155.766L339.418 157.577Z" fill="#FFC727"/>
<path d="M341.348 157.819L343.205 153.402C343.295 153.19 343.537 153.091 343.758 153.183C343.962 153.266 344.061 153.516 343.97 153.72L342.113 158.145C342.045 158.304 341.886 158.394 341.727 158.394C341.681 158.394 341.621 158.387 341.576 158.364C341.356 158.282 341.257 158.031 341.348 157.819Z" fill="#FFC727"/>
<path d="M347.635 156.038C347.635 156.038 347.635 156.045 347.627 156.045C347.612 156.061 347.597 156.084 347.574 156.098L345.445 158.258C345.354 158.349 345.226 158.394 345.104 158.394C344.975 158.394 344.862 158.349 344.764 158.258C344.574 158.069 344.574 157.773 344.764 157.576L346.559 155.766L344.764 153.955C344.574 153.765 344.574 153.462 344.764 153.273C344.946 153.091 345.257 153.091 345.445 153.273L347.574 155.433C347.597 155.448 347.612 155.47 347.627 155.486C347.635 155.486 347.635 155.501 347.635 155.501C347.649 155.532 347.664 155.547 347.673 155.569C347.673 155.576 347.681 155.576 347.681 155.584C347.688 155.607 347.688 155.622 347.702 155.652C347.702 155.66 347.71 155.66 347.71 155.675C347.71 155.69 347.71 155.713 347.71 155.728C347.71 155.735 347.718 155.758 347.718 155.767C347.718 155.774 347.71 155.797 347.71 155.804C347.71 155.827 347.71 155.842 347.71 155.864C347.71 155.873 347.702 155.873 347.702 155.88C347.688 155.91 347.688 155.933 347.681 155.948C347.681 155.955 347.673 155.955 347.673 155.97C347.665 155.986 347.649 156.009 347.635 156.038Z" fill="#FFC727"/>
</g>
<path d="M238.709 99.5918H180.404V121.178H238.709V99.5918Z" fill="#FFC727"/>
<path d="M188.816 114.865V105.291C188.816 104.788 189.207 104.398 189.709 104.398C190.212 104.398 190.618 104.788 190.618 105.291V109.185H194.82V105.291C194.82 104.788 195.211 104.398 195.713 104.398C196.216 104.398 196.622 104.788 196.622 105.291V114.865C196.622 115.368 196.216 115.758 195.713 115.758C195.211 115.758 194.82 115.368 194.82 114.865V110.97H190.618V114.865C190.618 115.368 190.212 115.758 189.709 115.758C189.207 115.757 188.816 115.367 188.816 114.865Z" fill="white"/>
<path d="M207.267 106.2H204.687V114.865C204.687 115.368 204.298 115.758 203.794 115.758C203.307 115.758 202.902 115.368 202.902 114.865V106.2H200.338C199.836 106.2 199.445 105.778 199.445 105.291C199.445 104.788 199.835 104.398 200.338 104.398H207.266C207.754 104.398 208.159 104.788 208.159 105.291C208.159 105.778 207.754 106.2 207.267 106.2Z" fill="white"/>
<path d="M220.606 105.291V114.865C220.606 115.352 220.184 115.758 219.698 115.758C219.194 115.758 218.805 115.352 218.805 114.865V108.033L216.468 111.279C216.289 111.522 216.029 111.652 215.737 111.652H215.722H215.705C215.414 111.652 215.138 111.522 214.959 111.279L212.638 108.033V114.865C212.638 115.352 212.232 115.758 211.729 115.758C211.242 115.758 210.836 115.352 210.836 114.865V105.291C210.836 104.804 211.242 104.398 211.729 104.398C211.746 104.398 211.746 104.398 211.778 104.398C212.037 104.398 212.329 104.528 212.492 104.771L215.721 109.25L218.949 104.771C219.127 104.528 219.388 104.398 219.679 104.398C219.679 104.398 219.679 104.398 219.697 104.398C220.183 104.415 220.606 104.804 220.606 105.291Z" fill="white"/>
<path d="M224.533 114.865V105.291C224.533 104.804 224.922 104.398 225.426 104.398C225.928 104.398 226.334 104.804 226.334 105.291V113.955H230.732C231.202 113.955 231.624 114.361 231.624 114.864C231.624 115.351 231.202 115.757 230.732 115.757H225.474C225.442 115.757 225.442 115.757 225.442 115.757C225.425 115.757 225.425 115.757 225.425 115.757C224.923 115.757 224.533 115.352 224.533 114.865Z" fill="white"/>
<path d="M331.822 215.834H299.271V237.42H331.822V215.834Z" fill="#FFC727"/>
<path d="M308.109 228.718C308.391 229.582 309.209 230.211 310.168 230.211C311.363 230.211 312.337 229.237 312.337 228.058V221.818C312.337 221.331 312.73 220.953 313.217 220.953C313.689 220.953 314.082 221.331 314.082 221.818V228.058C314.082 230.211 312.321 231.955 310.169 231.955C308.44 231.955 306.963 230.823 306.46 229.251C306.304 228.78 306.57 228.293 307.01 228.166C307.48 228.01 307.967 228.261 308.109 228.718Z" fill="white"/>
<path d="M316.27 229.22C316.552 228.875 317.071 228.827 317.417 229.111C318.109 229.676 319.303 230.336 320.419 230.321C321.205 230.321 321.912 230.085 322.384 229.739C322.855 229.393 323.059 229 323.059 228.608C323.059 228.404 323.012 228.262 322.917 228.105C322.823 227.949 322.682 227.791 322.446 227.634C321.991 227.336 321.22 227.068 320.292 226.895H320.261C319.523 226.753 318.831 226.565 318.234 226.282C317.637 225.999 317.118 225.606 316.773 225.056C316.537 224.68 316.412 224.239 316.412 223.767C316.412 222.824 316.946 222.007 317.669 221.473C318.409 220.939 319.367 220.641 320.388 220.641C321.897 220.641 323.012 221.379 323.814 221.898C324.176 222.15 324.286 222.652 324.034 223.014C323.799 223.391 323.296 223.501 322.918 223.25C322.117 222.715 321.347 222.244 320.388 222.244C319.681 222.244 319.052 222.464 318.628 222.778C318.204 223.093 318.031 223.438 318.031 223.769C318.031 223.958 318.062 224.084 318.141 224.21C318.219 224.335 318.361 224.477 318.565 224.618C318.974 224.901 319.681 225.152 320.53 225.31H320.561C321.362 225.467 322.101 225.671 322.729 225.97C323.374 226.285 323.94 226.693 324.301 227.274C324.537 227.652 324.678 228.124 324.678 228.611C324.678 229.616 324.112 230.481 323.326 231.047C322.555 231.613 321.535 231.942 320.419 231.942C318.721 231.927 317.291 231.079 316.395 230.371C316.051 230.084 316.003 229.567 316.27 229.22Z" fill="white"/>
<path opacity="0.6" d="M188.658 369.121C188.658 369.121 208.645 359.913 208.645 347.571C208.645 335.229 182.724 327.285 182.724 317.638C182.724 307.991 194.028 302.316 194.028 302.316C194.028 302.316 176.174 308.416 176.174 320.617C176.174 332.817 193.261 341.084 194.895 348.847C197.166 359.63 188.658 369.121 188.658 369.121Z" fill="#DBDBDB"/>
<path opacity="0.6" d="M189.646 369.122C189.646 369.122 169.66 361.883 169.66 352.179C169.66 342.475 195.58 336.229 195.58 328.644C195.58 321.059 184.276 316.598 184.276 316.598C184.276 316.598 202.13 321.393 202.13 330.986C202.13 340.578 182.51 347.173 181.106 354.967C179.729 362.609 189.646 369.122 189.646 369.122Z" fill="#DBDBDB"/>
<path d="M198.375 400.154H179.364V403.121H198.375V400.154Z" fill="#37474F"/>
<path d="M198.375 400.154H179.364V402.111H198.375V400.154Z" fill="#263238"/>
<path d="M156.798 392.177C159.046 395.337 163.026 397.599 167.503 396.756C168.138 396.636 168.777 396.457 169.431 396.202C170.317 395.859 171.21 395.398 172.119 394.789L169.704 391.208C169.212 391.548 168.736 391.814 168.277 392.017C163.75 394.07 160.884 390.5 160.32 389.685C157.715 386.022 156.781 377.657 159.422 374.44C159.597 374.203 160.359 373.825 163.421 374.477C163.986 374.605 164.627 374.746 165.352 374.947C166.155 375.175 166.633 375.305 167.09 375.32L167.167 373.171L167.377 371.026C167.18 370.99 166.871 370.901 166.47 370.787C165.315 370.478 163.758 370.055 162.148 369.89C159.895 369.656 157.533 369.926 156.084 371.706C151.795 376.96 153.535 387.586 156.798 392.177Z" fill="#37474F"/>
<path d="M169.704 391.207C169.212 391.548 168.736 391.814 168.277 392.017L169.431 396.201C170.317 395.858 171.21 395.398 172.119 394.788L169.704 391.207Z" fill="#263238"/>
<path d="M162.148 369.891L163.421 374.476C163.986 374.604 164.627 374.746 165.352 374.946C166.156 375.174 166.634 375.304 167.09 375.32L167.167 373.17L167.378 371.025C167.18 370.989 166.871 370.901 166.47 370.786C165.315 370.478 163.758 370.055 162.148 369.891Z" fill="#263238"/>
<path d="M214.158 364.287C214.158 364.287 211.876 383.661 207.937 391.822C203.998 399.97 198.5 400.883 195.084 400.883C191.669 400.883 191.981 400.883 188.877 400.883C185.76 400.883 186.084 400.883 182.656 400.883C179.24 400.883 173.743 399.97 169.803 391.822C165.864 383.661 163.583 364.287 163.583 364.287H214.158Z" fill="#37474F"/>
<path d="M211.456 380.379C211.063 382.161 210.633 383.925 210.158 385.589H167.584C167.109 383.925 166.679 382.161 166.286 380.379H211.456Z" fill="#455A64"/>
<path d="M209.573 387.564C209.281 388.488 208.979 389.365 208.659 390.169H169.083C168.763 389.365 168.461 388.488 168.169 387.564H209.573Z" fill="#455A64"/>
<path d="M212.434 375.48C212.279 376.33 212.114 377.199 211.931 378.085H165.811C165.628 377.199 165.463 376.33 165.308 375.48H212.434Z" fill="#455A64"/>
</svg>
