<svg width="41" height="48" viewBox="0 0 41 48" fill="none" xmlns="http://www.w3.org/2000/svg">
<path d="M20.5365 10.3457C13.7428 10.3457 8.19238 15.8961 8.19238 22.6898C8.19238 26.2421 9.7465 29.6611 12.3663 31.9701C14.32 33.9239 14.1424 38.0978 14.098 38.1422C14.098 38.3642 14.1424 38.5418 14.32 38.7194C14.4533 38.8526 14.6753 38.9414 14.8529 38.9414H26.1757C26.3977 38.9414 26.5754 38.8526 26.7086 38.7194C26.8418 38.5862 26.9306 38.3642 26.9306 38.1422C26.9306 38.0978 26.7086 33.9239 28.6623 31.9701C28.7067 31.9257 28.7511 31.8813 28.7955 31.8369C31.3709 29.4835 32.8806 26.1533 32.8806 22.6898C32.8806 15.8961 27.3302 10.3457 20.5365 10.3457ZM27.641 30.8156C27.5966 30.86 27.5078 30.9488 27.5078 30.9933C25.7761 32.8582 25.4653 35.922 25.4209 37.3873H15.6077C15.5633 35.922 15.2525 32.725 13.3876 30.8156C11.0342 28.7731 9.65769 25.7981 9.65769 22.6454C9.65769 16.651 14.4977 11.811 20.4921 11.811C26.4866 11.811 31.3265 16.651 31.3265 22.6454C31.3265 25.7981 29.9944 28.7731 27.641 30.8156Z" fill="#F8DA64"/>
<path d="M20.4922 13.499C20.0925 13.499 19.7373 13.8542 19.7373 14.2539C19.7373 14.6535 20.0925 15.0087 20.4922 15.0087C24.9769 15.0087 28.5736 18.6498 28.5736 23.0901C28.5736 23.4898 28.9288 23.845 29.3284 23.845C29.7281 23.845 30.0833 23.4898 30.0833 23.0901C30.1277 17.8061 25.8206 13.499 20.4922 13.499Z" fill="#F8DA64"/>
<path d="M25.4207 39.7852H15.5632C14.5419 39.7852 13.6982 40.6288 13.6982 41.6501C13.6982 42.6714 14.5419 43.515 15.5632 43.515H25.3763C26.442 43.4706 27.2857 42.6714 27.2857 41.6501C27.2857 40.6288 26.442 39.7852 25.4207 39.7852ZM25.4207 41.9609H15.5632C15.3856 41.9609 15.208 41.8277 15.208 41.6057C15.208 41.3837 15.3412 41.2505 15.5632 41.2505H25.3763C25.5539 41.2505 25.7315 41.3837 25.7315 41.6057C25.7315 41.8277 25.5983 41.9609 25.4207 41.9609Z" fill="#F8DA64"/>
<path d="M23.9549 44.2705H17.028C16.0067 44.2705 15.1631 45.1142 15.1631 46.1354C15.1631 47.1567 16.0067 48.0004 17.028 48.0004H23.9549C24.9762 48.0004 25.8199 47.1567 25.8199 46.1354C25.8199 45.0698 24.9762 44.2705 23.9549 44.2705ZM23.9549 46.4463H17.028C16.8504 46.4463 16.6728 46.3131 16.6728 46.091C16.6728 45.869 16.806 45.7358 17.028 45.7358H23.9549C24.1326 45.7358 24.3102 45.869 24.3102 46.091C24.3102 46.3131 24.1326 46.4463 23.9549 46.4463Z" fill="#F8DA64"/>
<path d="M20.4922 6.6605C20.9362 6.6605 21.247 6.30527 21.247 5.90564V0.754857C21.247 0.355227 20.8918 0 20.4922 0C20.0925 0 19.7373 0.355227 19.7373 0.754857V5.90564C19.7373 6.30527 20.0925 6.6605 20.4922 6.6605Z" fill="#F8DA64"/>
<path d="M33.058 3.81863C32.7028 3.55221 32.2588 3.68542 32.0368 3.99624L29.1949 8.25896C28.9285 8.61419 29.0173 9.10262 29.3726 9.32464C29.5058 9.41345 29.639 9.45785 29.7722 9.45785C30.0386 9.45785 30.2606 9.32464 30.3938 9.10262L33.2357 4.8399C33.5021 4.52908 33.4133 4.04064 33.058 3.81863Z" fill="#F8DA64"/>
<path d="M11.4776 9.28071C11.6108 9.28071 11.744 9.23631 11.8772 9.1475C12.2325 8.92549 12.3213 8.43705 12.0992 8.08182L9.34624 3.7747C9.12422 3.41947 8.63579 3.33067 8.28056 3.55268C7.92533 3.7747 7.83653 4.26314 8.05854 4.61836L10.8115 8.92549C10.9892 9.19191 11.2112 9.28071 11.4776 9.28071Z" fill="#F8DA64"/>
<path d="M6.10515 13.9873L1.62042 11.5451C1.26519 11.3675 0.776754 11.5007 0.59914 11.856C0.377124 12.2112 0.510334 12.6996 0.909964 12.8772L5.3947 15.3194C5.52791 15.3638 5.61672 15.4082 5.74993 15.4082C6.01635 15.4082 6.28277 15.275 6.41598 15.0086C6.59359 14.6534 6.46038 14.1649 6.10515 13.9873Z" fill="#F8DA64"/>
<path d="M40.4288 11.856C40.2512 11.5007 39.7628 11.3675 39.4076 11.5451L34.8784 13.9873C34.5232 14.1649 34.39 14.6534 34.5676 15.0086C34.7008 15.275 34.9672 15.4082 35.2336 15.4082C35.3668 15.4082 35.5001 15.3638 35.5889 15.3194L40.118 12.8772C40.4732 12.6996 40.6064 12.2112 40.4288 11.856Z" fill="#F8DA64"/>
</svg>
