<svg width="49" height="48" viewBox="0 0 49 48" fill="none" xmlns="http://www.w3.org/2000/svg">
<path d="M16.3562 25.8244C20.1146 25.8244 23.1718 22.7672 23.1718 19.0087C23.1718 15.2503 20.1137 12.1931 16.3562 12.1931C12.5987 12.1931 9.54059 15.2512 9.54059 19.0087C9.54059 22.7663 12.5978 25.8244 16.3562 25.8244ZM16.3562 13.3172C19.494 13.3172 22.0468 15.87 22.0468 19.0078C22.0468 22.1456 19.494 24.6984 16.3562 24.6984C13.2184 24.6984 10.6656 22.1456 10.6656 19.0078C10.6656 15.87 13.2184 13.3172 16.3562 13.3172ZM42.9109 1.40625H26.4184C24.7093 1.40625 23.319 2.79656 23.319 4.50563V13.1325C23.319 14.8416 24.7093 16.2319 26.4184 16.2319H27.924L27.1937 21.2325C27.159 21.4669 27.2762 21.6975 27.4843 21.81C27.5678 21.855 27.6587 21.8766 27.7496 21.8766C27.8856 21.8766 28.0206 21.8278 28.1256 21.7322L34.2446 16.2319H42.909C44.6181 16.2319 46.0084 14.8416 46.0084 13.1325V4.50563C46.0103 2.79656 44.62 1.40625 42.9109 1.40625ZM44.8853 13.1325C44.8853 14.2209 43.9993 15.1069 42.9109 15.1069H34.0309C33.8921 15.1069 33.7581 15.1584 33.655 15.2512L28.5334 19.8553L29.1334 15.7509C29.1568 15.5897 29.109 15.4256 29.0021 15.3019C28.8953 15.1781 28.7396 15.1069 28.5765 15.1069H26.4203C25.3318 15.1069 24.4459 14.2209 24.4459 13.1325V4.50563C24.4459 3.41719 25.3318 2.53125 26.4203 2.53125H42.9118C44.0003 2.53125 44.8862 3.41719 44.8862 4.50563V13.1325H44.8853ZM36.7187 34.6341L32.0218 33.6422L29.6275 29.4816C29.5271 29.3072 29.3415 29.1994 29.14 29.1994C28.9384 29.1994 28.7528 29.3072 28.6525 29.4816L26.2581 33.6422L26.2431 33.645C23.7025 30.8484 20.1184 29.2509 16.3571 29.2509C8.98746 29.2509 2.99121 35.2472 2.99121 42.6169V43.2759C2.99121 45.105 4.47902 46.5928 6.30809 46.5928H26.4071C28.2362 46.5928 29.724 45.105 29.724 43.2759V42.7706L33.5237 44.4684C33.5968 44.5012 33.6756 44.5172 33.7534 44.5172C33.8706 44.5172 33.9859 44.4806 34.0843 44.4094C34.2475 44.2913 34.3346 44.0944 34.3131 43.8947L33.805 39.1219L37.0215 35.5594C37.1565 35.4103 37.2015 35.2003 37.1387 35.0081C37.075 34.8188 36.9156 34.6753 36.7187 34.6341ZM26.4062 45.4688H6.30715C5.09871 45.4688 4.11527 44.4853 4.11527 43.2769V42.6178C4.11527 35.8678 9.60621 30.3769 16.3562 30.3769C19.5775 30.3769 22.6571 31.6575 24.9465 33.9197L21.5612 34.6341C21.3643 34.6753 21.205 34.8188 21.1421 35.0109C21.0803 35.2022 21.1243 35.4122 21.2593 35.5622L24.4759 39.1247L23.9678 43.8975C23.9462 44.0972 24.0334 44.2941 24.1965 44.4122C24.3596 44.5303 24.5734 44.5528 24.7562 44.4703L28.5962 42.7547V43.2778C28.5981 44.4853 27.6146 45.4688 26.4062 45.4688ZM32.799 38.5566C32.6921 38.6756 32.6406 38.8341 32.6575 38.9934L33.0887 43.0444L29.3687 41.3822C29.2956 41.3494 29.2178 41.3334 29.139 41.3334C29.0603 41.3334 28.9825 41.3494 28.9093 41.3822L25.1893 43.0444L25.6206 38.9934C25.6375 38.8341 25.5859 38.6756 25.479 38.5566L22.749 35.5331L26.7353 34.6912C26.8918 34.6584 27.0268 34.56 27.1065 34.4212L29.139 30.8897L31.1715 34.4212C31.2512 34.56 31.3862 34.6584 31.5428 34.6912L35.529 35.5331L32.799 38.5566ZM27.6756 5.81906C27.6756 5.50875 27.9278 5.25656 28.2381 5.25656H35.2468C35.5571 5.25656 35.8093 5.50875 35.8093 5.81906C35.8093 6.12937 35.5571 6.38156 35.2468 6.38156H28.2381C27.9278 6.38156 27.6756 6.12937 27.6756 5.81906ZM41.6537 8.81906C41.6537 9.12937 41.4015 9.38156 41.0912 9.38156H28.2381C27.9278 9.38156 27.6756 9.12937 27.6756 8.81906C27.6756 8.50875 27.9278 8.25656 28.2381 8.25656H41.0903C41.4015 8.25656 41.6537 8.50875 41.6537 8.81906ZM41.6537 11.8191C41.6537 12.1294 41.4015 12.3816 41.0912 12.3816H28.2381C27.9278 12.3816 27.6756 12.1294 27.6756 11.8191C27.6756 11.5087 27.9278 11.2566 28.2381 11.2566H41.0903C41.4015 11.2566 41.6537 11.5087 41.6537 11.8191Z" fill="#F8DA64"/>
</svg>
