<svg width="61" height="61" viewBox="0 0 61 61" fill="none" xmlns="http://www.w3.org/2000/svg">
<path d="M1.67188 29.1875H22.8501C23.4972 29.1875 24.022 28.6627 24.022 28.0156V22.1226C24.022 18.8032 21.462 16.0705 18.2128 15.7953C19.9489 14.1982 21.0377 11.9138 21.0377 9.3809C21.0377 4.56414 17.1004 0.645508 12.2609 0.645508C7.42145 0.645508 3.48441 4.56414 3.48441 9.38078C3.48441 11.9137 4.5732 14.1981 6.30934 15.7952C3.05996 16.0705 0.5 18.8031 0.5 22.1226V28.0156C0.5 28.6627 1.02477 29.1875 1.67188 29.1875ZM5.82817 9.38078C5.82817 5.85648 8.71391 2.98926 12.2609 2.98926C15.808 2.98926 18.694 5.85648 18.694 9.38078C18.694 12.9051 15.8081 15.7723 12.2609 15.7723C8.71379 15.7723 5.82817 12.9051 5.82817 9.38078ZM2.84375 22.1226C2.84375 19.9134 4.64106 18.1162 6.85016 18.1162H17.6717C19.8809 18.1162 21.6781 19.9135 21.6781 22.1226V26.8437H2.84375V22.1226Z" fill="#F8DA64"/>
<path d="M48.719 26.7206C51.1811 26.7206 53.1842 24.7176 53.1842 22.2555V5.11059C53.1841 2.64859 51.1811 0.645508 48.719 0.645508H30.8137C28.3517 0.645508 26.3486 2.64859 26.3486 5.11059V22.2556C26.3486 24.7177 28.3517 26.7207 30.8137 26.7207H33.1872L33.4257 28.202C33.4832 28.5591 33.7024 28.8695 34.0195 29.0434C34.1943 29.1393 34.3882 29.1876 34.5827 29.1876C34.7409 29.1876 34.8993 29.1556 35.0483 29.0911L40.5245 26.7207L48.719 26.7206ZM39.8162 24.4732L35.5 26.3415L35.3424 25.3624C35.251 24.7943 34.7607 24.3768 34.1854 24.3768H30.8137C29.6441 24.3768 28.6924 23.4252 28.6924 22.2555V5.11059C28.6924 3.94094 29.6439 2.98926 30.8137 2.98926H48.719C49.8887 2.98926 50.8405 3.94082 50.8405 5.11059V22.2556C50.8405 23.4252 49.8888 24.3769 48.719 24.3769H40.2818C40.1217 24.3768 39.9631 24.4096 39.8162 24.4732Z" fill="#F8DA64"/>
<path d="M39.8547 5.96969C39.8251 5.9691 39.7957 5.96875 39.7663 5.96875C37.6132 5.96875 35.7792 7.55816 35.4809 9.69977C35.4534 9.8984 35.4395 10.101 35.4395 10.302C35.4395 10.9491 35.9642 11.4739 36.6113 11.4739C37.2584 11.4739 37.7832 10.9491 37.7832 10.302C37.7832 10.2086 37.7898 10.1145 37.8024 10.0227C37.9392 9.04117 38.7798 8.3125 39.767 8.3125C39.7803 8.3125 39.7939 8.31273 39.8075 8.31297C40.8411 8.33395 41.6927 9.16023 41.7463 10.1945C41.7748 10.7484 41.5816 11.2736 41.2017 11.6737C40.8233 12.0721 40.3136 12.2915 39.7663 12.2915C39.1191 12.2915 38.5944 12.8163 38.5944 13.4634V15.9081C38.5944 16.5552 39.1191 17.08 39.7663 17.08C40.4134 17.08 40.9381 16.5552 40.9381 15.9081V14.4716C41.6803 14.2613 42.3629 13.8544 42.9014 13.2875C43.7281 12.4166 44.1491 11.2752 44.0868 10.0732C43.9699 7.81773 42.1111 6.01527 39.8547 5.96969Z" fill="#F8DA64"/>
<path d="M40.8483 19.6969C40.6593 19.2363 40.1787 18.9407 39.6826 18.9766C39.1955 19.0117 38.7746 19.3543 38.6399 19.8231C38.5052 20.2927 38.6854 20.8129 39.0833 21.0975C39.4751 21.3779 40.0149 21.3863 40.4159 21.1196C40.8753 20.8142 41.0602 20.2062 40.8483 19.6969Z" fill="#F8DA64"/>
<path d="M54.6903 48.425C56.4265 46.828 57.5152 44.5436 57.5152 42.0107C57.5152 37.194 53.5781 33.2754 48.7386 33.2754C43.8991 33.2754 39.9618 37.194 39.9618 42.0107C39.9618 44.5436 41.0506 46.828 42.7868 48.425C39.5374 48.7004 36.9775 51.433 36.9775 54.7523V59.4736C36.9775 60.1207 37.5023 60.6455 38.1494 60.6455H59.3278C59.9749 60.6455 60.4997 60.1207 60.4997 59.4736V54.7525C60.4997 51.4331 57.9397 48.7004 54.6903 48.425ZM42.3057 42.0107C42.3057 38.4864 45.1916 35.6191 48.7387 35.6191C52.2859 35.6191 55.1716 38.4864 55.1716 42.0107C55.1716 45.535 52.2859 48.4022 48.7387 48.4022C45.1916 48.4022 42.3057 45.5351 42.3057 42.0107ZM58.1559 58.3017H39.3214V54.7525C39.3214 52.5432 41.1187 50.7461 43.3278 50.7461H54.1494C56.3586 50.7461 58.1558 52.5434 58.1558 54.7525V58.3017H58.1559Z" fill="#F8DA64"/>
<path d="M30.1864 33.2754H4.96508C2.50309 33.2754 0.5 35.2785 0.5 37.7406V49.7414C0.5 52.2035 2.50309 54.2065 4.96508 54.2065H20.3762L25.7868 57.6611C25.9782 57.7833 26.1975 57.8452 26.4175 57.8452C26.5902 57.8452 26.7632 57.8071 26.9239 57.7301C27.2893 57.555 27.5383 57.2034 27.5824 56.8004L27.8655 54.2065H30.1864C32.6484 54.2065 34.6515 52.2035 34.6515 49.7414V37.7406C34.6515 35.2785 32.6484 33.2754 30.1864 33.2754ZM32.3077 49.7414C32.3077 50.9111 31.3562 51.8627 30.1864 51.8627H26.8147C26.2167 51.8627 25.7147 52.313 25.6497 52.9075L25.4573 54.6698L21.3491 52.0468C21.1607 51.9266 20.9418 51.8627 20.7184 51.8627H4.96508C3.79543 51.8627 2.84375 50.9112 2.84375 49.7414V37.7406C2.84375 36.5709 3.79531 35.6191 4.96508 35.6191H30.1865C31.3562 35.6191 32.3079 36.5708 32.3079 37.7406V49.7414H32.3077Z" fill="#F8DA64"/>
<path d="M9.54687 41.958H15.435C16.0821 41.958 16.6068 41.4332 16.6068 40.7861C16.6068 40.139 16.0821 39.6143 15.435 39.6143H9.54687C8.89977 39.6143 8.375 40.139 8.375 40.7861C8.375 41.4332 8.89977 41.958 9.54687 41.958Z" fill="#F8DA64"/>
<path d="M25.6043 39.6143C25.1072 39.6143 24.6558 39.9402 24.4957 40.4098C24.3365 40.8772 24.4957 41.4099 24.8865 41.7124C25.2678 42.0075 25.8051 42.0365 26.2162 41.7853C26.6268 41.5343 26.8478 41.0394 26.7562 40.5663C26.6506 40.0215 26.16 39.6143 25.6043 39.6143Z" fill="#F8DA64"/>
<path d="M19.6414 41.234C19.8299 41.6868 20.2909 41.9789 20.7808 41.9556C21.2631 41.9328 21.6912 41.6027 21.8387 41.1437C21.988 40.679 21.826 40.1518 21.4364 39.8559C21.0397 39.5547 20.4882 39.537 20.0727 39.8115C19.6106 40.1165 19.4325 40.7249 19.6414 41.234Z" fill="#F8DA64"/>
<path d="M25.6049 45.1191H15.0293C14.3822 45.1191 13.8574 45.6439 13.8574 46.291C13.8574 46.9381 14.3822 47.4629 15.0293 47.4629H25.6049C26.252 47.4629 26.7768 46.9381 26.7768 46.291C26.7768 45.6439 26.252 45.1191 25.6049 45.1191Z" fill="#F8DA64"/>
<path d="M11.043 45.1191H9.54687C8.89977 45.1191 8.375 45.6439 8.375 46.291C8.375 46.9381 8.89977 47.4629 9.54687 47.4629H11.043C11.6901 47.4629 12.2149 46.9381 12.2149 46.291C12.2149 45.6439 11.6901 45.1191 11.043 45.1191Z" fill="#F8DA64"/>
</svg>
