<svg width="24" height="24" viewBox="0 0 24 24" fill="none" xmlns="http://www.w3.org/2000/svg">
<path opacity="0.4" d="M6.5 11V20C6.5 20.2762 6.27614 20.5 6 20.5H3C2.72386 20.5 2.5 20.2762 2.5 20V11C2.5 10.7238 2.72386 10.5 3 10.5H6C6.27614 10.5 6.5 10.7238 6.5 11Z" fill="white" stroke="white"/>
<path d="M21.4752 12.2684L21.4753 12.2683L21.9672 12.3578C21.9891 12.2372 21.9998 12.1177 22 12L15.947 3.56234C16.6584 3.79951 16.9949 4.61181 16.6595 5.28259L16.6593 5.28252L16.654 5.29397L14.5473 9.78774L14.2134 10.5H15H19.9994C20.8425 10.5 21.5017 11.1889 21.5 11.9989V11.9991C21.4999 12.087 21.4919 12.1769 21.4752 12.2684ZM21.4752 12.2684L20.3518 18.4472L20.3518 18.4473C20.1357 19.6359 19.1004 20.5 17.8921 20.5H12C10.6192 20.5 9.5 19.3807 9.5 18V11.1098C9.5 10.5129 9.71348 9.93589 10.1019 9.48277L10.102 9.48288L10.11 9.473L14.6253 3.92504C14.8542 3.66059 15.1791 3.51093 15.5166 3.4997L15.5166 3.4997C15.6599 3.49494 15.8054 3.51516 15.947 3.56234L21.4752 12.2684Z" fill="white" stroke="white"/>
</svg>
