<svg width="49" height="48" viewBox="0 0 49 48" fill="none" xmlns="http://www.w3.org/2000/svg">
<path d="M46.6408 33.1203C46.6549 33.0917 46.6674 33.0624 46.6773 33.0324C49.5212 26.4686 49.0131 18.4218 45.3194 12.2714C47.2913 9.91407 44.7299 6.53827 41.9289 7.84444C41.4366 7.34142 40.9198 6.85933 40.3843 6.40349C41.4355 3.54581 37.9271 1.20154 35.7421 3.33665C29.3913 0.129768 21.4923 0.170381 15.1766 3.44517C12.9298 1.06423 9.15664 3.61709 10.5169 6.6044C9.73787 7.28562 9.00047 8.02152 8.32056 8.79972C7.73351 9.47165 8.79703 10.3926 9.38005 9.72536C10.0126 9.00147 10.6979 8.31668 11.4218 7.68208C12.8217 8.69176 14.8515 8.1774 15.6194 6.63619C18.1538 7.36572 20.5741 8.41273 22.8293 9.7565C22.6405 10.4373 22.7176 11.1977 23.0416 11.8262C21.1854 13.4296 19.5138 15.2434 18.0623 17.2312C16.7223 16.8262 15.2452 17.504 14.6625 18.773C11.7073 18.7889 8.74301 19.1067 5.83261 19.7219C5.57562 19.243 5.186 18.8462 4.71366 18.5804C5.26047 16.448 6.12656 14.4195 7.29316 12.5439C7.75799 11.7964 6.58464 11.0193 6.09851 11.8008C4.85819 13.7949 3.93696 15.9513 3.35432 18.218C-0.0156679 18.2753 -0.581428 22.9373 2.62676 23.8342C2.57949 30.4693 5.44825 36.9202 10.4228 41.3146C9.38512 44.1178 12.7541 46.43 14.9773 44.4528C21.4658 47.903 29.666 47.9035 36.1548 44.4539C38.416 46.6903 42.0378 44.1919 40.764 41.2683C43.3279 38.9897 45.3196 36.2029 46.6408 33.1203ZM45.7545 31.547C43.8073 29.6124 41.6763 27.8574 39.4011 26.3169C39.7243 25.3048 39.4434 24.166 38.6889 23.4189C40.6021 20.2379 42.104 16.827 43.1612 13.2639C43.5135 13.2651 43.8522 13.2001 44.1642 13.0825C47.4038 18.5537 47.9962 25.6079 45.7545 31.547ZM13.3841 39.4991C12.7921 33.7004 13.8309 27.9153 16.4021 22.6874C17.9993 23.1858 19.7258 22.1354 20.036 20.4958C24.8865 21.0937 29.558 22.5178 33.9421 24.7355C33.7313 25.5551 33.9058 26.4588 34.4081 27.1406C29.4664 33.4012 22.9434 38.1121 15.4778 40.8121C15.0255 40.0958 14.2647 39.5947 13.3841 39.4991ZM35.2591 25.4484C35.2591 24.6512 35.9029 24.0027 36.6943 24.0027C38.5981 24.082 38.5975 26.815 36.6943 26.894C35.9029 26.894 35.2591 26.2455 35.2591 25.4484ZM44.6025 10.4115C44.6025 11.2086 43.9587 11.8571 43.1674 11.8571C41.2635 11.7778 41.264 9.0448 43.1674 8.96583C43.9587 8.96583 44.6025 9.61431 44.6025 10.4115ZM40.8539 8.7577C39.8816 10.1238 40.3329 12.0986 41.7987 12.9106C40.7746 16.3475 39.3226 19.6376 37.4756 22.7064C37.0894 22.5954 36.6608 22.5678 36.2638 22.6286C34.3331 18.5059 31.5239 14.7925 28.0922 11.8264C28.4165 11.1975 28.4938 10.4385 28.3047 9.75669C30.4768 8.46253 32.8035 7.44263 35.2366 6.71761C36.0453 8.27889 38.2147 8.71971 39.5614 7.55096C40.0078 7.93495 40.4399 8.33835 40.8539 8.7577ZM24.1318 10.5204C24.1318 9.72321 24.7756 9.07472 25.567 9.07472C27.4709 9.15398 27.4703 11.8869 25.567 11.9659C24.7756 11.9659 24.1318 11.3174 24.1318 10.5204ZM37.7382 3.91929C38.5296 3.91929 39.1734 4.56778 39.1734 5.36492C39.0944 7.28271 36.3818 7.28224 36.3031 5.36492C36.3031 4.56778 36.9469 3.91929 37.7382 3.91929ZM13.0762 6.81046C12.2849 6.81046 11.6411 6.16198 11.6411 5.36483C11.7201 3.44695 14.4328 3.4476 14.5115 5.36483C14.5115 6.16198 13.8676 6.81046 13.0762 6.81046ZM15.9156 5.25697C15.9083 5.06169 15.8815 4.87157 15.8369 4.68811C21.7255 1.64293 29.0819 1.58985 35.0159 4.54648C34.9397 4.80151 34.898 5.07116 34.8965 5.35038C32.3373 6.10748 29.8902 7.17691 27.6055 8.53569C26.5074 7.39976 24.627 7.39939 23.5284 8.5356C21.1477 7.11951 18.5921 6.01875 15.9156 5.25697ZM23.9729 12.8807C24.9242 13.5299 26.2094 13.53 27.1608 12.8807C30.4372 15.7096 33.1211 19.2508 34.9699 23.1831C34.8446 23.2794 34.7275 23.386 34.6199 23.5015C29.9978 21.1571 25.0654 19.6666 19.9421 19.0669C19.8037 18.6482 19.5715 18.2723 19.2701 17.9645C20.6451 16.0966 22.223 14.3906 23.9729 12.8807ZM17.2444 18.5171C18.0357 18.5171 18.6795 19.1656 18.6795 19.9628C18.6006 21.8807 15.8879 21.8801 15.8092 19.9628C15.8093 19.1656 16.4531 18.5171 17.2444 18.5171ZM1.89349 21.07C1.89349 20.2729 2.53728 19.6244 3.32862 19.6244C5.23243 19.7036 5.23187 22.4366 3.32862 22.5155C2.53738 22.5156 1.89349 21.8672 1.89349 21.07ZM4.03357 23.8336C4.03357 23.8336 6.17027 23.3677 6.17027 21.0886C6.17027 21.0886 11.653 20.2122 14.4116 20.1814C14.4634 20.8629 14.7544 21.4779 15.2008 21.942C12.4594 27.4571 11.3536 33.5717 11.9901 39.699C11.7161 39.8132 11.4638 39.9694 11.2407 40.1592C6.65133 36.0479 4.03357 29.1594 4.03357 23.8336ZM13.0762 43.7801C12.2849 43.7801 11.6411 43.1316 11.6411 42.3345C11.6411 41.5373 12.2849 40.8889 13.0762 40.8889C13.857 40.8889 14.5115 41.5651 14.5115 42.3345C14.5115 43.1316 13.8676 43.7801 13.0762 43.7801ZM25.567 45.6444C22.1528 45.6444 18.7766 44.8268 15.7591 43.2744C15.8816 42.9233 15.9356 42.5234 15.9118 42.1508C23.6345 39.3672 30.383 34.5024 35.4953 28.0338C35.9153 28.2307 36.3814 28.3212 36.8444 28.2969C37.157 29.4568 37.4039 30.6402 37.5789 31.8235C37.713 32.7293 39.1051 32.5269 38.9707 31.6177C38.7849 30.3612 38.5218 29.1046 38.1878 27.8739C38.356 27.7692 38.5123 27.6472 38.6546 27.5107C41.0021 29.1043 43.1907 30.9338 45.1734 32.9585C43.9437 35.6767 42.1541 38.1379 39.8802 40.1716C39.6554 40.0028 39.4047 39.867 39.1356 39.7704C39.2739 38.4626 39.3341 37.1422 39.3138 35.8362C39.2996 34.9172 37.8928 34.9388 37.9071 35.858C37.9266 37.1133 37.8685 38.3826 37.7349 39.6397C36.0758 39.9036 34.9907 41.6239 35.4479 43.2362C32.4114 44.8133 29.0091 45.6444 25.567 45.6444ZM38.1812 43.9024C37.3898 43.9024 36.746 43.2539 36.746 42.4568C36.825 40.5389 39.5377 40.5396 39.6164 42.4568C39.6164 43.2539 38.9726 43.9024 38.1812 43.9024Z" fill="#F8DA64"/>
</svg>
