<svg width="61" height="61" viewBox="0 0 61 61" fill="none" xmlns="http://www.w3.org/2000/svg">
<g clip-path="url(#clip0_254_19326)">
<path d="M56.5 0.645508H14.5C13.4391 0.645508 12.4217 1.06694 11.6716 1.81708C10.9214 2.56723 10.5 3.58464 10.5 4.64551V12.6965C7.76889 12.9481 5.23002 14.21 3.38041 16.2351C1.53079 18.2603 0.503631 20.9028 0.5 23.6455L0.5 31.6455C0.50131 32.5383 0.800578 33.4051 1.35036 34.1085C1.90014 34.8118 2.66898 35.3116 3.535 35.5285C3.70359 37.5842 4.44575 39.5513 5.67706 41.206C6.90837 42.8607 8.57938 44.1366 10.5 44.8885V47.6935C7.76855 47.9456 5.22951 49.208 3.37992 51.2337C1.53032 53.2594 0.503338 55.9025 0.5 58.6455C0.5 59.1759 0.710714 59.6847 1.08579 60.0597C1.46086 60.4348 1.96957 60.6455 2.5 60.6455H26.5C27.0304 60.6455 27.5391 60.4348 27.9142 60.0597C28.2893 59.6847 28.5 59.1759 28.5 58.6455C28.4982 57.2761 28.2391 55.9192 27.736 54.6455H59.5C59.7652 54.6455 60.0196 54.5402 60.2071 54.3526C60.3946 54.1651 60.5 53.9107 60.5 53.6455C60.5 53.3803 60.3946 53.1259 60.2071 52.9384C60.0196 52.7509 59.7652 52.6455 59.5 52.6455H52.946C53.3053 52.04 53.4965 51.3496 53.5 50.6455C53.5 50.1151 53.2893 49.6064 52.9142 49.2313C52.5391 48.8562 52.0304 48.6455 51.5 48.6455H48.614C47.5697 48.3806 46.5987 47.8832 45.7735 47.1906C44.9483 46.498 44.2901 45.628 43.848 44.6455H56.5C57.5609 44.6455 58.5783 44.2241 59.3284 43.4739C60.0786 42.7238 60.5 41.7064 60.5 40.6455V4.64551C60.5 3.58464 60.0786 2.56723 59.3284 1.81708C58.5783 1.06694 57.5609 0.645508 56.5 0.645508ZM14.5 2.64551H56.5C57.0304 2.64551 57.5391 2.85622 57.9142 3.23129C58.2893 3.60637 58.5 4.11507 58.5 4.64551V36.6455H25.315C25.3839 36.276 25.4339 35.9031 25.465 35.5285C26.0844 35.3723 26.6572 35.0694 27.135 34.6455H54.5C55.0304 34.6455 55.5391 34.4348 55.9142 34.0597C56.2893 33.6847 56.5 33.1759 56.5 32.6455V6.64551C56.5 6.11507 56.2893 5.60637 55.9142 5.23129C55.5391 4.85622 55.0304 4.64551 54.5 4.64551H16.5C15.9696 4.64551 15.4609 4.85622 15.0858 5.23129C14.7107 5.60637 14.5 6.11507 14.5 6.64551V12.6455H12.5V4.64551C12.5 4.11507 12.7107 3.60637 13.0858 3.23129C13.4609 2.85622 13.9696 2.64551 14.5 2.64551ZM22.794 16.7655C23.1304 16.4268 23.3589 15.996 23.4507 15.5275C23.5426 15.0591 23.4936 14.5739 23.3101 14.1332C23.1265 13.6925 22.8166 13.3161 22.4194 13.0513C22.0221 12.7865 21.5554 12.6453 21.078 12.6455H16.5V6.64551H54.5V32.6455H28.359C28.4483 32.3195 28.4957 31.9835 28.5 31.6455V23.6455C28.4978 22.014 27.9268 20.4343 26.8853 19.1785C25.8438 17.9227 24.397 17.0694 22.794 16.7655ZM11.5 14.6455H21.078C21.1609 14.6445 21.2423 14.6682 21.3117 14.7136C21.3811 14.759 21.4354 14.8241 21.4676 14.9006C21.4998 14.977 21.5085 15.0613 21.4925 15.1427C21.4766 15.2241 21.4367 15.2989 21.378 15.3575L20.086 16.6455H16.5C16.2348 16.6455 15.9804 16.7509 15.7929 16.9384C15.6054 17.1259 15.5 17.3803 15.5 17.6455C15.5 17.9107 15.6054 18.1651 15.7929 18.3526C15.9804 18.5402 16.2348 18.6455 16.5 18.6455H21.5C22.8256 18.6471 24.0964 19.1744 25.0338 20.1117C25.9711 21.0491 26.4984 22.3199 26.5 23.6455V25.8295C26.1797 25.7111 25.8414 25.6488 25.5 25.6455C24.7075 25.6473 23.9478 25.9619 23.386 26.5209C22.8242 27.0799 22.5058 27.838 22.5 28.6305C22.4967 29.1307 22.3744 29.623 22.143 30.0665C21.4207 31.4649 20.3229 32.6342 18.9728 33.4431C17.6226 34.2519 16.0737 34.6683 14.5 34.6455C12.9266 34.6685 11.378 34.2525 10.0279 33.4442C8.6778 32.6359 7.57976 31.4673 6.857 30.0695C6.62531 29.625 6.50293 29.1317 6.5 28.6305C6.4942 27.838 6.1758 27.0799 5.61401 26.5209C5.05223 25.9619 4.2925 25.6473 3.5 25.6455C3.15856 25.6488 2.82026 25.7111 2.5 25.8295V23.6455C2.50265 21.2594 3.45171 18.9717 5.13896 17.2845C6.82622 15.5972 9.11386 14.6482 11.5 14.6455ZM5.5 34.6455C5.5 34.3803 5.39464 34.1259 5.20711 33.9384C5.01957 33.7509 4.76522 33.6455 4.5 33.6455C3.96957 33.6455 3.46086 33.4348 3.08579 33.0597C2.71071 32.6847 2.5 32.1759 2.5 31.6455V28.6455C2.5 28.3803 2.60536 28.1259 2.79289 27.9384C2.98043 27.7509 3.23478 27.6455 3.5 27.6455C3.76522 27.6455 4.01957 27.7509 4.20711 27.9384C4.39464 28.1259 4.5 28.3803 4.5 28.6455C4.50561 29.4647 4.70578 30.2708 5.084 30.9975C5.99407 32.7042 7.35092 34.1315 9.00944 35.1267C10.668 36.1219 12.5658 36.6476 14.5 36.6476C16.4342 36.6476 18.332 36.1219 19.9906 35.1267C21.6491 34.1315 23.0059 32.7042 23.916 30.9975C24.2942 30.2708 24.4944 29.4647 24.5 28.6455C24.5 28.3803 24.6054 28.1259 24.7929 27.9384C24.9804 27.7509 25.2348 27.6455 25.5 27.6455C25.7652 27.6455 26.0196 27.7509 26.2071 27.9384C26.3946 28.1259 26.5 28.3803 26.5 28.6455V31.6455C26.5 32.1759 26.2893 32.6847 25.9142 33.0597C25.5391 33.4348 25.0304 33.6455 24.5 33.6455C24.2348 33.6455 23.9804 33.7509 23.7929 33.9384C23.6054 34.1259 23.5 34.3803 23.5 34.6455C23.5 37.0325 22.5518 39.3216 20.864 41.0095C19.1761 42.6973 16.8869 43.6455 14.5 43.6455C12.1131 43.6455 9.82387 42.6973 8.13604 41.0095C6.44821 39.3216 5.5 37.0325 5.5 34.6455ZM22.389 48.6455H22.061C20.9368 48.1278 19.7325 47.8059 18.5 47.6935V44.8935C18.688 44.8195 18.87 44.7345 19.053 44.6505H27.153C26.715 45.6348 26.0582 46.5063 25.2327 47.1986C24.4072 47.8909 23.4346 48.3857 22.389 48.6455ZM14.5 45.6455C15.171 45.6444 15.8404 45.5818 16.5 45.4585V47.6455H12.5V45.4585C13.1596 45.5818 13.829 45.6444 14.5 45.6455ZM2.5 58.6455C2.50318 56.2595 3.45241 53.9722 5.13955 52.2851C6.82669 50.5979 9.11403 49.6487 11.5 49.6455H17.5C19.886 49.6487 22.1733 50.5979 23.8605 52.2851C25.5476 53.9722 26.4968 56.2595 26.5 58.6455H2.5ZM50.913 52.0585C50.728 52.2449 50.5078 52.3928 50.2653 52.4935C50.0228 52.5943 49.7626 52.646 49.5 52.6455H26.709C26.2299 51.9148 25.666 51.2435 25.029 50.6455H51.5C51.5004 50.9081 51.4488 51.1683 51.348 51.4108C51.2473 51.6534 51.0994 51.8735 50.913 52.0585ZM44.353 48.6455H26.647C27.9022 47.6046 28.8166 46.2113 29.272 44.6455H41.728C42.1834 46.2113 43.0978 47.6046 44.353 48.6455ZM56.5 42.6455H22.038C23.2221 41.5277 24.1442 40.1617 24.738 38.6455H58.5V40.6455C58.5 41.1759 58.2893 41.6847 57.9142 42.0597C57.5391 42.4348 57.0304 42.6455 56.5 42.6455Z" fill="#F8DA64"/>
<path d="M20.5 8.64551H19.5C19.2348 8.64551 18.9804 8.75086 18.7929 8.9384C18.6054 9.12594 18.5 9.38029 18.5 9.64551C18.5 9.91072 18.6054 10.1651 18.7929 10.3526C18.9804 10.5402 19.2348 10.6455 19.5 10.6455H20.5C20.7652 10.6455 21.0196 10.5402 21.2071 10.3526C21.3946 10.1651 21.5 9.91072 21.5 9.64551C21.5 9.38029 21.3946 9.12594 21.2071 8.9384C21.0196 8.75086 20.7652 8.64551 20.5 8.64551Z" fill="#F8DA64"/>
<path d="M40.5 9.64551C40.5 9.38029 40.3946 9.12594 40.2071 8.9384C40.0196 8.75086 39.7652 8.64551 39.5 8.64551H24.5C24.2348 8.64551 23.9804 8.75086 23.7929 8.9384C23.6054 9.12594 23.5 9.38029 23.5 9.64551C23.5 9.91072 23.6054 10.1651 23.7929 10.3526C23.9804 10.5402 24.2348 10.6455 24.5 10.6455H39.5C39.7652 10.6455 40.0196 10.5402 40.2071 10.3526C40.3946 10.1651 40.5 9.91072 40.5 9.64551Z" fill="#F8DA64"/>
<path d="M43.5 10.6455H46.5C46.7652 10.6455 47.0196 10.5402 47.2071 10.3526C47.3946 10.1651 47.5 9.91072 47.5 9.64551C47.5 9.38029 47.3946 9.12594 47.2071 8.9384C47.0196 8.75086 46.7652 8.64551 46.5 8.64551H43.5C43.2348 8.64551 42.9804 8.75086 42.7929 8.9384C42.6054 9.12594 42.5 9.38029 42.5 9.64551C42.5 9.91072 42.6054 10.1651 42.7929 10.3526C42.9804 10.5402 43.2348 10.6455 43.5 10.6455Z" fill="#F8DA64"/>
<path d="M39.5 28.6455H31.5C31.2348 28.6455 30.9804 28.7509 30.7929 28.9384C30.6054 29.1259 30.5 29.3803 30.5 29.6455C30.5 29.9107 30.6054 30.1651 30.7929 30.3526C30.9804 30.5402 31.2348 30.6455 31.5 30.6455H39.5C39.7652 30.6455 40.0196 30.5402 40.2071 30.3526C40.3946 30.1651 40.5 29.9107 40.5 29.6455C40.5 29.3803 40.3946 29.1259 40.2071 28.9384C40.0196 28.7509 39.7652 28.6455 39.5 28.6455Z" fill="#F8DA64"/>
<path d="M43.5 30.6455H46.5C46.7652 30.6455 47.0196 30.5402 47.2071 30.3526C47.3946 30.1651 47.5 29.9107 47.5 29.6455C47.5 29.3803 47.3946 29.1259 47.2071 28.9384C47.0196 28.7509 46.7652 28.6455 46.5 28.6455H43.5C43.2348 28.6455 42.9804 28.7509 42.7929 28.9384C42.6054 29.1259 42.5 29.3803 42.5 29.6455C42.5 29.9107 42.6054 30.1651 42.7929 30.3526C42.9804 30.5402 43.2348 30.6455 43.5 30.6455Z" fill="#F8DA64"/>
<path d="M34.5 13.6455C34.5 13.3803 34.3946 13.1259 34.2071 12.9384C34.0196 12.7509 33.7652 12.6455 33.5 12.6455H26.5C26.2348 12.6455 25.9804 12.7509 25.7929 12.9384C25.6054 13.1259 25.5 13.3803 25.5 13.6455C25.5 13.9107 25.6054 14.1651 25.7929 14.3526C25.9804 14.5402 26.2348 14.6455 26.5 14.6455H33.5C33.7652 14.6455 34.0196 14.5402 34.2071 14.3526C34.3946 14.1651 34.5 13.9107 34.5 13.6455Z" fill="#F8DA64"/>
<path d="M34.5 17.6455C34.5 17.3803 34.3946 17.1259 34.2071 16.9384C34.0196 16.7509 33.7652 16.6455 33.5 16.6455H29.5C29.2348 16.6455 28.9804 16.7509 28.7929 16.9384C28.6054 17.1259 28.5 17.3803 28.5 17.6455C28.5 17.9107 28.6054 18.1651 28.7929 18.3526C28.9804 18.5402 29.2348 18.6455 29.5 18.6455H33.5C33.7652 18.6455 34.0196 18.5402 34.2071 18.3526C34.3946 18.1651 34.5 17.9107 34.5 17.6455Z" fill="#F8DA64"/>
<path d="M37.5 12.6455C37.2348 12.6455 36.9804 12.7509 36.7929 12.9384C36.6054 13.1259 36.5 13.3803 36.5 13.6455C36.5 13.9107 36.6054 14.1651 36.7929 14.3526C36.9804 14.5402 37.2348 14.6455 37.5 14.6455H40.5C40.7652 14.6455 41.0196 14.5402 41.2071 14.3526C41.3946 14.1651 41.5 13.9107 41.5 13.6455C41.5 13.3803 41.3946 13.1259 41.2071 12.9384C41.0196 12.7509 40.7652 12.6455 40.5 12.6455H37.5Z" fill="#F8DA64"/>
<path d="M31.5 26.6455H35.5C35.7652 26.6455 36.0196 26.5402 36.2071 26.3526C36.3946 26.1651 36.5 25.9107 36.5 25.6455C36.5 25.3803 36.3946 25.1259 36.2071 24.9384C36.0196 24.7509 35.7652 24.6455 35.5 24.6455H31.5C31.2348 24.6455 30.9804 24.7509 30.7929 24.9384C30.6054 25.1259 30.5 25.3803 30.5 25.6455C30.5 25.9107 30.6054 26.1651 30.7929 26.3526C30.9804 26.5402 31.2348 26.6455 31.5 26.6455Z" fill="#F8DA64"/>
<path d="M40.5 20.6455H31.5C31.2348 20.6455 30.9804 20.7509 30.7929 20.9384C30.6054 21.1259 30.5 21.3803 30.5 21.6455C30.5 21.9107 30.6054 22.1651 30.7929 22.3526C30.9804 22.5402 31.2348 22.6455 31.5 22.6455H40.5C40.7652 22.6455 41.0196 22.5402 41.2071 22.3526C41.3946 22.1651 41.5 21.9107 41.5 21.6455C41.5 21.3803 41.3946 21.1259 41.2071 20.9384C41.0196 20.7509 40.7652 20.6455 40.5 20.6455Z" fill="#F8DA64"/>
<path d="M44.5 20.6455C44.2348 20.6455 43.9804 20.7509 43.7929 20.9384C43.6054 21.1259 43.5 21.3803 43.5 21.6455C43.5 21.9107 43.6054 22.1651 43.7929 22.3526C43.9804 22.5402 44.2348 22.6455 44.5 22.6455H45.5C45.7652 22.6455 46.0196 22.5402 46.2071 22.3526C46.3946 22.1651 46.5 21.9107 46.5 21.6455C46.5 21.3803 46.3946 21.1259 46.2071 20.9384C46.0196 20.7509 45.7652 20.6455 45.5 20.6455H44.5Z" fill="#F8DA64"/>
</g>
<defs>
<clipPath id="clip0_254_19326">
<rect width="60" height="60" fill="white" transform="translate(0.5 0.645508)"/>
</clipPath>
</defs>
</svg>
