<svg width="61" height="61" viewBox="0 0 61 61" fill="none" xmlns="http://www.w3.org/2000/svg">
<g clip-path="url(#clip0_254_19217)">
<path d="M49.0166 18.0771C49.6637 18.0771 50.1885 17.5525 50.1885 16.9053V4.16113C50.1885 2.22262 48.6114 0.645508 46.6729 0.645508H4.0166C2.07809 0.645508 0.500977 2.22262 0.500977 4.16113V57.1299C0.500977 59.0684 2.07809 60.6455 4.0166 60.6455H46.6729C48.6114 60.6455 50.1885 59.0684 50.1885 57.1299V48.4964C50.1885 47.8492 49.6637 47.3246 49.0166 47.3246C48.3695 47.3246 47.8447 47.8492 47.8447 48.4964V57.1299C47.8447 57.7761 47.319 58.3018 46.6729 58.3018H4.0166C3.37043 58.3018 2.84473 57.7761 2.84473 57.1299V4.16113C2.84473 3.51496 3.37043 2.98926 4.0166 2.98926H46.6729C47.319 2.98926 47.8447 3.51496 47.8447 4.16113V16.9053C47.8447 17.5525 48.3695 18.0771 49.0166 18.0771Z" fill="#F8DA64"/>
<path d="M25.3447 6.97363C19.3999 6.97363 14.5635 11.8101 14.5635 17.7549C14.5635 20.8389 15.8654 23.6242 17.9481 25.5911C17.9871 25.6328 18.0286 25.6723 18.0739 25.7083C19.9924 27.4636 22.5456 28.536 25.3446 28.536C28.1436 28.536 30.6968 27.4635 32.6153 25.7083C32.6606 25.6723 32.7021 25.6327 32.7411 25.5911C34.824 23.6242 36.126 20.8389 36.126 17.7549C36.126 11.8101 31.2895 6.97363 25.3447 6.97363ZM25.3447 26.1924C23.4312 26.1924 21.6652 25.5511 20.2481 24.4735C21.2781 22.6471 23.2001 21.5049 25.3447 21.5049C27.4894 21.5049 29.4114 22.6471 30.4413 24.4735C29.0242 25.5511 27.2583 26.1924 25.3447 26.1924ZM23.4697 17.2861V16.5244C23.4697 15.4906 24.3109 14.6494 25.3447 14.6494C26.3786 14.6494 27.2197 15.4906 27.2197 16.5244V17.2861C27.2197 18.32 26.3786 19.1611 25.3447 19.1611C24.3109 19.1611 23.4697 18.32 23.4697 17.2861ZM32.1346 22.7568C31.2703 21.475 30.0725 20.4781 28.6819 19.8626C29.2338 19.1493 29.5635 18.2557 29.5635 17.2861V16.5244C29.5635 14.1981 27.671 12.3057 25.3447 12.3057C23.0184 12.3057 21.126 14.1981 21.126 16.5244V17.2861C21.126 18.2557 21.4556 19.1493 22.0076 19.8626C20.6169 20.4781 19.4191 21.475 18.5549 22.7568C17.5202 21.3561 16.9072 19.626 16.9072 17.7549C16.9072 13.1024 20.6923 9.31738 25.3447 9.31738C29.9972 9.31738 33.7822 13.1024 33.7822 17.7549C33.7822 19.626 33.1692 21.3561 32.1346 22.7568Z" fill="#F8DA64"/>
<path d="M31.6728 51.9736H25.3447C24.6976 51.9736 24.1729 52.4983 24.1729 53.1455C24.1729 53.7927 24.6976 54.3174 25.3447 54.3174H31.6728C32.32 54.3174 32.8447 53.7927 32.8447 53.1455C32.8447 52.4983 32.32 51.9736 31.6728 51.9736Z" fill="#F8DA64"/>
<path d="M31.6728 45.4111H15.0322C14.3851 45.4111 13.8604 45.9358 13.8604 46.583C13.8604 47.2302 14.3851 47.7549 15.0322 47.7549H31.6728C32.32 47.7549 32.8447 47.2302 32.8447 46.583C32.8447 45.9358 32.32 45.4111 31.6728 45.4111Z" fill="#F8DA64"/>
<path d="M31.6728 38.8486H15.0322C14.3851 38.8486 13.8604 39.3733 13.8604 40.0205C13.8604 40.6677 14.3851 41.1924 15.0322 41.1924H31.6728C32.32 41.1924 32.8447 40.6677 32.8447 40.0205C32.8447 39.3733 32.32 38.8486 31.6728 38.8486Z" fill="#F8DA64"/>
<path d="M10.855 32.6295C10.6371 32.4115 10.3348 32.2861 10.0254 32.2861C9.71707 32.2861 9.41473 32.4115 9.19688 32.6295C8.97891 32.8475 8.85352 33.1498 8.85352 33.458C8.85352 33.7662 8.97879 34.0686 9.19688 34.2865C9.41602 34.5045 9.71707 34.6299 10.0254 34.6299C10.3348 34.6299 10.6359 34.5045 10.855 34.2865C11.0729 34.0686 11.1984 33.7662 11.1984 33.458C11.1984 33.1498 11.073 32.8475 10.855 32.6295Z" fill="#F8DA64"/>
<path d="M10.855 39.192C10.6359 38.974 10.3348 38.8486 10.0254 38.8486C9.71707 38.8486 9.41602 38.974 9.19688 39.192C8.97891 39.41 8.85352 39.7123 8.85352 40.0205C8.85352 40.3287 8.97879 40.6311 9.19688 40.849C9.41602 41.067 9.71707 41.1924 10.0254 41.1924C10.3348 41.1924 10.6359 41.067 10.855 40.849C11.0729 40.6311 11.1984 40.3287 11.1984 40.0205C11.1984 39.7123 11.073 39.41 10.855 39.192Z" fill="#F8DA64"/>
<path d="M10.855 45.7545C10.6359 45.5365 10.3348 45.4111 10.0254 45.4111C9.71707 45.4111 9.41602 45.5365 9.19688 45.7545C8.97891 45.9725 8.85352 46.2748 8.85352 46.583C8.85352 46.8912 8.97879 47.1936 9.19688 47.4115C9.41473 47.6295 9.71707 47.7549 10.0254 47.7549C10.3348 47.7549 10.6371 47.6295 10.855 47.4115C11.0729 47.1936 11.1984 46.8912 11.1984 46.583C11.1984 46.2748 11.073 45.9725 10.855 45.7545Z" fill="#F8DA64"/>
<path d="M31.6728 32.2861H15.0322C14.3851 32.2861 13.8604 32.8108 13.8604 33.458C13.8604 34.1052 14.3851 34.6299 15.0322 34.6299H31.6728C32.32 34.6299 32.8447 34.1052 32.8447 33.458C32.8447 32.8108 32.32 32.2861 31.6728 32.2861Z" fill="#F8DA64"/>
<path d="M58.0396 15.9174C56.9011 15.2601 55.5748 15.0854 54.3047 15.4256C53.0349 15.766 51.9734 16.5804 51.3162 17.7189L36.5691 43.2614C36.4883 43.4015 36.4372 43.5567 36.4193 43.7174L35.3813 53.0155C35.3297 53.4782 35.5568 53.9276 35.9599 54.1604C36.1419 54.2654 36.3441 54.3175 36.5458 54.3175C36.7909 54.3175 37.0351 54.2407 37.2408 54.0892L44.7741 48.5411C44.9043 48.4452 45.0133 48.3235 45.094 48.1834L59.841 22.6409C61.198 20.2906 60.3899 17.2744 58.0396 15.9174ZM38.0077 50.6135L38.5498 45.7582L41.9414 47.7164L38.0077 50.6135ZM43.6502 45.9966L39.1848 43.4184L51.019 22.9212L55.4844 25.4993L43.6502 45.9966ZM57.8113 21.4689L56.6562 23.4696L52.1908 20.8915L53.3459 18.8908C53.6902 18.2944 54.2461 17.8678 54.9113 17.6896C55.5766 17.5112 56.2713 17.6029 56.8676 17.9472C57.464 18.2915 57.8905 18.8474 58.0688 19.5126C58.247 20.1777 58.1556 20.8725 57.8113 21.4689Z" fill="#F8DA64"/>
</g>
<defs>
<clipPath id="clip0_254_19217">
<rect width="60" height="60" fill="white" transform="translate(0.5 0.645508)"/>
</clipPath>
</defs>
</svg>
