<svg width="49" height="48" viewBox="0 0 49 48" fill="none" xmlns="http://www.w3.org/2000/svg">
<path d="M42.5 4.5H6.5C4.84546 4.5 3.5 5.84546 3.5 7.5V33C3.5 34.6545 4.84546 36 6.5 36H11.2622C12.2567 35.9759 12.2425 34.5186 11.2622 34.5H6.5C5.67309 34.5 5 33.8269 5 33V11.9993H15.1895C16.0735 11.9993 16.9041 11.655 17.5303 11.031C17.8723 10.689 18.3271 10.5007 18.8105 10.5007H41C41.9709 10.4939 41.9966 9.01464 41 9.00074L18.8105 9.00073C17.9265 9.00073 17.0959 9.34496 16.4697 9.96899C16.1277 10.311 15.6729 10.4993 15.1895 10.4993H5V7.5C5 6.67309 5.67309 6 6.5 6H42.5C43.3269 6 44 6.67309 44 7.5V33C44 33.8269 43.3269 34.5 42.5 34.5H37.7378C36.7473 34.5128 36.7574 35.9879 37.7378 36H42.5C44.1545 36 45.5 34.6545 45.5 33V7.5C45.5 5.84546 44.1545 4.5 42.5 4.5Z" fill="#F8DA64"/>
<path d="M12.875 8.25006C12.8917 9.23587 14.3584 9.23573 14.375 8.25003C14.3583 7.26424 12.8916 7.26438 12.875 8.25006Z" fill="#F8DA64"/>
<path d="M9.875 8.25006C9.89174 9.23587 11.3584 9.23573 11.375 8.25003C11.3583 7.26424 9.89157 7.26438 9.875 8.25006Z" fill="#F8DA64"/>
<path d="M6.875 8.25006C6.89174 9.23587 8.35839 9.23573 8.375 8.25003C8.35828 7.26424 6.89157 7.26438 6.875 8.25006Z" fill="#F8DA64"/>
<path d="M16.7896 43.5C17.0362 43.5 17.2686 43.3781 17.4078 43.1748L19.9029 39.5413H20.9173L21.4412 41.5957C21.6946 42.594 22.5918 43.2913 23.6216 43.2913H25.378C26.4078 43.2913 27.305 42.594 27.5584 41.5964L28.0824 39.5413H29.0967L31.5919 43.1748C31.7311 43.3781 31.9634 43.5001 32.21 43.5C33.0932 43.6751 35.8751 38.6202 34.4337 34.2027C33.6827 31.7866 32.127 30.2363 31.1086 29.432C30.812 26.8533 29.999 24.1213 28.2513 21.5962C27.3292 20.2639 25.9617 19.5 24.4998 19.5C20.0722 19.5586 18.3095 26.1578 17.8909 29.432C12.639 33.5354 13.8287 40.0987 16.1855 43.1946C16.3275 43.3872 16.5516 43.5 16.7896 43.5ZM26.1053 41.2266C26.0203 41.5591 25.7215 41.7913 25.378 41.7913H23.6216C23.2781 41.7913 22.9793 41.5591 22.8943 41.2258L22.4648 39.5413H26.5348L26.1053 41.2266ZM33.001 34.6487C33.8924 37.5066 32.8963 40.0576 32.18 41.3811L30.3072 38.6541C30.7453 37.0798 31.2839 34.5388 31.2504 31.6174C31.9165 32.3545 32.5984 33.3526 33.001 34.6487ZM21.9817 22.4502C26.2956 17.3964 29.4971 26.4783 29.6549 29.9081C29.9851 33.1785 29.4082 36.2338 28.9222 38.0413H20.0774C18.8351 33.9372 18.7178 26.783 21.9817 22.4502ZM15.9986 34.6479C16.4012 33.3523 17.0831 32.3544 17.7492 31.6174C17.7157 34.5388 18.2544 37.0798 18.6924 38.6541L16.8196 41.3811C16.1033 40.0576 15.1072 37.5066 15.9986 34.6479Z" fill="#F8DA64"/>
<path d="M24.4999 31.4697C27.9689 31.3593 27.9681 26.3297 24.4998 26.2197C21.0309 26.3302 21.0317 31.3598 24.4999 31.4697ZM24.4999 27.7197C25.9784 27.7461 25.9781 29.9436 24.4999 29.9697C23.0215 29.9433 23.0217 27.7459 24.4999 27.7197Z" fill="#F8DA64"/>
</svg>
