<svg width="49" height="48" viewBox="0 0 49 48" fill="none" xmlns="http://www.w3.org/2000/svg">
<path d="M41.783 13.7687L30.397 2.38268C30.3019 2.28433 30.1877 2.20656 30.0613 2.1542C29.935 2.10183 29.7992 2.07599 29.6624 2.07826H11.065C9.96283 2.07826 8.90577 2.51611 8.1264 3.29548C7.34703 4.07485 6.90918 5.13191 6.90918 6.23411V41.7666C6.90918 42.8688 7.34703 43.9258 8.1264 44.7052C8.90577 45.4846 9.96283 45.9224 11.065 45.9224H37.9315C39.0337 45.9224 40.0908 45.4846 40.8702 44.7052C41.6495 43.9258 42.0874 42.8688 42.0874 41.7666V14.5032C42.0865 14.2278 41.9771 13.9639 41.783 13.7687ZM38.5404 13.4642H32.2598C31.8465 13.4642 31.4501 13.3 31.1579 13.0078C30.8656 12.7155 30.7014 12.3191 30.7014 11.9058V5.62528L38.5404 13.4642ZM37.9315 43.8445H11.0681C10.517 43.8445 9.98851 43.6256 9.59883 43.2359C9.20914 42.8462 8.99022 42.3177 8.99022 41.7666V6.23411C8.99022 5.68301 9.20914 5.15448 9.59883 4.7648C9.98851 4.37511 10.517 4.15619 11.0681 4.15619H28.6266V11.9058C28.6266 12.8702 29.0097 13.7951 29.6917 14.4771C30.3736 15.159 31.2985 15.5422 32.263 15.5422H40.0126V41.7666C40.0126 42.0397 39.9587 42.3102 39.8541 42.5625C39.7495 42.8148 39.5961 43.044 39.4029 43.237C39.2096 43.43 38.9801 43.583 38.7277 43.6872C38.4752 43.7915 38.2047 43.8449 37.9315 43.8445Z" fill="#F8DA64"/>
<path d="M20.3269 18.0777C21.1592 18.0777 21.9727 17.8309 22.6647 17.3686C23.3566 16.9062 23.8959 16.249 24.2144 15.4802C24.5329 14.7113 24.6162 13.8652 24.4539 13.049C24.2915 12.2328 23.8908 11.483 23.3023 10.8945C22.7138 10.3061 21.9641 9.90532 21.1478 9.74296C20.3316 9.5806 19.4856 9.66393 18.7167 9.98241C17.9478 10.3009 17.2906 10.8402 16.8283 11.5322C16.3659 12.2241 16.1191 13.0377 16.1191 13.8699C16.1205 14.9855 16.5643 16.0549 17.3531 16.8437C18.1419 17.6326 19.2114 18.0763 20.3269 18.0777ZM20.3269 11.74C20.7482 11.74 21.16 11.8649 21.5102 12.099C21.8605 12.333 22.1335 12.6657 22.2947 13.0548C22.4559 13.444 22.4981 13.8723 22.4159 14.2854C22.3337 14.6986 22.1308 15.0781 21.833 15.3759C21.5351 15.6738 21.1556 15.8767 20.7424 15.9588C20.3293 16.041 19.901 15.9989 19.5119 15.8376C19.1227 15.6764 18.79 15.4035 18.556 15.0532C18.322 14.7029 18.1971 14.2912 18.1971 13.8699C18.1979 13.3053 18.4225 12.764 18.8218 12.3648C19.221 11.9655 19.7623 11.7409 20.3269 11.74Z" fill="#F8DA64"/>
<path d="M14.2372 26.1303C14.5128 26.1303 14.777 26.0209 14.9719 25.826C15.1667 25.6312 15.2762 25.3669 15.2762 25.0914V24.4576C15.2775 23.4368 15.6836 22.4583 16.4054 21.7365C17.1272 21.0147 18.1058 20.6086 19.1266 20.6072H21.5266C22.5473 20.6086 23.5259 21.0147 24.2477 21.7365C24.9695 22.4583 25.3756 23.4368 25.3769 24.4576V25.0914C25.3769 25.3669 25.4864 25.6312 25.6812 25.826C25.8761 26.0209 26.1404 26.1303 26.4159 26.1303C26.6915 26.1303 26.9557 26.0209 27.1506 25.826C27.3454 25.6312 27.4549 25.3669 27.4549 25.0914V24.4576C27.4529 22.8859 26.8277 21.3791 25.7164 20.2678C24.605 19.1564 23.0982 18.5312 21.5266 18.5293H19.1266C17.5549 18.5312 16.0481 19.1564 14.9367 20.2678C13.8254 21.3791 13.2002 22.8859 13.1982 24.4576V25.0914C13.1982 25.3669 13.3077 25.6312 13.5025 25.826C13.6974 26.0209 13.9617 26.1303 14.2372 26.1303Z" fill="#F8DA64"/>
<path d="M13.6581 33.7322H26.2659C26.5414 33.7322 26.8057 33.6228 27.0006 33.4279C27.1954 33.2331 27.3049 32.9688 27.3049 32.6933C27.3049 32.4177 27.1954 32.1534 27.0006 31.9586C26.8057 31.7638 26.5414 31.6543 26.2659 31.6543H13.6581C13.3826 31.6543 13.1183 31.7638 12.9234 31.9586C12.7286 32.1534 12.6191 32.4177 12.6191 32.6933C12.6191 32.9688 12.7286 33.2331 12.9234 33.4279C13.1183 33.6228 13.3826 33.7322 13.6581 33.7322Z" fill="#F8DA64"/>
<path d="M33.3984 37.125H13.6581C13.3826 37.125 13.1183 37.2345 12.9234 37.4293C12.7286 37.6241 12.6191 37.8884 12.6191 38.164C12.6191 38.4395 12.7286 38.7038 12.9234 38.8986C13.1183 39.0935 13.3826 39.2029 13.6581 39.2029H33.3984C33.6739 39.2029 33.9382 39.0935 34.133 38.8986C34.3279 38.7038 34.4373 38.4395 34.4373 38.164C34.4373 37.8884 34.3279 37.6241 34.133 37.4293C33.9382 37.2345 33.6739 37.125 33.3984 37.125Z" fill="#F8DA64"/>
</svg>
