<svg width="60" height="61" viewBox="0 0 60 61" fill="none" xmlns="http://www.w3.org/2000/svg">
<path d="M54.761 27.7449H52.0531C51.6992 27.7449 51.4121 27.4579 51.4121 27.1039C51.4121 26.7499 51.6992 26.4629 52.0531 26.4629H54.761C55.1149 26.4629 55.402 26.7499 55.402 27.1039C55.402 27.4579 55.1149 27.7449 54.761 27.7449Z" fill="#F8DA64"/>
<path d="M49.1046 16.7282C48.4757 16.7282 48.2363 15.8482 48.7832 15.5321L51.1283 14.1769C51.435 13.9998 51.827 14.1048 52.0041 14.4112C52.1812 14.7177 52.0763 15.1098 51.7698 15.2869L49.4247 16.6421C49.3237 16.7004 49.2134 16.7282 49.1046 16.7282Z" fill="#F8DA64"/>
<path d="M41.0457 8.66285C40.5608 8.66285 40.249 8.12092 40.4911 7.70144L41.845 5.35413C42.0218 5.04746 42.4138 4.94208 42.7206 5.11913C43.0272 5.29605 43.1325 5.6881 42.9556 5.99464L41.6016 8.34195C41.4829 8.54772 41.2673 8.66285 41.0457 8.66285Z" fill="#F8DA64"/>
<path d="M19.0328 8.66293C18.8112 8.66293 18.5957 8.54793 18.477 8.34204L17.123 5.99473C16.9461 5.68806 17.0513 5.29614 17.358 5.11921C17.6645 4.94203 18.0566 5.04742 18.2335 5.35421L19.5875 7.70152C19.8295 8.12114 19.5177 8.66293 19.0328 8.66293Z" fill="#F8DA64"/>
<path d="M10.9739 16.7284C10.8651 16.7284 10.7548 16.7007 10.6538 16.6422L8.30866 15.2871C8.00212 15.1099 7.89725 14.7179 8.07443 14.4113C8.25148 14.1048 8.64353 13.9996 8.9502 14.1771L11.2953 15.5322C11.8405 15.8473 11.6039 16.7284 10.9739 16.7284Z" fill="#F8DA64"/>
<path d="M8.0256 27.7449H5.31778C4.96381 27.7449 4.67676 27.4579 4.67676 27.1039C4.67676 26.7499 4.96381 26.4629 5.31778 26.4629H8.0256C8.37958 26.4629 8.66663 26.7499 8.66663 27.1039C8.66663 27.4579 8.37958 27.7449 8.0256 27.7449Z" fill="#F8DA64"/>
<path d="M56.2821 59.1714H55.5684C54.5794 56.4827 51.751 54.7928 48.9171 55.1529C47.3322 52.1214 44.158 50.1886 40.6959 50.1886C39.8549 50.1886 39.0272 50.3036 38.2239 50.5259V45.0454C38.2239 43.2518 39.0467 41.5394 40.425 40.4646C44.573 37.2301 46.9521 32.3606 46.9521 27.1046C46.9521 22.2177 44.8413 17.5695 41.161 14.3518C40.8945 14.1188 40.4895 14.1459 40.2565 14.4124C40.0236 14.679 40.0507 15.084 40.3172 15.3169C43.719 18.2911 45.67 22.5876 45.67 27.1046C45.67 31.9628 43.4709 36.4638 39.6366 39.4537C38.2116 40.5649 37.2742 42.2291 37.0164 44.036L22.9519 44.0332C22.7291 42.2018 21.8045 40.536 20.3367 39.3714C16.5635 36.3772 14.4026 31.8991 14.4083 27.0856C14.4135 22.8179 16.0983 18.8346 19.1528 15.8694C19.4068 15.6228 19.4128 15.2169 19.1662 14.9629C18.9196 14.709 18.5139 14.7029 18.2597 14.9496C14.9549 18.1581 13.1317 22.4676 13.1262 27.0842C13.12 32.2919 15.4577 37.1365 19.5396 40.3758C20.9276 41.477 21.7235 43.1256 21.7235 44.8988V50.5088C20.9368 50.2967 20.1265 50.1887 19.3039 50.1887C15.8418 50.1887 12.6676 52.1215 11.0827 55.1531C8.24808 54.7928 5.42026 56.4833 4.43141 59.1715H0.641026C0.287051 59.1715 0 59.4586 0 59.8126C0 60.1665 0.287051 60.4536 0.641026 60.4536H56.2821C56.636 60.4536 56.9231 60.1665 56.9231 59.8126C56.9231 59.4586 56.636 59.1714 56.2821 59.1714ZM23.0056 50.1545L30.4031 50.1573H30.4032C30.7572 50.1573 31.0442 49.8705 31.0442 49.5165C31.0444 49.1626 30.7574 48.8754 30.4035 48.8753L23.0055 48.8724V45.3153L36.9417 45.3181V51.9824C36.9417 53.0441 36.079 53.9079 35.0186 53.9079H24.9286C23.8682 53.9079 23.0055 53.0442 23.0055 51.9824V50.1545H23.0056ZM5.82436 59.1714C6.80641 57.147 9.12077 56.0317 11.3174 56.4911C11.6106 56.5524 11.9077 56.4024 12.0321 56.1296C13.3219 53.2994 16.1764 51.4706 19.3041 51.4706C20.1303 51.4706 20.9421 51.597 21.7237 51.8441C21.6618 53.3619 22.7273 54.7655 24.209 55.1072C24.3394 56.749 25.1601 58.1992 26.3804 59.1713H5.82436V59.1714ZM29.9999 59.1555C27.6873 59.1555 25.7754 57.4206 25.505 55.1899H34.4949C34.2244 57.4206 32.3124 59.1555 29.9999 59.1555ZM33.6195 59.1714C34.8428 58.1969 35.6646 56.7418 35.7918 55.095C37.2664 54.7281 38.2437 53.3572 38.2239 51.8614C39.0219 51.6028 39.8514 51.4708 40.6959 51.4708C43.8236 51.4708 46.6781 53.2995 47.968 56.1297C48.0923 56.4026 48.3894 56.5529 48.6826 56.4913C50.8792 56.0317 53.1946 57.1473 54.1766 59.1715H33.6195V59.1714Z" fill="#F8DA64"/>
<path d="M37.6377 18.5724C37.8304 17.0105 37.8403 15.4573 37.6655 13.9172C37.074 8.70129 34.6483 3.98488 30.4268 0.776165C30.1972 0.601678 29.8792 0.601934 29.6497 0.777063C25.4429 3.98988 22.9912 8.70655 22.3827 13.9151C22.2038 15.446 22.2083 16.989 22.3946 18.5396C18.9564 21.9058 17.4673 26.6482 18.4091 31.2951C18.5055 31.7705 19.1005 31.9799 19.4708 31.6401L24.9692 26.5949C25.2985 27.2313 25.6588 27.8677 26.0476 28.504C25.26 29.7028 23.9987 32.1663 24.5195 35.0642C24.5841 35.4237 24.9756 35.6806 25.3469 35.561L27.6549 34.8181C28.2108 36.0283 29.2441 38.2572 29.4638 38.5869C29.7138 38.9621 30.2859 38.9613 30.5354 38.5869C30.7553 38.2572 31.7885 36.0283 32.3444 34.8181L34.6523 35.561C35.0235 35.6806 35.415 35.4236 35.4797 35.0642C35.9963 32.1894 34.7551 29.7387 33.9762 28.5412C34.3658 27.9008 34.7271 27.2603 35.0573 26.62L40.5283 31.6401C40.8986 31.9799 41.4936 31.7705 41.59 31.2951C42.5281 26.6665 41.0513 21.9363 37.6377 18.5724ZM30.0396 2.10078C31.8767 3.57847 33.4149 5.42757 34.5027 7.52104C33.2278 8.49257 31.6509 9.0268 30.038 9.0268C28.4256 9.0268 26.8491 8.49296 25.5745 7.52193C26.6691 5.43155 28.2053 3.58257 30.0396 2.10078ZM19.4867 29.8855C19.105 26.3491 20.2454 22.8351 22.6497 20.1285C22.9986 21.8772 23.5771 23.6337 24.3833 25.3923L19.4867 29.8855ZM34.3068 34.1027L32.1953 33.423C31.8859 33.3233 31.5509 33.471 31.4158 33.7667C30.9223 34.8465 30.3872 35.9978 29.9996 36.8101C29.6119 35.9976 29.0769 34.8464 28.5835 33.7667C28.4483 33.4709 28.1132 33.3232 27.804 33.423L25.6924 34.1027C25.5553 31.9454 26.5135 30.1241 27.1281 29.1937H32.8715C33.478 30.1122 34.4437 31.9395 34.3068 34.1027ZM32.8601 27.9118H27.1867C24.3159 23.243 23.1281 18.5854 23.6562 14.0639C23.7733 13.0609 24.0086 11.0473 25.0142 8.70104C26.4715 9.74001 28.2358 10.3089 30.0381 10.3089C31.8392 10.3089 33.6024 9.74078 35.0592 8.70296C36.0487 11.0387 36.2776 13.056 36.3917 14.0617C36.9039 18.5763 35.7158 23.2342 32.8601 27.9118ZM40.5124 29.8855L35.6424 25.4168C36.4465 23.66 37.0255 21.9063 37.378 20.1614C39.7619 22.8635 40.8918 26.3653 40.5124 29.8855Z" fill="#F8DA64"/>
<path d="M30.039 17.3295C28.6659 17.3295 27.5488 16.2101 27.5488 14.8341C27.5488 13.4582 28.6659 12.3389 30.039 12.3389C31.412 12.3389 32.5291 13.4582 32.5291 14.8341C32.5291 16.21 31.412 17.3295 30.039 17.3295ZM30.039 13.6208C29.3728 13.6208 28.8309 14.165 28.8309 14.834C28.8309 15.503 29.3728 16.0473 30.039 16.0473C30.7051 16.0473 31.247 15.503 31.247 14.834C31.247 14.165 30.7051 13.6208 30.039 13.6208Z" fill="#F8DA64"/>
<path d="M30.039 24.7475C28.6659 24.7475 27.5488 23.6281 27.5488 22.2522C27.5488 20.8763 28.6659 19.7568 30.039 19.7568C31.412 19.7568 32.5291 20.8762 32.5291 22.2522C32.5291 23.6281 31.412 24.7475 30.039 24.7475ZM30.039 21.0389C29.3728 21.0389 28.8309 21.5832 28.8309 22.2522C28.8309 22.9212 29.3728 23.4654 30.039 23.4654C30.7051 23.4654 31.247 22.9212 31.247 22.2522C31.247 21.5832 30.7051 21.0389 30.039 21.0389Z" fill="#F8DA64"/>
<path d="M8.33374 48.2962C8.09926 48.2962 7.88362 48.1682 7.77118 47.9625L6.0481 44.809L2.89772 43.0844C2.46118 42.8454 2.46118 42.1989 2.89772 41.9599L6.0481 40.2352L7.77118 37.0817C8.0099 36.6446 8.65746 36.6446 8.89618 37.0817L10.6193 40.2352L13.7696 41.9599C14.2062 42.1989 14.2062 42.8454 13.7696 43.0844L10.6194 44.809L8.89631 47.9625C8.78387 48.1681 8.56823 48.2962 8.33374 48.2962ZM4.54054 42.5221L6.82849 43.7746C6.93605 43.8335 7.02438 43.922 7.08323 44.0295L8.33374 46.3182L9.58426 44.0295C9.64297 43.922 9.73144 43.8335 9.839 43.7746L12.1269 42.5221L9.839 41.2695C9.73144 41.2107 9.6431 41.1222 9.58426 41.0146L8.33374 38.7261L7.08323 41.0148C7.02451 41.1223 6.93605 41.2108 6.82849 41.2696L4.54054 42.5221Z" fill="#F8DA64"/>
<path d="M51.6668 48.2962C51.4323 48.2962 51.2166 48.1682 51.1042 47.9625L49.3811 44.809L46.2307 43.0844C45.7942 42.8454 45.7942 42.1989 46.2307 41.9599L49.3811 40.2352L51.1042 37.0817C51.3429 36.6446 51.9905 36.6446 52.2292 37.0817L53.9523 40.2352L57.1026 41.9599C57.5392 42.1989 57.5392 42.8454 57.1026 43.0844L53.9523 44.809L52.2292 47.9625C52.1169 48.1681 51.9012 48.2962 51.6668 48.2962ZM47.8735 42.5221L50.1615 43.7746C50.2691 43.8335 50.3574 43.922 50.4162 44.0295L51.6668 46.3182L52.9173 44.0295C52.976 43.922 53.0644 43.8335 53.172 43.7746L55.46 42.5221L53.172 41.2695C53.0644 41.2107 52.9761 41.1222 52.9173 41.0146L51.6668 38.7261L50.4162 41.0148C50.3575 41.1223 50.2691 41.2108 50.1615 41.2696L47.8735 42.5221Z" fill="#F8DA64"/>
<path d="M59.1663 60.6452C59.6266 60.6452 59.9997 60.2721 59.9997 59.8118C59.9997 59.3516 59.6266 58.9785 59.1663 58.9785C58.7061 58.9785 58.333 59.3516 58.333 59.8118C58.333 60.2721 58.7061 60.6452 59.1663 60.6452Z" fill="#F8DA64"/>
<path d="M33.7367 50.3464C34.1969 50.3464 34.57 49.9733 34.57 49.513C34.57 49.0528 34.1969 48.6797 33.7367 48.6797C33.2764 48.6797 32.9033 49.0528 32.9033 49.513C32.9033 49.9733 33.2764 50.3464 33.7367 50.3464Z" fill="#F8DA64"/>
</svg>
