<svg width="20" height="19" viewBox="0 0 20 19" fill="none" xmlns="http://www.w3.org/2000/svg">
<path d="M9.04894 1.57158C9.3483 0.650272 10.6517 0.650271 10.9511 1.57158L12.4697 6.24534C12.6035 6.65737 12.9875 6.93633 13.4207 6.93633H18.335C19.3037 6.93633 19.7065 8.17594 18.9228 8.74534L14.947 11.6339C14.5966 11.8885 14.4499 12.3399 14.5838 12.7519L16.1024 17.4257C16.4017 18.347 15.3472 19.1131 14.5635 18.5437L10.5878 15.6552C10.2373 15.4005 9.7627 15.4005 9.41221 15.6552L5.43648 18.5437C4.65276 19.1131 3.59828 18.347 3.89763 17.4257L5.41623 12.7519C5.55011 12.3399 5.40345 11.8885 5.05296 11.6339L1.07722 8.74534C0.293507 8.17594 0.696283 6.93633 1.66501 6.93633H6.57929C7.01252 6.93633 7.39647 6.65737 7.53035 6.24534L9.04894 1.57158Z" fill="#FFB31F"/>
</svg>
