<svg width="109" height="31" viewBox="0 0 109 31" fill="none" xmlns="http://www.w3.org/2000/svg">
<g clip-path="url(#clip0_240_5051)">
<rect x="79.3105" y="0.0878906" width="29.1892" height="29.1892" rx="14.5946" transform="rotate(-0.173721 79.3105 0.0878906)" fill="#FFE75C"/>
<path d="M101.805 29.6919C101.91 30.1133 101.918 30.5533 101.828 30.9783C101.738 31.4035 101.552 31.8023 101.285 32.1452C101.018 32.4879 100.677 32.7656 100.287 32.9569C99.8969 33.1483 99.4686 33.2484 99.0339 33.2497L93.0975 33.2677L90.3209 34.8329L90.3206 34.7498C89.0545 34.7537 88.3269 34.3407 88.8733 29.6895C88.6202 28.3826 87.4422 23.2385 86.7871 19.4005C86.1953 15.8944 87.4991 14.6035 91.1046 12.5584C92.6267 7.98726 96.6126 8.24501 97.3889 10.9826C98.1652 13.7201 100.733 25.3569 101.805 29.6919Z" fill="#66BCFF"/>
<path d="M101.804 29.6921C101.258 27.4521 100.291 23.3036 99.3863 19.4248L94.7357 19.0861L91.1527 21.6293L89.0854 24.4169L88.0312 25.8524C88.4102 27.6363 88.7258 29.0883 88.8522 29.7106C88.3059 34.3618 89.0336 34.7748 90.2998 34.7709L93.9692 33.203L102.478 32.5753C102.267 31.6419 102.036 30.667 101.804 29.6921Z" fill="#EB459F"/>
<path d="M92.2846 27.3846C92.5417 25.8354 92.402 24.5215 91.9721 24.4501C91.5424 24.3788 90.9856 25.5769 90.7283 27.1263C90.4711 28.6756 90.611 29.9893 91.0407 30.0606C91.4704 30.132 92.0274 28.9338 92.2846 27.3846Z" fill="black"/>
<path d="M89.5599 23.5435C89.7663 23.1692 89.9937 22.7949 90.221 22.4621C92.5563 19.0717 94.7535 18.1517 96.8707 18.1453L99.5068 18.1373C99.5462 18.1382 99.5847 18.1485 99.6194 18.167C99.6539 18.1856 99.6837 18.2123 99.706 18.2446C99.7283 18.2769 99.7427 18.314 99.748 18.3531C99.7533 18.3921 99.7493 18.4317 99.7363 18.4687L99.3862 19.4246C95.3386 19.4369 93.906 19.3167 90.5541 22.8555L89.0853 24.4167L89.5599 23.5435Z" fill="#D11583"/>
<path d="M90.5545 22.98C89.1646 23.2333 88.0667 23.9631 87.4479 25.2519C87.2721 25.6094 87.0177 25.9224 86.7034 26.1674L82.9754 28.8979C82.5564 29.1972 82.2651 29.6429 82.1589 30.1468C82.0529 30.6507 82.1398 31.176 82.4025 31.6188C82.5857 31.9296 82.8474 32.1866 83.1611 32.3641C83.4751 32.5417 83.8301 32.6336 84.1906 32.6304L85.7474 32.6257C88.98 30.8101 90.4707 29.5809 91.2366 28.8729C92.0024 28.1648 92.8496 26.8961 92.6999 25.4435C92.5502 23.991 92.1311 22.6846 90.5545 22.98Z" fill="white"/>
<path d="M91.6853 12.2459C91.1846 11.4172 90.517 10.3191 90.2664 9.80094C90.0157 9.28278 89.4142 9.40914 90.2722 11.7313C88.1942 10.9488 87.7592 11.2408 87.6563 11.5317C87.5534 11.8226 88.0104 11.9665 88.8837 12.462C89.757 12.9575 90.6929 13.5566 90.6929 13.5566L91.6853 12.2459Z" fill="#66BCFF"/>
<path d="M93.844 12.3015C94.1956 11.8646 94.3189 11.3868 94.1108 11.2214C93.9027 11.0559 93.6745 11.1397 93.3644 11.5557C93.2306 11.7249 93.0856 11.8849 92.9299 12.0345C92.5781 12.3676 92.6619 12.6165 92.8283 12.7613C92.9948 12.906 93.4925 12.7385 93.844 12.3015Z" fill="black"/>
<path d="M97.3682 11.0032C97.3682 11.0032 94.8947 9.88987 93.8341 9.20811C92.7734 8.52635 92.2306 7.51091 92.7072 7.23963C93.1838 6.96834 94.0993 7.60903 94.7452 8.43734C94.72 6.96368 94.9682 6.6516 95.3625 6.62965C95.7568 6.60769 95.7999 7.18873 95.8231 8.01894C95.8464 8.84914 95.9929 9.18081 96.6173 9.73935C96.9911 10.0739 97.2532 10.515 97.3682 11.0032Z" fill="#3442D9"/>
<path d="M88.3187 17.9228C87.7375 17.9245 87.2378 17.4279 87.6918 16.5547C88.1458 15.6815 89.6374 14.8052 90.3629 14.4709C91.0884 14.1366 91.4217 14.4677 91.4432 14.7167C91.4647 14.9657 91.3619 15.3397 90.845 16.0055C90.3281 16.6713 89.3772 17.9195 88.3187 17.9228Z" fill="white"/>
<path d="M88.7747 17.8587L88.4222 17.922L87.9189 16.2215L88.2086 15.9093L88.7747 17.8587Z" fill="#8CD9FF"/>
<path d="M90.0595 16.9414L89.77 17.2329L89.1823 15.1382L89.493 14.9297L90.0595 16.9414Z" fill="#8CD9FF"/>
<path d="M91.217 15.4852L90.948 15.8597L90.5285 14.408L90.8812 14.3446L91.217 15.4852Z" fill="#8CD9FF"/>
<path d="M90.7568 14.1582C91.1416 14.3405 91.5373 14.4989 91.9416 14.632" stroke="black" stroke-linecap="round" stroke-linejoin="round"/>
<path d="M100.039 22.1624C99.6404 21.8486 99.1531 21.6684 98.6466 21.6477C97.5672 21.651 96.9685 22.7114 96.764 23.7291C96.7311 23.8924 96.6433 24.0392 96.5152 24.1454C96.387 24.2517 96.2263 24.3105 96.0601 24.3125L95.9148 24.3129C95.8211 24.296 95.7317 24.2603 95.6523 24.2078C95.5726 24.1556 95.5046 24.0877 95.452 24.0083C95.3995 23.929 95.3633 23.8399 95.3462 23.7463C95.3289 23.6525 95.3309 23.5564 95.3518 23.4636C95.7402 21.4905 97.0232 20.2204 98.6423 20.2155C98.91 20.218 99.1691 20.3115 99.3772 20.4806C99.5851 20.6496 99.7294 20.8843 99.7867 21.1461L100.039 22.1624Z" fill="white"/>
<path d="M101.805 29.6927C101.851 29.8781 101.859 30.0711 101.829 30.2597C101.798 30.4484 101.73 30.629 101.627 30.7904C101.525 30.9518 101.391 31.0906 101.233 31.1986C101.075 31.3068 100.897 31.3817 100.71 31.4188L100.191 31.4619C99.008 31.4655 97.781 30.7635 96.8225 29.5417C96.7652 29.4655 96.7232 29.3789 96.6993 29.2866C96.6753 29.1941 96.6699 29.098 96.6831 29.0035C96.6963 28.909 96.728 28.818 96.7763 28.7359C96.8246 28.6535 96.8887 28.5817 96.9649 28.5242C97.0399 28.464 97.1265 28.4197 97.2192 28.3941C97.3119 28.3687 97.4091 28.3624 97.5044 28.3756C97.5997 28.389 97.6911 28.4215 97.7735 28.4717C97.8556 28.5217 97.9268 28.5879 97.9823 28.6664C98.649 29.5154 99.4603 30.0319 100.187 30.0297C100.913 30.0275 101.348 29.611 101.658 29.0704C101.7 29.2986 101.763 29.506 101.805 29.6927Z" fill="#2331B5"/>
<path d="M100.396 23.7598C100.249 23.7611 100.107 23.8078 99.9878 23.8937C99.8691 23.9796 99.78 24.1004 99.7329 24.2392L98.8682 26.5874C98.7927 26.8078 98.7951 27.0476 98.875 27.2665C98.9552 27.4855 99.1079 27.6702 99.3077 27.7899C99.3982 27.8451 99.5 27.8795 99.6053 27.8899C99.7108 27.9006 99.8172 27.8872 99.9169 27.851C100.016 27.8148 100.107 27.7566 100.181 27.6808C100.255 27.605 100.311 27.5135 100.344 27.4132L100.9 25.8962C100.753 25.2117 100.585 24.5065 100.396 23.7598Z" fill="#5865F2"/>
<path d="M99.3077 27.7903C99.1078 27.6706 98.9551 27.4859 98.875 27.2669C98.795 27.048 98.7926 26.8082 98.8681 26.5878L99.1153 25.9436C99.1566 25.8311 99.2219 25.729 99.3063 25.6441C99.391 25.5593 99.4929 25.4939 99.6051 25.452C99.7174 25.4104 99.8374 25.3934 99.957 25.4024C100.076 25.4113 100.192 25.4461 100.297 25.5041C100.468 25.6034 100.599 25.7589 100.668 25.9445C100.737 26.1298 100.739 26.3332 100.674 26.52L100.344 27.4136C100.311 27.5139 100.255 27.6054 100.181 27.6812C100.106 27.757 100.016 27.8152 99.9169 27.8514C99.8171 27.8876 99.7107 27.901 99.6052 27.8903C99.4999 27.8798 99.3981 27.8457 99.3077 27.7903Z" fill="#FFE75C"/>
</g>
<g clip-path="url(#clip1_240_5051)">
<rect x="63.7432" y="0.135742" width="29.1892" height="29.1892" rx="14.5946" transform="rotate(-0.173721 63.7432 0.135742)" fill="#3442D9"/>
<path d="M70.2535 11.587C69.394 8.76671 68.9332 7.41891 70.4667 6.58399C72.0002 5.74906 76.6721 6.29533 78.8531 6.80764C81.0342 7.31995 81.3472 7.85868 79.9214 10.001L70.2535 11.587Z" fill="#FFF4B3"/>
<path d="M69.3344 36.9762C68.9768 28.5915 69.1632 21.6166 69.4218 17.9003C68.0284 16.9913 67.3828 16.2875 67.1117 15.8939C67.0554 15.8181 67.0265 15.7254 67.0302 15.631C67.0336 15.5367 67.0691 15.4463 67.1309 15.375C69.3227 12.6076 71.2043 10.1941 73.1728 9.06731C75.1413 7.94047 77.8388 7.64169 82.1483 11.9045C82.1896 11.9591 82.2102 12.0266 82.2066 12.0949C82.2031 12.1634 82.1755 12.2283 82.1287 12.2782C81.7885 12.618 81.4291 12.9379 81.0523 13.2363C81.9288 14.7904 83.2021 17.1528 83.2021 17.1528L84.1984 17.1498C84.8369 17.1479 85.4502 17.3997 85.903 17.85C86.3561 18.3 86.6116 18.9116 86.6135 19.5503C86.6401 21.4806 86.1905 23.8067 85.307 26.7984C89.3021 30.0243 88.3474 36.8977 88.3474 36.8977L69.3344 36.9762Z" fill="#29CC7A"/>
<path d="M85.3072 26.798C85.4304 26.3618 85.5537 25.967 85.6563 25.5516L82.5273 27.3046C82.5273 27.3046 77.5563 23.9778 69.2266 21.9274C69.093 25.7886 69.0881 31.0193 69.3345 36.9758L88.3476 36.9181C88.3476 36.9181 89.3023 30.024 85.3072 26.798Z" fill="#8CD9FF"/>
<path d="M86.0977 27.5638C85.8549 27.2879 85.5903 27.0319 85.3067 26.7982C85.4299 26.362 85.5532 25.9672 85.6557 25.5518L82.5268 27.3048C82.5268 27.3048 77.5558 23.978 69.2261 21.9276C69.2068 22.4051 69.1876 22.9241 69.1892 23.443C75.5695 26.0597 79.008 30.5743 79.4217 36.9454L84.1335 36.9311C84.9527 33.2754 85.6072 30.0769 86.0977 27.5638Z" fill="#BAE8FF"/>
<path d="M71.7303 19.4918L71.8134 19.4915C71.8548 19.4499 71.8962 19.429 71.9168 19.3667L73.7049 13.5286C73.7169 13.504 73.7237 13.4773 73.7242 13.4499C73.7247 13.4227 73.7195 13.3955 73.7084 13.3706C73.6975 13.3455 73.6811 13.3232 73.6607 13.3052C73.6401 13.2872 73.6159 13.274 73.5896 13.2664C73.5634 13.2588 73.5358 13.257 73.5088 13.261C73.4818 13.2652 73.4561 13.2753 73.4333 13.2905C73.4107 13.3057 73.3917 13.3257 73.3775 13.3492C73.3634 13.3725 73.3546 13.3987 73.3517 13.4259L71.6253 19.077C70.8711 18.7579 70.1474 18.3709 69.4631 17.9211L69.4216 17.9213C69.422 18.0458 69.4016 18.1912 69.402 18.3157C70.1206 18.7749 70.879 19.1687 71.6681 19.492L71.7303 19.4918Z" fill="black"/>
<path d="M79.424 10.0859L71.9948 10.6481C80.3022 12.2004 80.6558 12.4277 79.424 10.0859Z" fill="black"/>
<path d="M77.5826 15.49C77.8691 15.3733 77.9191 14.831 77.6941 14.2789C77.4691 13.7271 77.0545 13.3742 76.7678 13.4909C76.4811 13.6078 76.4313 14.1499 76.6563 14.702C76.8811 15.2541 77.2959 15.6069 77.5826 15.49Z" fill="black"/>
<path d="M79.7266 16.6321C80.0945 15.9319 80.0474 15.1827 79.6212 14.9588C79.195 14.7347 78.5513 15.1208 78.1831 15.8208C77.8151 16.521 77.8625 17.2702 78.2884 17.4943C78.7146 17.7183 79.3586 17.3323 79.7266 16.6321Z" stroke="white" stroke-miterlimit="10"/>
<path d="M82.7821 16.6262C83.1501 15.9262 83.103 15.177 82.6768 14.9529C82.2506 14.7289 81.6068 15.1149 81.2388 15.8151C80.8709 16.5153 80.918 17.2645 81.3442 17.4884C81.7704 17.7123 82.4141 17.3264 82.7821 16.6262Z" stroke="white" stroke-miterlimit="10"/>
<path d="M80.6789 15.3811C80.8701 15.3033 80.8497 14.81 80.6333 14.279C80.417 13.7483 80.0867 13.3811 79.8956 13.4591C79.7046 13.5369 79.725 14.0302 79.9413 14.5612C80.1577 15.0919 80.488 15.4591 80.6789 15.3811Z" fill="black"/>
<path d="M82.6732 20.8075C81.0706 20.8175 79.5138 20.2722 78.268 19.2641C76.9779 18.2094 77.4964 18.0833 78.3059 18.06C79.1153 18.0368 82.9973 18.1704 84.1186 18.333C85.24 18.4957 85.4543 20.716 82.6732 20.8075Z" fill="#912869"/>
<path d="M82.6732 20.8075C81.0706 20.8175 79.5138 20.2722 78.268 19.2641C76.9779 18.2094 77.4964 18.0833 78.3059 18.06C79.1153 18.0368 82.9973 18.1704 84.1186 18.333C85.24 18.4957 85.4543 20.716 82.6732 20.8075Z" fill="#611B46"/>
<path d="M82.5975 23.1319L82.5122 22.3641C83.0984 22.3156 83.6694 22.1516 84.192 21.8816" stroke="black" stroke-linecap="round" stroke-linejoin="round"/>
<path d="M83.4415 20.7007C82.3174 19.6248 80.7997 18.8199 77.9981 19.0152C80.4126 21.2288 82.9231 20.8476 83.4415 20.7007Z" fill="#EB459F"/>
<path d="M79.8564 15.8965L81.1226 15.8926" stroke="white" stroke-miterlimit="10"/>
<path d="M77.9475 16.151L72.5857 13.9878C72.4733 13.9446 72.352 13.9294 72.2325 13.943C72.1128 13.9569 71.9983 13.9994 71.8985 14.0669C71.7988 14.1345 71.7169 14.2252 71.6599 14.3312C71.6028 14.4373 71.5722 14.5555 71.5707 14.6759C71.5686 14.8176 71.6093 14.9566 71.6875 15.0749C71.7655 15.193 71.8775 15.285 72.0086 15.3388L72.362 15.5037" stroke="white" stroke-miterlimit="10" stroke-linecap="round"/>
<path d="M76.8179 13.4356C77.2391 13.4451 77.6594 13.3878 78.0628 13.2658" stroke="black" stroke-miterlimit="10" stroke-linecap="round"/>
<path d="M79.9321 13.4258C80.1976 13.4319 80.4609 13.3742 80.6996 13.2574" stroke="black" stroke-miterlimit="10" stroke-linecap="round"/>
<path d="M70.9574 10.8589C78.3672 10.7326 80.8762 9.89474 82.9911 9.12033C85.1059 8.34591 84.8965 7.7446 83.2777 7.81177C81.6589 7.87895 76.1233 10.0129 70.9574 10.8589Z" fill="#FFF4B3"/>
<path d="M70.9568 10.8586L73.4885 10.6434L79.5666 9.42105L78.0468 7.93116L70.8027 7.95312L70.9568 10.8586Z" fill="#FFF4B3"/>
<path d="M83.2472 18.481L81.7939 18.4023C81.9626 19.2736 82.3792 19.729 82.7316 19.5826C83.084 19.4363 83.2062 18.6679 83.2472 18.481Z" fill="white"/>
<path d="M78.7637 18.3076C78.9535 19.3034 79.3287 19.8212 79.6811 19.654C80.0334 19.4869 80.1139 18.6564 80.1752 18.3241L78.7637 18.3076Z" fill="white"/>
<path d="M80.4153 8.4432C77.2187 9.31001 73.9781 10.0058 70.7074 10.5276" stroke="#FFC619" stroke-width="2" stroke-miterlimit="10" stroke-linecap="round"/>
</g>
<g clip-path="url(#clip2_240_5051)">
<rect x="42.3408" y="1.17285" width="29.1892" height="29.1892" rx="14.5946" transform="rotate(-0.173721 42.3408 1.17285)" fill="#7196FF"/>
<path d="M53.3169 26.0899L52.6777 26.7276L57.3479 31.3304L57.9873 30.6925L53.3169 26.0899Z" fill="#2E3338"/>
<path d="M56.2282 26.0879L55.5888 26.7256L60.2591 31.3283L60.8984 30.6906L56.2282 26.0879Z" fill="#2E3338"/>
<path d="M61.4713 25.2735C62.6735 24.0686 63.4149 22.4864 63.5681 20.7985C63.7213 19.1105 63.2767 17.4225 62.3109 16.0244L59.281 11.6351L55.7126 11.6459L55.7296 17.2564C55.7311 17.7437 55.5372 18.2117 55.1907 18.5574C54.8442 18.903 54.3734 19.098 53.8818 19.0995L48.1447 19.1169L48.1485 20.3876C48.1542 22.2559 48.9068 24.0455 50.2412 25.3644C51.5757 26.6833 53.3833 27.4237 55.2675 27.4231L56.3124 27.4199C58.2483 27.3979 60.0992 26.6279 61.4713 25.2735Z" fill="#FFD836"/>
<path d="M59.2746 9.58293C60.221 9.58006 61.1298 9.95009 61.8011 10.6116C62.4722 11.2732 62.851 12.172 62.8538 13.1104L62.8566 14.0292L55.7196 14.0508L55.7167 13.1125C55.7191 12.1774 56.0947 11.2813 56.7614 10.62C57.428 9.95861 58.3316 9.58578 59.2746 9.58293Z" fill="#FFD836"/>
<path d="M63.897 12.7157C64.0693 12.8836 64.2055 13.0843 64.2977 13.3057C64.3898 13.5271 64.436 13.7647 64.4333 14.0043L61.0225 14.0146C60.8957 14.0125 60.7723 13.9737 60.6675 13.9029C60.5626 13.8322 60.481 13.7327 60.4324 13.6165C60.3839 13.5003 60.3706 13.3727 60.3943 13.2491C60.418 13.1256 60.4776 13.0117 60.5657 12.9213L61.2537 12.235L61.2507 11.2575C61.2502 11.1312 61.2991 11.0097 61.3869 10.9183C61.4749 10.8269 61.5952 10.7728 61.7224 10.7674C61.8524 10.774 61.9768 10.8215 62.0777 10.9031L63.897 12.7157Z" fill="#FF9A15"/>
<path d="M59.2744 9.58233L58.2294 9.5855C56.9433 9.58779 55.7085 9.08555 54.7947 8.1884L54.2803 7.62305L54.2813 7.97493C54.2848 9.11554 54.7451 10.208 55.561 11.0121C56.3768 11.8162 57.4814 12.2659 58.6318 12.2625L59.2627 12.2605L59.2744 9.58233Z" fill="#FFD836"/>
<path d="M54.2129 11.2002L57.0716 11.1915L57.0802 14.0261L54.2129 11.2002Z" fill="#FFD836"/>
<path d="M49.8091 21.8489C50.3456 22.9765 51.2996 23.8557 52.473 24.3039C53.6464 24.7521 54.9488 24.735 56.1097 24.2558C57.2706 23.7767 58.2008 22.8725 58.7069 21.7311C59.213 20.5898 59.2562 19.299 58.8275 18.1269L49.8091 21.8489Z" fill="#FF9A15"/>
<path d="M44.9805 15.998L47.2154 18.298C47.5087 18.5834 47.7422 18.9236 47.9023 19.2988C48.0626 19.6742 48.1463 20.0771 48.1486 20.4846L49.7456 20.4798L49.7422 19.3656C49.7384 18.7429 49.5266 18.1391 49.1398 17.6486C48.7531 17.1581 48.2132 16.8086 47.6047 16.6548L44.9805 15.998Z" fill="#FFD836"/>
<path d="M49.191 19.817L49.014 19.9934C48.9415 20.0629 48.8499 20.1096 48.7506 20.1276C48.6514 20.1457 48.549 20.1344 48.4563 20.095C48.3635 20.0556 48.2846 19.99 48.2293 19.9063C48.1741 19.8227 48.1449 19.7247 48.1455 19.6246L48.1299 14.4834L49.1779 15.5164C49.748 16.0885 50.0688 16.8596 50.0712 17.6639C50.0737 18.4683 49.7576 19.2414 49.191 19.817Z" fill="#FFD836"/>
<path d="M59.4992 12.2602C59.7497 12.2594 59.9521 12.0575 59.9513 11.8092C59.9506 11.5609 59.7469 11.3602 59.4965 11.3609C59.246 11.3617 59.0436 11.5636 59.0443 11.8119C59.0451 12.0602 59.2487 12.2609 59.4992 12.2602Z" fill="#202225"/>
</g>
<g clip-path="url(#clip3_240_5051)">
<rect x="21.4229" y="1.72266" width="29.1892" height="29.1892" rx="14.5946" transform="rotate(-0.173721 21.4229 1.72266)" fill="#FF78B9"/>
<path d="M45.2223 35.9586C46.208 33.8758 43.5379 30.5458 39.2583 28.5204C34.979 26.4951 30.7107 26.5416 29.725 28.6245C28.7393 30.7071 31.4094 34.0373 35.689 36.0627C39.9683 38.0878 44.2366 38.0412 45.2223 35.9586Z" fill="black"/>
<path d="M45.7422 24.4409C44.4736 23.6559 44.4114 23.6769 43.7018 22.4129C42.9923 21.1489 42.0978 20.5289 41.0596 20.3867L42.3747 29.7026C45.0755 30.4831 46.7319 29.1082 47.1014 27.7578C47.4709 26.4075 47.0315 25.2257 45.7422 24.4409Z" fill="#3442D9"/>
<path d="M44.4791 25.669C44.1217 24.1548 43.1823 22.3934 42.0781 21.0683C41.6825 20.5896 41.4012 20.0269 41.2555 19.423C41.1099 18.8193 41.1036 18.1902 41.2373 17.5837L41.6877 15.5066C42.0044 14.065 41.8286 12.5589 41.1888 11.2289C40.5487 9.89882 39.4815 8.82165 38.1575 8.16941C37.3977 7.7982 36.5713 7.58197 35.727 7.53332C34.1382 7.42177 32.5684 7.93373 31.3508 8.96048C30.1332 9.98726 29.3636 11.4481 29.2053 13.0329C29.1716 13.3014 29.1586 13.5721 29.1662 13.8425L29.1689 14.7351L29.2218 18.4711C29.2719 20.1496 28.9212 21.8156 28.1987 23.3313C27.8987 23.9327 27.6708 24.5675 27.5194 25.2223L37.7022 35.985C42.536 35.1608 45.5523 30.4813 44.4791 25.669Z" fill="#3442D9"/>
<path d="M37.7232 35.9855C42.5363 35.1614 45.5526 30.482 44.4794 25.6696C44.143 24.2384 43.2869 22.5805 42.2659 21.2966" stroke="black" stroke-miterlimit="10" stroke-linecap="round"/>
<path d="M41.2423 25.9903C42.1924 24.4099 42.5666 24.6163 44.27 25.0678C45.641 25.4165 47.227 28.2138 45.1349 29.6317C43.0428 31.0495 38.7643 30.2114 41.2423 25.9903Z" fill="#3442D9"/>
<path d="M36.4958 21.3528C36.6868 21.2058 36.7166 20.9249 36.5628 20.7249C36.4091 20.525 36.1297 20.4821 35.939 20.6288C35.7483 20.7757 35.7182 21.0566 35.872 21.2565C36.0258 21.4565 36.3051 21.4995 36.4958 21.3528Z" fill="black"/>
<path d="M39.1113 21.5069C39.302 21.3602 39.3321 21.0791 39.1783 20.8793C39.0245 20.6794 38.7452 20.6363 38.5543 20.7832C38.3635 20.9299 38.3334 21.211 38.4872 21.4109C38.641 21.6107 38.9203 21.6539 39.1113 21.5069Z" fill="black"/>
<path d="M38.8408 21.1826C41.0673 23.0025 40.158 24.3129 41.9512 27.0059" stroke="white" stroke-miterlimit="10" stroke-linecap="round"/>
<path d="M36.3411 25.2788C37.7081 24.3199 38.1224 24.0488 38.6414 24.068L39.991 24.1884L39.6547 29.6692L36.2296 29.5758L36.3411 25.2788Z" fill="#FFC619"/>
<path d="M42.9797 23.8677C43.0055 23.7952 43.0137 23.7175 43.0044 23.6411C42.995 23.5648 42.968 23.4916 42.9257 23.4274C42.8831 23.3632 42.8265 23.3096 42.76 23.271C42.6932 23.2324 42.6186 23.2097 42.5418 23.2048L40.2576 22.8796C40.0919 22.8625 39.9251 22.9028 39.7857 22.994C39.6461 23.0851 39.5421 23.2214 39.4911 23.3801L38.2187 28.158C38.1931 28.2308 38.1847 28.3082 38.194 28.3846C38.2034 28.4609 38.2304 28.5341 38.2727 28.5983C38.3153 28.6625 38.3719 28.7161 38.4386 28.7547C38.5052 28.7934 38.5798 28.816 38.6566 28.8209L40.9408 29.1461C41.1067 29.1632 41.2733 29.1229 41.4129 29.0318C41.5523 28.9406 41.6563 28.8043 41.7073 28.6456L42.9797 23.8677Z" fill="black"/>
<path d="M42.8744 23.3913L43.1243 23.6811L42.4395 23.7454L42.8744 23.3913Z" fill="black"/>
<path d="M44.0045 26.5423C43.7124 26.0657 43.4408 25.4646 42.6516 25.3425L42.5509 26.3391L44.0045 26.5423Z" fill="#FFC619"/>
<path d="M43.2084 24.1377C43.2299 24.0652 43.2353 23.9888 43.2241 23.9139C43.2129 23.839 43.1855 23.7674 43.1437 23.7043C43.102 23.6411 43.0471 23.5879 42.9826 23.5482C42.9181 23.5086 42.8456 23.4835 42.7705 23.4748L40.4655 23.1497C40.3004 23.1362 40.1353 23.1783 39.9967 23.2688C39.8579 23.3595 39.7531 23.4935 39.699 23.6501L38.4265 28.4281C38.405 28.5006 38.3996 28.577 38.4108 28.6519C38.4221 28.7268 38.4495 28.7983 38.4912 28.8615C38.5329 28.9247 38.5878 28.9781 38.6523 29.0175C38.717 29.0572 38.7893 29.0823 38.8644 29.091L41.1694 29.3953C41.3309 29.4214 41.4965 29.3867 41.634 29.2982C41.7716 29.2096 41.8719 29.0735 41.9152 28.9157L43.2084 24.1377Z" fill="white"/>
<path d="M42.5089 26.028L43.4434 26.1705C43.6328 26.1909 43.8064 26.2848 43.9272 26.4318C44.0481 26.579 44.1061 26.7677 44.0893 26.9573C44.0848 27.0559 44.0598 27.1525 44.0158 27.2408C43.9717 27.329 43.9096 27.4072 43.8337 27.4699C43.7575 27.5328 43.6692 27.579 43.574 27.6054C43.479 27.632 43.3794 27.6384 43.2818 27.6239L42.5965 27.5222C42.3837 27.4924 42.1866 27.3929 42.0358 27.2396C41.8853 27.086 41.7896 26.8872 41.7637 26.6737C41.7582 26.5787 41.7747 26.4836 41.8118 26.3958C41.8489 26.3081 41.9057 26.2301 41.9776 26.1676C42.0496 26.1054 42.135 26.0603 42.2271 26.0361C42.3192 26.012 42.4157 26.0092 42.5089 26.028Z" fill="#FFC619"/>
<path d="M42.2019 27.4194L42.8456 27.5212C42.9534 27.5346 43.0569 27.571 43.149 27.6282C43.2411 27.6854 43.3196 27.7622 43.379 27.8527C43.4387 27.9435 43.4778 28.0461 43.4937 28.1534C43.5096 28.2606 43.5018 28.37 43.4712 28.4741C43.4275 28.6416 43.3221 28.7863 43.176 28.8792C43.03 28.972 42.8543 29.0061 42.684 28.9747L42.2894 28.9136C42.0741 28.8846 41.8741 28.786 41.72 28.6328C41.566 28.4797 41.4661 28.2803 41.4358 28.0652C41.4295 27.9678 41.4462 27.8706 41.4843 27.7809C41.5227 27.6913 41.5814 27.6118 41.6559 27.5489C41.7305 27.4862 41.8185 27.4417 41.9135 27.4192C42.0083 27.3967 42.1071 27.3968 42.2019 27.4194Z" fill="#FFC619"/>
<path d="M40.1946 29.7921L37.952 29.4875L38.053 28.5739L40.2957 28.8992L40.1946 29.7921Z" fill="#FFC619"/>
<path d="M40.7237 26.1584L39.3116 25.9552C39.2444 25.9462 39.1812 25.918 39.1294 25.8741C39.0777 25.8301 39.0398 25.7721 39.0203 25.707L38.8946 25.3337L38.7885 24.566L38.0287 27.2667L40.3129 27.5919C40.5256 27.6197 40.7413 27.575 40.9255 27.4653C41.1097 27.3556 41.2516 27.1872 41.3282 26.9869C41.3526 26.8919 41.3556 26.7927 41.3373 26.6965C41.3187 26.6002 41.2792 26.5092 41.2215 26.4301C41.1637 26.3508 41.089 26.2854 41.0031 26.2385C40.9171 26.1915 40.8217 26.1642 40.7237 26.1584Z" fill="#FFC619"/>
<path d="M40.271 27.5712L38.0283 27.2666L38.1366 28.7608L39.8602 29.0046C40.0706 29.0353 40.2848 28.9915 40.4663 28.8812C40.6478 28.7708 40.7851 28.6004 40.8547 28.3997C40.8828 28.3062 40.8894 28.2076 40.8739 28.1111C40.8583 28.0146 40.8209 27.9232 40.7648 27.8432C40.7085 27.7635 40.6348 27.6975 40.5492 27.6502C40.4637 27.6032 40.3686 27.576 40.271 27.5712Z" fill="#FFC619"/>
<path d="M56.199 36.6767C56.2545 34.4348 54.4061 34.0876 53.1375 33.3026C51.869 32.5177 50.3695 30.8617 48.8093 29.7456C47.2492 28.6294 45.9001 28.6543 43.2664 29.4718L46.2939 35.316C47.9986 36.1827 48.3751 37.1363 49.2923 38.4205C50.2095 39.7046 51.4356 40.1991 52.6596 39.967C53.3062 41.0237 53.4315 41.2724 54.3646 40.9374C55.2976 40.6025 56.8315 39.8921 57.2429 38.6662C57.6543 37.4403 57.0517 37.2346 56.199 36.6767Z" fill="#66BCFF"/>
<path d="M46.1588 31.8704C45.8825 32.7624 45.7045 33.6816 45.6274 34.6119" stroke="black" stroke-width="2" stroke-miterlimit="10" stroke-linecap="round"/>
<path d="M47.4162 42.6604C45.5325 44.3682 43.9328 43.8956 43.1853 43.8149C42.4378 43.7341 42.5192 43.1942 42.4556 42.7377C42.3919 42.2813 42.3483 41.5964 42.3483 41.5964C40.4591 41.4776 40.2269 40.1914 40.1819 39.0499C40.1369 37.9084 39.8458 37.7433 39.6981 36.9342C37.4194 36.532 35.2641 35.6107 33.3989 34.2412C31.5337 32.8719 30.0091 31.0912 28.9428 29.0377L30.9104 27.5995L35.3195 30.4506C38.2843 29.3415 39.9224 28.7761 41.5203 28.6674C43.1183 28.5588 44.6976 29.156 45.2233 31.3754C45.7489 33.5947 45.8133 34.2795 46.2939 35.3367C46.4193 35.6061 46.6279 35.9791 46.8367 36.3729C47.4215 37.5542 48.0285 39.2129 46.8508 41.0224C46.9968 41.5821 47.1859 42.13 47.4162 42.6604Z" fill="#8CD9FF"/>
<path d="M32.1726 33.2204C32.1059 31.7469 32.6632 30.7073 33.6798 30.5382L31.1005 28.7609L29.2349 29.5761C29.7163 30.9031 30.9454 32.3523 32.1726 33.2204Z" fill="black"/>
<path d="M36.3823 24.9887C35.7788 24.4716 35.3222 24.5145 34.5967 24.8281C33.8266 24.1247 32.8299 24.0239 31.7932 24.3799C30.7564 24.7359 29.1596 25.2182 28.2263 25.4701C28.1742 25.4898 28.1176 25.4939 28.0632 25.4822C28.0088 25.4703 27.9589 25.4433 27.9193 25.4042C27.88 25.3649 27.8526 25.3151 27.8406 25.2608C27.8284 25.2064 27.8324 25.1498 27.8515 25.0976L28.529 22.6047C26.313 24.272 25.5973 27.8236 26.3089 29.7518C27.0205 31.68 30.0924 31.65 31.0663 31.1073C32.0402 30.5647 32.3718 30.3976 33.4933 30.6018C34.6148 30.806 35.487 30.9486 36.9574 29.8233L37.8283 29.5301C38.1546 27.6402 37.8599 26.2711 36.3823 24.9887Z" fill="#3442D9"/>
<path d="M36.3825 24.9881C35.779 24.471 35.3225 24.5139 34.5969 24.8275C33.8268 24.1241 32.8302 24.0233 31.7934 24.3793C30.7566 24.7354 29.1598 25.2176 28.2265 25.4695" stroke="black" stroke-miterlimit="10" stroke-linecap="round"/>
<path d="M34.5967 24.8271C35.2181 25.3054 35.7362 25.9045 36.12 26.5881C36.5038 27.2719 36.7452 28.0263 36.8297 28.8057" stroke="black" stroke-miterlimit="10" stroke-linecap="round"/>
<path d="M40.8837 24.1856C40.8929 24.157 40.896 24.1267 40.8923 24.0966C40.8887 24.0667 40.8787 24.0379 40.8626 24.0124C40.8468 23.9867 40.8255 23.9648 40.8004 23.9482C40.7752 23.9317 40.7467 23.9208 40.7168 23.9163L40.5093 23.9169C40.4515 23.9045 40.3911 23.915 40.341 23.9461C40.2907 23.9772 40.2545 24.0265 40.2399 24.0838L40.0552 24.7694C40.0457 24.7997 40.0433 24.8317 40.0482 24.863C40.0531 24.8943 40.065 24.924 40.0829 24.9501C40.1011 24.976 40.125 24.9975 40.1527 25.0129C40.1803 25.0282 40.2113 25.0371 40.2428 25.0386L40.4504 25.038C40.505 25.0449 40.5602 25.0316 40.606 25.001C40.6515 24.9703 40.6846 24.9244 40.699 24.8712L40.8837 24.1856Z" fill="#29CC7A"/>
<path d="M37.551 20.211C37.7105 19.8857 37.9465 19.6039 38.2385 19.3898C38.5307 19.1756 38.8705 19.0354 39.2286 18.9813C39.2701 18.9811 39.2908 18.9396 39.2699 18.9189C38.9971 17.9234 39.1199 17.3626 39.4706 16.635C39.4741 16.6297 39.4764 16.6237 39.4772 16.6174C39.478 16.6112 39.4773 16.6048 39.4755 16.5988C39.4734 16.5928 39.47 16.5873 39.4654 16.5828C39.4611 16.5783 39.4557 16.5749 39.4496 16.5728C38.2858 16.0782 37.8474 15.2492 37.7209 14.6269C37.7 14.5854 37.6377 14.5649 37.6171 14.6064C37.1013 15.6459 36.3957 15.6895 35.7935 15.6083C35.752 15.6084 35.7314 15.65 35.7522 15.6707C36.3577 16.8313 35.9243 17.6628 35.3241 18.2459C35.321 18.254 35.3194 18.2627 35.3198 18.2715C35.3203 18.2803 35.3226 18.2888 35.3265 18.2966C35.3305 18.3045 35.3359 18.3114 35.3428 18.3169C35.3494 18.3224 35.3573 18.3265 35.3659 18.3288C36.5289 18.5328 37.1539 19.2989 37.4472 20.1905C37.4681 20.232 37.5304 20.2526 37.551 20.211Z" fill="#FFC619"/>
<path d="M40.2715 27.5707L39.0879 27.4082" stroke="black" stroke-miterlimit="10" stroke-linecap="round"/>
<path d="M42.4297 27.502L43.0942 27.6037" stroke="black" stroke-miterlimit="10" stroke-linecap="round"/>
<path d="M37.6792 14.5848C38.1946 13.4208 38.1507 12.6114 38.004 12.1552" stroke="black" stroke-miterlimit="10" stroke-linecap="round"/>
<path d="M39.3453 16.6146C39.6693 16.6633 40.0001 16.6416 40.3149 16.5511C40.6299 16.4606 40.9217 16.3034 41.1703 16.0902" stroke="black" stroke-miterlimit="10" stroke-linecap="round"/>
<path d="M37.5505 20.2107C37.5527 20.3652 37.5322 20.5193 37.4897 20.6676" stroke="black" stroke-miterlimit="10" stroke-linecap="round"/>
<path d="M35.4274 18.2661C34.661 18.8081 33.4984 18.7286 32.6881 18.482" stroke="black" stroke-miterlimit="10" stroke-linecap="round"/>
<path d="M35.793 15.6079C35.5006 15.0068 34.9588 14.3235 34.46 14.0967" stroke="black" stroke-miterlimit="10" stroke-linecap="round"/>
<path d="M39.2695 18.918C39.5377 19.0601 39.8245 19.164 40.1215 19.2267" stroke="black" stroke-miterlimit="10" stroke-linecap="round"/>
<path d="M37.0424 16.7047C37.3994 18.0736 37.8558 17.9892 38.0621 17.5734C38.2684 17.1577 38.4121 16.6383 38.7444 16.6788C39.0766 16.7193 38.9953 17.3007 38.6035 18.1322C38.2116 18.9637 37.5687 19.1524 36.9646 18.4278C36.3604 17.7031 36.3375 16.9975 36.3153 16.4994C36.293 16.0013 36.8116 15.8751 37.0424 16.7047Z" fill="#C40655"/>
<path d="M36.225 21.0243C36.4828 23.8879 35.0339 25.2623 34.5859 28.1073" stroke="white" stroke-miterlimit="10" stroke-linecap="round"/>
<path d="M39.5316 36.9549C39.1543 35.7314 38.9814 33.4902 39.9925 31.5153" stroke="black" stroke-width="2" stroke-miterlimit="10" stroke-linecap="round"/>
<path d="M29.035 25.2385L27.5005 25.7413" stroke="black" stroke-miterlimit="10" stroke-linecap="round"/>
<path d="M44.29 25.0059L45.3288 25.2933" stroke="black" stroke-miterlimit="10" stroke-linecap="round"/>
</g>
<g clip-path="url(#clip4_240_5051)">
<rect x="0.504883" y="1.78613" width="29.1892" height="29.1892" rx="14.5946" transform="rotate(-0.173721 0.504883 1.78613)" fill="url(#paint0_linear_240_5051)"/>
<path d="M27.019 13.3716C28.5298 7.55392 29.2611 6.52071 32.7971 14.009L27.019 13.3716Z" fill="#D4E1FF"/>
<path d="M12.5869 25.8347L12.4483 25.9549C14.558 27.9325 17.7701 33.0207 22.6317 32.7488C22.6317 32.7488 26.5837 39.9183 30.8097 39.1124C35.0356 38.3056 38.1531 32.3441 38.1531 32.3441C39.2919 30.2864 40.0959 28.0605 40.535 25.75C40.4739 25.215 40.2742 24.7985 39.8965 24.5417C36.873 22.5476 14.7854 24.2217 12.5869 25.8347Z" fill="#1C1B29"/>
<path d="M18.9534 11.0944L23.3831 12.2711C24.6984 11.7041 26.1171 11.4163 27.5495 11.4259C34.2978 11.4055 37.9072 16.8701 37.9276 23.5952C37.948 30.321 34.3718 35.8074 27.6234 35.8279C20.8743 35.8484 17.285 30.3837 17.2646 23.6578C17.2576 22.6674 17.3341 21.6783 17.4935 20.7008C17.9429 18.1199 17.8136 15.4701 17.1124 12.945C17.0442 12.6898 17.0441 12.4211 17.1123 12.1658C17.1804 11.9105 17.3143 11.6776 17.5007 11.4902C17.687 11.3029 17.9193 11.1678 18.1742 11.0983C18.4291 11.0289 18.6978 11.0275 18.9534 11.0944Z" fill="#B3CAFF"/>
<path d="M37.6988 26.513C34.4279 27.9709 31.049 26.4528 27.7881 24.5984C24.2286 22.5657 21.9299 17.3944 20.9526 15.7508C19.9753 14.1065 18.5842 13.7941 17.6247 11.3967C17.398 11.5771 17.2289 11.8196 17.1381 12.0947C17.0473 12.3697 17.0388 12.6653 17.1135 12.9452C17.814 15.4705 17.9439 18.12 17.4938 20.7017C17.3345 21.6789 17.2579 22.6679 17.2649 23.658C17.2853 30.3838 20.8946 35.8484 27.6237 35.828C33.3604 35.8106 36.8021 31.8322 37.6988 26.5122L37.6988 26.513Z" fill="#8DAEF7"/>
<path d="M37.0972 24.5091C37.1131 29.7467 34.0097 34.0022 30.1783 34.0139C26.3477 34.0255 23.2379 29.7888 23.222 24.5512C23.1958 15.9016 28.5963 22.9679 32.4278 22.9563C36.2584 22.9447 37.1736 17.0894 37.0972 24.5091Z" fill="#FCFDFF"/>
<path d="M30.2793 29.5807C30.6512 29.5482 30.9084 29.0267 30.8559 28.4154C30.8026 27.804 30.4581 27.335 30.0869 27.3666C29.7158 27.3999 29.4578 27.9214 29.5111 28.5319C29.5643 29.1433 29.9081 29.6132 30.2793 29.5807ZM34.8364 28.5536C34.9455 27.9498 34.7365 27.4064 34.3691 27.3408C34.0024 27.2744 33.6165 27.7103 33.5074 28.3141C33.3991 28.9171 33.6081 29.4605 33.9747 29.5269C34.3414 29.5933 34.7274 29.1574 34.8364 28.5536Z" fill="#1C1B29"/>
<path d="M50.3557 89.5817C47.5386 90.1857 39.0784 82.1764 39.0784 82.1764C41.4228 89.4698 41.8264 91.6511 42.2291 93.5342C42.6317 95.4182 42.3942 95.7958 42.2399 97.1254C42.0849 98.455 42.0847 98.4156 42.8837 100.08C43.6827 101.743 44.2029 102.912 44.3638 103.765C44.4248 104.261 44.4062 104.763 44.3089 105.253L8.83779 105.36C8.83779 105.36 8.6562 104.568 9.40407 102.363C10.1519 100.159 11.8733 98.3288 12.8213 96.9365C13.7701 95.5451 13.7111 95.6843 13.4514 95.1097C12.2519 92.296 14.1792 92.9057 14.9804 88.6773C15.7808 84.4489 15.9784 64.2914 17.7591 56.0534C19.5405 47.8145 22.2941 45.8615 22.4719 39.0563C19.1075 35.9326 10.7659 27.8032 12.4478 25.9531C14.3584 27.7328 20.0777 28.589 24.7423 28.5354C25.1514 28.5283 25.5524 28.6505 25.8882 28.8845C26.2239 29.1185 26.4772 29.4524 26.6121 29.8388C27.4133 32.2367 29.4326 36.9724 32.5871 36.3473C35.7417 35.723 38.0662 30.0813 38.7157 28.0358C38.8526 27.5894 39.1385 27.2033 39.5256 26.9421C39.948 26.6264 40.2931 26.2187 40.5345 25.7498C40.9835 29.6562 34.5237 40.0315 34.5237 40.0315C34.5237 40.0315 36.1742 54.073 39.4041 58.6853C42.6332 63.2985 51.6653 63.2711 51.8964 67.6748C52.1283 72.0777 53.1527 88.9778 50.3557 89.5817Z" fill="#BD4070"/>
<path d="M22.9019 30.2077C20.5591 30.0758 17.4023 29.6884 12.333 27.1846C13.1552 30.1376 19.626 36.3875 22.4724 39.0572C22.4359 41.1679 22.0602 43.2591 21.3597 45.2505C23.9309 48.8733 27.0207 46.503 27.6076 56.6986C27.8587 61.0427 31.072 66.8059 34.4257 73.0451C37.7795 79.2844 38.2011 67.796 38.0449 62.1425C37.956 59.0675 37.3298 55.2604 36.663 51.6319C35.2377 46.1406 34.5241 40.0323 34.5241 40.0323C34.5241 40.0323 39.0479 32.7575 40.2641 28.1116C39.9545 28.3054 39.7127 28.5906 39.5722 28.9269C38.3492 31.7067 36.9793 34.4195 35.4681 37.0538C33.9076 39.6975 30.9938 41.0154 27.6231 35.8281C24.2533 30.64 25.4232 30.3592 22.9019 30.2077Z" fill="#A12C66"/>
<path d="M24.3405 20.4825C27.8396 22.1578 29.057 24.2972 31.8556 24.2092C34.6542 24.1211 35.7414 22.7686 36.8673 20.9604C36.4079 19.9694 35.1666 22.9488 32.4272 22.9571C29.6878 22.9654 26.104 19.3063 24.3405 20.4825Z" fill="#8DAEF7"/>
</g>
<defs>
<linearGradient id="paint0_linear_240_5051" x1="15.0995" y1="31.1077" x2="15.0995" y2="10.1994" gradientUnits="userSpaceOnUse">
<stop stop-color="#7196FF"/>
<stop offset="1" stop-color="#2A5EE8"/>
</linearGradient>
<clipPath id="clip0_240_5051">
<rect x="79.3105" y="0.0878906" width="29.1892" height="29.1892" rx="14.5946" transform="rotate(-0.173721 79.3105 0.0878906)" fill="white"/>
</clipPath>
<clipPath id="clip1_240_5051">
<rect x="63.7432" y="0.135742" width="29.1892" height="29.1892" rx="14.5946" transform="rotate(-0.173721 63.7432 0.135742)" fill="white"/>
</clipPath>
<clipPath id="clip2_240_5051">
<rect x="42.3408" y="1.17285" width="29.1892" height="29.1892" rx="14.5946" transform="rotate(-0.173721 42.3408 1.17285)" fill="white"/>
</clipPath>
<clipPath id="clip3_240_5051">
<rect x="21.4229" y="1.72266" width="29.1892" height="29.1892" rx="14.5946" transform="rotate(-0.173721 21.4229 1.72266)" fill="white"/>
</clipPath>
<clipPath id="clip4_240_5051">
<rect x="0.504883" y="1.78613" width="29.1892" height="29.1892" rx="14.5946" transform="rotate(-0.173721 0.504883 1.78613)" fill="white"/>
</clipPath>
</defs>
</svg>
