<svg width="25" height="25" viewBox="0 0 25 25" fill="none" xmlns="http://www.w3.org/2000/svg">
<path d="M23.6016 3.9268C23.2485 3.57313 22.6757 3.57252 22.3226 3.9253L11.4714 14.7479L7.55628 10.4957C7.21798 10.1285 6.64601 10.1047 6.27818 10.4429C5.91064 10.7812 5.88711 11.3535 6.2254 11.721L10.7782 16.6655C10.9449 16.8467 11.1783 16.9519 11.4243 16.957C11.4309 16.9573 11.4373 16.9573 11.4436 16.9573C11.6827 16.9573 11.9127 16.8623 12.0822 16.6935L23.5998 5.20607C23.9538 4.85333 23.9544 4.28048 23.6016 3.9268Z" fill="#F8DA64"/>
<path d="M23.3835 11.741C22.8839 11.741 22.479 12.1459 22.479 12.6455C22.479 18.265 17.9076 22.8365 12.2881 22.8365C6.6689 22.8365 2.09713 18.265 2.09713 12.6455C2.09713 7.02632 6.6689 2.45455 12.2881 2.45455C12.7877 2.45455 13.1926 2.04965 13.1926 1.55005C13.1926 1.05041 12.7877 0.645508 12.2881 0.645508C5.67121 0.645508 0.288086 6.02863 0.288086 12.6455C0.288086 19.2621 5.67121 24.6455 12.2881 24.6455C18.9047 24.6455 24.2881 19.2621 24.2881 12.6455C24.2881 12.1459 23.8832 11.741 23.3835 11.741Z" fill="#F8DA64"/>
</svg>
