<svg width="1035" height="282" viewBox="0 0 1035 282" fill="none" xmlns="http://www.w3.org/2000/svg">
<g opacity="0.2">
<path fill-rule="evenodd" clip-rule="evenodd" d="M591.701 174.906C683.396 199.999 781.087 213.488 845.889 283.604C922.216 366.19 978.438 473.764 962.21 575.796C945.458 681.126 856.293 751.765 763.049 804.473C667.819 858.304 559.223 889.527 443.821 868.829C314.117 845.566 166.725 800.231 102.79 686.053C40.5033 574.818 105.371 453.428 150.294 344.636C185.981 258.212 237.525 176.369 327.546 141.754C409.356 110.296 501.687 150.272 591.701 174.906Z" stroke="white"/>
<path fill-rule="evenodd" clip-rule="evenodd" d="M654.428 134.573C774.724 169.223 847.576 288.908 903.405 398.429C952.024 493.805 963.261 596.808 939.562 693.928C916.578 788.118 869.04 881.562 776.697 917.693C690.455 951.437 595.152 881.342 498.522 866.492C370.562 846.827 220.001 912.711 128.815 818.124C35.4783 721.306 63.1902 571.164 102.235 455.425C137.357 351.317 230.177 288.194 326.464 232.246C426.73 173.987 533.955 99.8715 654.428 134.573Z" stroke="white"/>
<path fill-rule="evenodd" clip-rule="evenodd" d="M674.337 160.705C789.621 169.057 912.86 244.61 961.011 349.095C1006.48 447.755 922.466 537.995 892.97 635.132C867.489 719.051 871.892 816.512 802.646 870.639C723.891 932.2 612.362 972.519 509.424 934.937C409.838 898.58 384.646 779.876 322.203 695.235C252.199 600.344 96.8536 520.896 127.355 417.046C158.22 311.96 333.983 358.36 435.059 310.992C524.639 269.01 570.302 153.168 674.337 160.705Z" stroke="white"/>
<path fill-rule="evenodd" clip-rule="evenodd" d="M621.595 141.408C732.363 166.454 819.623 261.598 869.713 361.674C914.611 451.376 878.637 543.097 869.879 637.459C859.173 752.815 910.36 902.344 813.721 964.963C716.511 1027.95 580.277 937.278 459.268 903.524C336.976 869.412 183.185 876.478 115.689 770.257C48.3911 664.347 117.311 542.025 162.086 435.837C197.456 351.953 260.945 291.347 338.608 241.585C424.421 186.601 514.213 117.128 621.595 141.408Z" stroke="white"/>
<path fill-rule="evenodd" clip-rule="evenodd" d="M600.32 183.289C684.748 217.493 782.293 220.782 841.025 289.843C906.288 366.582 920.134 464.307 919.226 558.277C918.04 681.001 931.268 822.92 835.17 895.609C732.753 973.077 577.219 961.678 443.853 917.851C315.973 875.826 204.297 784.997 142.902 668.112C86.6519 561.023 111.147 445.322 138.113 335.783C163.997 230.64 185.133 101.861 290.889 66.9698C392.987 33.2851 494.02 140.224 600.32 183.289Z" stroke="white"/>
<path fill-rule="evenodd" clip-rule="evenodd" d="M583.907 235.638C699.355 264.271 857.723 229.201 914.357 332.106C971.607 436.13 833.532 522.707 799.509 627.388C771.721 712.882 815.51 834.997 736.27 880.027C656.865 925.15 554.729 844.699 459.264 820.739C357.27 795.141 228.021 822.323 166.823 737.108C105.349 651.508 179.418 551.664 197.21 455.844C215.82 355.615 182.535 223.427 271.624 172.695C360.953 121.826 476.396 208.973 583.907 235.638Z" stroke="white"/>
<path fill-rule="evenodd" clip-rule="evenodd" d="M596.505 204.254C679.64 232.158 743.177 290.934 800.337 357.238C871.065 439.279 957.196 521.546 957.156 622.596C957.109 738.88 907.973 863.838 800.116 908.1C695.964 950.842 577.862 865.408 464.157 824.913C363.764 789.159 253.302 771.846 186.403 689.531C113.274 599.551 71.0743 480.64 101.97 379.265C131.519 282.309 236.803 235.972 335.251 201.132C417.454 172.041 508.402 174.682 596.505 204.254Z" stroke="white"/>
<path fill-rule="evenodd" clip-rule="evenodd" d="M591.195 185.596C688.98 215.104 753.752 301.745 810.034 385.949C866.975 471.136 916.063 562.643 906.862 657.859C896.673 763.297 858.763 879.322 758.635 917.848C662.391 954.88 554.435 877.613 453.394 832.34C374.89 797.166 302.777 756.169 249.352 689.658C188.331 613.69 125.276 527.987 137.194 438.688C149.649 345.361 227.562 281.03 310.024 235.06C393.608 188.464 492.206 155.723 591.195 185.596Z" stroke="white"/>
</g>
</svg>
