<svg width="1275" height="472" viewBox="0 0 1275 472" fill="none" xmlns="http://www.w3.org/2000/svg">
<rect width="1275" height="472" rx="18" fill="#2C3742"/>
<path d="M743.08 217.4C738.547 217.4 734.707 216.627 731.56 215.08C728.467 213.533 725.96 211.427 724.04 208.76C722.173 206.093 720.787 203.053 719.88 199.64C719.027 196.227 718.6 192.68 718.6 189V160.2H727.56V189C727.56 191.613 727.827 194.147 728.36 196.6C728.893 199 729.747 201.16 730.92 203.08C732.093 205 733.667 206.52 735.64 207.64C737.667 208.76 740.147 209.32 743.08 209.32C746.067 209.32 748.547 208.76 750.52 207.64C752.547 206.467 754.12 204.92 755.24 203C756.413 201.027 757.267 198.84 757.8 196.44C758.333 194.04 758.6 191.56 758.6 189V160.2H767.64V189C767.64 192.893 767.16 196.573 766.2 200.04C765.293 203.453 763.853 206.467 761.88 209.08C759.96 211.64 757.453 213.667 754.36 215.16C751.267 216.653 747.507 217.4 743.08 217.4ZM779.556 217V160.2H788.516V217H779.556ZM844.799 217.4C840.265 217.4 836.425 216.627 833.279 215.08C830.185 213.533 827.679 211.427 825.759 208.76C823.892 206.093 822.505 203.053 821.599 199.64C820.745 196.227 820.319 192.68 820.319 189V160.2H829.279V189C829.279 191.613 829.545 194.147 830.079 196.6C830.612 199 831.465 201.16 832.639 203.08C833.812 205 835.385 206.52 837.359 207.64C839.385 208.76 841.865 209.32 844.799 209.32C847.785 209.32 850.265 208.76 852.239 207.64C854.265 206.467 855.839 204.92 856.959 203C858.132 201.027 858.985 198.84 859.519 196.44C860.052 194.04 860.319 191.56 860.319 189V160.2H869.359V189C869.359 192.893 868.879 196.573 867.919 200.04C867.012 203.453 865.572 206.467 863.599 209.08C861.679 211.64 859.172 213.667 856.079 215.16C852.985 216.653 849.225 217.4 844.799 217.4ZM884.875 160.2L900.555 182.52L916.235 160.2H926.155L905.675 189L925.515 217H915.595L900.555 195.48L885.515 217H875.515L895.355 189L874.875 160.2H884.875ZM719.4 311V254.2H739.56C745.693 254.2 750.813 255.48 754.92 258.04C759.027 260.547 762.093 263.96 764.12 268.28C766.2 272.547 767.24 277.293 767.24 282.52C767.24 288.28 766.093 293.293 763.8 297.56C761.56 301.827 758.36 305.133 754.2 307.48C750.04 309.827 745.16 311 739.56 311H719.4ZM758.12 282.52C758.12 278.52 757.373 275 755.88 271.96C754.44 268.867 752.333 266.467 749.56 264.76C746.84 263 743.507 262.12 739.56 262.12H728.36V303.08H739.56C743.56 303.08 746.92 302.173 749.64 300.36C752.413 298.547 754.52 296.093 755.96 293C757.4 289.907 758.12 286.413 758.12 282.52ZM794.506 311.8C791.252 311.8 788.292 311.24 785.626 310.12C783.012 308.947 780.746 307.373 778.826 305.4C776.906 303.373 775.412 301.08 774.346 298.52C773.332 295.907 772.826 293.133 772.826 290.2C772.826 286.253 773.732 282.653 775.546 279.4C777.359 276.093 779.892 273.453 783.146 271.48C786.399 269.453 790.212 268.44 794.586 268.44C798.959 268.44 802.719 269.453 805.866 271.48C809.066 273.453 811.546 276.067 813.306 279.32C815.066 282.573 815.946 286.067 815.946 289.8C815.946 290.44 815.919 291.053 815.866 291.64C815.812 292.173 815.759 292.627 815.706 293H782.186C782.346 295.453 783.012 297.613 784.186 299.48C785.412 301.293 786.959 302.733 788.826 303.8C790.692 304.813 792.692 305.32 794.826 305.32C797.172 305.32 799.386 304.733 801.466 303.56C803.599 302.387 805.039 300.84 805.786 298.92L813.306 301.08C812.399 303.107 811.012 304.947 809.146 306.6C807.332 308.2 805.172 309.48 802.666 310.44C800.159 311.347 797.439 311.8 794.506 311.8ZM781.946 287.16H807.226C807.066 284.76 806.372 282.653 805.146 280.84C803.972 278.973 802.452 277.533 800.586 276.52C798.772 275.453 796.746 274.92 794.506 274.92C792.319 274.92 790.292 275.453 788.426 276.52C786.612 277.533 785.119 278.973 783.946 280.84C782.772 282.653 782.106 284.76 781.946 287.16ZM838.004 311.8C834.484 311.8 831.15 311.24 828.004 310.12C824.857 308.947 822.164 307.213 819.924 304.92L823.204 299C825.604 301.133 828.004 302.68 830.404 303.64C832.857 304.6 835.284 305.08 837.684 305.08C840.137 305.08 842.137 304.627 843.684 303.72C845.23 302.76 846.004 301.373 846.004 299.56C846.004 298.227 845.604 297.24 844.804 296.6C844.004 295.96 842.83 295.4 841.284 294.92C839.79 294.44 837.977 293.907 835.844 293.32C832.857 292.413 830.35 291.48 828.324 290.52C826.297 289.507 824.777 288.28 823.764 286.84C822.75 285.4 822.244 283.56 822.244 281.32C822.244 278.6 822.937 276.28 824.324 274.36C825.71 272.44 827.63 270.973 830.084 269.96C832.59 268.947 835.47 268.44 838.724 268.44C841.764 268.44 844.564 268.92 847.124 269.88C849.737 270.787 852.03 272.227 854.004 274.2L850.244 280.04C848.377 278.333 846.457 277.08 844.484 276.28C842.564 275.48 840.484 275.08 838.244 275.08C836.964 275.08 835.737 275.24 834.564 275.56C833.39 275.827 832.404 276.36 831.604 277.16C830.857 277.907 830.484 278.973 830.484 280.36C830.484 281.48 830.804 282.387 831.444 283.08C832.084 283.773 833.044 284.36 834.324 284.84C835.604 285.32 837.177 285.853 839.044 286.44C842.297 287.4 845.07 288.36 847.364 289.32C849.657 290.227 851.417 291.427 852.644 292.92C853.924 294.36 854.564 296.36 854.564 298.92C854.564 302.973 853.044 306.147 850.004 308.44C847.017 310.68 843.017 311.8 838.004 311.8ZM862.421 311V269.16H871.221V311H862.421ZM862.421 262.28V252.6H871.221V262.28H862.421ZM898.356 311.4C895.529 311.4 892.942 310.84 890.596 309.72C888.249 308.547 886.222 306.973 884.516 305C882.862 303.027 881.556 300.76 880.596 298.2C879.689 295.64 879.236 292.947 879.236 290.12C879.236 287.133 879.716 284.333 880.676 281.72C881.636 279.107 882.969 276.813 884.676 274.84C886.436 272.813 888.489 271.24 890.836 270.12C893.182 269 895.796 268.44 898.676 268.44C902.036 268.44 904.969 269.24 907.476 270.84C910.036 272.44 912.142 274.52 913.796 277.08V269.16H921.556V309.8C921.556 313.853 920.569 317.293 918.596 320.12C916.676 322.947 914.036 325.107 910.676 326.6C907.316 328.093 903.529 328.84 899.316 328.84C894.676 328.84 890.836 328.04 887.796 326.44C884.756 324.84 882.169 322.653 880.036 319.88L884.996 315.24C886.596 317.48 888.649 319.187 891.156 320.36C893.716 321.533 896.436 322.12 899.316 322.12C901.716 322.12 903.929 321.667 905.956 320.76C908.036 319.907 909.689 318.547 910.916 316.68C912.142 314.867 912.756 312.573 912.756 309.8V303.4C911.262 305.907 909.209 307.88 906.596 309.32C903.982 310.707 901.236 311.4 898.356 311.4ZM901.236 304.28C902.569 304.28 903.849 304.067 905.076 303.64C906.302 303.16 907.422 302.547 908.436 301.8C909.502 301 910.409 300.12 911.156 299.16C911.902 298.147 912.436 297.08 912.756 295.96V285C912.062 283.187 911.076 281.613 909.796 280.28C908.516 278.893 907.076 277.827 905.476 277.08C903.876 276.333 902.249 275.96 900.596 275.96C898.676 275.96 896.942 276.387 895.396 277.24C893.902 278.04 892.622 279.133 891.556 280.52C890.489 281.853 889.662 283.373 889.076 285.08C888.489 286.787 888.196 288.547 888.196 290.36C888.196 292.28 888.516 294.067 889.156 295.72C889.849 297.373 890.782 298.867 891.956 300.2C893.129 301.48 894.516 302.493 896.116 303.24C897.716 303.933 899.422 304.28 901.236 304.28ZM969.628 311H960.828V287.56C960.828 283.667 960.188 280.813 958.908 279C957.681 277.187 955.841 276.28 953.388 276.28C951.681 276.28 949.975 276.707 948.268 277.56C946.615 278.413 945.121 279.587 943.788 281.08C942.455 282.52 941.495 284.2 940.908 286.12V311H932.108V269.16H940.108V277.56C941.175 275.693 942.561 274.093 944.268 272.76C946.028 271.373 948.001 270.307 950.188 269.56C952.375 268.813 954.695 268.44 957.148 268.44C959.655 268.44 961.708 268.893 963.308 269.8C964.961 270.707 966.241 271.96 967.148 273.56C968.108 275.107 968.748 276.92 969.068 279C969.441 281.027 969.628 283.187 969.628 285.48V311ZM979.842 311V269.16H988.643V311H979.842ZM979.842 262.28V252.6H988.643V262.28H979.842ZM1036.74 311H1027.94V287.56C1027.94 283.667 1027.3 280.813 1026.02 279C1024.79 277.187 1022.95 276.28 1020.5 276.28C1018.79 276.28 1017.08 276.707 1015.38 277.56C1013.72 278.413 1012.23 279.587 1010.9 281.08C1009.56 282.52 1008.6 284.2 1008.02 286.12V311H999.217V269.16H1007.22V277.56C1008.28 275.693 1009.67 274.093 1011.38 272.76C1013.14 271.373 1015.11 270.307 1017.3 269.56C1019.48 268.813 1021.8 268.44 1024.26 268.44C1026.76 268.44 1028.82 268.893 1030.42 269.8C1032.07 270.707 1033.35 271.96 1034.26 273.56C1035.22 275.107 1035.86 276.92 1036.18 279C1036.55 281.027 1036.74 283.187 1036.74 285.48V311ZM1063.51 311.4C1060.69 311.4 1058.1 310.84 1055.75 309.72C1053.41 308.547 1051.38 306.973 1049.67 305C1048.02 303.027 1046.71 300.76 1045.75 298.2C1044.85 295.64 1044.39 292.947 1044.39 290.12C1044.39 287.133 1044.87 284.333 1045.83 281.72C1046.79 279.107 1048.13 276.813 1049.83 274.84C1051.59 272.813 1053.65 271.24 1055.99 270.12C1058.34 269 1060.95 268.44 1063.83 268.44C1067.19 268.44 1070.13 269.24 1072.63 270.84C1075.19 272.44 1077.3 274.52 1078.95 277.08V269.16H1086.71V309.8C1086.71 313.853 1085.73 317.293 1083.75 320.12C1081.83 322.947 1079.19 325.107 1075.83 326.6C1072.47 328.093 1068.69 328.84 1064.47 328.84C1059.83 328.84 1055.99 328.04 1052.95 326.44C1049.91 324.84 1047.33 322.653 1045.19 319.88L1050.15 315.24C1051.75 317.48 1053.81 319.187 1056.31 320.36C1058.87 321.533 1061.59 322.12 1064.47 322.12C1066.87 322.12 1069.09 321.667 1071.11 320.76C1073.19 319.907 1074.85 318.547 1076.07 316.68C1077.3 314.867 1077.91 312.573 1077.91 309.8V303.4C1076.42 305.907 1074.37 307.88 1071.75 309.32C1069.14 310.707 1066.39 311.4 1063.51 311.4ZM1066.39 304.28C1067.73 304.28 1069.01 304.067 1070.23 303.64C1071.46 303.16 1072.58 302.547 1073.59 301.8C1074.66 301 1075.57 300.12 1076.31 299.16C1077.06 298.147 1077.59 297.08 1077.91 295.96V285C1077.22 283.187 1076.23 281.613 1074.95 280.28C1073.67 278.893 1072.23 277.827 1070.63 277.08C1069.03 276.333 1067.41 275.96 1065.75 275.96C1063.83 275.96 1062.1 276.387 1060.55 277.24C1059.06 278.04 1057.78 279.133 1056.71 280.52C1055.65 281.853 1054.82 283.373 1054.23 285.08C1053.65 286.787 1053.35 288.547 1053.35 290.36C1053.35 292.28 1053.67 294.067 1054.31 295.72C1055.01 297.373 1055.94 298.867 1057.11 300.2C1058.29 301.48 1059.67 302.493 1061.27 303.24C1062.87 303.933 1064.58 304.28 1066.39 304.28Z" fill="white"/>
<g clip-path="url(#clip0_534_14431)">
<path d="M179.247 342.66C179.233 342.208 177.711 297.295 170.405 290.19C163.3 283.283 155.145 289.933 154.802 290.22L154.069 289.342C154.161 289.264 163.365 281.751 171.203 289.372C178.836 296.795 180.33 340.756 180.389 342.624L179.247 342.66Z" fill="#DADBD8"/>
<path d="M179.875 351.486C179.822 350.95 174.882 297.568 194.377 275.194L195.238 275.945C176.067 297.947 180.961 350.843 181.012 351.375L179.875 351.486Z" fill="#DADBD8"/>
<path d="M179.154 345.84L178.013 345.764C178.053 345.159 181.828 285.076 167.528 271.924L168.302 271.082C183.003 284.604 179.318 343.345 179.154 345.84Z" fill="#DADBD8"/>
<path d="M181.015 345.807L179.871 345.798C179.885 344.143 180.343 305.214 191.401 298.878C193.859 297.468 196.266 297.233 198.555 298.18C205.242 300.945 208.555 312.846 208.693 313.35L207.59 313.652C207.557 313.534 204.286 301.787 198.117 299.236C196.172 298.433 194.105 298.645 191.97 299.87C181.476 305.883 181.018 345.408 181.015 345.807Z" fill="#DADBD8"/>
<path d="M176.708 345.836L175.567 345.77C175.584 345.463 177.236 315.008 169.016 304.277C167.025 301.678 164.863 300.438 162.579 300.599C157.193 300.975 152.677 308.856 152.633 308.935L151.637 308.373C151.833 308.027 156.498 299.878 162.497 299.458C165.181 299.268 167.683 300.657 169.924 303.583C178.401 314.649 176.781 344.568 176.708 345.836Z" fill="#DADBD8"/>
<path d="M178.511 349.977C178.287 347.022 173.138 277.482 182.198 265.229L183.117 265.908C174.308 277.823 179.597 349.17 179.651 349.89L178.511 349.977Z" fill="#DADBD8"/>
<path d="M201.02 305.228C201.02 305.228 195.584 307.232 197.201 311.962C198.817 316.693 216.003 324.479 216.003 324.479C216.003 324.479 223.202 317.881 216.591 307.15C209.981 296.421 201.167 301.843 201.02 305.228Z" fill="#E7E8E5"/>
<path d="M177.391 296.224C177.391 296.224 183.179 295.982 183.508 300.97C183.837 305.958 170.969 319.758 170.969 319.758C170.969 319.758 161.787 316.438 163.759 303.99C165.732 291.543 175.953 293.155 177.391 296.224Z" fill="#E7E8E5"/>
<path d="M172.491 272.347C172.491 272.347 176.35 271.932 176.04 269.582C175.729 267.231 161.039 261.182 152.372 270.964C152.372 270.964 157.922 280.497 165.944 280.622C173.966 280.746 172.491 272.347 172.491 272.347Z" fill="#E7E8E5"/>
<path d="M179.682 266.638C179.682 266.638 176.188 268.327 175.209 266.169C174.229 264.01 183.497 251.107 196.026 254.825C196.026 254.825 196.357 265.85 189.615 270.199C182.873 274.547 179.682 266.638 179.682 266.638Z" fill="#E7E8E5"/>
<path d="M161.412 303.327C161.412 303.327 164.075 301.177 161.201 300.127C158.327 299.078 144.225 299.376 144.078 313.345C144.078 313.345 160.503 316.075 162.536 310.753C164.569 305.432 161.412 303.327 161.412 303.327Z" fill="#E7E8E5"/>
<path d="M194.904 271.994C194.904 271.994 192.241 269.845 195.115 268.795C197.99 267.745 212.092 268.044 212.238 282.013C212.238 282.013 195.814 284.743 193.781 279.421C191.748 274.1 194.904 271.994 194.904 271.994Z" fill="#E7E8E5"/>
<path d="M186.221 283.247C186.221 283.247 185.987 280.634 188.097 281.658C190.208 282.683 197.56 290.614 189.938 298.141C189.938 298.141 179.68 290.543 181.53 286.586C183.379 282.63 186.221 283.247 186.221 283.247Z" fill="#E7E8E5"/>
<path d="M159.031 286.974C159.031 286.974 160.623 284.887 158.292 284.628C155.96 284.371 145.512 287.159 147.945 297.59C147.945 297.59 160.675 296.633 161.22 292.301C161.765 287.967 159.031 286.974 159.031 286.974Z" fill="#E7E8E5"/>
<path d="M191.716 365.955H166.04L159.211 334.454H197.897L191.716 365.955Z" fill="#EDEDEB"/>
<path d="M200.124 343.059H156.881V334H200.124V343.059Z" fill="#E2E2E0"/>
<path d="M348.151 36.2428C345.127 36.2428 342.667 38.7032 342.667 41.7263V298.973C342.667 301.998 345.127 304.457 348.151 304.457H524.76C527.784 304.457 530.244 301.998 530.244 298.973V41.7263C530.244 38.7032 527.784 36.2428 524.76 36.2428H348.151ZM524.76 304.701H348.151C344.993 304.701 342.423 302.132 342.423 298.973V41.7263C342.423 38.5674 344.993 35.9985 348.151 35.9985H524.76C527.919 35.9985 530.488 38.5674 530.488 41.7263V298.973C530.488 302.132 527.919 304.701 524.76 304.701Z" fill="#DADBD8"/>
<path d="M144.493 36.2428C141.47 36.2428 139.01 38.7032 139.01 41.7263V298.973C139.01 301.998 141.47 304.457 144.493 304.457H321.103C324.126 304.457 326.587 301.998 326.587 298.973V41.7263C326.587 38.7032 324.126 36.2428 321.103 36.2428H144.493ZM321.103 304.701H144.493C141.335 304.701 138.766 302.132 138.766 298.973V41.7263C138.766 38.5674 141.335 35.9985 144.493 35.9985H321.103C324.261 35.9985 326.831 38.5674 326.831 41.7263V298.973C326.831 302.132 324.261 304.701 321.103 304.701Z" fill="#DADBD8"/>
<path d="M91 364.617H579.556V364.373H91V364.617Z" fill="#DADBD8"/>
<path d="M141.489 378.31H157.182V378.555H141.489V378.31Z" fill="#DADBD8"/>
<path d="M257.453 375.662H309.758V375.906H257.453V375.662Z" fill="#DADBD8"/>
<path d="M158.159 387.387H193.579V387.631H158.159V387.387Z" fill="#DADBD8"/>
<path d="M460.692 375.535H502.894V375.779H460.692V375.535Z" fill="#DADBD8"/>
<path d="M511.6 375.535H517.785V375.779H511.6V375.535Z" fill="#DADBD8"/>
<path d="M399.975 381.623H452.631V381.867H399.975V381.623Z" fill="#DADBD8"/>
<path d="M157.63 181.981C157.63 185.7 154.615 188.716 150.895 188.716C147.176 188.716 144.161 185.7 144.161 181.981C144.161 178.262 147.176 175.247 150.895 175.247C154.615 175.247 157.63 178.262 157.63 181.981ZM163.989 179.253C163.644 177.585 162.983 176.035 162.079 174.658L163.724 172.671L160.206 169.153L158.219 170.797C156.842 169.895 155.292 169.233 153.624 168.888L153.383 166.326H148.408L148.167 168.888C146.499 169.234 144.949 169.895 143.572 170.797L141.585 169.153L138.067 172.671L139.712 174.658C138.809 176.035 138.148 177.585 137.802 179.253L135.24 179.495V184.469L137.802 184.711C138.148 186.377 138.809 187.928 139.712 189.305L138.067 191.292L141.585 194.81L143.572 193.164C144.949 194.068 146.499 194.729 148.167 195.075L148.408 197.637H153.383L153.624 195.075C155.292 194.73 156.842 194.068 158.219 193.164L160.206 194.81L163.724 191.292L162.079 189.305C162.983 187.928 163.644 186.377 163.989 184.711L166.55 184.469V179.495L163.989 179.253Z" fill="#E7E8E5"/>
<path d="M419.082 171.767C419.082 175.485 416.067 178.501 412.347 178.501C408.628 178.501 405.612 175.485 405.612 171.767C405.612 168.048 408.628 165.032 412.347 165.032C416.067 165.032 419.082 168.048 419.082 171.767ZM425.441 169.038C425.095 167.371 424.435 165.82 423.531 164.443L425.175 162.456L421.659 158.938L419.67 160.583C418.293 159.68 416.743 159.018 415.076 158.673L414.834 156.111H409.86L409.619 158.673C407.951 159.018 406.4 159.68 405.023 160.583L403.036 158.938L399.518 162.456L401.164 164.443C400.26 165.82 399.599 167.371 399.253 169.038L396.691 169.28V174.254L399.253 174.496C399.599 176.163 400.26 177.713 401.164 179.09L399.518 181.077L403.036 184.595L405.023 182.95C406.4 183.853 407.951 184.514 409.619 184.86L409.86 187.422H414.834L415.076 184.861C416.743 184.515 418.293 183.853 419.67 182.95L421.659 184.595L425.175 181.077L423.531 179.09C424.435 177.713 425.095 176.163 425.441 174.496L428.002 174.254V169.28L425.441 169.038Z" fill="#E7E8E5"/>
<path d="M428.952 279.985C428.952 283.704 425.938 286.72 422.218 286.72C418.499 286.72 415.484 283.704 415.484 279.985C415.484 276.265 418.499 273.25 422.218 273.25C425.938 273.25 428.952 276.265 428.952 279.985ZM435.311 277.256C434.966 275.588 434.305 274.039 433.401 272.662L435.046 270.674L431.529 267.156L429.541 268.801C428.164 267.898 426.614 267.237 424.947 266.891L424.705 264.33H419.73L419.489 266.891C417.822 267.237 416.271 267.898 414.894 268.801L412.907 267.156L409.389 270.674L411.035 272.662C410.131 274.039 409.47 275.588 409.124 277.256L406.562 277.498V282.472L409.124 282.714C409.47 284.381 410.131 285.932 411.035 287.309L409.389 289.296L412.907 292.814L414.894 291.168C416.271 292.072 417.822 292.733 419.489 293.079L419.73 295.641H424.705L424.947 293.079C426.614 292.734 428.164 292.072 429.541 291.168L431.529 292.814L435.046 289.296L433.401 287.309C434.305 285.932 434.966 284.381 435.311 282.714L437.873 282.472V277.498L435.311 277.256Z" fill="#E7E8E5"/>
<path d="M312.998 80.855C312.998 84.3453 310.168 87.175 306.677 87.175C303.187 87.175 300.357 84.3453 300.357 80.855C300.357 77.3638 303.187 74.5341 306.677 74.5341C310.168 74.5341 312.998 77.3638 312.998 80.855ZM318.966 78.294C318.642 76.7287 318.021 75.2738 317.173 73.9811L318.717 72.1157L315.416 68.8141L313.551 70.3589C312.258 69.5108 310.804 68.8903 309.238 68.5659L309.012 66.1622H304.343L304.116 68.5659C302.552 68.8903 301.097 69.5108 299.804 70.3589L297.939 68.8141L294.637 72.1157L296.182 73.9811C295.334 75.2738 294.713 76.7287 294.389 78.294L291.984 78.5207V83.1894L294.389 83.4151C294.713 84.9804 295.334 86.4353 296.182 87.728L294.637 89.5933L297.939 92.895L299.804 91.3502C301.097 92.1993 302.552 92.8188 304.116 93.1432L304.343 95.5469H309.012L309.238 93.1432C310.804 92.8188 312.258 92.1993 313.551 91.3502L315.416 92.895L318.717 89.5933L317.173 87.728C318.021 86.4353 318.642 84.9804 318.966 83.4151L321.37 83.1894V78.5207L318.966 78.294Z" fill="#E7E8E5"/>
<path d="M541.692 201.345C544.381 199.781 546.195 196.875 546.195 193.539C546.195 188.55 542.151 184.506 537.162 184.506C532.173 184.506 528.129 188.55 528.129 193.539C528.129 196.878 529.946 199.786 532.639 201.349C521.555 204.015 520.872 216.275 520.872 216.275L553.452 216.088C553.452 216.088 552.769 203.981 541.692 201.345Z" fill="#E7E8E5"/>
<path d="M437.91 97.6112C437.91 97.6112 472.434 62.401 506.96 97.962C506.96 97.962 474.605 140.543 437.91 97.6112Z" fill="#F3F2F1"/>
<path d="M484.945 99.4236C484.945 106.333 479.344 111.934 472.435 111.934C465.527 111.934 459.926 106.333 459.926 99.4236C459.926 92.5145 465.527 86.9137 472.435 86.9137C479.344 86.9137 484.945 92.5145 484.945 99.4236Z" fill="#808675"/>
<path d="M477.432 99.4239C477.432 102.184 475.195 104.422 472.434 104.422C469.675 104.422 467.438 102.184 467.438 99.4239C467.438 96.6636 469.675 94.426 472.434 94.426C475.195 94.426 477.432 96.6636 477.432 99.4239Z" fill="#DADBD8"/>
<path d="M280.967 321.734C279.71 321.734 278.614 321.31 277.677 320.461C276.74 319.613 276.271 318.427 276.271 316.902C276.271 315.548 276.724 314.41 277.631 313.486C278.536 312.563 279.648 312.1 280.967 312.1C282.263 312.1 283.355 312.563 284.24 313.486C285.126 314.41 285.569 315.548 285.569 316.902C285.569 318.405 285.106 319.587 284.178 320.446C283.252 321.304 282.181 321.734 280.967 321.734Z" fill="#E2E2E0"/>
<path d="M266.499 287.664C266.499 285.677 267.111 283.664 268.334 281.624C269.557 279.585 271.343 277.895 273.689 276.557C276.035 275.218 278.773 274.549 281.901 274.549C284.809 274.549 287.376 275.108 289.602 276.227C291.828 277.346 293.547 278.868 294.761 280.792C295.975 282.717 296.581 284.809 296.581 287.068C296.581 288.847 296.235 290.405 295.544 291.744C294.851 293.082 294.029 294.238 293.076 295.212C292.124 296.184 290.414 297.821 287.948 300.122C287.266 300.77 286.719 301.341 286.308 301.832C285.897 302.324 285.591 302.773 285.39 303.182C285.19 303.589 285.035 303.998 284.924 304.405C284.814 304.814 284.649 305.53 284.428 306.555C284.047 308.731 282.854 309.818 280.848 309.818C279.805 309.818 278.928 309.463 278.216 308.751C277.504 308.041 277.148 306.984 277.148 305.583C277.148 303.825 277.408 302.303 277.93 301.017C278.452 299.73 279.144 298.6 280.006 297.628C280.868 296.655 282.031 295.499 283.495 294.16C284.779 292.989 285.706 292.105 286.278 291.508C286.849 290.912 287.331 290.249 287.722 289.516C288.113 288.784 288.308 287.99 288.308 287.131C288.308 285.458 287.712 284.045 286.519 282.895C285.325 281.745 283.786 281.169 281.901 281.169C279.695 281.169 278.071 281.75 277.027 282.911C275.985 284.071 275.102 285.781 274.38 288.041C273.698 290.405 272.405 291.587 270.5 291.587C269.377 291.587 268.429 291.174 267.657 290.347C266.885 289.521 266.499 288.627 266.499 287.664Z" fill="#E2E2E0"/>
<path d="M277.255 240.051H260.694C256.958 240.051 253.93 237.023 253.93 233.286C253.93 229.551 256.958 226.522 260.694 226.522H277.255C280.991 226.522 284.02 229.551 284.02 233.286C284.02 237.023 280.991 240.051 277.255 240.051Z" fill="#E7E8E5"/>
<path d="M284.02 233.287C284.02 237.175 280.868 240.326 276.981 240.326C273.094 240.326 269.942 237.175 269.942 233.287C269.942 229.4 273.094 226.249 276.981 226.249C280.868 226.249 284.02 229.4 284.02 233.287Z" fill="#DADBD8"/>
<path d="M157.991 76.0371C157.117 76.0371 156.353 75.742 155.701 75.1518C155.049 74.5607 154.723 73.735 154.723 72.6729C154.723 71.731 155.038 70.9385 155.669 70.2966C156.299 69.6536 157.073 69.3312 157.991 69.3312C158.894 69.3312 159.653 69.6536 160.27 70.2966C160.886 70.9385 161.194 71.731 161.194 72.6729C161.194 73.7194 160.872 74.5421 160.227 75.1401C159.582 75.7381 158.836 76.0371 157.991 76.0371Z" fill="#E2E2E0"/>
<path d="M147.921 52.3224C147.921 50.9398 148.347 49.5376 149.198 48.1179C150.05 46.6982 151.292 45.5227 152.925 44.5905C154.558 43.6593 156.464 43.1923 158.642 43.1923C160.666 43.1923 162.452 43.5831 164.002 44.3609C165.551 45.1406 166.748 46.1998 167.593 47.5394C168.437 48.8791 168.86 50.335 168.86 51.9081C168.86 53.1451 168.619 54.2297 168.137 55.1619C167.656 56.094 167.083 56.8982 166.42 57.5754C165.757 58.2525 164.567 59.3918 162.85 60.9933C162.376 61.4447 161.995 61.8424 161.709 62.1844C161.423 62.5264 161.21 62.839 161.071 63.1234C160.931 63.4067 160.823 63.6911 160.746 63.9754C160.669 64.2588 160.554 64.7581 160.4 65.4714C160.135 66.9859 159.305 67.7422 157.909 67.7422C157.183 67.7422 156.572 67.495 156.077 67.0006C155.581 66.5052 155.333 65.7694 155.333 64.7943C155.333 63.5709 155.515 62.5117 155.878 61.6157C156.24 60.7207 156.722 59.9341 157.323 59.257C157.923 58.5798 158.732 57.7757 159.751 56.8435C160.645 56.0286 161.291 55.413 161.688 54.9977C162.086 54.5834 162.421 54.1213 162.693 53.6112C162.965 53.1012 163.101 52.5481 163.101 51.9511C163.101 50.7864 162.686 49.8034 161.856 49.0022C161.025 48.2019 159.953 47.8013 158.642 47.8013C157.106 47.8013 155.976 48.2049 155.25 49.0139C154.524 49.822 153.91 51.0121 153.407 52.5853C152.932 54.2297 152.032 55.0525 150.706 55.0525C149.924 55.0525 149.264 54.7662 148.727 54.1897C148.19 53.6151 147.921 52.9927 147.921 52.3224Z" fill="#E2E2E0"/>
<path d="M474.307 425.1C474.307 431.12 411.19 436 333.332 436C255.474 436 192.357 431.12 192.357 425.1C192.357 419.08 255.474 414.2 333.332 414.2C411.19 414.2 474.307 419.08 474.307 425.1Z" fill="#F3F2F1"/>
<path d="M503.473 275.393H396.231C386.622 275.393 378.832 267.603 378.832 257.993V200.567C378.832 190.958 386.622 183.168 396.231 183.168H503.473C513.082 183.168 520.872 190.958 520.872 200.567V257.993C520.872 267.603 513.082 275.393 503.473 275.393Z" fill="#17282F"/>
<path d="M413.045 233.097V206.784H429.175V232.619C429.175 239.932 431.976 242.666 436.487 242.666C440.998 242.666 443.8 239.932 443.8 232.619V206.784H459.656V233.097C459.656 247.449 451.045 255.719 436.35 255.719C421.656 255.719 413.045 247.449 413.045 233.097Z" fill="white"/>
<path d="M467.032 206.784H483.161V254.625H467.032V206.784Z" fill="white"/>
<path d="M481.417 330.391H452.861C448.547 330.391 445.051 326.894 445.051 322.58V294.024C445.051 289.711 448.547 286.213 452.861 286.213H481.417C485.731 286.213 489.228 289.711 489.228 294.024V322.58C489.228 326.894 485.731 330.391 481.417 330.391Z" fill="#406FBF"/>
<path d="M460.981 318.766V297.837L470.044 303.069L479.107 308.302L470.044 313.534L460.981 318.766Z" fill="#CFE0F5"/>
<path d="M550.16 299.604H504.555C502.708 299.604 501.211 298.107 501.211 296.261V257.346C501.211 255.501 502.708 254.004 504.555 254.004H550.16C552.007 254.004 553.504 255.501 553.504 257.346V296.261C553.504 298.107 552.007 299.604 550.16 299.604Z" fill="#406FBF"/>
<path d="M550.16 299.604H504.555C502.708 299.604 501.211 298.107 501.211 296.261V257.346C501.211 255.501 502.708 254.004 504.555 254.004H550.16C552.007 254.004 553.504 255.501 553.504 257.346V296.261C553.504 298.107 552.007 299.604 550.16 299.604Z" fill="#CFE0F5"/>
<path d="M501.211 292.267L516.865 276.892L530.239 283.861L542.8 270.23L553.504 279.344V297.883C553.504 298.834 552.621 299.604 551.53 299.604H504.555C500.226 299.604 501.01 293.427 501.211 292.267Z" fill="#406FBF"/>
<path d="M533.657 266.946C533.657 270.067 531.185 272.598 528.136 272.598C525.087 272.598 522.615 270.067 522.615 266.946C522.615 263.825 525.087 261.294 528.136 261.294C531.185 261.294 533.657 263.825 533.657 266.946Z" fill="#406FBF"/>
<path d="M537.531 166.365H488.713C484.691 166.365 481.43 163.104 481.43 159.081V129.389C481.43 125.368 484.691 122.106 488.713 122.106H537.531C541.554 122.106 544.815 125.368 544.815 129.389V159.081C544.815 163.104 541.554 166.365 537.531 166.365Z" fill="#406FBF"/>
<path d="M537.531 166.365H488.713C484.691 166.365 481.43 163.104 481.43 159.081V129.389C481.43 125.368 484.691 122.106 488.713 122.106H537.531C541.554 122.106 544.815 125.368 544.815 129.389V159.081C544.815 163.104 541.554 166.365 537.531 166.365Z" fill="#7DA6DD"/>
<path d="M506.232 140.422L496.349 144.236L506.232 148.049V150.359L493.761 145.433V143.039L506.232 138.112V140.422Z" fill="white"/>
<path d="M516.501 130.541H518.923L509.737 156.762H507.314L516.501 130.541Z" fill="white"/>
<path d="M532.229 143.039V145.433L519.759 150.359V148.049L529.668 144.236L519.759 140.422V138.112L532.229 143.039Z" fill="white"/>
<path d="M467.257 165.882V171.378H461.761V172.111H467.99V165.882H467.257Z" fill="#406FBF"/>
<path d="M448.846 172.111H455.303V171.378H448.846V172.111Z" fill="#406FBF"/>
<path d="M442.387 171.378H436.891V165.882H436.158V172.111H442.387V171.378Z" fill="#406FBF"/>
<path d="M436.158 159.424H436.891V152.966H436.158V159.424Z" fill="#406FBF"/>
<path d="M436.891 146.51V141.014H442.387V140.282H436.158V146.51H436.891Z" fill="#406FBF"/>
<path d="M448.846 141.014H455.303V140.281H448.846V141.014Z" fill="#406FBF"/>
<path d="M461.761 141.014H467.257V146.51H467.99V140.282H461.761V141.014Z" fill="#406FBF"/>
<path d="M467.257 159.426H467.99V152.967H467.257V159.426Z" fill="#406FBF"/>
<path d="M453.051 159.105L450.607 153.221H450.393L448.099 159.105H453.051ZM443.51 164.454C444.122 164.413 444.614 164.135 444.986 163.622C445.227 163.3 445.57 162.588 446.017 161.487L451.664 147.574H452.371L458.044 160.929C458.68 162.426 459.156 163.393 459.471 163.826C459.786 164.261 460.232 164.47 460.811 164.454V165.1H452.583V164.454C453.41 164.421 453.954 164.351 454.215 164.243C454.475 164.135 454.606 163.863 454.606 163.424C454.606 163.225 454.539 162.924 454.407 162.518C454.324 162.278 454.212 161.988 454.071 161.649L453.425 160.109H447.718C447.345 161.119 447.105 161.777 446.997 162.083C446.773 162.737 446.662 163.213 446.662 163.511C446.662 163.874 446.906 164.139 447.395 164.305C447.684 164.396 448.118 164.446 448.697 164.454V165.1H443.51V164.454Z" fill="#406FBF"/>
<path d="M437.839 142.52H433.754V138.434H437.839V142.52Z" fill="#406FBF"/>
<path d="M469.424 142.52H465.339V138.434H469.424V142.52Z" fill="#406FBF"/>
<path d="M437.839 173.789H433.754V169.704H437.839V173.789Z" fill="#406FBF"/>
<path d="M469.424 173.789H465.339V169.704H469.424V173.789Z" fill="#406FBF"/>
<path d="M158.099 85.8119C158.099 91.4323 153.543 95.9885 147.922 95.9885C142.301 95.9885 137.745 91.4323 137.745 85.8119C137.745 80.1916 142.301 75.6343 147.922 75.6343C153.543 75.6343 158.099 80.1916 158.099 85.8119ZM167.709 81.6885C167.186 79.1685 166.187 76.8254 164.822 74.7442L167.308 71.7415L161.993 66.425L158.989 68.9108C156.908 67.5468 154.565 66.5472 152.045 66.0254L151.681 62.1541H144.163L143.798 66.0254C141.279 66.5472 138.936 67.5468 136.855 68.9108L133.852 66.425L128.536 71.7415L131.022 74.7442C129.657 76.8254 128.658 79.1685 128.136 81.6885L124.265 82.053V89.5699L128.136 89.9353C128.658 92.4543 129.657 94.7974 131.022 96.8787L128.536 99.8813L133.852 105.198L136.855 102.711C138.936 104.077 141.279 105.075 143.798 105.597L144.163 109.469H151.681L152.045 105.598C154.565 105.076 156.908 104.077 158.989 102.711L161.993 105.198L167.308 99.8813L164.822 96.8787C166.187 94.7974 167.186 92.4543 167.709 89.9353L171.579 89.5699V82.053L167.709 81.6885Z" fill="#406FBF"/>
<path d="M151.681 109.469H144.163L143.798 105.597C142.115 105.249 140.51 104.687 139.01 103.945C138.929 103.905 138.847 103.864 138.766 103.822C138.107 103.486 137.47 103.115 136.855 102.711L133.852 105.198L128.536 99.8813L131.022 96.8787C129.657 94.7974 128.658 92.4543 128.136 89.9353L124.265 89.5699V82.053L128.136 81.6885C128.658 79.1685 129.657 76.8254 131.022 74.7442L128.536 71.7415L133.852 66.425L136.855 68.9108C138.936 67.5468 141.279 66.5472 143.798 66.0254L144.163 62.1541H151.681L152.045 66.0254C154.565 66.5472 156.908 67.5468 158.989 68.9108L161.993 66.425L167.308 71.7415L164.822 74.7442C166.187 76.8254 167.186 79.1685 167.709 81.6885L171.579 82.053V89.5699L167.709 89.9353C167.186 92.4543 166.187 94.7974 164.822 96.8787L167.308 99.8813L161.993 105.198L158.989 102.711C156.908 104.077 154.565 105.076 152.045 105.598L151.681 109.469ZM137.745 85.8119C137.745 91.4323 142.301 95.9885 147.922 95.9885C153.543 95.9885 158.099 91.4323 158.099 85.8119C158.099 80.1916 153.543 75.6343 147.922 75.6343C144.085 75.6343 140.744 77.7586 139.01 80.8941C138.925 81.0485 138.843 81.2048 138.766 81.3641C138.112 82.7076 137.745 84.2173 137.745 85.8119Z" fill="white"/>
<path d="M186.235 220.362C186.235 224.18 183.141 227.274 179.324 227.274C175.507 227.274 172.412 224.18 172.412 220.362C172.412 216.545 175.507 213.451 179.324 213.451C183.141 213.451 186.235 216.545 186.235 220.362ZM192.761 217.562C192.407 215.851 191.729 214.259 190.801 212.846L192.49 210.807L188.879 207.196L186.84 208.885C185.427 207.958 183.836 207.279 182.124 206.924L181.877 204.295H176.771L176.523 206.924C174.812 207.28 173.221 207.958 171.808 208.885L169.768 207.196L166.158 210.807L167.847 212.846C166.919 214.259 166.241 215.851 165.886 217.562L163.257 217.81V222.915L165.886 223.163C166.241 224.874 166.919 226.465 167.847 227.878L166.158 229.918L169.768 233.529L171.808 231.839C173.221 232.767 174.812 233.446 176.523 233.8L176.771 236.43H181.877L182.124 233.8C183.836 233.446 185.427 232.767 186.84 231.839L188.879 233.529L192.49 229.918L190.801 227.879C191.729 226.465 192.407 224.874 192.761 223.163L195.391 222.915V217.81L192.761 217.562Z" fill="#406FBF"/>
<path d="M181.877 236.43H176.771L176.523 233.8C174.812 233.446 173.221 232.767 171.808 231.839L169.768 233.529L166.158 229.918L167.847 227.878C166.919 226.465 166.241 224.874 165.886 223.163L163.257 222.915V217.81L165.886 217.562C166.241 215.851 166.919 214.259 167.847 212.846L166.158 210.807L169.768 207.196L171.808 208.885C173.221 207.958 174.812 207.28 176.523 206.924L176.771 204.295H181.877L182.124 206.924C183.836 207.279 185.427 207.958 186.84 208.885L188.879 207.196L192.49 210.807L190.801 212.846C191.729 214.259 192.407 215.851 192.761 217.562L195.391 217.81V222.915L192.761 223.163C192.407 224.874 191.729 226.465 190.801 227.879L192.49 229.918L188.879 233.529L186.84 231.839C185.427 232.767 183.836 233.446 182.124 233.8L181.877 236.43ZM172.412 220.362C172.412 224.18 175.507 227.274 179.324 227.274C183.141 227.274 186.235 224.18 186.235 220.362C186.235 216.545 183.141 213.451 179.324 213.451C175.507 213.451 172.412 216.545 172.412 220.362Z" fill="white"/>
<path d="M226.785 263.71C225.084 256.437 228.78 249.354 235.043 247.889C241.304 246.424 247.759 251.134 249.46 258.408C251.162 265.681 247.465 272.765 241.203 274.229C234.941 275.694 228.486 270.985 226.785 263.71Z" fill="#406FBF"/>
<path d="M238.893 274.496C233.425 274.496 228.277 270.089 226.785 263.71C226.712 263.398 226.649 263.086 226.596 262.775L229.003 262.212L229.079 262.526L234.354 261.291C234.372 261.282 234.364 261.171 234.333 260.965L239.974 259.646L240.04 259.917L245.314 258.684C245.331 258.674 245.326 258.579 245.301 258.4L249.202 257.488L249.154 257.284C249.269 257.651 249.371 258.026 249.46 258.407C249.742 259.607 249.875 260.803 249.874 261.969C249.871 267.865 246.431 273.006 241.204 274.228C240.434 274.409 239.66 274.496 238.893 274.496Z" fill="#2251AA"/>
<path d="M180.136 64.371L185.26 38.6163L202.795 59.0721L249.202 257.487L226.543 262.787L180.136 64.371Z" fill="#406FBF"/>
<path d="M189.897 44.0114C188.258 46.0262 186.264 46.5089 183.901 45.4311L180.136 64.3714C180.136 64.3714 183.284 69.0186 185.813 63.4051C185.813 63.4051 189.777 67.4366 192.275 61.8945C192.275 61.8945 195.922 64.989 197.911 60.5763C197.911 60.5763 201.03 62.9888 202.795 59.0725L189.897 44.0114Z" fill="#C8685A"/>
<path d="M240.04 259.916L239.975 259.645L245.301 258.4C245.326 258.578 245.331 258.673 245.315 258.683L240.04 259.916Z" fill="#5B7EC0"/>
<path d="M239.974 259.646L225.182 198.22H231.263C238.868 229.977 244.878 255.456 245.3 258.401L239.974 259.646ZM209.019 105.995H202.976L192.375 61.974C192.678 62.2046 193.626 62.8573 194.72 62.9413C194.823 62.9511 194.926 62.9569 195.032 62.9569C196.044 62.9569 197.15 62.4283 197.976 60.6236C197.987 60.6304 197.997 60.6383 198.01 60.647C198.304 61.8596 202.852 80.5469 209.019 105.995Z" fill="#6D97D6"/>
<path d="M194.72 62.9414C193.626 62.8574 192.678 62.2047 192.375 61.9741L192.357 61.9017C192.357 61.9017 193.425 62.8085 194.72 62.9414ZM198.01 60.6472C197.997 60.6384 197.987 60.6305 197.976 60.6237C197.983 60.61 197.989 60.5973 197.994 60.5836C197.994 60.5836 197.999 60.6051 198.01 60.6472Z" fill="#DA8F86"/>
<path d="M229.078 262.525L229.003 262.212L234.333 260.965C234.363 261.171 234.371 261.282 234.354 261.291L229.078 262.525Z" fill="#5B7EC0"/>
<path d="M229.003 262.213L213.594 198.221H219.677C227.538 231.026 233.847 257.741 234.333 260.966L229.003 262.213ZM197.426 105.995H191.386L181.73 65.8956C182.092 66.0998 182.498 66.2425 182.929 66.2425C183.855 66.2425 184.894 65.5839 185.847 63.4704C185.847 63.4704 186.46 64.0919 187.354 64.512C188.461 69.0605 192.339 85.0099 197.426 105.995Z" fill="#6D97D6"/>
<path d="M225.628 261.528L249.629 255.915L250.534 259.788L226.535 265.4L225.628 261.528Z" fill="#17282F"/>
<path d="M287.526 121.32V121.076H220.576V54.3705H287.282V121.32H287.526H287.77V53.8819H220.088V121.564H287.77V121.32H287.526Z" fill="#17282F"/>
<path d="M284.121 117.859V117.615H223.806V57.5451H283.877V117.859H284.121H284.365V57.0565H223.317V118.104H284.365V117.859H284.121Z" fill="#17282F"/>
<path d="M223.735 117.779L284.293 57.2209L283.948 56.8759L223.39 117.433" fill="#17282F"/>
<path d="M284.293 117.433L223.735 56.8759L223.39 57.2209L283.948 117.779" fill="#17282F"/>
<path d="M282.054 198.221H174.813C165.203 198.221 157.413 190.43 157.413 180.821V123.395C157.413 113.786 165.203 105.995 174.813 105.995H282.054C291.664 105.995 299.453 113.786 299.453 123.395V180.821C299.453 190.43 291.664 198.221 282.054 198.221Z" fill="#406FBF"/>
<path d="M178.632 155.923V129.609H194.761V155.444C194.761 162.757 197.564 165.491 202.074 165.491C206.584 165.491 209.387 162.757 209.387 155.444V129.609H225.243V155.923C225.243 170.276 216.632 178.545 201.937 178.545C187.243 178.545 178.632 170.276 178.632 155.923Z" fill="white"/>
<path d="M262.212 177.451L253.943 164.671L245.878 177.451H227.492L244.784 153.325L228.108 129.609H246.219L254.352 141.638L262.28 129.609H279.641L263.033 152.711L280.665 177.451H262.212Z" fill="white"/>
<path d="M278.238 221.25H258.641C254.905 221.25 251.877 218.222 251.877 214.485C251.877 210.75 254.905 207.722 258.641 207.722H278.238C281.974 207.722 285.003 210.75 285.003 214.485C285.003 218.222 281.974 221.25 278.238 221.25Z" fill="#406FBF"/>
<path d="M265.954 214.486C265.954 218.374 262.803 221.525 258.916 221.525C255.028 221.525 251.877 218.374 251.877 214.486C251.877 210.599 255.028 207.448 258.916 207.448C262.803 207.448 265.954 210.599 265.954 214.486Z" fill="#17282F"/>
<path d="M373.019 126.812C369.977 125.139 367.372 122.435 366.756 119.147C366.272 116.554 366.898 113.472 364.925 111.622C363.557 110.341 361.39 110.176 359.869 109.059C357.165 107.072 358.461 99.1988 358.172 95.9617C357.773 91.5031 354.574 91.2295 350.99 88.3246L333.369 80.2839C325.909 81.093 319.157 92.0063 318.696 99.6219C318.438 103.868 319.36 108.28 317.879 112.295C316.932 114.861 315.075 117.031 313.886 119.505C311.952 123.524 311.882 128.172 312.814 132.501C313.746 136.829 315.621 140.916 317.484 144.965C318.192 146.505 318.975 148.131 320.454 149.053C321.617 149.777 323.052 149.962 324.435 150.098C337.005 151.332 349.848 149.992 361.836 146.195C366.565 144.697 371.646 142.358 373.31 137.894C370.371 135.262 368.023 132.04 366.464 128.501C368.605 129.244 370.382 130.682 372.253 131.918C374.125 133.155 376.274 134.245 378.551 134.121C380.827 133.997 383.124 132.217 382.957 130.058C379.537 129.281 376.062 128.485 373.019 126.812Z" fill="#17282F"/>
<path d="M337.028 72.0648C335.937 71.1522 334.524 70.6988 333.112 70.5268C331.451 70.3246 329.709 70.4985 328.226 71.2704C326.743 72.0423 325.554 73.466 325.3 75.1193C325.028 76.8839 325.874 78.7297 327.284 79.8241C328.694 80.9184 330.594 81.2917 332.354 80.9966L334.577 80.341C335.51 79.8377 336.437 79.2954 337.199 78.5577C337.961 77.821 338.553 76.8654 338.676 75.812C338.84 74.4001 338.118 72.9774 337.028 72.0648Z" fill="#17282F"/>
<path d="M329.931 106.478L339.957 116.596L342.77 118.285C342.141 119.777 341.601 121.313 341.372 122.801C340.932 125.426 341.878 126.337 344.233 128.373C345.233 129.238 343.411 153.628 342.717 156.301L326.135 128.423C331.416 124.755 331.077 112.682 329.931 106.478Z" fill="#F9ACAF"/>
<path d="M341.3 123.324C341.317 123.157 341.341 122.983 341.372 122.801C341.483 122.087 341.663 121.363 341.892 120.637C341.675 121.366 341.525 122.117 341.3 123.324Z" fill="#111D23"/>
<path d="M341.29 123.379C338.755 121.873 335.993 119.352 335.847 116.435C337.851 118.07 340.052 119.105 342.255 119.584C342.109 119.961 341.994 120.297 341.892 120.638C341.663 121.364 341.483 122.088 341.372 122.802C341.341 122.984 341.318 123.158 341.3 123.325C341.297 123.343 341.294 123.36 341.29 123.379Z" fill="#C3888A"/>
<path d="M327.989 95.0704C328.933 105.372 329.115 109.741 334.431 115.142C342.427 123.267 354.729 120.534 356.847 110.323C358.753 101.132 356.889 85.8298 346.776 81.5003C336.812 77.2352 327.046 84.7677 327.989 95.0704Z" fill="#F9ACAF"/>
<path d="M341.332 98.4235C341.381 99.5139 341.973 100.408 342.65 100.422C343.327 100.436 343.835 99.5638 343.784 98.4743C343.734 97.3838 343.143 96.4888 342.466 96.4751C341.789 96.4614 341.281 97.333 341.332 98.4235Z" fill="#17282F"/>
<path d="M351.491 98.3933C351.542 99.4496 352.131 100.317 352.806 100.332C353.482 100.346 353.987 99.5013 353.937 98.4441C353.886 97.3878 353.297 96.5211 352.621 96.5065C351.945 96.4918 351.439 97.338 351.491 98.3933Z" fill="#17282F"/>
<path d="M339.182 94.6259C339.313 94.6405 339.446 94.6024 339.549 94.5086C341.136 93.039 342.923 93.5549 342.943 93.5618C343.208 93.639 343.476 93.4885 343.536 93.2178C343.596 92.9481 343.428 92.6648 343.16 92.5837C343.066 92.5563 340.824 91.9056 338.855 93.7308C338.659 93.9126 338.655 94.234 338.846 94.449C338.938 94.5526 339.059 94.6122 339.182 94.6259Z" fill="#17282F"/>
<path d="M354.908 93.2234C355.012 93.1882 355.098 93.111 355.144 92.9977C355.237 92.7641 355.122 92.4681 354.888 92.3362C352.534 91.0132 350.788 92.0186 350.714 92.0636C350.507 92.1867 350.457 92.4788 350.603 92.7172C350.749 92.9547 351.034 93.0475 351.241 92.9254C351.308 92.8853 352.675 92.128 354.548 93.1804C354.669 93.2488 354.798 93.2605 354.908 93.2234Z" fill="#17282F"/>
<path d="M348.728 97.89C348.728 97.89 350.339 101.747 352.157 104.15C352.475 104.571 352.278 105.183 351.784 105.366C350.512 105.834 349.023 105.41 349.023 105.41L348.728 97.89Z" fill="#F46C75"/>
<path d="M342.078 96.5204L344.443 95.9615C344.443 95.9615 343.15 97.7251 342.078 96.5204Z" fill="#17282F"/>
<path d="M352.377 96.5301L354.742 95.9712C354.742 95.9712 353.449 97.7349 352.377 96.5301Z" fill="#17282F"/>
<path d="M331.564 98.6288C331.564 98.6288 340.202 97.6468 336.604 84.1529C336.604 84.1529 346.775 81.501 354.887 92.3372C356.18 94.0628 356.951 96.9423 358.107 99.4251C358.107 99.4251 360.049 79.8243 342.656 78.2179C325.291 76.6125 321.877 101.027 330.349 109.242C330.349 109.242 328.274 103.635 331.564 98.6288Z" fill="#17282F"/>
<path d="M348.728 108.055C347.942 109.348 346.974 111.84 346.974 111.84C346.757 111.796 346.539 111.752 346.325 111.695C343.397 111.019 342.292 109.632 341.956 108.298C341.775 107.567 341.832 106.846 341.947 106.273C342.073 105.61 342.298 105.161 342.298 105.161C343.608 106.549 346.283 107.414 347.733 107.808C348.338 107.98 348.728 108.055 348.728 108.055Z" fill="#17282F"/>
<path d="M348.092 107.813L347.518 108.98C344.6 108.297 342.65 107.384 341.969 106.19C342.102 105.487 342.342 105.012 342.342 105.012C343.727 106.481 346.558 107.396 348.092 107.813Z" fill="white"/>
<path d="M346.603 111.928C343.503 111.212 342.334 109.743 341.979 108.332C343.024 108.621 344.249 109.099 345.241 109.884C346.002 110.481 346.393 111.221 346.603 111.928Z" fill="#F14553"/>
<path d="M324.871 103.466C326.088 105.578 328.065 106.905 329.878 107.36C332.605 108.043 334.013 103.66 333.083 100.928C332.244 98.4687 329.565 96.8408 326.911 97.3772C324.297 97.9049 323.48 101.05 324.871 103.466Z" fill="#F9ACAF"/>
<path d="M330.634 103.283C330.443 103.283 330.282 103.135 330.269 102.941C330.212 102.066 329.788 101.207 329.127 100.629C328.521 100.096 327.705 99.791 326.895 99.791C326.894 99.791 326.893 99.791 326.892 99.791L326.687 99.7969C326.679 99.7979 326.67 99.7979 326.662 99.7979C326.471 99.7979 326.309 99.6493 326.297 99.4549C326.284 99.2526 326.437 99.0787 326.64 99.066L326.892 99.0582C327.883 99.0592 328.863 99.4236 329.611 100.078C330.42 100.79 330.927 101.818 331 102.892C331.014 103.095 330.861 103.27 330.659 103.283C330.651 103.283 330.643 103.283 330.634 103.283Z" fill="#C3888A"/>
<path d="M356.513 129.34C356.513 129.34 363.005 128.627 368.524 135.908C374.043 143.187 383.887 155.543 383.887 155.543L397.246 135.908L415.996 133.925C415.996 133.925 416.7 136.24 412.95 137.838C409.199 139.437 402.168 141.269 402.168 141.269C402.168 141.269 393.128 169.203 386.281 171.547C379.434 173.89 363.827 156.81 363.827 156.81L356.513 129.34Z" fill="#F9ACAF"/>
<path d="M377.291 249.648C377.291 249.648 391.945 304.079 388.624 321.613C385.302 339.147 321.06 404.039 321.06 404.039L312.59 398.857C312.59 398.857 332.346 359.617 343.471 346.267C354.597 332.917 359.451 329.534 361.919 319.298C364.386 309.063 348.896 261.23 348.896 261.23L377.291 249.648Z" fill="#F9ACAF"/>
<path d="M342.798 381.57L342.802 381.246C343.599 380.386 344.408 379.51 345.223 378.623C344.407 379.649 343.599 380.629 342.798 381.57Z" fill="#C3C5C2"/>
<path d="M322.96 402.105C322.097 397.78 320.538 390.539 319.848 384.953C321.114 382.921 322.44 380.778 323.811 378.554C324.516 385.887 325.522 392.483 326.6 398.173C325.33 399.467 324.114 400.764 322.96 402.105ZM342.802 381.247L343.277 346.59C343.341 346.482 343.407 346.374 343.472 346.267C343.704 351.675 345.226 378.623 345.226 378.623C345.225 378.623 345.224 378.625 345.223 378.625C344.408 379.512 343.599 380.387 342.802 381.247Z" fill="#C3888A"/>
<path d="M308.961 263.189C308.961 263.189 316.707 318.205 318.443 328.022C320.179 337.838 321.288 351.086 323.716 377.558C326.144 404.031 332.537 421.181 332.537 421.181L342.25 421.506L344.527 255.225L308.961 263.189Z" fill="#F9ACAF"/>
<path d="M323.565 403.147L321.436 399.758C320.954 398.991 320.121 398.525 319.218 398.46C315.321 398.183 315.407 396.08 316.581 392.378C315.89 390.928 314.11 391.539 313.624 391.69L302.816 394.946C301.908 395.21 301.386 396.159 301.649 397.067C301.696 397.228 301.767 397.382 301.858 397.523C304.444 401.639 305.666 403.586 308.885 408.709L318.726 424.374C321.41 428.645 326.27 426.827 325.562 424.817C322.341 415.809 321.15 408.744 321.916 404.854C322.033 404.147 322.627 404.424 323.565 403.147Z" fill="#406FBF"/>
<path d="M322.945 426.979C321.566 426.979 319.928 426.287 318.726 424.375L308.885 408.709C305.666 403.587 304.444 401.639 301.858 397.524C301.767 397.382 301.696 397.229 301.649 397.067C301.603 396.908 301.581 396.747 301.581 396.588C301.581 395.847 302.068 395.164 302.816 394.946L313.624 391.69C313.86 391.616 314.406 391.433 314.981 391.433C315.587 391.433 316.227 391.636 316.581 392.378C316.155 393.724 315.871 394.857 315.871 395.77C315.87 397.367 316.736 398.284 319.218 398.461C320.121 398.525 320.954 398.991 321.436 399.758L323.565 403.147C322.627 404.424 322.033 404.147 321.916 404.854C321.766 405.614 321.691 406.495 321.691 407.488C321.693 411.578 322.97 417.568 325.562 424.817C325.61 424.952 325.633 425.086 325.632 425.217C325.631 426.167 324.44 426.979 322.945 426.979Z" fill="#3563B7"/>
<path d="M328.436 407.809C328.51 407.903 328.518 408.034 328.455 408.136C328.307 408.481 328.018 408.744 327.661 408.862C326.302 409.268 323.851 407.982 322.559 407.217C324.824 407.073 327.951 407.117 328.436 407.809ZM327.838 409.329C328.337 409.19 328.741 408.82 328.925 408.336C329.053 408.087 329.029 407.786 328.861 407.561C327.987 406.295 322.484 406.773 321.863 406.837L321.691 406.917C321.613 407.012 321.625 407.152 321.719 407.23C322.774 407.925 323.899 408.51 325.075 408.972C325.934 409.382 326.903 409.507 327.838 409.329Z" fill="#17282F"/>
<path d="M326.749 404.129C327.209 404.354 327.147 404.526 327.124 404.586C326.985 405.385 324.133 406.526 322.303 406.774C323.017 405.812 324.949 403.458 326.582 404.055L326.749 404.129ZM321.861 407.336C323.487 407.264 327.293 406.027 327.582 404.741C327.653 404.474 327.581 404.1 326.974 403.78C324.505 402.543 321.708 406.765 321.637 406.962L321.617 407.205L321.765 407.259L321.861 407.336Z" fill="#17282F"/>
<path d="M322.616 406.985C321.674 405.862 320.233 405.188 318.767 405.185C318.632 405.185 318.522 405.294 318.522 405.429C318.522 405.564 318.631 405.673 318.767 405.673C320.083 405.673 321.397 406.289 322.241 407.299C322.327 407.402 322.482 407.416 322.585 407.33C322.689 407.243 322.703 407.089 322.616 406.986" fill="#040606"/>
<path d="M322.354 410.087C321.412 408.963 319.972 408.289 318.505 408.286C318.37 408.286 318.261 408.396 318.26 408.53C318.26 408.665 318.369 408.775 318.504 408.775C319.82 408.775 321.135 409.39 321.979 410.401C322.066 410.504 322.22 410.518 322.324 410.432C322.426 410.345 322.441 410.191 322.354 410.087Z" fill="#040606"/>
<path d="M322.666 413.547C321.725 412.422 320.284 411.748 318.818 411.745C318.683 411.745 318.573 411.855 318.573 411.989C318.573 412.124 318.683 412.234 318.818 412.234C320.134 412.235 321.449 412.849 322.292 413.86C322.378 413.963 322.533 413.977 322.636 413.891C322.74 413.804 322.753 413.651 322.666 413.547Z" fill="#040606"/>
<path d="M310.109 271.311C310.106 271.29 310.104 271.269 310.101 271.245C310.104 271.267 310.106 271.289 310.109 271.311Z" fill="#C3C5C2"/>
<path d="M310.11 271.311C310.107 271.289 310.104 271.267 310.101 271.245C309.97 270.326 309.497 266.982 309.497 266.982L319.37 267.166L344.357 267.63L344.326 269.902L310.11 271.311Z" fill="#C3888A"/>
<path d="M351.412 269.305L350.766 267.188C350.97 267.85 351.186 268.557 351.412 269.305Z" fill="#C3C5C2"/>
<path d="M351.413 269.307L351.412 269.304C351.186 268.556 350.97 267.849 350.766 267.187L350.757 267.156L379.435 258.044L379.947 260.136L351.413 269.307Z" fill="#C3888A"/>
<path d="M343.693 415.205H339.905C339.048 415.205 338.256 415.639 337.75 416.33C335.566 419.313 333.924 418.186 331.549 415.381C330.039 415.205 329.632 416.939 329.509 417.404L326.678 427.702C326.432 428.562 326.929 429.459 327.79 429.706C327.943 429.749 328.101 429.77 328.26 429.767C332.859 429.767 335.035 429.767 340.759 429.767H358.266C363.038 429.767 364.027 424.958 362.061 424.513C353.221 422.56 346.962 419.958 344.23 417.387C343.724 416.937 344.244 416.6 343.693 415.205Z" fill="#406FBF"/>
<path d="M349.878 413.649C349.992 413.637 350.1 413.696 350.151 413.798C350.352 414.09 350.418 414.455 350.332 414.8C349.974 416.093 347.71 417.409 346.447 418.06C347.471 416.172 349.081 413.689 349.878 413.649ZM350.796 414.893C350.936 414.422 350.843 413.914 350.547 413.523C350.412 413.294 350.159 413.162 349.894 413.183C348.441 413.246 346.053 417.896 345.792 418.427L345.77 418.605C345.805 418.715 345.924 418.776 346.034 418.74C347.123 418.245 348.157 417.637 349.119 416.928C349.88 416.446 350.468 415.733 350.796 414.893Z" fill="#17282F"/>
<path d="M346.083 413.15C346.494 412.894 346.6 413.031 346.638 413.08C347.207 413.593 346.686 416.453 345.964 418.043C345.552 416.987 344.638 414.254 345.938 413.247L346.083 413.15ZM346.192 418.68C346.952 417.341 347.877 413.669 346.992 412.791C346.813 412.6 346.477 412.469 345.916 412.794C343.683 414.151 345.658 418.516 345.779 418.673L345.964 418.811L346.082 418.72L346.192 418.68Z" fill="#17282F"/>
<path d="M346.289 417.885C344.91 418.075 343.642 418.892 342.899 420.069C342.827 420.183 342.862 420.334 342.975 420.406C343.09 420.478 343.241 420.443 343.312 420.329C343.973 419.279 345.125 418.537 346.355 418.37C346.489 418.351 346.582 418.228 346.564 418.094C346.546 417.961 346.422 417.868 346.289 417.885Z" fill="#17282F"/>
<path d="M348.643 419.657C347.264 419.846 345.996 420.663 345.254 421.84C345.181 421.954 345.216 422.105 345.33 422.177C345.444 422.249 345.595 422.215 345.667 422.101C346.327 421.049 347.479 420.308 348.71 420.141C348.843 420.122 348.936 419.999 348.919 419.865C348.9 419.732 348.777 419.638 348.643 419.657Z" fill="#17282F"/>
<path d="M351.571 421.147C350.192 421.337 348.924 422.153 348.181 423.331C348.109 423.445 348.143 423.596 348.258 423.668C348.372 423.739 348.522 423.705 348.595 423.591C349.255 422.539 350.407 421.798 351.638 421.632C351.771 421.613 351.864 421.49 351.847 421.356C351.828 421.222 351.705 421.129 351.571 421.147Z" fill="#17282F"/>
<path d="M380.824 248.159L368.31 216.511L359.972 198.294L360.141 190.107L317.753 189.68C317.409 190.49 317.064 191.299 316.732 192.122C315.553 195.049 316.183 195.267 315.251 198.259C315.251 198.259 311.658 208.384 309.753 222.821C307.449 240.28 306.368 257.381 306.753 263.751C306.873 265.794 306.993 266.935 306.993 266.935L346.683 267.674L346.999 262.862L347.557 257.554L348.563 261.357L349.849 267.446L384.135 256.552L380.824 248.159Z" fill="#406FBF"/>
<path d="M346.683 267.674L344.357 267.63L319.369 267.166L306.992 266.935C306.992 266.935 306.873 265.794 306.753 263.751C306.702 262.905 306.677 261.87 306.677 260.669C306.677 252.832 307.755 237.961 309.753 222.821C311.658 208.384 315.251 198.259 315.251 198.259C315.551 197.297 315.689 196.622 315.778 196.051C317.99 194.697 320.234 192.704 320.234 192.704C320.234 192.704 320.972 193.757 323.08 193.968C323.354 193.996 323.586 194.007 323.781 194.007C325.084 194.007 324.765 193.477 324.765 193.477L322.025 191.58C322.025 191.58 325.129 192.637 326.086 192.637C326.116 192.637 326.144 192.636 326.169 192.634C327.012 192.563 327.083 191.018 327.083 191.018C327.925 190.878 327.925 190.246 327.925 190.246L327.521 189.779L360.14 190.107L359.972 198.294L368.31 216.511L380.824 248.159L384.135 256.552L379.436 258.045L350.757 267.157L349.848 267.446L348.563 261.357L347.558 257.558L349.025 236.701L352.892 218.754L347.558 236.701V257.558L347.557 257.554L346.999 262.862L346.683 267.674ZM329.569 199.08C325.327 203.007 321.084 205.677 316.842 207.09C316.842 207.09 324.646 206.941 329.569 199.08Z" fill="#90B4E3"/>
<path d="M347.559 257.557V236.7L352.893 218.753L349.025 236.7L347.559 257.557Z" fill="#7192D2"/>
<path d="M351.181 194.853C351.181 196.19 350.098 197.273 348.761 197.273C347.424 197.273 346.341 196.19 346.341 194.853C346.341 193.516 347.424 192.433 348.761 192.433C350.098 192.433 351.181 193.516 351.181 194.853Z" fill="#406FBF"/>
<path d="M316.842 207.09C321.084 205.677 325.327 203.006 329.57 199.079C324.646 206.941 316.842 207.09 316.842 207.09Z" fill="#7192D2"/>
<path d="M360.14 190.105L317.753 189.678C317.753 189.678 318.344 176.004 314.194 155.182C313.463 151.524 312.59 147.627 311.535 143.547C310.606 139.987 311.747 135.323 310.537 131.496C310.537 131.496 310.571 131.141 315.032 129.917L315.102 129.889C319.59 128.651 326.279 127.494 335.48 127.157C345.117 126.805 350.532 129.43 355.299 128.995L359.673 129.551C359.673 129.551 364.431 141.968 363.986 155.254C363.638 165.669 360.54 172.52 360.14 190.105Z" fill="#406FBF"/>
<path d="M355.299 128.995C355.116 131.288 354.445 138.961 339.293 138.848C320.793 138.708 318.444 129.097 318.444 129.097C318.415 129.111 321.933 128.125 318.444 129.097C322.931 127.859 326.077 126.784 335.278 126.447C344.914 126.095 347.599 127.849 355.299 128.995Z" fill="#F9ACAF"/>
<path d="M312.177 130.754C312.177 130.754 309.349 131.176 304.809 136.791C300.739 141.82 282.347 162.609 282.981 169.617C283.547 175.88 308.961 196.004 308.961 196.004L313.691 190.187L297.795 169.754L313.42 150.543L312.177 130.754Z" fill="#F9ACAF"/>
<path d="M312.543 191.017C312.543 191.017 316.336 185.679 317.951 185.327C319.567 184.976 326.942 185.889 327.082 186.943C327.223 187.997 326.099 188.135 326.099 188.135L327.925 190.244C327.925 190.244 327.925 190.876 327.082 191.017C327.082 191.017 327.012 192.562 326.169 192.632C325.327 192.703 322.025 191.579 322.025 191.579L324.765 193.475C324.765 193.475 325.186 194.177 323.079 193.967C320.972 193.756 320.234 192.703 320.234 192.703C320.234 192.703 315.086 197.273 312.698 197.273C310.31 197.273 308.961 196.003 308.961 196.003L312.543 191.017Z" fill="#F9ACAF"/>
<path d="M297.795 169.754L298.764 168.562C298.789 168.578 298.813 168.594 298.838 168.611L297.795 169.754Z" fill="#2D5BB2"/>
<path d="M297.795 169.754C297.795 169.754 296.115 168.484 293.555 168.484C293.23 168.484 292.891 168.504 292.538 168.55C292.538 168.55 293.784 167.571 295.623 167.571C296.548 167.571 297.622 167.818 298.764 168.562L297.795 169.754Z" fill="#A57577"/>
<path d="M311.044 193.105L312.126 188.173L313.42 189.837C312.892 190.529 312.544 191.017 312.544 191.017L311.047 193.102L311.044 193.105Z" fill="#A57577"/>
<path d="M311.047 193.102L312.544 191.017C312.544 191.017 312.892 190.529 313.42 189.837L311.047 193.102Z" fill="#A57577"/>
<path d="M399.101 118.738C397.701 118.738 396.479 118.265 395.435 117.32C394.392 116.374 393.869 115.053 393.869 113.352C393.869 111.845 394.374 110.576 395.384 109.547C396.393 108.518 397.632 108.003 399.101 108.003C400.547 108.003 401.762 108.518 402.749 109.547C403.736 110.576 404.229 111.845 404.229 113.352C404.229 115.028 403.713 116.344 402.681 117.302C401.648 118.259 400.455 118.738 399.101 118.738Z" fill="white"/>
<path d="M382.981 80.7752C382.981 78.5611 383.662 76.3176 385.026 74.0449C386.389 71.7721 388.378 69.8902 390.993 68.3981C393.607 66.9071 396.657 66.1606 400.143 66.1606C403.384 66.1606 406.244 66.784 408.724 68.0308C411.204 69.2775 413.121 70.9738 414.473 73.1186C415.825 75.2633 416.501 77.5937 416.501 80.1108C416.501 82.0933 416.115 83.8297 415.344 85.3207C414.573 86.8128 413.657 88.1006 412.596 89.1852C411.535 90.2688 409.629 92.0921 406.881 94.657C406.121 95.3791 405.512 96.0152 405.053 96.5624C404.596 97.1106 404.255 97.6118 404.031 98.0662C403.808 98.5205 403.635 98.9749 403.512 99.4292C403.389 99.8846 403.205 100.683 402.958 101.825C402.534 104.249 401.205 105.461 398.97 105.461C397.808 105.461 396.83 105.065 396.037 104.273C395.244 103.48 394.847 102.303 394.847 100.741C394.847 98.7824 395.138 97.0871 395.719 95.6537C396.299 94.2193 397.07 92.9608 398.032 91.8771C398.992 90.7935 400.288 89.5057 401.92 88.0136C403.35 86.7082 404.383 85.7233 405.02 85.0589C405.657 84.3944 406.194 83.6547 406.629 82.8389C407.065 82.023 407.283 81.1377 407.283 80.1811C407.283 78.3168 406.618 76.7436 405.289 75.4607C403.959 74.1797 402.244 73.5377 400.143 73.5377C397.685 73.5377 395.875 74.1846 394.713 75.4783C393.551 76.772 392.568 78.6783 391.764 81.1954C391.004 83.8297 389.562 85.1468 387.439 85.1468C386.187 85.1468 385.132 84.6866 384.271 83.7652C383.411 82.8447 382.981 81.8481 382.981 80.7752Z" fill="white"/>
</g>
<defs>
<clipPath id="clip0_534_14431">
<rect width="488.556" height="400" fill="white" transform="translate(91 36)"/>
</clipPath>
</defs>
</svg>
